solid Untitled-5653588b
facet normal 0.9999999999999865 -5.858320829477943e-08 1.5469785118006704e-07
  outer loop
    vertex 22.00000939157276 -52.85180202672562 2.9999915368657817
    vertex 22.000008939728296 -51.351801435816924 1.999991575403893
    vertex 22.000008873231558 -51.35180085140477 2.999991575403742
  endloop
endfacet
facet normal 0.9999999999999865 -5.858320829477943e-08 1.5469785118006704e-07
  outer loop
    vertex 22.000008939728296 -51.351801435816924 1.999991575403893
    vertex 22.00000939157276 -52.85180202672562 2.9999915368657817
    vertex 22.000009050289457 -52.85180194964996 -8.463133898439779e-06
  endloop
endfacet
facet normal 0.9999999999999865 -5.858320829477943e-08 1.5469785118006704e-07
  outer loop
    vertex 22.000008939728296 -51.351801435816924 1.999991575403893
    vertex 22.000009050289457 -52.85180194964996 -8.463133898439779e-06
    vertex 22.000010221952724 -42.851808008769396 -8.20621524560139e-06
  endloop
endfacet
facet normal 0.9999999999999865 -5.858320829477943e-08 1.5469785118006704e-07
  outer loop
    vertex 22.000009401569354 -44.351807379324065 2.999991755246811
    vertex 22.000010221952724 -42.851808008769396 -8.20621524560139e-06
    vertex 22.000009021736563 -42.85180808584492 2.9999917937844045
  endloop
endfacet
facet normal 0.9999999999999865 -5.858320829477943e-08 1.5469785118006704e-07
  outer loop
    vertex 22.000010221952724 -42.851808008769396 -8.20621524560139e-06
    vertex 22.000009401569354 -44.351807379324065 2.999991755246811
    vertex 22.00000975989239 -44.35180749493645 1.9999917552469026
  endloop
endfacet
facet normal 0.9999999999999865 -5.858320829477943e-08 1.5469785118006704e-07
  outer loop
    vertex 22.000010221952724 -42.851808008769396 -8.20621524560139e-06
    vertex 22.00000975989239 -44.35180749493645 1.9999917552469026
    vertex 22.000008939728296 -51.351801435816924 1.999991575403893
  endloop
endfacet
facet normal -1.87818677485179e-07 -0.9999999999999495 2.5691624603952413e-07
  outer loop
    vertex 4.999997900148039 -57.85179833924117 2.999992636555823
    vertex 17.00000846445754 -57.851801363816556 -8.022787672995468e-06
    vertex 17.00000880574084 -57.85180144089225 2.9999919772119847
  endloop
endfacet
facet normal -1.87818677485179e-07 -0.9999999999999495 2.5691624603952413e-07
  outer loop
    vertex 17.00000846445754 -57.851801363816556 -8.022787672995468e-06
    vertex 4.999997900148039 -57.85179833924117 2.999992636555823
    vertex 4.9999991003626905 -57.85179995781457 -4.088487330147772e-06
  endloop
endfacet
facet normal 1.1716654231378817e-07 0.9999999999999601 -2.569165651891815e-07
  outer loop
    vertex 5.000001443694569 -37.85180601693886 -1.487898439000157e-05
    vertex 17.000009607568973 -37.85180750001272 2.9999899218835204
    vertex 17.00001080778511 -37.851807422937235 -1.0078116106909673e-05
  endloop
endfacet
facet normal 1.1716654231378817e-07 0.9999999999999601 -2.569165651891815e-07
  outer loop
    vertex 17.000009607568973 -37.85180750001272 2.9999899218835204
    vertex 5.000001443694569 -37.85180601693886 -1.487898439000157e-05
    vertex 5.0000002434791515 -37.85180439836449 2.9999837079728104
  endloop
endfacet
facet normal 1.1860926203398397e-07 -3.082999213896337e-07 -0.9999999999999456
  outer loop
    vertex 22.000010221952724 -42.851808008769396 -8.20621524560139e-06
    vertex 5.000001443694569 -37.85180601693886 -1.487898439000157e-05
    vertex 17.00001080778511 -37.851807422937235 -1.0078116106909673e-05
  endloop
endfacet
facet normal 1.1860926203398397e-07 -3.082999213896337e-07 -0.9999999999999456
  outer loop
    vertex 5.000001443694569 -37.85180601693886 -1.487898439000157e-05
    vertex 22.000010221952724 -42.851808008769396 -8.20621524560139e-06
    vertex 11.440002908190106 -40.20973286679991 -1.2640972021685236e-05
  endloop
endfacet
facet normal 1.1860926203398397e-07 -3.082999213896337e-07 -0.9999999999999456
  outer loop
    vertex 5.000001443694569 -37.85180601693886 -1.487898439000157e-05
    vertex 11.440002908190106 -40.20973286679991 -1.2640972021685236e-05
    vertex 11.000010538302815 -40.15180671993895 -1.2718841446032747e-05
  endloop
endfacet
facet normal 1.1860926203398397e-07 -3.082999213896337e-07 -0.9999999999999456
  outer loop
    vertex 11.440002908190106 -40.20973286679991 -1.2640972021685236e-05
    vertex 22.000010221952724 -42.851808008769396 -8.20621524560139e-06
    vertex 11.850010511617315 -40.379563633097035 -1.253864480666722e-05
  endloop
endfacet
facet normal 1.1860926203398397e-07 -3.082999213896337e-07 -0.9999999999999456
  outer loop
    vertex 11.850010511617315 -40.379563633097035 -1.253864480666722e-05
    vertex 22.000010221952724 -42.851808008769396 -8.20621524560139e-06
    vertex 12.202092007980474 -40.64972533276551 -1.2418833410654528e-05
  endloop
endfacet
facet normal 1.1860926203398397e-07 -3.082999213896337e-07 -0.9999999999999456
  outer loop
    vertex 12.202092007980474 -40.64972533276551 -1.2418833410654528e-05
    vertex 22.000010221952724 -42.851808008769396 -8.20621524560139e-06
    vertex 12.472253625144704 -41.00180689243643 -1.2289702783283007e-05
  endloop
endfacet
facet normal 1.1860926203398397e-07 -3.082999213896337e-07 -0.9999999999999456
  outer loop
    vertex 12.472253625144704 -41.00180689243643 -1.2289702783283007e-05
    vertex 22.000010221952724 -42.851808008769396 -8.20621524560139e-06
    vertex 12.64208429536346 -41.41181453566076 -1.216005283335153e-05
  endloop
endfacet
facet normal 1.1860926203398397e-07 -3.082999213896337e-07 -0.9999999999999456
  outer loop
    vertex 12.64208429536346 -41.41181453566076 -1.216005283335153e-05
    vertex 22.000010221952724 -42.851808008769396 -8.20621524560139e-06
    vertex 12.700010339119537 -41.85180691912201 -1.2038719014983988e-05
  endloop
endfacet
facet normal 1.1860926203398397e-07 -3.082999213896337e-07 -0.9999999999999456
  outer loop
    vertex 12.700010339119537 -41.85180691912201 -1.2038719014983988e-05
    vertex 22.000010221952724 -42.851808008769396 -8.20621524560139e-06
    vertex 12.642084192258645 -42.291799289009354 -1.1933970124139437e-05
  endloop
endfacet
facet normal 1.1860926203398397e-07 -3.082999213896337e-07 -0.9999999999999456
  outer loop
    vertex 12.642084192258645 -42.291799289009354 -1.1933970124139437e-05
    vertex 22.000010221952724 -42.851808008769396 -8.20621524560139e-06
    vertex 12.472253425961652 -42.701806892436366 -1.1852944543955245e-05
  endloop
endfacet
facet normal 1.1860926203398397e-07 -3.082999213896337e-07 -0.9999999999999456
  outer loop
    vertex 12.472253425961652 -42.701806892436366 -1.1852944543955245e-05
    vertex 22.000010221952724 -42.851808008769396 -8.20621524560139e-06
    vertex 12.20209172629307 -43.053888388799415 -1.180116415372967e-05
  endloop
endfacet
facet normal 1.1860926203398397e-07 -3.082999213896337e-07 -0.9999999999999456
  outer loop
    vertex 12.20209172629307 -43.053888388799415 -1.180116415372967e-05
    vertex 22.000010221952724 -42.851808008769396 -8.20621524560139e-06
    vertex 22.000009050289457 -52.85180194964996 -8.463133898439779e-06
  endloop
endfacet
facet normal 1.1860926203398397e-07 -3.082999213896337e-07 -0.9999999999999456
  outer loop
    vertex 12.20209172629307 -43.053888388799415 -1.180116415372967e-05
    vertex 22.000009050289457 -52.85180194964996 -8.463133898439779e-06
    vertex 11.850010166622027 -43.324050005963905 -1.1782157482700949e-05
  endloop
endfacet
facet normal 1.1860926203398397e-07 -3.082999213896337e-07 -0.9999999999999456
  outer loop
    vertex 11.850010166622027 -43.324050005963905 -1.1782157482700949e-05
    vertex 22.000009050289457 -52.85180194964996 -8.463133898439779e-06
    vertex 11.440002523397842 -43.49388067618258 -1.1797220055548284e-05
  endloop
endfacet
facet normal 1.1860926203398397e-07 -3.082999213896337e-07 -0.9999999999999456
  outer loop
    vertex 11.440002523397842 -43.49388067618258 -1.1797220055548284e-05
    vertex 22.000009050289457 -52.85180194964996 -8.463133898439779e-06
    vertex 11.000010139936592 -43.55180671993872 -1.1845325102383119e-05
  endloop
endfacet
facet normal 1.1860926203398397e-07 -3.082999213896337e-07 -0.9999999999999456
  outer loop
    vertex 11.000010139936592 -43.55180671993872 -1.1845325102383119e-05
    vertex 22.000009050289457 -52.85180194964996 -8.463133898439779e-06
    vertex 11.000009132307042 -52.15180066081947 -1.3625609029313534e-05
  endloop
endfacet
facet normal 1.1860926203398397e-07 -3.082999213896337e-07 -0.9999999999999456
  outer loop
    vertex 11.000009132307042 -52.15180066081947 -1.3625609029313534e-05
    vertex 22.000009050289457 -52.85180194964996 -8.463133898439779e-06
    vertex 11.44000150219429 -52.20972680768024 -1.3547739537286828e-05
  endloop
endfacet
facet normal 1.1860926203398397e-07 -3.082999213896337e-07 -0.9999999999999456
  outer loop
    vertex 11.44000150219429 -52.20972680768024 -1.3547739537286828e-05
    vertex 22.000009050289457 -52.85180194964996 -8.463133898439779e-06
    vertex 11.850009105621542 -52.37955757397744 -1.3445412389948007e-05
  endloop
endfacet
facet normal 1.1860926203398397e-07 -3.082999213896337e-07 -0.9999999999999456
  outer loop
    vertex 11.850009105621542 -52.37955757397744 -1.3445412389948007e-05
    vertex 22.000009050289457 -52.85180194964996 -8.463133898439779e-06
    vertex 12.202090601984724 -52.64971927364586 -1.3325600993935315e-05
  endloop
endfacet
facet normal 1.1860926203398397e-07 -3.082999213896337e-07 -0.9999999999999456
  outer loop
    vertex 12.202090601984724 -52.64971927364586 -1.3325600993935315e-05
    vertex 22.000009050289457 -52.85180194964996 -8.463133898439779e-06
    vertex 12.472252219149002 -53.00180083331713 -1.3196470299237095e-05
  endloop
endfacet
facet normal 1.1860926203398397e-07 -3.082999213896337e-07 -0.9999999999999456
  outer loop
    vertex 12.472252219149002 -53.00180083331713 -1.3196470299237095e-05
    vertex 22.000009050289457 -52.85180194964996 -8.463133898439779e-06
    vertex 17.00000846445754 -57.851801363816556 -8.022787672995468e-06
  endloop
endfacet
facet normal 1.1860926203398397e-07 -3.082999213896337e-07 -0.9999999999999456
  outer loop
    vertex 12.472252219149002 -53.00180083331713 -1.3196470299237095e-05
    vertex 17.00000846445754 -57.851801363816556 -8.022787672995468e-06
    vertex 12.64208288936762 -53.41180847654113 -1.3066820416632318e-05
  endloop
endfacet
facet normal 1.1860926203398397e-07 -3.082999213896337e-07 -0.9999999999999456
  outer loop
    vertex 12.64208288936762 -53.41180847654113 -1.3066820416632318e-05
    vertex 17.00000846445754 -57.851801363816556 -8.022787672995468e-06
    vertex 12.700008933123787 -53.851800860002434 -1.2945486575705045e-05
  endloop
endfacet
facet normal 1.1860926203398397e-07 -3.082999213896337e-07 -0.9999999999999456
  outer loop
    vertex 12.700008933123787 -53.851800860002434 -1.2945486575705045e-05
    vertex 17.00000846445754 -57.851801363816556 -8.022787672995468e-06
    vertex 12.642082786262849 -54.29179322988973 -1.2840737684860492e-05
  endloop
endfacet
facet normal 1.1860926203398397e-07 -3.082999213896337e-07 -0.9999999999999456
  outer loop
    vertex 12.642082786262849 -54.29179322988973 -1.2840737684860492e-05
    vertex 17.00000846445754 -57.851801363816556 -8.022787672995468e-06
    vertex 12.472252019965834 -54.70180083331688 -1.2759712104676301e-05
  endloop
endfacet
facet normal 1.1860926203398397e-07 -3.082999213896337e-07 -0.9999999999999456
  outer loop
    vertex 12.472252019965834 -54.70180083331688 -1.2759712104676301e-05
    vertex 17.00000846445754 -57.851801363816556 -8.022787672995468e-06
    vertex 12.202090320297275 -55.053882329680064 -1.2707931737010458e-05
  endloop
endfacet
facet normal 1.1860926203398397e-07 -3.082999213896337e-07 -0.9999999999999456
  outer loop
    vertex 12.202090320297275 -55.053882329680064 -1.2707931737010458e-05
    vertex 17.00000846445754 -57.851801363816556 -8.022787672995468e-06
    vertex 11.850008760626254 -55.32404394684433 -1.2688925065981737e-05
  endloop
endfacet
facet normal 1.1860926203398397e-07 -3.082999213896337e-07 -0.9999999999999456
  outer loop
    vertex 11.850008760626254 -55.32404394684433 -1.2688925065981737e-05
    vertex 17.00000846445754 -57.851801363816556 -8.022787672995468e-06
    vertex 11.440001117402023 -55.49387461706295 -1.2703987616269341e-05
  endloop
endfacet
facet normal 1.1860926203398397e-07 -3.082999213896337e-07 -0.9999999999999456
  outer loop
    vertex 11.440001117402023 -55.49387461706295 -1.2703987616269341e-05
    vertex 17.00000846445754 -57.851801363816556 -8.022787672995468e-06
    vertex 11.000008733940732 -55.55180066081937 -1.275209266345667e-05
  endloop
endfacet
facet normal 1.1860926203398397e-07 -3.082999213896337e-07 -0.9999999999999456
  outer loop
    vertex 5.000001443694569 -37.85180601693886 -1.487898439000157e-05
    vertex 10.560018154841567 -40.209732763695044 -1.2766946583106507e-05
    vertex 8.578618936772031e-07 -42.85180543110588 -1.4181719546263459e-05
  endloop
endfacet
facet normal 1.1860926203398397e-07 -3.082999213896337e-07 -0.9999999999999456
  outer loop
    vertex 10.560018154841567 -40.209732763695044 -1.2766946583106507e-05
    vertex 5.000001443694569 -37.85180601693886 -1.487898439000157e-05
    vertex 11.000010538302815 -40.15180671993895 -1.2718841446032747e-05
  endloop
endfacet
facet normal 1.1860926203398397e-07 -3.082999213896337e-07 -0.9999999999999456
  outer loop
    vertex 8.578618936772031e-07 -42.85180543110588 -1.4181719546263459e-05
    vertex 10.560018154841567 -40.209732763695044 -1.2766946583106507e-05
    vertex 10.150010511617293 -40.379563433913816 -1.2782009155953843e-05
  endloop
endfacet
facet normal 1.1860926203398397e-07 -3.082999213896337e-07 -0.9999999999999456
  outer loop
    vertex 8.578618936772031e-07 -42.85180543110588 -1.4181719546263459e-05
    vertex 10.150010511617293 -40.379563433913816 -1.2782009155953843e-05
    vertex 9.797928951946318 -40.649725051077986 -1.2763002484925122e-05
  endloop
endfacet
facet normal 1.1860926203398397e-07 -3.082999213896337e-07 -0.9999999999999456
  outer loop
    vertex 8.578618936772031e-07 -42.85180543110588 -1.4181719546263459e-05
    vertex 9.797928951946318 -40.649725051077986 -1.2763002484925122e-05
    vertex 9.52776725227769 -41.001806547441305 -1.2711222027020352e-05
  endloop
endfacet
facet normal 1.1860926203398397e-07 -3.082999213896337e-07 -0.9999999999999456
  outer loop
    vertex 8.578618936772031e-07 -42.85180543110588 -1.4181719546263459e-05
    vertex 9.52776725227769 -41.001806547441305 -1.2711222027020352e-05
    vertex 9.357936485980764 -41.41181415086845 -1.2630196424276429e-05
  endloop
endfacet
facet normal 1.1860926203398397e-07 -3.082999213896337e-07 -0.9999999999999456
  outer loop
    vertex 8.578618936772031e-07 -42.85180543110588 -1.4181719546263459e-05
    vertex 9.357936485980764 -41.41181415086845 -1.2630196424276429e-05
    vertex 9.30001033911965 -41.8518065207557 -1.252544757855134e-05
  endloop
endfacet
facet normal 1.1860926203398397e-07 -3.082999213896337e-07 -0.9999999999999456
  outer loop
    vertex 8.578618936772031e-07 -42.85180543110588 -1.4181719546263459e-05
    vertex 9.30001033911965 -41.8518065207557 -1.252544757855134e-05
    vertex 9.357936382875947 -42.291798904217046 -1.2404113805303262e-05
  endloop
endfacet
facet normal 1.1860926203398397e-07 -3.082999213896337e-07 -0.9999999999999456
  outer loop
    vertex 8.578618936772031e-07 -42.85180543110588 -1.4181719546263459e-05
    vertex 9.357936382875947 -42.291798904217046 -1.2404113805303262e-05
    vertex 9.527767053094658 -42.701806547441194 -1.2274463923050981e-05
  endloop
endfacet
facet normal 1.1860926203398397e-07 -3.082999213896337e-07 -0.9999999999999456
  outer loop
    vertex 8.578618936772031e-07 -42.85180543110588 -1.4181719546263459e-05
    vertex 9.527767053094658 -42.701806547441194 -1.2274463923050981e-05
    vertex 9.797928670258798 -43.05388810711202 -1.2145333160673565e-05
  endloop
endfacet
facet normal 1.1860926203398397e-07 -3.082999213896337e-07 -0.9999999999999456
  outer loop
    vertex 8.578618936772031e-07 -42.85180543110588 -1.4181719546263459e-05
    vertex 9.797928670258798 -43.05388810711202 -1.2145333160673565e-05
    vertex -3.138037241834368e-07 -52.85179937198306 -8.786472648039666e-06
  endloop
endfacet
facet normal 1.1860926203398397e-07 -3.082999213896337e-07 -0.9999999999999456
  outer loop
    vertex -3.138037241834368e-07 -52.85179937198306 -8.786472648039666e-06
    vertex 9.797928670258798 -43.05388810711202 -1.2145333160673565e-05
    vertex 10.15001016662205 -43.324049806780735 -1.2025521741748645e-05
  endloop
endfacet
facet normal 1.1860926203398397e-07 -3.082999213896337e-07 -0.9999999999999456
  outer loop
    vertex -3.138037241834368e-07 -52.85179937198306 -8.786472648039666e-06
    vertex 10.15001016662205 -43.324049806780735 -1.2025521741748645e-05
    vertex 10.560017770049257 -43.49388057307776 -1.1923194685001248e-05
  endloop
endfacet
facet normal 1.1860926203398397e-07 -3.082999213896337e-07 -0.9999999999999456
  outer loop
    vertex -3.138037241834368e-07 -52.85179937198306 -8.786472648039666e-06
    vertex 10.560017770049257 -43.49388057307776 -1.1923194685001248e-05
    vertex 11.000010139936592 -43.55180671993872 -1.1845325102383119e-05
  endloop
endfacet
facet normal 1.1860926203398397e-07 -3.082999213896337e-07 -0.9999999999999456
  outer loop
    vertex -3.138037241834368e-07 -52.85179937198306 -8.786472648039666e-06
    vertex 11.000010139936592 -43.55180671993872 -1.1845325102383119e-05
    vertex 11.000009132307042 -52.15180066081947 -1.3625609029313534e-05
  endloop
endfacet
facet normal 1.1860926203398397e-07 -3.082999213896337e-07 -0.9999999999999456
  outer loop
    vertex -3.138037241834368e-07 -52.85179937198306 -8.786472648039666e-06
    vertex 11.000009132307042 -52.15180066081947 -1.3625609029313534e-05
    vertex 10.560016748845705 -52.20972670457578 -1.3673714166739792e-05
  endloop
endfacet
facet normal 1.1860926203398397e-07 -3.082999213896337e-07 -0.9999999999999456
  outer loop
    vertex -3.138037241834368e-07 -52.85179937198306 -8.786472648039666e-06
    vertex 10.560016748845705 -52.20972670457578 -1.3673714166739792e-05
    vertex 10.15000910562154 -52.37955737479451 -1.3688776739587127e-05
  endloop
endfacet
facet normal 1.1860926203398397e-07 -3.082999213896337e-07 -0.9999999999999456
  outer loop
    vertex -3.138037241834368e-07 -52.85179937198306 -8.786472648039666e-06
    vertex 10.15000910562154 -52.37955737479451 -1.3688776739587127e-05
    vertex 9.797927545950522 -52.6497189919585 -1.3669770068558407e-05
  endloop
endfacet
facet normal 1.1860926203398397e-07 -3.082999213896337e-07 -0.9999999999999456
  outer loop
    vertex -3.138037241834368e-07 -52.85179937198306 -8.786472648039666e-06
    vertex 9.797927545950522 -52.6497189919585 -1.3669770068558407e-05
    vertex 9.527765846282007 -53.00180048832178 -1.3617989610653635e-05
  endloop
endfacet
facet normal 1.1860926203398397e-07 -3.082999213896337e-07 -0.9999999999999456
  outer loop
    vertex -3.138037241834368e-07 -52.85179937198306 -8.786472648039666e-06
    vertex 9.527765846282007 -53.00180048832178 -1.3617989610653635e-05
    vertex 4.9999991003626905 -57.85179995781457 -4.088487330147772e-06
  endloop
endfacet
facet normal 1.1860926203398397e-07 -3.082999213896337e-07 -0.9999999999999456
  outer loop
    vertex 4.9999991003626905 -57.85179995781457 -4.088487330147772e-06
    vertex 9.527765846282007 -53.00180048832178 -1.3617989610653635e-05
    vertex 9.3579350799849 -53.411808091749 -1.353696409814864e-05
  endloop
endfacet
facet normal 1.1860926203398397e-07 -3.082999213896337e-07 -0.9999999999999456
  outer loop
    vertex 4.9999991003626905 -57.85179995781457 -4.088487330147772e-06
    vertex 9.3579350799849 -53.411808091749 -1.353696409814864e-05
    vertex 9.300008933123896 -53.85180046163635 -1.3432215139624892e-05
  endloop
endfacet
facet normal 1.1860926203398397e-07 -3.082999213896337e-07 -0.9999999999999456
  outer loop
    vertex 4.9999991003626905 -57.85179995781457 -4.088487330147772e-06
    vertex 9.300008933123896 -53.85180046163635 -1.3432215139624892e-05
    vertex 9.357934976880129 -54.291792845097596 -1.3310881388936546e-05
  endloop
endfacet
facet normal 1.1860926203398397e-07 -3.082999213896337e-07 -0.9999999999999456
  outer loop
    vertex 4.9999991003626905 -57.85179995781457 -4.088487330147772e-06
    vertex 9.357934976880129 -54.291792845097596 -1.3310881388936546e-05
    vertex 9.527765647098839 -54.7018004883217 -1.3181231438652573e-05
  endloop
endfacet
facet normal 1.1860926203398397e-07 -3.082999213896337e-07 -0.9999999999999456
  outer loop
    vertex 4.9999991003626905 -57.85179995781457 -4.088487330147772e-06
    vertex 9.527765647098839 -54.7018004883217 -1.3181231438652573e-05
    vertex 9.797927264263095 -55.05388204799271 -1.3052100698834889e-05
  endloop
endfacet
facet normal 1.1860926203398397e-07 -3.082999213896337e-07 -0.9999999999999456
  outer loop
    vertex 4.9999991003626905 -57.85179995781457 -4.088487330147772e-06
    vertex 9.797927264263095 -55.05388204799271 -1.3052100698834889e-05
    vertex 10.15000876062632 -55.32404374766133 -1.2932289302822196e-05
  endloop
endfacet
facet normal 1.1860926203398397e-07 -3.082999213896337e-07 -0.9999999999999456
  outer loop
    vertex 4.9999991003626905 -57.85179995781457 -4.088487330147772e-06
    vertex 10.15000876062632 -55.32404374766133 -1.2932289302822196e-05
    vertex 10.560016364053507 -55.493874513958275 -1.2829962178043107e-05
  endloop
endfacet
facet normal 1.1860926203398397e-07 -3.082999213896337e-07 -0.9999999999999456
  outer loop
    vertex 4.9999991003626905 -57.85179995781457 -4.088487330147772e-06
    vertex 10.560016364053507 -55.493874513958275 -1.2829962178043107e-05
    vertex 11.000008733940732 -55.55180066081937 -1.275209266345667e-05
  endloop
endfacet
facet normal 1.1860926203398397e-07 -3.082999213896337e-07 -0.9999999999999456
  outer loop
    vertex 4.9999991003626905 -57.85179995781457 -4.088487330147772e-06
    vertex 11.000008733940732 -55.55180066081937 -1.275209266345667e-05
    vertex 17.00000846445754 -57.851801363816556 -8.022787672995468e-06
  endloop
endfacet
facet normal -0.9999999999999668 1.2241712283043507e-07 -2.275651920486388e-07
  outer loop
    vertex 8.578618936772031e-07 -42.85180543110588 -1.4181719546263459e-05
    vertex 3.747871659687263e-08 -44.351804801660386 2.9999847906130066
    vertex -3.4235352450728837e-07 -42.851803812531514 2.999984405237677
  endloop
endfacet
facet normal -0.9999999999999668 1.2241712283043507e-07 -2.275651920486388e-07
  outer loop
    vertex 3.747871659687263e-08 -44.351804801660386 2.9999847906130066
    vertex 8.578618936772031e-07 -42.85180543110588 -1.4181719546263459e-05
    vertex 3.9580179589382425e-07 -44.35180491727264 1.999984790613099
  endloop
endfacet
facet normal -0.9999999999999668 1.2241712283043507e-07 -2.275651920486388e-07
  outer loop
    vertex 3.9580179589382425e-07 -44.35180491727264 1.999984790613099
    vertex 8.578618936772031e-07 -42.85180543110588 -1.4181719546263459e-05
    vertex -4.2436286480374007e-07 -51.351798858151874 1.9999861467974402
  endloop
endfacet
facet normal -0.9999999999999668 1.2241712283043507e-07 -2.275651920486388e-07
  outer loop
    vertex -4.2436286480374007e-07 -51.351798858151874 1.9999861467974402
    vertex 8.578618936772031e-07 -42.85180543110588 -1.4181719546263459e-05
    vertex -3.138037241834368e-07 -52.85179937198306 -8.786472648039666e-06
  endloop
endfacet
facet normal -0.9999999999999668 1.2241712283043507e-07 -2.275651920486388e-07
  outer loop
    vertex -4.908596033192935e-07 -51.351798273739725 2.999986146797289
    vertex -3.138037241834368e-07 -52.85179937198306 -8.786472648039666e-06
    vertex -1.5140183978967768e-06 -52.85179775340967 2.999987938570528
  endloop
endfacet
facet normal -0.9999999999999668 1.2241712283043507e-07 -2.275651920486388e-07
  outer loop
    vertex -3.138037241834368e-07 -52.85179937198306 -8.786472648039666e-06
    vertex -4.908596033192935e-07 -51.351798273739725 2.999986146797289
    vertex -4.2436286480374007e-07 -51.351798858151874 1.9999861467974402
  endloop
endfacet
facet normal -1.1928985992715694e-07 -0.9999999999999599 2.569165456484513e-07
  outer loop
    vertex 11.00000877949915 -52.15179956257367 2.999988369271908
    vertex 11.44000150219429 -52.20972680768024 -1.3547739537286828e-05
    vertex 11.44000114938642 -52.20972570943459 2.999988447141378
  endloop
endfacet
facet normal -0.25881915856337373 -0.9659257958872942 2.111109672025449e-07
  outer loop
    vertex 11.44000150219429 -52.20972680768024 -1.3547739537286828e-05
    vertex 11.00000877949915 -52.15179956257367 2.999988369271908
    vertex 11.000009132307042 -52.15180066081947 -1.3625609029313534e-05
  endloop
endfacet
facet normal -0.25881915798999605 -0.9659257960409303 2.1111096732409863e-07
  outer loop
    vertex 11.44000114938642 -52.20972570943459 2.999988447141378
    vertex 11.850009105621542 -52.37955757397744 -1.3445412389948007e-05
    vertex 11.850008752813629 -52.37955647573166 2.999988549468547
  endloop
endfacet
facet normal -0.5000001038046227 -0.8660253438527906 1.5091853412441663e-07
  outer loop
    vertex 11.850009105621542 -52.37955757397744 -1.3445412389948007e-05
    vertex 11.44000114938642 -52.20972570943459 2.999988447141378
    vertex 11.44000150219429 -52.20972680768024 -1.3547739537286828e-05
  endloop
endfacet
facet normal -0.500000099133785 -0.8660253465495006 1.509185354859017e-07
  outer loop
    vertex 11.850008752813629 -52.37955647573166 2.999988549468547
    vertex 12.202090601984724 -52.64971927364586 -1.3325600993935315e-05
    vertex 12.20209024917681 -52.64971817540006 2.999988669279966
  endloop
endfacet
facet normal -0.7071068675097035 -0.7071066948633764 8.044124237221311e-08
  outer loop
    vertex 12.202090601984724 -52.64971927364586 -1.3325600993935315e-05
    vertex 11.850008752813629 -52.37955647573166 2.999988549468547
    vertex 11.850009105621542 -52.37955757397744 -1.3445412389948007e-05
  endloop
endfacet
facet normal -0.7071068675097035 -0.7071066948633764 8.044124237221311e-08
  outer loop
    vertex 12.202090601984724 -52.64971927364586 -1.3325600993935315e-05
    vertex 12.47225186634113 -53.00179973507134 2.9999887984106155
    vertex 12.20209024917681 -52.64971817540006 2.999988669279966
  endloop
endfacet
facet normal -0.8660254589706063 -0.4999999044147418 4.482012683583373e-09
  outer loop
    vertex 12.47225186634113 -53.00179973507134 2.9999887984106155
    vertex 12.202090601984724 -52.64971927364586 -1.3325600993935315e-05
    vertex 12.472252219149002 -53.00180083331713 -1.3196470299237095e-05
  endloop
endfacet
facet normal -0.8660254657647758 -0.4999998926468919 4.48200868760552e-09
  outer loop
    vertex 12.472252219149002 -53.00180083331713 -1.3196470299237095e-05
    vertex 12.642082536559707 -53.4118073782954 2.9999889280606107
    vertex 12.47225186634113 -53.00179973507134 2.9999887984106155
  endloop
endfacet
facet normal -0.9659258544884435 -0.25881893986098753 -7.178265641473336e-08
  outer loop
    vertex 12.642082536559707 -53.4118073782954 2.9999889280606107
    vertex 12.472252219149002 -53.00180083331713 -1.3196470299237095e-05
    vertex 12.64208288936762 -53.41180847654113 -1.3066820416632318e-05
  endloop
endfacet
facet normal -0.9659258587395352 -0.25881892399568956 -7.178266109935809e-08
  outer loop
    vertex 12.64208288936762 -53.41180847654113 -1.3066820416632318e-05
    vertex 12.700008580315918 -53.851799761756745 2.9999890493943617
    vertex 12.642082536559707 -53.4118073782954 2.9999889280606107
  endloop
endfacet
facet normal -0.999999999999984 1.0809537457671483e-07 -1.4315545773827381e-07
  outer loop
    vertex 12.700008580315918 -53.851799761756745 2.9999890493943617
    vertex 12.64208288936762 -53.41180847654113 -1.3066820416632318e-05
    vertex 12.700008933123787 -53.851800860002434 -1.2945486575705045e-05
  endloop
endfacet
facet normal -0.9999999999999818 1.262376346521324e-07 -1.431554623993209e-07
  outer loop
    vertex 12.700008933123787 -53.851800860002434 -1.2945486575705045e-05
    vertex 12.642082433454958 -54.29179213164408 2.9999891541432526
    vertex 12.700008580315918 -53.851799761756745 2.9999890493943617
  endloop
endfacet
facet normal -0.9659257983741394 0.2588191492823508 -2.0477245138978926e-07
  outer loop
    vertex 12.642082433454958 -54.29179213164408 2.9999891541432526
    vertex 12.700008933123787 -53.851800860002434 -1.2945486575705045e-05
    vertex 12.642082786262849 -54.29179322988973 -1.2840737684860492e-05
  endloop
endfacet
facet normal -0.9659257935540998 0.2588191672709744 -2.0477245532134975e-07
  outer loop
    vertex 12.642082786262849 -54.29179322988973 -1.2840737684860492e-05
    vertex 12.47225166715792 -54.701799735071084 2.9999892351688104
    vertex 12.642082433454958 -54.29179213164408 2.9999891541432526
  endloop
endfacet
facet normal -0.8660253496598943 0.5000000937463854 -2.524345395657605e-07
  outer loop
    vertex 12.47225166715792 -54.701799735071084 2.9999892351688104
    vertex 12.642082786262849 -54.29179322988973 -1.2840737684860492e-05
    vertex 12.472252019965834 -54.70180083331688 -1.2759712104676301e-05
  endloop
endfacet
facet normal -0.8660253496598943 0.5000000937463854 -2.524345395657605e-07
  outer loop
    vertex 12.47225166715792 -54.701799735071084 2.9999892351688104
    vertex 12.202090320297275 -55.053882329680064 -1.2707931737010458e-05
    vertex 12.202089967489382 -55.05388123143423 2.999989286949291
  endloop
endfacet
facet normal -0.7071066927400432 0.7071068696329842 -2.8289363755898465e-07
  outer loop
    vertex 12.202090320297275 -55.053882329680064 -1.2707931737010458e-05
    vertex 12.47225166715792 -54.701799735071084 2.9999892351688104
    vertex 12.472252019965834 -54.70180083331688 -1.2759712104676301e-05
  endloop
endfacet
facet normal -0.7071066927400432 0.7071068696329842 -2.8289363755898465e-07
  outer loop
    vertex 12.202090320297275 -55.053882329680064 -1.2707931737010458e-05
    vertex 11.850008407818386 -55.324042848598545 2.999989305955849
    vertex 12.202089967489382 -55.05388123143423 2.999989286949291
  endloop
endfacet
facet normal -0.4999999040512035 0.8660254591804454 -2.9407399901408837e-07
  outer loop
    vertex 11.850008407818386 -55.324042848598545 2.999989305955849
    vertex 12.202090320297275 -55.053882329680064 -1.2707931737010458e-05
    vertex 11.850008760626254 -55.32404394684433 -1.2688925065981737e-05
  endloop
endfacet
facet normal -0.4999998930103709 0.8660254655548713 -2.940739990712288e-07
  outer loop
    vertex 11.850008760626254 -55.32404394684433 -1.2688925065981737e-05
    vertex 11.44000076459411 -55.49387351881726 2.999989290893344
    vertex 11.850008407818386 -55.324042848598545 2.999989305955849
  endloop
endfacet
facet normal -0.25881893617722257 0.9659258554754653 -2.852137016094291e-07
  outer loop
    vertex 11.44000076459411 -55.49387351881726 2.999989290893344
    vertex 11.850008760626254 -55.32404394684433 -1.2688925065981737e-05
    vertex 11.440001117402023 -55.49387461706295 -1.2703987616269341e-05
  endloop
endfacet
facet normal -0.2588189276794766 0.9659258577524283 -2.852137009779202e-07
  outer loop
    vertex 11.440001117402023 -55.49387461706295 -1.2703987616269341e-05
    vertex 11.000008381132906 -55.55179956257341 2.999989242788229
    vertex 11.44000076459411 -55.49387351881726 2.999989290893344
  endloop
endfacet
facet normal 1.1504319942246717e-07 0.9999999999999605 -2.569165571647935e-07
  outer loop
    vertex 11.000008381132906 -55.55179956257341 2.999989242788229
    vertex 11.440001117402023 -55.49387461706295 -1.2703987616269341e-05
    vertex 11.000008733940732 -55.55180066081937 -1.275209266345667e-05
  endloop
endfacet
facet normal 1.1928985709342812e-07 0.9999999999999599 -2.569165565568611e-07
  outer loop
    vertex 11.000008733940732 -55.55180066081937 -1.275209266345667e-05
    vertex 10.560016011245569 -55.493873415712486 2.9999891649187145
    vertex 11.000008381132906 -55.55179956257341 2.999989242788229
  endloop
endfacet
facet normal 0.2588191585634102 0.9659257958872844 -2.1111097284476488e-07
  outer loop
    vertex 10.560016011245569 -55.493873415712486 2.9999891649187145
    vertex 11.000008733940732 -55.55180066081937 -1.275209266345667e-05
    vertex 10.560016364053507 -55.493874513958275 -1.2829962178043107e-05
  endloop
endfacet
facet normal 0.25881915799002714 0.9659257960409219 -2.1111097296631977e-07
  outer loop
    vertex 10.560016364053507 -55.493874513958275 -1.2829962178043107e-05
    vertex 10.150008407818406 -55.3240426494155 2.9999890625915895
    vertex 10.560016011245569 -55.493873415712486 2.9999891649187145
  endloop
endfacet
facet normal 0.5000001038046201 0.8660253438527918 -1.509185341269124e-07
  outer loop
    vertex 10.150008407818406 -55.3240426494155 2.9999890625915895
    vertex 10.560016364053507 -55.493874513958275 -1.2829962178043107e-05
    vertex 10.15000876062632 -55.32404374766133 -1.2932289302822196e-05
  endloop
endfacet
facet normal 0.5000000991337741 0.866025346549507 -1.5091853548840003e-07
  outer loop
    vertex 10.15000876062632 -55.32404374766133 -1.2932289302822196e-05
    vertex 9.797926911455269 -55.05388094974688 2.9999889427801936
    vertex 10.150008407818406 -55.3240426494155 2.9999890625915895
  endloop
endfacet
facet normal 0.7071068675096939 0.7071066948633861 -8.044124583785962e-08
  outer loop
    vertex 9.797926911455269 -55.05388094974688 2.9999889427801936
    vertex 10.15000876062632 -55.32404374766133 -1.2932289302822196e-05
    vertex 9.797927264263095 -55.05388204799271 -1.3052100698834889e-05
  endloop
endfacet
facet normal 0.7071068675096939 0.7071066948633861 -8.044124583785962e-08
  outer loop
    vertex 9.797926911455269 -55.05388094974688 2.9999889427801936
    vertex 9.527765647098839 -54.7018004883217 -1.3181231438652573e-05
    vertex 9.527765294290926 -54.70179939007588 2.9999888136494763
  endloop
endfacet
facet normal 0.8660254589706148 0.499999904414727 -4.482018321854692e-09
  outer loop
    vertex 9.527765647098839 -54.7018004883217 -1.3181231438652573e-05
    vertex 9.797926911455269 -55.05388094974688 2.9999889427801936
    vertex 9.797927264263095 -55.05388204799271 -1.3052100698834889e-05
  endloop
endfacet
facet normal 0.8660254657647807 0.4999998926468833 -4.482014325878798e-09
  outer loop
    vertex 9.527765294290926 -54.70179939007588 2.9999888136494763
    vertex 9.357934976880129 -54.291792845097596 -1.3310881388936546e-05
    vertex 9.357934624072238 -54.29179174685177 2.9999886839995487
  endloop
endfacet
facet normal 0.9659258544884377 0.25881893986100885 7.178265424200531e-08
  outer loop
    vertex 9.357934976880129 -54.291792845097596 -1.3310881388936546e-05
    vertex 9.527765294290926 -54.70179939007588 2.9999888136494763
    vertex 9.527765647098839 -54.7018004883217 -1.3181231438652573e-05
  endloop
endfacet
facet normal 0.965925858739533 0.2588189239956982 7.178265892663402e-08
  outer loop
    vertex 9.357934624072238 -54.29179174685177 2.9999886839995487
    vertex 9.300008933123896 -53.85180046163635 -1.3432215139624892e-05
    vertex 9.300008580316007 -53.851799363390526 2.999988562665798
  endloop
endfacet
facet normal 0.9999999999999839 -1.0809536792011761e-07 1.4315545417486804e-07
  outer loop
    vertex 9.300008933123896 -53.85180046163635 -1.3432215139624892e-05
    vertex 9.357934624072238 -54.29179174685177 2.9999886839995487
    vertex 9.357934976880129 -54.291792845097596 -1.3310881388936546e-05
  endloop
endfacet
facet normal 0.9999999999999819 -1.2623763762844527e-07 1.4315545883591716e-07
  outer loop
    vertex 9.300008580316007 -53.851799363390526 2.999988562665798
    vertex 9.3579350799849 -53.411808091749 -1.353696409814864e-05
    vertex 9.357934727177101 -53.41180699350331 2.999988457916907
  endloop
endfacet
facet normal 0.9659257983741381 -0.2588191492823551 2.047724451967238e-07
  outer loop
    vertex 9.3579350799849 -53.411808091749 -1.353696409814864e-05
    vertex 9.300008580316007 -53.851799363390526 2.999988562665798
    vertex 9.300008933123896 -53.85180046163635 -1.3432215139624892e-05
  endloop
endfacet
facet normal 0.9659257935540978 -0.2588191672709823 2.047724491282853e-07
  outer loop
    vertex 9.357934727177101 -53.41180699350331 2.999988457916907
    vertex 9.527765846282007 -53.00180048832178 -1.3617989610653635e-05
    vertex 9.527765493474162 -53.001799390075995 2.9999883768913493
  endloop
endfacet
facet normal 0.8660253496599115 -0.5000000937463555 2.5243454039887533e-07
  outer loop
    vertex 9.527765846282007 -53.00180048832178 -1.3617989610653635e-05
    vertex 9.357934727177101 -53.41180699350331 2.999988457916907
    vertex 9.3579350799849 -53.411808091749 -1.353696409814864e-05
  endloop
endfacet
facet normal 0.8660253496599115 -0.5000000937463555 2.5243454039887533e-07
  outer loop
    vertex 9.527765846282007 -53.00180048832178 -1.3617989610653635e-05
    vertex 9.79792719314263 -52.64971789371267 2.999988325110869
    vertex 9.527765493474162 -53.001799390075995 2.9999883768913493
  endloop
endfacet
facet normal 0.7071066927400479 -0.7071068696329795 2.828936410217658e-07
  outer loop
    vertex 9.79792719314263 -52.64971789371267 2.999988325110869
    vertex 9.527765846282007 -53.00180048832178 -1.3617989610653635e-05
    vertex 9.797927545950522 -52.6497189919585 -1.3669770068558407e-05
  endloop
endfacet
facet normal 0.7071066927400479 -0.7071068696329795 2.828936410217658e-07
  outer loop
    vertex 9.79792719314263 -52.64971789371267 2.999988325110869
    vertex 10.15000910562154 -52.37955737479451 -1.3688776739587127e-05
    vertex 10.150008752813651 -52.379556276548634 2.999988306104243
  endloop
endfacet
facet normal 0.49999990405119116 -0.8660254591804525 2.9407400010380435e-07
  outer loop
    vertex 10.15000910562154 -52.37955737479451 -1.3688776739587127e-05
    vertex 9.79792719314263 -52.64971789371267 2.999988325110869
    vertex 9.797927545950522 -52.6497189919585 -1.3669770068558407e-05
  endloop
endfacet
facet normal 0.49999989301036096 -0.8660254655548768 2.9407400016094477e-07
  outer loop
    vertex 10.150008752813651 -52.379556276548634 2.999988306104243
    vertex 10.560016748845705 -52.20972670457578 -1.3673714166739792e-05
    vertex 10.560016396037858 -52.20972560632986 2.999988321166748
  endloop
endfacet
facet normal 0.2588189361772161 -0.9659258554754672 2.8521369743055644e-07
  outer loop
    vertex 10.560016748845705 -52.20972670457578 -1.3673714166739792e-05
    vertex 10.150008752813651 -52.379556276548634 2.999988306104243
    vertex 10.15000910562154 -52.37955737479451 -1.3688776739587127e-05
  endloop
endfacet
facet normal 0.2588189276794491 -0.9659258577524359 2.8521369679904574e-07
  outer loop
    vertex 10.560016396037858 -52.20972560632986 2.999988321166748
    vertex 11.000009132307042 -52.15180066081947 -1.3625609029313534e-05
    vertex 11.00000877949915 -52.15179956257367 2.999988369271908
  endloop
endfacet
facet normal -1.1504319961850728e-07 -0.9999999999999604 2.5691654625638403e-07
  outer loop
    vertex 11.000009132307042 -52.15180066081947 -1.3625609029313534e-05
    vertex 10.560016396037858 -52.20972560632986 2.999988321166748
    vertex 10.560016748845705 -52.20972670457578 -1.3673714166739792e-05
  endloop
endfacet
facet normal -0.9659258560347391 -0.2588189340901307 -7.178265511428899e-08
  outer loop
    vertex 12.64208429536346 -41.41181453566076 -1.216005283335153e-05
    vertex 12.70000969448591 -41.85180628967687 2.9999859663972632
    vertex 12.64208365072979 -41.411813906215755 2.9999858450634442
  endloop
endfacet
facet normal -0.9999999999999826 1.2108042531415108e-07 -1.431554573037148e-07
  outer loop
    vertex 12.70000969448591 -41.85180628967687 2.9999859663972632
    vertex 12.64208429536346 -41.41181453566076 -1.216005283335153e-05
    vertex 12.700010339119537 -41.85180691912201 -1.2038719014983988e-05
  endloop
endfacet
facet normal -0.9999999999999833 1.1325258369270291e-07 -1.431554552926126e-07
  outer loop
    vertex 12.700010339119537 -41.85180691912201 -1.2038719014983988e-05
    vertex 12.642083547625017 -42.2917986595643 2.9999860711461315
    vertex 12.70000969448591 -41.85180628967687 2.9999859663972632
  endloop
endfacet
facet normal -0.9659257945864097 0.2588191634183437 -2.047724564872913e-07
  outer loop
    vertex 12.642083547625017 -42.2917986595643 2.9999860711461315
    vertex 12.700010339119537 -41.85180691912201 -1.2038719014983988e-05
    vertex 12.642084192258645 -42.291799289009354 -1.1933970124139437e-05
  endloop
endfacet
facet normal -0.9659257973418356 0.25881915313495857 -2.0477245423977317e-07
  outer loop
    vertex 12.642084192258645 -42.291799289009354 -1.1933970124139437e-05
    vertex 12.472252781327912 -42.70180626299131 2.9999861521716666
    vertex 12.642083547625017 -42.2917986595643 2.9999860711461315
  endloop
endfacet
facet normal -0.8660253420164212 0.5000001069852655 -2.5243455049557916e-07
  outer loop
    vertex 12.472252781327912 -42.70180626299131 2.9999861521716666
    vertex 12.642084192258645 -42.291799289009354 -1.1933970124139437e-05
    vertex 12.472253425961652 -42.701806892436366 -1.1852944543955245e-05
  endloop
endfacet
facet normal -0.8660253420164212 0.5000001069852655 -2.5243455049557916e-07
  outer loop
    vertex 12.472252781327912 -42.70180626299131 2.9999861521716666
    vertex 12.20209172629307 -43.053888388799415 -1.180116415372967e-05
    vertex 12.20209108165933 -43.05388775935441 2.9999862039521243
  endloop
endfacet
facet normal -0.7071067032741513 0.7071068590988787 -2.8289364132159505e-07
  outer loop
    vertex 12.20209172629307 -43.053888388799415 -1.180116415372967e-05
    vertex 12.472252781327912 -42.70180626299131 2.9999861521716666
    vertex 12.472253425961652 -42.701806892436366 -1.1852944543955245e-05
  endloop
endfacet
facet normal -0.7071067032741513 0.7071068590988787 -2.8289364132159505e-07
  outer loop
    vertex 12.20209172629307 -43.053888388799415 -1.180116415372967e-05
    vertex 11.850009521988378 -43.32404937651881 2.999986222958773
    vertex 12.20209108165933 -43.05388775935441 2.9999862039521243
  endloop
endfacet
facet normal -0.49999989236612774 0.8660254659268249 -2.9407399804473073e-07
  outer loop
    vertex 11.850009521988378 -43.32404937651881 2.999986222958773
    vertex 12.20209172629307 -43.053888388799415 -1.180116415372967e-05
    vertex 11.850010166622027 -43.324050005963905 -1.1782157482700949e-05
  endloop
endfacet
facet normal -0.49999990469542266 0.8660254588085052 -2.9407399798092194e-07
  outer loop
    vertex 11.850010166622027 -43.324050005963905 -1.1782157482700949e-05
    vertex 11.44000187876419 -43.49388004673754 2.9999862078962227
    vertex 11.850009521988378 -43.32404937651881 2.999986222958773
  endloop
endfacet
facet normal -0.2588189253892574 0.9659258583660906 -2.852137031482693e-07
  outer loop
    vertex 11.44000187876419 -43.49388004673754 2.9999862078962227
    vertex 11.850010166622027 -43.324050005963905 -1.1782157482700949e-05
    vertex 11.440002523397842 -43.49388067618258 -1.1797220055548284e-05
  endloop
endfacet
facet normal -0.25881893846740683 0.9659258548618126 -2.8521370412016993e-07
  outer loop
    vertex 11.440002523397842 -43.49388067618258 -1.1797220055548284e-05
    vertex 11.000009495302853 -43.55180609049358 2.999986159791085
    vertex 11.44000187876419 -43.49388004673754 2.9999862078962227
  endloop
endfacet
facet normal 1.231263659915831e-07 0.9999999999999594 -2.5691657295465394e-07
  outer loop
    vertex 11.000009495302853 -43.55180609049358 2.999986159791085
    vertex 11.440002523397842 -43.49388067618258 -1.1797220055548284e-05
    vertex 11.000010139936592 -43.55180671993872 -1.1845325102383119e-05
  endloop
endfacet
facet normal 1.1120670115450017e-07 0.9999999999999608 -2.5691657466101854e-07
  outer loop
    vertex 11.000010139936592 -43.55180671993872 -1.1845325102383119e-05
    vertex 10.560017125415584 -43.49387994363271 2.999986081921638
    vertex 11.000009495302853 -43.55180609049358 2.999986159791085
  endloop
endfacet
facet normal 0.2588191628588331 0.9659257947363289 -2.11110999650812e-07
  outer loop
    vertex 10.560017125415584 -43.49387994363271 2.999986081921638
    vertex 11.000010139936592 -43.55180671993872 -1.1845325102383119e-05
    vertex 10.560017770049257 -43.49388057307776 -1.1923194685001248e-05
  endloop
endfacet
facet normal 0.25881915369460085 0.9659257971918787 -2.1111100159359303e-07
  outer loop
    vertex 10.560017770049257 -43.49388057307776 -1.1923194685001248e-05
    vertex 10.150009521988467 -43.32404917733563 2.9999859795944457
    vertex 10.560017125415584 -43.49387994363271 2.999986081921638
  endloop
endfacet
facet normal 0.5000001042442904 0.866025343598948 -1.5091855103216006e-07
  outer loop
    vertex 10.150009521988467 -43.32404917733563 2.9999859795944457
    vertex 10.560017770049257 -43.49388057307776 -1.1923194685001248e-05
    vertex 10.15001016662205 -43.324049806780735 -1.2025521741748645e-05
  endloop
endfacet
facet normal 0.5000000986941003 0.8660253468033527 -1.5091855264996485e-07
  outer loop
    vertex 10.15001016662205 -43.324049806780735 -1.2025521741748645e-05
    vertex 9.797928025625149 -43.05388747766702 2.9999858597830498
    vertex 10.150009521988467 -43.32404917733563 2.9999859795944457
  endloop
endfacet
facet normal 0.7071068650587468 0.7071066973143338 -8.044125349861992e-08
  outer loop
    vertex 9.797928025625149 -43.05388747766702 2.9999858597830498
    vertex 10.15001016662205 -43.324049806780735 -1.2025521741748645e-05
    vertex 9.797928670258798 -43.05388810711202 -1.2145333160673565e-05
  endloop
endfacet
facet normal 0.7071068650587468 0.7071066973143338 -8.044125349861992e-08
  outer loop
    vertex 9.797928025625149 -43.05388747766702 2.9999858597830498
    vertex 9.527767053094658 -42.701806547441194 -1.2274463923050981e-05
    vertex 9.527766408460941 -42.70180591799614 2.9999857306524
  endloop
endfacet
facet normal 0.8660254625725133 0.499999898176054 -4.482019954118098e-09
  outer loop
    vertex 9.527767053094658 -42.701806547441194 -1.2274463923050981e-05
    vertex 9.797928025625149 -43.05388747766702 2.9999858597830498
    vertex 9.797928670258798 -43.05388810711202 -1.2145333160673565e-05
  endloop
endfacet
facet normal 0.8660254621628761 0.4999998988855667 -4.482020195045555e-09
  outer loop
    vertex 9.527766408460941 -42.70180591799614 2.9999857306524
    vertex 9.357936382875947 -42.291798904217046 -1.2404113805303262e-05
    vertex 9.357935738242253 -42.29179827477204 2.99998560100245
  endloop
endfacet
facet normal 0.9659258571932284 0.2588189297665875 7.178265777693271e-08
  outer loop
    vertex 9.357936382875947 -42.291798904217046 -1.2404113805303262e-05
    vertex 9.527766408460941 -42.70180591799614 2.9999857306524
    vertex 9.527767053094658 -42.701806547441194 -1.2274463923050981e-05
  endloop
endfacet
facet normal 0.9659258560347359 0.25881893409014267 7.178265650029514e-08
  outer loop
    vertex 9.357935738242253 -42.29179827477204 2.99998560100245
    vertex 9.30001033911965 -41.8518065207557 -1.252544757855134e-05
    vertex 9.300009694486109 -41.8518058913107 2.999985479668699
  endloop
endfacet
facet normal 0.9999999999999826 -1.210804259735711e-07 1.4315546220136482e-07
  outer loop
    vertex 9.30001033911965 -41.8518065207557 -1.252544757855134e-05
    vertex 9.357935738242253 -42.29179827477204 2.99998560100245
    vertex 9.357936382875947 -42.291798904217046 -1.2404113805303262e-05
  endloop
endfacet
facet normal 0.9999999999999833 -1.1325258538581142e-07 1.4315546019026294e-07
  outer loop
    vertex 9.300009694486109 -41.8518058913107 2.999985479668699
    vertex 9.357936485980764 -41.41181415086845 -1.2630196424276429e-05
    vertex 9.35793584134707 -41.41181352142353 2.9999853749197634
  endloop
endfacet
facet normal 0.9659257945864018 -0.2588191634183733 2.0477246089891242e-07
  outer loop
    vertex 9.357936485980764 -41.41181415086845 -1.2630196424276429e-05
    vertex 9.300009694486109 -41.8518058913107 2.999985479668699
    vertex 9.30001033911965 -41.8518065207557 -1.252544757855134e-05
  endloop
endfacet
facet normal 0.9659257973418304 -0.2588191531349782 2.0477245865139186e-07
  outer loop
    vertex 9.35793584134707 -41.41181352142353 2.9999853749197634
    vertex 9.52776725227769 -41.001806547441305 -1.2711222027020352e-05
    vertex 9.52776660764404 -41.001805917996165 2.999985293894251
  endloop
endfacet
facet normal 0.8660253420164149 -0.5000001069852765 2.524345535723597e-07
  outer loop
    vertex 9.52776725227769 -41.001806547441305 -1.2711222027020352e-05
    vertex 9.35793584134707 -41.41181352142353 2.9999853749197634
    vertex 9.357936485980764 -41.41181415086845 -1.2630196424276429e-05
  endloop
endfacet
facet normal 0.8660253420164149 -0.5000001069852765 2.524345535723597e-07
  outer loop
    vertex 9.52776725227769 -41.001806547441305 -1.2711222027020352e-05
    vertex 9.79792830731269 -40.64972442163294 2.99998524211377
    vertex 9.52776660764404 -41.001805917996165 2.999985293894251
  endloop
endfacet
facet normal 0.7071067032741662 -0.7071068590988636 2.82893642371601e-07
  outer loop
    vertex 9.79792830731269 -40.64972442163294 2.99998524211377
    vertex 9.52776725227769 -41.001806547441305 -1.2711222027020352e-05
    vertex 9.797928951946318 -40.649725051077986 -1.2763002484925122e-05
  endloop
endfacet
facet normal 0.7071067032741662 -0.7071068590988636 2.82893642371601e-07
  outer loop
    vertex 9.79792830731269 -40.64972442163294 2.99998524211377
    vertex 10.150010511617293 -40.379563433913816 -1.2782009155953843e-05
    vertex 10.150009866983757 -40.37956280446876 2.9999852231071444
  endloop
endfacet
facet normal 0.4999998923661471 -0.8660254659268138 2.9407400742847555e-07
  outer loop
    vertex 10.150010511617293 -40.379563433913816 -1.2782009155953843e-05
    vertex 9.79792830731269 -40.64972442163294 2.99998524211377
    vertex 9.797928951946318 -40.649725051077986 -1.2763002484925122e-05
  endloop
endfacet
facet normal 0.4999999046954383 -0.8660254588084961 2.940740073646662e-07
  outer loop
    vertex 10.150009866983757 -40.37956280446876 2.9999852231071444
    vertex 10.560018154841567 -40.209732763695044 -1.2766946583106507e-05
    vertex 10.56001751020794 -40.20973213425008 2.999985238169672
  endloop
endfacet
facet normal 0.25881892538926093 -0.9659258583660897 2.8521371111101294e-07
  outer loop
    vertex 10.560018154841567 -40.209732763695044 -1.2766946583106507e-05
    vertex 10.150009866983757 -40.37956280446876 2.9999852231071444
    vertex 10.150010511617293 -40.379563433913816 -1.2782009155953843e-05
  endloop
endfacet
facet normal 0.25881893846740234 -0.9659258548618138 2.8521371208291385e-07
  outer loop
    vertex 10.56001751020794 -40.20973213425008 2.999985238169672
    vertex 11.000010538302815 -40.15180671993895 -1.2718841446032747e-05
    vertex 11.000009893669166 -40.1518060904939 2.9999852862748315
  endloop
endfacet
facet normal -1.2312636395984533e-07 -0.9999999999999595 2.569165613030617e-07
  outer loop
    vertex 11.000010538302815 -40.15180671993895 -1.2718841446032747e-05
    vertex 10.56001751020794 -40.20973213425008 2.999985238169672
    vertex 10.560018154841567 -40.209732763695044 -1.2766946583106507e-05
  endloop
endfacet
facet normal -1.1120670199213889e-07 -0.9999999999999608 2.5691656300942687e-07
  outer loop
    vertex 11.000009893669166 -40.1518060904939 2.9999852862748315
    vertex 11.440002908190106 -40.20973286679991 -1.2640972021685236e-05
    vertex 11.440002263556458 -40.209732237354814 2.9999853641443015
  endloop
endfacet
facet normal -0.25881916285882356 -0.9659257947363312 2.1111097786039e-07
  outer loop
    vertex 11.440002908190106 -40.20973286679991 -1.2640972021685236e-05
    vertex 11.000009893669166 -40.1518060904939 2.9999852862748315
    vertex 11.000010538302815 -40.15180671993895 -1.2718841446032747e-05
  endloop
endfacet
facet normal -0.25881915369459174 -0.965925797191881 2.1111097980317093e-07
  outer loop
    vertex 11.440002263556458 -40.209732237354814 2.9999853641443015
    vertex 11.850010511617315 -40.379563633097035 -1.253864480666722e-05
    vertex 11.850009866983688 -40.379563003651846 2.999985466471471
  endloop
endfacet
facet normal -0.5000001042442955 -0.8660253435989451 1.5091854052241874e-07
  outer loop
    vertex 11.850010511617315 -40.379563633097035 -1.253864480666722e-05
    vertex 11.440002263556458 -40.209732237354814 2.9999853641443015
    vertex 11.440002908190106 -40.20973286679991 -1.2640972021685236e-05
  endloop
endfacet
facet normal -0.5000000986941106 -0.8660253468033466 1.5091854214022152e-07
  outer loop
    vertex 11.850009866983688 -40.379563003651846 2.999985466471471
    vertex 12.202092007980474 -40.64972533276551 -1.2418833410654528e-05
    vertex 12.202091363346801 -40.64972470332038 2.9999855862828673
  endloop
endfacet
facet normal -0.7071068650587542 -0.7071066973143264 8.044125124055099e-08
  outer loop
    vertex 12.202092007980474 -40.64972533276551 -1.2418833410654528e-05
    vertex 11.850009866983688 -40.379563003651846 2.999985466471471
    vertex 11.850010511617315 -40.379563633097035 -1.253864480666722e-05
  endloop
endfacet
facet normal -0.7071068650587542 -0.7071066973143264 8.044125124055099e-08
  outer loop
    vertex 12.202092007980474 -40.64972533276551 -1.2418833410654528e-05
    vertex 12.472252980511056 -41.00180626299143 2.9999857154135396
    vertex 12.202091363346801 -40.64972470332038 2.9999855862828673
  endloop
endfacet
facet normal -0.8660254625725109 -0.4999998981760582 4.482015519164547e-09
  outer loop
    vertex 12.472252980511056 -41.00180626299143 2.9999857154135396
    vertex 12.202092007980474 -40.64972533276551 -1.2418833410654528e-05
    vertex 12.472253625144704 -41.00180689243643 -1.2289702783283007e-05
  endloop
endfacet
facet normal -0.866025462162876 -0.4999998988855669 4.482015760090575e-09
  outer loop
    vertex 12.472253625144704 -41.00180689243643 -1.2289702783283007e-05
    vertex 12.64208365072979 -41.411813906215755 2.9999858450634442
    vertex 12.472252980511056 -41.00180626299143 2.9999857154135396
  endloop
endfacet
facet normal -0.9659258571932352 -0.2588189297665629 -7.178265639093012e-08
  outer loop
    vertex 12.64208365072979 -41.411813906215755 2.9999858450634442
    vertex 12.472253625144704 -41.00180689243643 -1.2289702783283007e-05
    vertex 12.64208429536346 -41.41181453566076 -1.216005283335153e-05
  endloop
endfacet
facet normal -2.8166442156990853e-07 8.402448654139022e-08 0.9999999999999569
  outer loop
    vertex -4.2436286480374007e-07 -51.351798858151874 1.9999861467974402
    vertex 22.00000975989239 -44.35180749493645 1.9999917552469026
    vertex 3.9580179589382425e-07 -44.35180491727264 1.999984790613099
  endloop
endfacet
facet normal -2.8166442156990853e-07 8.402448654139022e-08 0.9999999999999569
  outer loop
    vertex 22.00000975989239 -44.35180749493645 1.9999917552469026
    vertex -4.2436286480374007e-07 -51.351798858151874 1.9999861467974402
    vertex 22.000008939728296 -51.351801435816924 1.999991575403893
  endloop
endfacet
facet normal -3.5640518123967797e-07 9.329934258228585e-08 0.9999999999999323
  outer loop
    vertex -3.4235352450728837e-07 -42.851803812531514 2.999984405237677
    vertex 17.000009607568973 -37.85180750001272 2.9999899218835204
    vertex 5.0000002434791515 -37.85180439836449 2.9999837079728104
  endloop
endfacet
facet normal -3.5640518123967797e-07 9.329934258228585e-08 0.9999999999999323
  outer loop
    vertex 17.000009607568973 -37.85180750001272 2.9999899218835204
    vertex -3.4235352450728837e-07 -42.851803812531514 2.999984405237677
    vertex 10.56001751020794 -40.20973213425008 2.999985238169672
  endloop
endfacet
facet normal -3.5640518123967797e-07 9.329934258228585e-08 0.9999999999999323
  outer loop
    vertex 17.000009607568973 -37.85180750001272 2.9999899218835204
    vertex 10.56001751020794 -40.20973213425008 2.999985238169672
    vertex 11.000009893669166 -40.1518060904939 2.9999852862748315
  endloop
endfacet
facet normal -3.5640518123967797e-07 9.329934258228585e-08 0.9999999999999323
  outer loop
    vertex 10.56001751020794 -40.20973213425008 2.999985238169672
    vertex -3.4235352450728837e-07 -42.851803812531514 2.999984405237677
    vertex 10.150009866983757 -40.37956280446876 2.9999852231071444
  endloop
endfacet
facet normal -3.5640518123967797e-07 9.329934258228585e-08 0.9999999999999323
  outer loop
    vertex 10.150009866983757 -40.37956280446876 2.9999852231071444
    vertex -3.4235352450728837e-07 -42.851803812531514 2.999984405237677
    vertex 9.79792830731269 -40.64972442163294 2.99998524211377
  endloop
endfacet
facet normal -3.5640518123967797e-07 9.329934258228585e-08 0.9999999999999323
  outer loop
    vertex 9.79792830731269 -40.64972442163294 2.99998524211377
    vertex -3.4235352450728837e-07 -42.851803812531514 2.999984405237677
    vertex 9.52776660764404 -41.001805917996165 2.999985293894251
  endloop
endfacet
facet normal -3.5640518123967797e-07 9.329934258228585e-08 0.9999999999999323
  outer loop
    vertex 9.52776660764404 -41.001805917996165 2.999985293894251
    vertex -3.4235352450728837e-07 -42.851803812531514 2.999984405237677
    vertex 9.35793584134707 -41.41181352142353 2.9999853749197634
  endloop
endfacet
facet normal -3.5640518123967797e-07 9.329934258228585e-08 0.9999999999999323
  outer loop
    vertex 9.35793584134707 -41.41181352142353 2.9999853749197634
    vertex -3.4235352450728837e-07 -42.851803812531514 2.999984405237677
    vertex 9.300009694486109 -41.8518058913107 2.999985479668699
  endloop
endfacet
facet normal -3.5640518123967797e-07 9.329934258228585e-08 0.9999999999999323
  outer loop
    vertex 9.300009694486109 -41.8518058913107 2.999985479668699
    vertex -3.4235352450728837e-07 -42.851803812531514 2.999984405237677
    vertex 9.357935738242253 -42.29179827477204 2.99998560100245
  endloop
endfacet
facet normal -3.5640518123967797e-07 9.329934258228585e-08 0.9999999999999323
  outer loop
    vertex 9.357935738242253 -42.29179827477204 2.99998560100245
    vertex -3.4235352450728837e-07 -42.851803812531514 2.999984405237677
    vertex 9.527766408460941 -42.70180591799614 2.9999857306524
  endloop
endfacet
facet normal -3.5640518123967797e-07 9.329934258228585e-08 0.9999999999999323
  outer loop
    vertex 9.527766408460941 -42.70180591799614 2.9999857306524
    vertex -3.4235352450728837e-07 -42.851803812531514 2.999984405237677
    vertex 9.797928025625149 -43.05388747766702 2.9999858597830498
  endloop
endfacet
facet normal -3.5640518123967797e-07 9.329934258228585e-08 0.9999999999999323
  outer loop
    vertex 9.797928025625149 -43.05388747766702 2.9999858597830498
    vertex -3.4235352450728837e-07 -42.851803812531514 2.999984405237677
    vertex 3.747871659687263e-08 -44.351804801660386 2.9999847906130066
  endloop
endfacet
facet normal -3.5640518123967797e-07 9.329934258228585e-08 0.9999999999999323
  outer loop
    vertex 9.797928025625149 -43.05388747766702 2.9999858597830498
    vertex 3.747871659687263e-08 -44.351804801660386 2.9999847906130066
    vertex 10.150009521988467 -43.32404917733563 2.9999859795944457
  endloop
endfacet
facet normal -3.5640518123967797e-07 9.329934258228585e-08 0.9999999999999323
  outer loop
    vertex 10.150009521988467 -43.32404917733563 2.9999859795944457
    vertex 3.747871659687263e-08 -44.351804801660386 2.9999847906130066
    vertex 10.560017125415584 -43.49387994363271 2.999986081921638
  endloop
endfacet
facet normal -3.5640518123967797e-07 9.329934258228585e-08 0.9999999999999323
  outer loop
    vertex 10.560017125415584 -43.49387994363271 2.999986081921638
    vertex 3.747871659687263e-08 -44.351804801660386 2.9999847906130066
    vertex 11.000009495302853 -43.55180609049358 2.999986159791085
  endloop
endfacet
facet normal -3.5640518123967797e-07 9.329934258228585e-08 0.9999999999999323
  outer loop
    vertex 17.000009607568973 -37.85180750001272 2.9999899218835204
    vertex 11.440002263556458 -40.209732237354814 2.9999853641443015
    vertex 22.000009021736563 -42.85180808584492 2.9999917937844045
  endloop
endfacet
facet normal -3.5640518123967797e-07 9.329934258228585e-08 0.9999999999999323
  outer loop
    vertex 11.440002263556458 -40.209732237354814 2.9999853641443015
    vertex 17.000009607568973 -37.85180750001272 2.9999899218835204
    vertex 11.000009893669166 -40.1518060904939 2.9999852862748315
  endloop
endfacet
facet normal -3.5640518123967797e-07 9.329934258228585e-08 0.9999999999999323
  outer loop
    vertex 22.000009021736563 -42.85180808584492 2.9999917937844045
    vertex 11.440002263556458 -40.209732237354814 2.9999853641443015
    vertex 11.850009866983688 -40.379563003651846 2.999985466471471
  endloop
endfacet
facet normal -3.5640518123967797e-07 9.329934258228585e-08 0.9999999999999323
  outer loop
    vertex 22.000009021736563 -42.85180808584492 2.9999917937844045
    vertex 11.850009866983688 -40.379563003651846 2.999985466471471
    vertex 12.202091363346801 -40.64972470332038 2.9999855862828673
  endloop
endfacet
facet normal -3.5640518123967797e-07 9.329934258228585e-08 0.9999999999999323
  outer loop
    vertex 22.000009021736563 -42.85180808584492 2.9999917937844045
    vertex 12.202091363346801 -40.64972470332038 2.9999855862828673
    vertex 12.472252980511056 -41.00180626299143 2.9999857154135396
  endloop
endfacet
facet normal -3.5640518123967797e-07 9.329934258228585e-08 0.9999999999999323
  outer loop
    vertex 22.000009021736563 -42.85180808584492 2.9999917937844045
    vertex 12.472252980511056 -41.00180626299143 2.9999857154135396
    vertex 12.64208365072979 -41.411813906215755 2.9999858450634442
  endloop
endfacet
facet normal -3.5640518123967797e-07 9.329934258228585e-08 0.9999999999999323
  outer loop
    vertex 22.000009021736563 -42.85180808584492 2.9999917937844045
    vertex 12.64208365072979 -41.411813906215755 2.9999858450634442
    vertex 12.70000969448591 -41.85180628967687 2.9999859663972632
  endloop
endfacet
facet normal -3.5640518123967797e-07 9.329934258228585e-08 0.9999999999999323
  outer loop
    vertex 22.000009021736563 -42.85180808584492 2.9999917937844045
    vertex 12.70000969448591 -41.85180628967687 2.9999859663972632
    vertex 12.642083547625017 -42.2917986595643 2.9999860711461315
  endloop
endfacet
facet normal -3.5640518123967797e-07 9.329934258228585e-08 0.9999999999999323
  outer loop
    vertex 22.000009021736563 -42.85180808584492 2.9999917937844045
    vertex 12.642083547625017 -42.2917986595643 2.9999860711461315
    vertex 12.472252781327912 -42.70180626299131 2.9999861521716666
  endloop
endfacet
facet normal -3.5640518123967797e-07 9.329934258228585e-08 0.9999999999999323
  outer loop
    vertex 22.000009021736563 -42.85180808584492 2.9999917937844045
    vertex 12.472252781327912 -42.70180626299131 2.9999861521716666
    vertex 12.20209108165933 -43.05388775935441 2.9999862039521243
  endloop
endfacet
facet normal -3.5640518123967797e-07 9.329934258228585e-08 0.9999999999999323
  outer loop
    vertex 22.000009021736563 -42.85180808584492 2.9999917937844045
    vertex 12.20209108165933 -43.05388775935441 2.9999862039521243
    vertex 22.000009401569354 -44.351807379324065 2.999991755246811
  endloop
endfacet
facet normal -3.5640518123967797e-07 9.329934258228585e-08 0.9999999999999323
  outer loop
    vertex 22.000009401569354 -44.351807379324065 2.999991755246811
    vertex 12.20209108165933 -43.05388775935441 2.9999862039521243
    vertex 11.850009521988378 -43.32404937651881 2.999986222958773
  endloop
endfacet
facet normal -3.5640518123967797e-07 9.329934258228585e-08 0.9999999999999323
  outer loop
    vertex 22.000009401569354 -44.351807379324065 2.999991755246811
    vertex 11.850009521988378 -43.32404937651881 2.999986222958773
    vertex 11.44000187876419 -43.49388004673754 2.9999862078962227
  endloop
endfacet
facet normal -3.5640518123967797e-07 9.329934258228585e-08 0.9999999999999323
  outer loop
    vertex 22.000009401569354 -44.351807379324065 2.999991755246811
    vertex 11.44000187876419 -43.49388004673754 2.9999862078962227
    vertex 11.000009495302853 -43.55180609049358 2.999986159791085
  endloop
endfacet
facet normal -3.5640518123967797e-07 9.329934258228585e-08 0.9999999999999323
  outer loop
    vertex 22.000009401569354 -44.351807379324065 2.999991755246811
    vertex 11.000009495302853 -43.55180609049358 2.999986159791085
    vertex 3.747871659687263e-08 -44.351804801660386 2.9999847906130066
  endloop
endfacet
facet normal -1.1716652086860968e-07 -0.9999999999999865 1.1561235250046348e-07
  outer loop
    vertex 3.747871659687263e-08 -44.351804801660386 2.9999847906130066
    vertex 22.00000975989239 -44.35180749493645 1.9999917552469026
    vertex 22.000009401569354 -44.351807379324065 2.999991755246811
  endloop
endfacet
facet normal -1.1716652086860968e-07 -0.9999999999999865 1.1561235250046348e-07
  outer loop
    vertex 22.00000975989239 -44.35180749493645 1.9999917552469026
    vertex 3.747871659687263e-08 -44.351804801660386 2.9999847906130066
    vertex 3.9580179589382425e-07 -44.35180491727264 1.999984790613099
  endloop
endfacet
facet normal -1.310201368671197e-07 6.95191559249041e-07 0.9999999999997498
  outer loop
    vertex -1.5140183978967768e-06 -52.85179775340967 2.999987938570528
    vertex 22.000008873231558 -51.35180085140477 2.999991575403742
    vertex -4.908596033192935e-07 -51.351798273739725 2.999986146797289
  endloop
endfacet
facet normal -1.310201368671197e-07 6.95191559249041e-07 0.9999999999997498
  outer loop
    vertex 22.000008873231558 -51.35180085140477 2.999991575403742
    vertex -1.5140183978967768e-06 -52.85179775340967 2.999987938570528
    vertex 11.00000877949915 -52.15179956257367 2.999988369271908
  endloop
endfacet
facet normal -1.310201368671197e-07 6.95191559249041e-07 0.9999999999997498
  outer loop
    vertex 11.00000877949915 -52.15179956257367 2.999988369271908
    vertex -1.5140183978967768e-06 -52.85179775340967 2.999987938570528
    vertex 10.560016396037858 -52.20972560632986 2.999988321166748
  endloop
endfacet
facet normal -1.310201368671197e-07 6.95191559249041e-07 0.9999999999997498
  outer loop
    vertex 10.560016396037858 -52.20972560632986 2.999988321166748
    vertex -1.5140183978967768e-06 -52.85179775340967 2.999987938570528
    vertex 10.150008752813651 -52.379556276548634 2.999988306104243
  endloop
endfacet
facet normal -1.310201368671197e-07 6.95191559249041e-07 0.9999999999997498
  outer loop
    vertex 10.150008752813651 -52.379556276548634 2.999988306104243
    vertex -1.5140183978967768e-06 -52.85179775340967 2.999987938570528
    vertex 9.79792719314263 -52.64971789371267 2.999988325110869
  endloop
endfacet
facet normal -1.310201368671197e-07 6.95191559249041e-07 0.9999999999997498
  outer loop
    vertex 9.79792719314263 -52.64971789371267 2.999988325110869
    vertex -1.5140183978967768e-06 -52.85179775340967 2.999987938570528
    vertex 9.527765493474162 -53.001799390075995 2.9999883768913493
  endloop
endfacet
facet normal -1.310201368671197e-07 6.95191559249041e-07 0.9999999999997498
  outer loop
    vertex 9.527765493474162 -53.001799390075995 2.9999883768913493
    vertex -1.5140183978967768e-06 -52.85179775340967 2.999987938570528
    vertex 4.999997900148039 -57.85179833924117 2.999992636555823
  endloop
endfacet
facet normal -1.310201368671197e-07 6.95191559249041e-07 0.9999999999997498
  outer loop
    vertex 9.527765493474162 -53.001799390075995 2.9999883768913493
    vertex 4.999997900148039 -57.85179833924117 2.999992636555823
    vertex 9.357934727177101 -53.41180699350331 2.999988457916907
  endloop
endfacet
facet normal -1.310201368671197e-07 6.95191559249041e-07 0.9999999999997498
  outer loop
    vertex 9.357934727177101 -53.41180699350331 2.999988457916907
    vertex 4.999997900148039 -57.85179833924117 2.999992636555823
    vertex 9.300008580316007 -53.851799363390526 2.999988562665798
  endloop
endfacet
facet normal -1.310201368671197e-07 6.95191559249041e-07 0.9999999999997498
  outer loop
    vertex 9.300008580316007 -53.851799363390526 2.999988562665798
    vertex 4.999997900148039 -57.85179833924117 2.999992636555823
    vertex 9.357934624072238 -54.29179174685177 2.9999886839995487
  endloop
endfacet
facet normal -1.310201368671197e-07 6.95191559249041e-07 0.9999999999997498
  outer loop
    vertex 9.357934624072238 -54.29179174685177 2.9999886839995487
    vertex 4.999997900148039 -57.85179833924117 2.999992636555823
    vertex 9.527765294290926 -54.70179939007588 2.9999888136494763
  endloop
endfacet
facet normal -1.310201368671197e-07 6.95191559249041e-07 0.9999999999997498
  outer loop
    vertex 9.527765294290926 -54.70179939007588 2.9999888136494763
    vertex 4.999997900148039 -57.85179833924117 2.999992636555823
    vertex 9.797926911455269 -55.05388094974688 2.9999889427801936
  endloop
endfacet
facet normal -1.310201368671197e-07 6.95191559249041e-07 0.9999999999997498
  outer loop
    vertex 9.797926911455269 -55.05388094974688 2.9999889427801936
    vertex 4.999997900148039 -57.85179833924117 2.999992636555823
    vertex 10.150008407818406 -55.3240426494155 2.9999890625915895
  endloop
endfacet
facet normal -1.310201368671197e-07 6.95191559249041e-07 0.9999999999997498
  outer loop
    vertex 10.150008407818406 -55.3240426494155 2.9999890625915895
    vertex 4.999997900148039 -57.85179833924117 2.999992636555823
    vertex 10.560016011245569 -55.493873415712486 2.9999891649187145
  endloop
endfacet
facet normal -1.310201368671197e-07 6.95191559249041e-07 0.9999999999997498
  outer loop
    vertex 10.560016011245569 -55.493873415712486 2.9999891649187145
    vertex 4.999997900148039 -57.85179833924117 2.999992636555823
    vertex 11.000008381132906 -55.55179956257341 2.999989242788229
  endloop
endfacet
facet normal -1.310201368671197e-07 6.95191559249041e-07 0.9999999999997498
  outer loop
    vertex 11.00000877949915 -52.15179956257367 2.999988369271908
    vertex 22.00000939157276 -52.85180202672562 2.9999915368657817
    vertex 22.000008873231558 -51.35180085140477 2.999991575403742
  endloop
endfacet
facet normal -1.310201368671197e-07 6.95191559249041e-07 0.9999999999997498
  outer loop
    vertex 22.00000939157276 -52.85180202672562 2.9999915368657817
    vertex 11.00000877949915 -52.15179956257367 2.999988369271908
    vertex 11.44000114938642 -52.20972570943459 2.999988447141378
  endloop
endfacet
facet normal -1.310201368671197e-07 6.95191559249041e-07 0.9999999999997498
  outer loop
    vertex 22.00000939157276 -52.85180202672562 2.9999915368657817
    vertex 11.44000114938642 -52.20972570943459 2.999988447141378
    vertex 11.850008752813629 -52.37955647573166 2.999988549468547
  endloop
endfacet
facet normal -1.310201368671197e-07 6.95191559249041e-07 0.9999999999997498
  outer loop
    vertex 22.00000939157276 -52.85180202672562 2.9999915368657817
    vertex 11.850008752813629 -52.37955647573166 2.999988549468547
    vertex 12.20209024917681 -52.64971817540006 2.999988669279966
  endloop
endfacet
facet normal -1.310201368671197e-07 6.95191559249041e-07 0.9999999999997498
  outer loop
    vertex 22.00000939157276 -52.85180202672562 2.9999915368657817
    vertex 12.20209024917681 -52.64971817540006 2.999988669279966
    vertex 12.47225186634113 -53.00179973507134 2.9999887984106155
  endloop
endfacet
facet normal -1.310201368671197e-07 6.95191559249041e-07 0.9999999999997498
  outer loop
    vertex 22.00000939157276 -52.85180202672562 2.9999915368657817
    vertex 12.47225186634113 -53.00179973507134 2.9999887984106155
    vertex 17.00000880574084 -57.85180144089225 2.9999919772119847
  endloop
endfacet
facet normal -1.310201368671197e-07 6.95191559249041e-07 0.9999999999997498
  outer loop
    vertex 17.00000880574084 -57.85180144089225 2.9999919772119847
    vertex 12.47225186634113 -53.00179973507134 2.9999887984106155
    vertex 12.642082536559707 -53.4118073782954 2.9999889280606107
  endloop
endfacet
facet normal -1.310201368671197e-07 6.95191559249041e-07 0.9999999999997498
  outer loop
    vertex 17.00000880574084 -57.85180144089225 2.9999919772119847
    vertex 12.642082536559707 -53.4118073782954 2.9999889280606107
    vertex 12.700008580315918 -53.851799761756745 2.9999890493943617
  endloop
endfacet
facet normal -1.310201368671197e-07 6.95191559249041e-07 0.9999999999997498
  outer loop
    vertex 17.00000880574084 -57.85180144089225 2.9999919772119847
    vertex 12.700008580315918 -53.851799761756745 2.9999890493943617
    vertex 12.642082433454958 -54.29179213164408 2.9999891541432526
  endloop
endfacet
facet normal -1.310201368671197e-07 6.95191559249041e-07 0.9999999999997498
  outer loop
    vertex 17.00000880574084 -57.85180144089225 2.9999919772119847
    vertex 12.642082433454958 -54.29179213164408 2.9999891541432526
    vertex 12.47225166715792 -54.701799735071084 2.9999892351688104
  endloop
endfacet
facet normal -1.310201368671197e-07 6.95191559249041e-07 0.9999999999997498
  outer loop
    vertex 17.00000880574084 -57.85180144089225 2.9999919772119847
    vertex 12.47225166715792 -54.701799735071084 2.9999892351688104
    vertex 12.202089967489382 -55.05388123143423 2.999989286949291
  endloop
endfacet
facet normal -1.310201368671197e-07 6.95191559249041e-07 0.9999999999997498
  outer loop
    vertex 17.00000880574084 -57.85180144089225 2.9999919772119847
    vertex 12.202089967489382 -55.05388123143423 2.999989286949291
    vertex 11.850008407818386 -55.324042848598545 2.999989305955849
  endloop
endfacet
facet normal -1.310201368671197e-07 6.95191559249041e-07 0.9999999999997498
  outer loop
    vertex 17.00000880574084 -57.85180144089225 2.9999919772119847
    vertex 11.850008407818386 -55.324042848598545 2.999989305955849
    vertex 11.44000076459411 -55.49387351881726 2.999989290893344
  endloop
endfacet
facet normal -1.310201368671197e-07 6.95191559249041e-07 0.9999999999997498
  outer loop
    vertex 17.00000880574084 -57.85180144089225 2.9999919772119847
    vertex 11.44000076459411 -55.49387351881726 2.999989290893344
    vertex 11.000008381132906 -55.55179956257341 2.999989242788229
  endloop
endfacet
facet normal -1.310201368671197e-07 6.95191559249041e-07 0.9999999999997498
  outer loop
    vertex 17.00000880574084 -57.85180144089225 2.9999919772119847
    vertex 11.000008381132906 -55.55179956257341 2.999989242788229
    vertex 4.999997900148039 -57.85179833924117 2.999992636555823
  endloop
endfacet
facet normal 1.1716668589991631e-07 0.9999999999998225 -5.844121289621074e-07
  outer loop
    vertex 22.000008939728296 -51.351801435816924 1.999991575403893
    vertex -4.908596033192935e-07 -51.351798273739725 2.999986146797289
    vertex 22.000008873231558 -51.35180085140477 2.999991575403742
  endloop
endfacet
facet normal 1.1716668589991631e-07 0.9999999999998225 -5.844121289621074e-07
  outer loop
    vertex -4.908596033192935e-07 -51.351798273739725 2.999986146797289
    vertex 22.000008939728296 -51.351801435816924 1.999991575403893
    vertex -4.2436286480374007e-07 -51.351798858151874 1.9999861467974402
  endloop
endfacet
facet normal 0.7071066983372879 -0.7071068640357906 -9.860815358624421e-08
  outer loop
    vertex 17.00000880574084 -57.85180144089225 2.9999919772119847
    vertex 22.000009050289457 -52.85180194964996 -8.463133898439779e-06
    vertex 22.00000939157276 -52.85180202672562 2.9999915368657817
  endloop
endfacet
facet normal 0.7071066983372879 -0.7071068640357906 -9.860815358624421e-08
  outer loop
    vertex 22.000009050289457 -52.85180194964996 -8.463133898439779e-06
    vertex 17.00000880574084 -57.85180144089225 2.9999919772119847
    vertex 17.00000846445754 -57.851801363816556 -8.022787672995468e-06
  endloop
endfacet
facet normal 0.7071068640356475 0.7071066983373739 3.01060562230128e-07
  outer loop
    vertex 22.000009021736563 -42.85180808584492 2.9999917937844045
    vertex 17.00001080778511 -37.851807422937235 -1.0078116106909673e-05
    vertex 17.000009607568973 -37.85180750001272 2.9999899218835204
  endloop
endfacet
facet normal 0.7071068640356475 0.7071066983373739 3.01060562230128e-07
  outer loop
    vertex 17.00001080778511 -37.851807422937235 -1.0078116106909673e-05
    vertex 22.000009021736563 -42.85180808584492 2.9999917937844045
    vertex 22.000010221952724 -42.851808008769396 -8.20621524560139e-06
  endloop
endfacet
facet normal -0.7071068640358152 -0.7071066983372634 9.860812996790435e-08
  outer loop
    vertex 4.999997900148039 -57.85179833924117 2.999992636555823
    vertex -3.138037241834368e-07 -52.85179937198306 -8.786472648039666e-06
    vertex 4.9999991003626905 -57.85179995781457 -4.088487330147772e-06
  endloop
endfacet
facet normal -0.7071068640358152 -0.7071066983372634 9.860812996790435e-08
  outer loop
    vertex -3.138037241834368e-07 -52.85179937198306 -8.786472648039666e-06
    vertex 4.999997900148039 -57.85179833924117 2.999992636555823
    vertex -1.5140183978967768e-06 -52.85179775340967 2.999987938570528
  endloop
endfacet
facet normal -0.7071066983371629 0.7071068640356105 -6.643954474250961e-07
  outer loop
    vertex 5.0000002434791515 -37.85180439836449 2.9999837079728104
    vertex 8.578618936772031e-07 -42.85180543110588 -1.4181719546263459e-05
    vertex -3.4235352450728837e-07 -42.851803812531514 2.999984405237677
  endloop
endfacet
facet normal -0.7071066983371629 0.7071068640356105 -6.643954474250961e-07
  outer loop
    vertex 8.578618936772031e-07 -42.85180543110588 -1.4181719546263459e-05
    vertex 5.0000002434791515 -37.85180439836449 2.9999837079728104
    vertex 5.000001443694569 -37.85180601693886 -1.487898439000157e-05
  endloop
endfacet
endsolid Untitled-5653588b
