solid Untitled-56535948
facet normal -2.7673636035710903e-15 -1.0 -2.7755575615628914e-16
  outer loop
    vertex 64.09298086049202 -17.800000000000026 6.024023296681763
    vertex 66.59298086049205 -17.87496318216408 6.593425195907299
    vertex 64.09298086049202 -17.874963182164073 6.593425195907292
  endloop
endfacet
facet normal -2.0430256290192782e-15 -0.9659258262890704 -0.2588190451025131
  outer loop
    vertex 66.59298086049205 -17.87496318216408 6.593425195907299
    vertex 64.09298086049202 -17.800000000000026 6.024023296681763
    vertex 66.59298086049205 -17.800000000000033 6.0240232966817695
  endloop
endfacet
facet normal -3.491844581029048e-15 -0.5000000000000173 0.8660254037844288
  outer loop
    vertex 66.59298086049206 -18.900000000000027 4.118767408355987
    vertex 64.09298086049202 -18.44436508138962 4.468388378071372
    vertex 64.09298086049202 -18.900000000000023 4.118767408355981
  endloop
endfacet
facet normal -3.678129271385352e-15 -0.7071067811865488 0.7071067811865462
  outer loop
    vertex 64.09298086049202 -18.44436508138962 4.468388378071372
    vertex 66.59298086049206 -18.900000000000027 4.118767408355987
    vertex 66.59298086049206 -18.444365081389623 4.468388378071378
  endloop
endfacet
facet normal -3.678129271385352e-15 -0.7071067811865488 0.7071067811865462
  outer loop
    vertex 64.09298086049202 -18.44436508138962 4.468388378071372
    vertex 66.59298086049206 -18.094744111674263 4.9240232966817485
    vertex 64.09298086049202 -18.094744111674256 4.924023296681742
  endloop
endfacet
facet normal -3.61375553029279e-15 -0.8660254037844355 0.5000000000000059
  outer loop
    vertex 66.59298086049206 -18.094744111674263 4.9240232966817485
    vertex 64.09298086049202 -18.44436508138962 4.468388378071372
    vertex 66.59298086049206 -18.444365081389623 4.468388378071378
  endloop
endfacet
facet normal 0.5935992687254599 0.8047607769819548 1.668362724695499e-15
  outer loop
    vertex 60.98546778944876 -35.62882008934278 0.024023296681761928
    vertex 58.280136372564435 -33.21239014631306 12.024023296682005
    vertex 60.98546778944874 -35.62882008934278 12.02402329668201
  endloop
endfacet
facet normal 0.7329024663180966 0.6803337231571367 1.972932593352412e-15
  outer loop
    vertex 58.280136372564435 -33.21239014631306 12.024023296682005
    vertex 60.98546778944876 -35.62882008934278 0.024023296681761928
    vertex 58.28013637256447 -33.21239014631306 0.024023296681754878
  endloop
endfacet
facet normal -3.61375553029279e-15 -0.8660254037844355 0.5000000000000059
  outer loop
    vertex 64.09298086049202 -18.094744111674256 4.924023296681742
    vertex 66.59298086049206 -17.87496318216408 5.45462139745624
    vertex 64.09298086049202 -17.874963182164073 5.454621397456233
  endloop
endfacet
facet normal -3.3031103218241238e-15 -0.9659258262890716 0.2588190451025081
  outer loop
    vertex 66.59298086049206 -17.87496318216408 5.45462139745624
    vertex 64.09298086049202 -18.094744111674256 4.924023296681742
    vertex 66.59298086049206 -18.094744111674263 4.9240232966817485
  endloop
endfacet
facet normal -1.0 3.066829070744319e-15 -1.4943078686676084e-15
  outer loop
    vertex 64.09298086049209 -2.5000000000000058 0.02402329668177744
    vertex 64.09298086049202 -18.900000000000023 4.118767408355981
    vertex 64.09298086049208 -2.5000000000000093 12.024023296682028
  endloop
endfacet
facet normal -1.0 3.066829070744319e-15 -1.4943078686676084e-15
  outer loop
    vertex 64.09298086049202 -18.900000000000023 4.118767408355981
    vertex 64.09298086049209 -2.5000000000000058 0.02402329668177744
    vertex 64.09298086049202 -19.43059810077448 3.898986478845797
  endloop
endfacet
facet normal -1.0 3.066829070744319e-15 -1.4943078686676084e-15
  outer loop
    vertex 64.09298086049202 -19.43059810077448 3.898986478845797
    vertex 64.09298086049209 -2.5000000000000058 0.02402329668177744
    vertex 64.09298086049199 -37.50000000000002 0.02402329668176757
  endloop
endfacet
facet normal -1.0 3.066829070744319e-15 -1.4943078686676084e-15
  outer loop
    vertex 64.09298086049208 -2.5000000000000093 12.024023296682028
    vertex 64.09298086049202 -18.900000000000023 4.118767408355981
    vertex 64.09298086049202 -18.44436508138962 4.468388378071372
  endloop
endfacet
facet normal -1.0 3.066829070744319e-15 -1.4943078686676084e-15
  outer loop
    vertex 64.09298086049208 -2.5000000000000093 12.024023296682028
    vertex 64.09298086049202 -18.44436508138962 4.468388378071372
    vertex 64.09298086049202 -18.094744111674256 4.924023296681742
  endloop
endfacet
facet normal -1.0 3.066829070744319e-15 -1.4943078686676084e-15
  outer loop
    vertex 64.09298086049208 -2.5000000000000093 12.024023296682028
    vertex 64.09298086049202 -18.094744111674256 4.924023296681742
    vertex 64.09298086049202 -17.874963182164073 5.454621397456233
  endloop
endfacet
facet normal -1.0 3.066829070744319e-15 -1.4943078686676084e-15
  outer loop
    vertex 64.09298086049208 -2.5000000000000093 12.024023296682028
    vertex 64.09298086049202 -17.874963182164073 5.454621397456233
    vertex 64.09298086049202 -17.800000000000026 6.024023296681763
  endloop
endfacet
facet normal -1.0 3.066829070744319e-15 -1.4943078686676084e-15
  outer loop
    vertex 64.09298086049202 -19.43059810077448 3.898986478845797
    vertex 64.09298086049199 -37.50000000000002 0.02402329668176757
    vertex 64.09298086049202 -20.000000000000025 3.824023296681766
  endloop
endfacet
facet normal -1.0 3.066829070744319e-15 -1.4943078686676084e-15
  outer loop
    vertex 64.09298086049202 -20.000000000000025 3.824023296681766
    vertex 64.09298086049199 -37.50000000000002 0.02402329668176757
    vertex 64.09298086049202 -20.569401899225568 3.898986478845797
  endloop
endfacet
facet normal -1.0 3.066829070744319e-15 -1.4943078686676084e-15
  outer loop
    vertex 64.09298086049202 -20.569401899225568 3.898986478845797
    vertex 64.09298086049199 -37.50000000000002 0.02402329668176757
    vertex 64.09298086049202 -21.100000000000023 4.118767408355981
  endloop
endfacet
facet normal -1.0 3.066829070744319e-15 -1.4943078686676084e-15
  outer loop
    vertex 64.09298086049202 -21.100000000000023 4.118767408355981
    vertex 64.09298086049199 -37.50000000000002 0.02402329668176757
    vertex 64.09298086049202 -21.55563491861043 4.468388378071371
  endloop
endfacet
facet normal -1.0 3.066829070744319e-15 -1.4943078686676084e-15
  outer loop
    vertex 64.09298086049202 -21.55563491861043 4.468388378071371
    vertex 64.09298086049199 -37.50000000000002 0.02402329668176757
    vertex 64.09298086049202 -21.905255888325794 4.9240232966817405
  endloop
endfacet
facet normal -1.0 3.066829070744319e-15 -1.4943078686676084e-15
  outer loop
    vertex 64.09298086049202 -21.905255888325794 4.9240232966817405
    vertex 64.09298086049199 -37.50000000000002 0.02402329668176757
    vertex 64.092980860492 -22.12503681783598 5.454621397456232
  endloop
endfacet
facet normal -1.0 3.066829070744319e-15 -1.4943078686676084e-15
  outer loop
    vertex 64.092980860492 -22.12503681783598 5.454621397456232
    vertex 64.09298086049199 -37.50000000000002 0.02402329668176757
    vertex 64.092980860492 -22.20000000000003 6.0240232966817615
  endloop
endfacet
facet normal -1.0 3.066829070744319e-15 -1.4943078686676084e-15
  outer loop
    vertex 64.09298086049208 -2.5000000000000093 12.024023296682028
    vertex 64.09298086049202 -19.430598100774482 8.149060114517727
    vertex 64.09298086049196 -37.50000000000002 12.024023296682017
  endloop
endfacet
facet normal -1.0 3.066829070744319e-15 -1.4943078686676084e-15
  outer loop
    vertex 64.09298086049202 -19.430598100774482 8.149060114517727
    vertex 64.09298086049208 -2.5000000000000093 12.024023296682028
    vertex 64.09298086049202 -18.90000000000003 7.929279185007543
  endloop
endfacet
facet normal -1.0 3.066829070744319e-15 -1.4943078686676084e-15
  outer loop
    vertex 64.09298086049202 -18.90000000000003 7.929279185007543
    vertex 64.09298086049208 -2.5000000000000093 12.024023296682028
    vertex 64.09298086049202 -18.44436508138962 7.579658215292152
  endloop
endfacet
facet normal -1.0 3.066829070744319e-15 -1.4943078686676084e-15
  outer loop
    vertex 64.09298086049202 -18.44436508138962 7.579658215292152
    vertex 64.09298086049208 -2.5000000000000093 12.024023296682028
    vertex 64.09298086049202 -18.094744111674263 7.1240232966817825
  endloop
endfacet
facet normal -1.0 3.066829070744319e-15 -1.4943078686676084e-15
  outer loop
    vertex 64.09298086049202 -18.094744111674263 7.1240232966817825
    vertex 64.09298086049208 -2.5000000000000093 12.024023296682028
    vertex 64.09298086049202 -17.874963182164073 6.593425195907292
  endloop
endfacet
facet normal -1.0 3.066829070744319e-15 -1.4943078686676084e-15
  outer loop
    vertex 64.09298086049202 -17.874963182164073 6.593425195907292
    vertex 64.09298086049208 -2.5000000000000093 12.024023296682028
    vertex 64.09298086049202 -17.800000000000026 6.024023296681763
  endloop
endfacet
facet normal -1.0 3.066829070744319e-15 -1.4943078686676084e-15
  outer loop
    vertex 64.09298086049196 -37.50000000000002 12.024023296682017
    vertex 64.09298086049202 -19.430598100774482 8.149060114517727
    vertex 64.092980860492 -20.00000000000003 8.224023296681759
  endloop
endfacet
facet normal -1.0 3.066829070744319e-15 -1.4943078686676084e-15
  outer loop
    vertex 64.09298086049196 -37.50000000000002 12.024023296682017
    vertex 64.092980860492 -20.00000000000003 8.224023296681759
    vertex 64.092980860492 -20.569401899225575 8.149060114517727
  endloop
endfacet
facet normal -1.0 3.066829070744319e-15 -1.4943078686676084e-15
  outer loop
    vertex 64.09298086049196 -37.50000000000002 12.024023296682017
    vertex 64.092980860492 -20.569401899225575 8.149060114517727
    vertex 64.092980860492 -21.10000000000003 7.929279185007543
  endloop
endfacet
facet normal -1.0 3.066829070744319e-15 -1.4943078686676084e-15
  outer loop
    vertex 64.09298086049196 -37.50000000000002 12.024023296682017
    vertex 64.092980860492 -21.10000000000003 7.929279185007543
    vertex 64.092980860492 -21.555634918610433 7.579658215292152
  endloop
endfacet
facet normal -1.0 3.066829070744319e-15 -1.4943078686676084e-15
  outer loop
    vertex 64.09298086049196 -37.50000000000002 12.024023296682017
    vertex 64.092980860492 -21.555634918610433 7.579658215292152
    vertex 64.092980860492 -21.905255888325794 7.1240232966817825
  endloop
endfacet
facet normal -1.0 3.066829070744319e-15 -1.4943078686676084e-15
  outer loop
    vertex 64.09298086049196 -37.50000000000002 12.024023296682017
    vertex 64.092980860492 -21.905255888325794 7.1240232966817825
    vertex 64.092980860492 -22.12503681783598 6.593425195907292
  endloop
endfacet
facet normal -1.0 3.066829070744319e-15 -1.4943078686676084e-15
  outer loop
    vertex 64.09298086049196 -37.50000000000002 12.024023296682017
    vertex 64.092980860492 -22.12503681783598 6.593425195907292
    vertex 64.092980860492 -22.20000000000003 6.0240232966817615
  endloop
endfacet
facet normal -1.0 3.066829070744319e-15 -1.4943078686676084e-15
  outer loop
    vertex 64.09298086049196 -37.50000000000002 12.024023296682017
    vertex 64.092980860492 -22.20000000000003 6.0240232966817615
    vertex 64.09298086049199 -37.50000000000002 0.02402329668176757
  endloop
endfacet
facet normal -3.0675964530215434e-15 -0.25881904510250364 0.9659258262890729
  outer loop
    vertex 66.59298086049205 -19.430598100774485 3.8989864788458033
    vertex 64.09298086049202 -18.900000000000023 4.118767408355981
    vertex 64.09298086049202 -19.43059810077448 3.898986478845797
  endloop
endfacet
facet normal -3.491844581029048e-15 -0.5000000000000173 0.8660254037844288
  outer loop
    vertex 64.09298086049202 -18.900000000000023 4.118767408355981
    vertex 66.59298086049205 -19.430598100774485 3.8989864788458033
    vertex 66.59298086049206 -18.900000000000027 4.118767408355987
  endloop
endfacet
facet normal -1.1794588341092138e-15 -0.8660254037844348 -0.5000000000000068
  outer loop
    vertex 64.09298086049202 -18.094744111674263 7.1240232966817825
    vertex 66.59298086049205 -18.444365081389627 7.579658215292159
    vertex 64.09298086049202 -18.44436508138962 7.579658215292152
  endloop
endfacet
facet normal -2.355138688025739e-16 -0.707106781186549 -0.7071067811865461
  outer loop
    vertex 66.59298086049205 -18.444365081389627 7.579658215292159
    vertex 64.09298086049202 -18.094744111674263 7.1240232966817825
    vertex 66.59298086049205 -18.09474411167427 7.12402329668179
  endloop
endfacet
facet normal -0.7189538599964932 -0.6950578013346395 -1.943064299719629e-15
  outer loop
    vertex 57.243567539799585 -35.21107265228506 0.024023296681752057
    vertex 60.43754578699512 -37.93553804714384 12.024023296682008
    vertex 57.24356753979956 -35.21107265228506 12.024023296682001
  endloop
endfacet
facet normal -0.5730075780508261 -0.819550068938028 -1.3906900887887395e-15
  outer loop
    vertex 60.43754578699512 -37.93553804714384 12.024023296682008
    vertex 57.243567539799585 -35.21107265228506 0.024023296681752057
    vertex 60.43754578699516 -37.93553804714384 0.024023296681759107
  endloop
endfacet
facet normal -2.7673636035710907e-15 -1.0 -2.7755575615628914e-16
  outer loop
    vertex 64.09298086049198 -40.00000000000003 0.02402329668176757
    vertex 66.59298086049199 -40.00000000000003 12.02402329668175
    vertex 64.09298086049198 -40.00000000000003 12.024023296681746
  endloop
endfacet
facet normal -2.7673636035710907e-15 -1.0 -2.7755575615628914e-16
  outer loop
    vertex 66.59298086049199 -40.00000000000003 12.02402329668175
    vertex 64.09298086049198 -40.00000000000003 0.02402329668176757
    vertex 66.59298086049199 -40.00000000000003 0.024023296681773207
  endloop
endfacet
facet normal 2.434296696183545e-15 2.775557561562824e-16 -1.0
  outer loop
    vertex 66.59298086049203 -20.000000000000036 8.224023296681764
    vertex 64.092980860492 -20.569401899225575 8.149060114517727
    vertex 64.092980860492 -20.00000000000003 8.224023296681759
  endloop
endfacet
facet normal 3.0675964530215454e-15 0.2588190451025045 -0.9659258262890726
  outer loop
    vertex 64.092980860492 -20.569401899225575 8.149060114517727
    vertex 66.59298086049203 -20.000000000000036 8.224023296681764
    vertex 66.59298086049203 -20.569401899225582 8.149060114517733
  endloop
endfacet
facet normal 2.434296696183545e-15 2.775557561562824e-16 -1.0
  outer loop
    vertex 51.49564292289531 -15.82123558993297 0.0240232966817436
    vertex 51.49564292289528 -24.178764410066986 0.024023296681740778
    vertex 51.092980860492055 -19.99999999999998 0.02402329668174219
  endloop
endfacet
facet normal 2.434296696183545e-15 2.775557561562824e-16 -1.0
  outer loop
    vertex 51.49564292289528 -24.178764410066986 0.024023296681740778
    vertex 51.49564292289531 -15.82123558993297 0.0240232966817436
    vertex 52.68881169306118 -11.796244035004893 0.024023296681747828
  endloop
endfacet
facet normal 2.434296696183545e-15 2.775557561562824e-16 -1.0
  outer loop
    vertex 51.49564292289528 -24.178764410066986 0.024023296681740778
    vertex 52.68881169306118 -11.796244035004893 0.024023296681747828
    vertex 52.68881169306114 -28.203755964995068 0.02402329668174219
  endloop
endfacet
facet normal 2.434296696183545e-15 2.775557561562824e-16 -1.0
  outer loop
    vertex 52.68881169306114 -28.203755964995068 0.02402329668174219
    vertex 52.68881169306118 -11.796244035004893 0.024023296681747828
    vertex 53.09298086049205 -19.99999999999997 0.02402329668174642
  endloop
endfacet
facet normal 2.434296696183545e-15 2.775557561562824e-16 -1.0
  outer loop
    vertex 53.09298086049205 -19.99999999999997 0.02402329668174642
    vertex 52.68881169306118 -11.796244035004893 0.024023296681747828
    vertex 53.4317461482446 -16.388464339845733 0.02402329668174924
  endloop
endfacet
facet normal 2.434296696183545e-15 2.775557561562824e-16 -1.0
  outer loop
    vertex 53.4317461482446 -16.388464339845733 0.02402329668174924
    vertex 52.68881169306118 -11.796244035004893 0.024023296681747828
    vertex 54.62858018068199 -8.073139558123428 0.02402329668175347
  endloop
endfacet
facet normal 2.434296696183545e-15 2.775557561562824e-16 -1.0
  outer loop
    vertex 53.4317461482446 -16.388464339845733 0.02402329668174924
    vertex 54.62858018068199 -8.073139558123428 0.02402329668175347
    vertex 54.43622334681364 -12.902926031017863 0.02402329668175065
  endloop
endfacet
facet normal 2.434296696183545e-15 2.775557561562824e-16 -1.0
  outer loop
    vertex 54.43622334681364 -12.902926031017863 0.02402329668175065
    vertex 54.62858018068199 -8.073139558123428 0.02402329668175347
    vertex 56.071368785473815 -9.664986695702794 0.02402329668175629
  endloop
endfacet
facet normal 2.434296696183545e-15 2.775557561562824e-16 -1.0
  outer loop
    vertex 56.071368785473815 -9.664986695702794 0.02402329668175629
    vertex 54.62858018068199 -8.073139558123428 0.02402329668175347
    vertex 57.24356753979967 -4.7889273477149334 0.02402329668176052
  endloop
endfacet
facet normal 2.434296696183545e-15 2.775557561562824e-16 -1.0
  outer loop
    vertex 56.071368785473815 -9.664986695702794 0.02402329668175629
    vertex 57.24356753979967 -4.7889273477149334 0.02402329668176052
    vertex 58.280136372564534 -6.787609853686927 0.02402329668176334
  endloop
endfacet
facet normal 2.434296696183545e-15 2.775557561562824e-16 -1.0
  outer loop
    vertex 58.280136372564534 -6.787609853686927 0.02402329668176334
    vertex 57.24356753979967 -4.7889273477149334 0.02402329668176052
    vertex 60.43754578699526 -2.0644619528561687 0.024023296681768978
  endloop
endfacet
facet normal 2.434296696183545e-15 2.775557561562824e-16 -1.0
  outer loop
    vertex 58.280136372564534 -6.787609853686927 0.02402329668176334
    vertex 60.43754578699526 -2.0644619528561687 0.024023296681768978
    vertex 60.985467789448855 -4.371179910657224 0.02402329668177039
  endloop
endfacet
facet normal 2.434296696183545e-15 2.775557561562824e-16 -1.0
  outer loop
    vertex 60.985467789448855 -4.371179910657224 0.02402329668177039
    vertex 60.43754578699526 -2.0644619528561687 0.024023296681768978
    vertex 64.0929808604921 -5.0230652970384425e-15 0.024023296681778848
  endloop
endfacet
facet normal 2.434296696183545e-15 2.775557561562824e-16 -1.0
  outer loop
    vertex 60.985467789448855 -4.371179910657224 0.02402329668177039
    vertex 64.0929808604921 -5.0230652970384425e-15 0.024023296681778848
    vertex 64.09298086049209 -2.5000000000000058 0.02402329668177744
  endloop
endfacet
facet normal 2.434296696183545e-15 2.775557561562824e-16 -1.0
  outer loop
    vertex 64.09298086049209 -2.5000000000000058 0.02402329668177744
    vertex 64.0929808604921 -5.0230652970384425e-15 0.024023296681778848
    vertex 66.5929808604921 -1.1896733598248943e-14 0.02402329668178449
  endloop
endfacet
facet normal 2.434296696183545e-15 2.775557561562824e-16 -1.0
  outer loop
    vertex 52.68881169306114 -28.203755964995068 0.02402329668174219
    vertex 53.43174614824457 -23.61153566015422 0.02402329668174642
    vertex 54.62858018068192 -31.92686044187655 0.024023296681747828
  endloop
endfacet
facet normal 2.434296696183545e-15 2.775557561562824e-16 -1.0
  outer loop
    vertex 53.43174614824457 -23.61153566015422 0.02402329668174642
    vertex 52.68881169306114 -28.203755964995068 0.02402329668174219
    vertex 53.09298086049205 -19.99999999999997 0.02402329668174642
  endloop
endfacet
facet normal 2.434296696183545e-15 2.775557561562824e-16 -1.0
  outer loop
    vertex 54.62858018068192 -31.92686044187655 0.024023296681747828
    vertex 53.43174614824457 -23.61153566015422 0.02402329668174642
    vertex 54.43622334681359 -27.097073968982098 0.024023296681747828
  endloop
endfacet
facet normal 2.434296696183545e-15 2.775557561562824e-16 -1.0
  outer loop
    vertex 54.62858018068192 -31.92686044187655 0.024023296681747828
    vertex 54.43622334681359 -27.097073968982098 0.024023296681747828
    vertex 56.07136878547376 -30.335013304297185 0.02402329668175065
  endloop
endfacet
facet normal 2.434296696183545e-15 2.775557561562824e-16 -1.0
  outer loop
    vertex 54.62858018068192 -31.92686044187655 0.024023296681747828
    vertex 56.07136878547376 -30.335013304297185 0.02402329668175065
    vertex 57.243567539799585 -35.21107265228506 0.024023296681752057
  endloop
endfacet
facet normal 2.434296696183545e-15 2.775557561562824e-16 -1.0
  outer loop
    vertex 57.243567539799585 -35.21107265228506 0.024023296681752057
    vertex 56.07136878547376 -30.335013304297185 0.02402329668175065
    vertex 58.28013637256447 -33.21239014631306 0.024023296681754878
  endloop
endfacet
facet normal 2.434296696183545e-15 2.775557561562824e-16 -1.0
  outer loop
    vertex 57.243567539799585 -35.21107265228506 0.024023296681752057
    vertex 58.28013637256447 -33.21239014631306 0.024023296681754878
    vertex 60.43754578699516 -37.93553804714384 0.024023296681759107
  endloop
endfacet
facet normal 2.434296696183545e-15 2.775557561562824e-16 -1.0
  outer loop
    vertex 60.43754578699516 -37.93553804714384 0.024023296681759107
    vertex 58.28013637256447 -33.21239014631306 0.024023296681754878
    vertex 60.98546778944876 -35.62882008934278 0.024023296681761928
  endloop
endfacet
facet normal 2.434296696183545e-15 2.775557561562824e-16 -1.0
  outer loop
    vertex 60.43754578699516 -37.93553804714384 0.024023296681759107
    vertex 60.98546778944876 -35.62882008934278 0.024023296681761928
    vertex 64.09298086049198 -40.00000000000003 0.02402329668176757
  endloop
endfacet
facet normal 2.434296696183545e-15 2.775557561562824e-16 -1.0
  outer loop
    vertex 64.09298086049198 -40.00000000000003 0.02402329668176757
    vertex 60.98546778944876 -35.62882008934278 0.024023296681761928
    vertex 64.09298086049199 -37.50000000000002 0.02402329668176757
  endloop
endfacet
facet normal 2.434296696183545e-15 2.775557561562824e-16 -1.0
  outer loop
    vertex 64.09298086049198 -40.00000000000003 0.02402329668176757
    vertex 64.09298086049199 -37.50000000000002 0.02402329668176757
    vertex 64.09298086049209 -2.5000000000000058 0.02402329668177744
  endloop
endfacet
facet normal 2.434296696183545e-15 2.775557561562824e-16 -1.0
  outer loop
    vertex 64.09298086049198 -40.00000000000003 0.02402329668176757
    vertex 64.09298086049209 -2.5000000000000058 0.02402329668177744
    vertex 66.59298086049199 -40.00000000000003 0.024023296681773207
  endloop
endfacet
facet normal 2.434296696183545e-15 2.775557561562824e-16 -1.0
  outer loop
    vertex 66.59298086049199 -40.00000000000003 0.024023296681773207
    vertex 64.09298086049209 -2.5000000000000058 0.02402329668177744
    vertex 66.5929808604921 -1.1896733598248943e-14 0.02402329668178449
  endloop
endfacet
facet normal 0.9825562637084708 -0.1859655576907996 1.3670295467056158e-15
  outer loop
    vertex 53.431746148244564 -16.388464339845736 12.024023296681996
    vertex 54.43622334681364 -12.902926031017863 0.02402329668175065
    vertex 54.436223346813605 -12.902926031017866 12.024023296682001
  endloop
endfacet
facet normal 0.9308336227055004 -0.3654432470862666 2.30021441992995e-15
  outer loop
    vertex 54.43622334681364 -12.902926031017863 0.02402329668175065
    vertex 53.431746148244564 -16.388464339845736 12.024023296681996
    vertex 53.543695447681046 -16.000000000000004 6.0240232966817375
  endloop
endfacet
facet normal 0.960894517939145 -0.2769146536290524 2.5324969377512027e-15
  outer loop
    vertex 53.543695447681046 -16.000000000000004 6.0240232966817375
    vertex 53.431746148244564 -16.388464339845736 12.024023296681996
    vertex 53.50441688865211 -16.136296694843733 7.059299477091784
  endloop
endfacet
facet normal 0.960894517939145 -0.2769146536290524 2.5324969377512027e-15
  outer loop
    vertex 53.50441688865211 -16.136296694843733 7.059299477091784
    vertex 53.431746148244564 -16.388464339845736 12.024023296681996
    vertex 53.431746148244564 -16.38846433984573 7.66808602564731
  endloop
endfacet
facet normal 0.960894517939145 -0.2769146536290524 2.5324969377512027e-15
  outer loop
    vertex 53.543695447681046 -16.000000000000004 6.0240232966817375
    vertex 53.4317461482446 -16.388464339845733 0.02402329668174924
    vertex 54.43622334681364 -12.902926031017863 0.02402329668175065
  endloop
endfacet
facet normal 0.9825562637084707 -0.1859655576908004 2.7545864652877136e-15
  outer loop
    vertex 53.4317461482446 -16.388464339845733 0.02402329668174924
    vertex 53.543695447681046 -16.000000000000004 6.0240232966817375
    vertex 53.504416888652116 -16.136296694843754 4.988747116271601
  endloop
endfacet
facet normal 0.9825562637084707 -0.1859655576908004 2.7545864652877136e-15
  outer loop
    vertex 53.4317461482446 -16.388464339845733 0.02402329668174924
    vertex 53.504416888652116 -16.136296694843754 4.988747116271601
    vertex 53.4317461482446 -16.38846433984573 4.37996056771612
  endloop
endfacet
facet normal 0.9825562637084708 -0.1859655576907996 1.3670295467056158e-15
  outer loop
    vertex 53.431746148244564 -16.388464339845736 12.024023296681996
    vertex 53.41791670243968 -16.535898384862218 8.024023296681642
    vertex 53.431746148244564 -16.38846433984573 7.66808602564731
  endloop
endfacet
facet normal 0.9956295153591194 -0.09339094252530619 1.8961299238501696e-16
  outer loop
    vertex 53.41791670243968 -16.535898384862218 8.024023296681642
    vertex 53.431746148244564 -16.388464339845736 12.024023296681996
    vertex 53.35828986446316 -17.171572875253688 8.852450421427843
  endloop
endfacet
facet normal 0.9956295153591194 -0.09339094252530619 1.8961299238501696e-16
  outer loop
    vertex 53.35828986446316 -17.171572875253688 8.852450421427843
    vertex 53.431746148244564 -16.388464339845736 12.024023296681996
    vertex 53.09298086049201 -19.999999999999975 12.024023296681996
  endloop
endfacet
facet normal 0.9956295153591194 -0.09339094252530619 1.8961299238501696e-16
  outer loop
    vertex 53.35828986446316 -17.171572875253688 8.852450421427843
    vertex 53.09298086049201 -19.999999999999975 12.024023296681996
    vertex 53.28058265630985 -17.999999999999996 9.48812491181947
  endloop
endfacet
facet normal 0.9956295153591194 -0.09339094252530619 1.8961299238501696e-16
  outer loop
    vertex 53.28058265630985 -17.999999999999996 9.48812491181947
    vertex 53.09298086049201 -19.999999999999975 12.024023296681996
    vertex 53.1900906957982 -18.964723819589906 9.887726601838024
  endloop
endfacet
facet normal 0.9956295153591194 -0.09339094252530619 1.8961299238501696e-16
  outer loop
    vertex 53.1900906957982 -18.964723819589906 9.887726601838024
    vertex 53.09298086049201 -19.999999999999975 12.024023296681996
    vertex 53.09298086049203 -19.999999999999964 10.024023296681728
  endloop
endfacet
facet normal 1.0 -2.447911976997295e-15 2.6105846653476816e-15
  outer loop
    vertex 53.09298086049201 -19.999999999999975 12.024023296681996
    vertex 53.19009069579822 -21.035276180410076 9.887726601837933
    vertex 53.09298086049203 -19.999999999999964 10.024023296681728
  endloop
endfacet
facet normal 0.99562951535912 0.09339094252530065 5.00873729794309e-15
  outer loop
    vertex 53.19009069579822 -21.035276180410076 9.887726601837933
    vertex 53.09298086049201 -19.999999999999975 12.024023296681996
    vertex 53.43174614824455 -23.611535660154225 12.024023296681996
  endloop
endfacet
facet normal 0.99562951535912 0.09339094252530065 5.00873729794309e-15
  outer loop
    vertex 53.19009069579822 -21.035276180410076 9.887726601837933
    vertex 53.43174614824455 -23.611535660154225 12.024023296681996
    vertex 53.280582656309875 -21.99999999999998 9.488124911819424
  endloop
endfacet
facet normal 0.99562951535912 0.09339094252530065 5.00873729794309e-15
  outer loop
    vertex 53.280582656309875 -21.99999999999998 9.488124911819424
    vertex 53.43174614824455 -23.611535660154225 12.024023296681996
    vertex 53.358289864463146 -22.828427124746128 8.852450421427932
  endloop
endfacet
facet normal 0.99562951535912 0.09339094252530065 5.00873729794309e-15
  outer loop
    vertex 53.358289864463146 -22.828427124746128 8.852450421427932
    vertex 53.43174614824455 -23.611535660154225 12.024023296681996
    vertex 53.41791670243968 -23.464101615137753 8.024023296681731
  endloop
endfacet
facet normal 0.99562951535912 0.09339094252530065 5.00873729794309e-15
  outer loop
    vertex 53.41791670243968 -23.464101615137753 8.024023296681731
    vertex 53.43174614824455 -23.611535660154225 12.024023296681996
    vertex 53.43174614824457 -23.611535660154217 7.668086025647308
  endloop
endfacet
facet normal -3.3031103218241238e-15 -0.9659258262890716 0.2588190451025081
  outer loop
    vertex 64.09298086049202 -17.874963182164073 5.454621397456233
    vertex 66.59298086049205 -17.800000000000033 6.0240232966817695
    vertex 64.09298086049202 -17.800000000000026 6.024023296681763
  endloop
endfacet
facet normal -2.7673636035710903e-15 -1.0 -2.7755575615628914e-16
  outer loop
    vertex 66.59298086049205 -17.800000000000033 6.0240232966817695
    vertex 64.09298086049202 -17.874963182164073 5.454621397456233
    vertex 66.59298086049206 -17.87496318216408 5.45462139745624
  endloop
endfacet
facet normal -0.9816006790466014 -0.19094529817529218 -2.3106253656971135e-15
  outer loop
    vertex 51.49564292289528 -24.178764410066986 0.024023296681740778
    vertex 51.092980860492055 -19.99999999999999 2.0240232966817384
    vertex 51.092980860492055 -19.99999999999998 0.02402329668174219
  endloop
endfacet
facet normal -1.0 5.2507261261518205e-15 -2.1860577059357905e-15
  outer loop
    vertex 51.092980860492055 -19.99999999999999 2.0240232966817384
    vertex 51.49564292289528 -24.178764410066986 0.024023296681740778
    vertex 51.192739162481175 -21.035276180410087 2.1603199915253977
  endloop
endfacet
facet normal -0.9953895415983136 -0.09591486056237282 -2.187151465886277e-15
  outer loop
    vertex 51.192739162481175 -21.035276180410087 2.1603199915253977
    vertex 51.49564292289528 -24.178764410066986 0.024023296681740778
    vertex 51.285699101048124 -21.99999999999998 2.559921681543997
  endloop
endfacet
facet normal -0.9953895415983136 -0.09591486056237282 -2.187151465886277e-15
  outer loop
    vertex 51.285699101048124 -21.99999999999998 2.559921681543997
    vertex 51.49564292289528 -24.178764410066986 0.024023296681740778
    vertex 51.36552561000313 -22.82842712474617 3.1955961719355326
  endloop
endfacet
facet normal -0.9953895415983136 -0.09591486056237282 -2.187151465886277e-15
  outer loop
    vertex 51.36552561000313 -22.82842712474617 3.1955961719355326
    vertex 51.49564292289528 -24.178764410066986 0.024023296681740778
    vertex 51.42677864468045 -23.46410161513779 4.024023296681734
  endloop
endfacet
facet normal -0.9953895415983136 -0.09591486056237282 -2.187151465886277e-15
  outer loop
    vertex 51.42677864468045 -23.46410161513779 4.024023296681734
    vertex 51.49564292289528 -24.178764410066986 0.024023296681740778
    vertex 51.46528391199225 -23.86370330515621 4.9887471162715045
  endloop
endfacet
facet normal -0.9953895415983136 -0.09591486056237282 -2.187151465886277e-15
  outer loop
    vertex 51.46528391199225 -23.86370330515621 4.9887471162715045
    vertex 51.49564292289528 -24.178764410066986 0.024023296681740778
    vertex 51.47841734160419 -24.000000000000007 6.024023296681595
  endloop
endfacet
facet normal -0.9953895415983136 -0.09591486056237282 -2.187151465886277e-15
  outer loop
    vertex 51.19273916248116 -21.035276180410065 9.887726601837974
    vertex 51.09298086049202 -19.99999999999998 12.02402329668199
    vertex 51.09298086049203 -19.999999999999975 10.024023296681724
  endloop
endfacet
facet normal -1.0 2.8916247419932028e-15 -2.1860577059357905e-15
  outer loop
    vertex 51.09298086049202 -19.99999999999998 12.02402329668199
    vertex 51.19273916248116 -21.035276180410065 9.887726601837974
    vertex 51.49564292289525 -24.17876441006699 12.02402329668199
  endloop
endfacet
facet normal -0.9816006790466014 -0.19094529817529218 -2.3106253656971135e-15
  outer loop
    vertex 51.49564292289525 -24.17876441006699 12.02402329668199
    vertex 51.19273916248116 -21.035276180410065 9.887726601837974
    vertex 51.28569910104811 -21.99999999999998 9.488124911819465
  endloop
endfacet
facet normal -0.9816006790466014 -0.19094529817529218 -2.3106253656971135e-15
  outer loop
    vertex 51.49564292289525 -24.17876441006699 12.02402329668199
    vertex 51.28569910104811 -21.99999999999998 9.488124911819465
    vertex 51.36552561000312 -22.828427124746167 8.852450421427884
  endloop
endfacet
facet normal -0.9816006790466014 -0.19094529817529218 -2.3106253656971135e-15
  outer loop
    vertex 51.49564292289525 -24.17876441006699 12.02402329668199
    vertex 51.36552561000312 -22.828427124746167 8.852450421427884
    vertex 51.42677864468045 -23.464101615137793 8.024023296681593
  endloop
endfacet
facet normal -0.9816006790466014 -0.19094529817529218 -2.3106253656971135e-15
  outer loop
    vertex 51.49564292289525 -24.17876441006699 12.02402329668199
    vertex 51.42677864468045 -23.464101615137793 8.024023296681593
    vertex 51.46528391199225 -23.863703305156278 7.059299477091687
  endloop
endfacet
facet normal -0.9816006790466014 -0.19094529817529218 -2.3106253656971135e-15
  outer loop
    vertex 51.49564292289525 -24.17876441006699 12.02402329668199
    vertex 51.46528391199225 -23.863703305156278 7.059299477091687
    vertex 51.47841734160419 -24.000000000000007 6.024023296681595
  endloop
endfacet
facet normal -0.9816006790466014 -0.19094529817529218 -2.3106253656971135e-15
  outer loop
    vertex 51.49564292289525 -24.17876441006699 12.02402329668199
    vertex 51.47841734160419 -24.000000000000007 6.024023296681595
    vertex 51.49564292289528 -24.178764410066986 0.024023296681740778
  endloop
endfacet
facet normal -0.8384436163006366 0.5449883505954152 -1.889755871350948e-15
  outer loop
    vertex 54.62858018068199 -8.073139558123428 0.02402329668175347
    vertex 57.24356753979964 -4.788927347714937 12.024023296682008
    vertex 57.24356753979967 -4.7889273477149334 0.02402329668176052
  endloop
endfacet
facet normal -0.718953859996489 0.6950578013346437 -1.5572297124761002e-15
  outer loop
    vertex 57.24356753979964 -4.788927347714937 12.024023296682008
    vertex 54.62858018068199 -8.073139558123428 0.02402329668175347
    vertex 54.62858018068196 -8.073139558123431 12.024023296682001
  endloop
endfacet
facet normal -2.355138688025739e-16 -0.707106781186549 -0.7071067811865461
  outer loop
    vertex 66.59298086049205 -18.444365081389627 7.579658215292159
    vertex 64.09298086049202 -18.90000000000003 7.929279185007543
    vertex 64.09298086049202 -18.44436508138962 7.579658215292152
  endloop
endfacet
facet normal 7.244809774578677e-16 -0.5000000000000159 -0.8660254037844296
  outer loop
    vertex 64.09298086049202 -18.90000000000003 7.929279185007543
    vertex 66.59298086049205 -18.444365081389627 7.579658215292159
    vertex 66.59298086049205 -18.900000000000034 7.92927918500755
  endloop
endfacet
facet normal 3.0675964530215454e-15 0.2588190451025045 -0.9659258262890726
  outer loop
    vertex 66.59298086049203 -20.569401899225582 8.149060114517733
    vertex 64.092980860492 -21.10000000000003 7.929279185007543
    vertex 64.092980860492 -20.569401899225575 8.149060114517727
  endloop
endfacet
facet normal 3.4918445810290493e-15 0.5000000000000181 -0.8660254037844284
  outer loop
    vertex 64.092980860492 -21.10000000000003 7.929279185007543
    vertex 66.59298086049203 -20.569401899225582 8.149060114517733
    vertex 66.59298086049203 -21.100000000000033 7.929279185007549
  endloop
endfacet
facet normal 2.355138688025656e-16 0.7071067811865475 0.7071067811865478
  outer loop
    vertex 66.59298086049205 -21.555634918610437 4.468388378071378
    vertex 64.09298086049202 -21.905255888325794 4.9240232966817405
    vertex 66.59298086049203 -21.905255888325797 4.924023296681748
  endloop
endfacet
facet normal 1.179458834109216e-15 0.866025403784435 0.5000000000000062
  outer loop
    vertex 64.09298086049202 -21.905255888325794 4.9240232966817405
    vertex 66.59298086049205 -21.555634918610437 4.468388378071378
    vertex 64.09298086049202 -21.55563491861043 4.468388378071371
  endloop
endfacet
facet normal 1.0936166845574761e-14 -1.5463937294000556e-16 1.0
  outer loop
    vertex 51.49564292289525 -24.17876441006699 12.02402329668199
    vertex 51.49564292289527 -15.821235589932972 12.024023296681992
    vertex 51.09298086049202 -19.99999999999998 12.02402329668199
  endloop
endfacet
facet normal 1.0936166845574761e-14 -1.5463937294000556e-16 1.0
  outer loop
    vertex 51.49564292289527 -15.821235589932972 12.024023296681992
    vertex 51.49564292289525 -24.17876441006699 12.02402329668199
    vertex 52.688811693061105 -28.203755964995068 12.024023296681992
  endloop
endfacet
facet normal 1.0936166845574761e-14 -1.5463937294000556e-16 1.0
  outer loop
    vertex 51.49564292289527 -15.821235589932972 12.024023296681992
    vertex 52.688811693061105 -28.203755964995068 12.024023296681992
    vertex 52.68881169306116 -11.796244035004895 12.024023296681996
  endloop
endfacet
facet normal 1.0936166845574761e-14 -1.5463937294000556e-16 1.0
  outer loop
    vertex 52.68881169306116 -11.796244035004895 12.024023296681996
    vertex 52.688811693061105 -28.203755964995068 12.024023296681992
    vertex 53.09298086049201 -19.999999999999975 12.024023296681996
  endloop
endfacet
facet normal 1.0936166845574761e-14 -1.5463937294000556e-16 1.0
  outer loop
    vertex 53.09298086049201 -19.999999999999975 12.024023296681996
    vertex 52.688811693061105 -28.203755964995068 12.024023296681992
    vertex 53.43174614824455 -23.611535660154225 12.024023296681996
  endloop
endfacet
facet normal 1.0936166845574761e-14 -1.5463937294000556e-16 1.0
  outer loop
    vertex 53.43174614824455 -23.611535660154225 12.024023296681996
    vertex 52.688811693061105 -28.203755964995068 12.024023296681992
    vertex 54.6285801806819 -31.92686044187655 12.024023296681996
  endloop
endfacet
facet normal 1.0936166845574761e-14 -1.5463937294000556e-16 1.0
  outer loop
    vertex 53.43174614824455 -23.611535660154225 12.024023296681996
    vertex 54.6285801806819 -31.92686044187655 12.024023296681996
    vertex 54.43622334681357 -27.097073968982098 12.024023296681996
  endloop
endfacet
facet normal 1.0936166845574761e-14 -1.5463937294000556e-16 1.0
  outer loop
    vertex 54.43622334681357 -27.097073968982098 12.024023296681996
    vertex 54.6285801806819 -31.92686044187655 12.024023296681996
    vertex 56.07136878547372 -30.335013304297185 12.024023296682
  endloop
endfacet
facet normal 1.0936166845574761e-14 -1.5463937294000556e-16 1.0
  outer loop
    vertex 56.07136878547372 -30.335013304297185 12.024023296682
    vertex 54.6285801806819 -31.92686044187655 12.024023296681996
    vertex 57.24356753979956 -35.21107265228506 12.024023296682001
  endloop
endfacet
facet normal 1.0936166845574761e-14 -1.5463937294000556e-16 1.0
  outer loop
    vertex 56.07136878547372 -30.335013304297185 12.024023296682
    vertex 57.24356753979956 -35.21107265228506 12.024023296682001
    vertex 58.280136372564435 -33.21239014631306 12.024023296682005
  endloop
endfacet
facet normal 1.0936166845574761e-14 -1.5463937294000556e-16 1.0
  outer loop
    vertex 58.280136372564435 -33.21239014631306 12.024023296682005
    vertex 57.24356753979956 -35.21107265228506 12.024023296682001
    vertex 60.43754578699512 -37.93553804714384 12.024023296682008
  endloop
endfacet
facet normal 1.0936166845574761e-14 -1.5463937294000556e-16 1.0
  outer loop
    vertex 58.280136372564435 -33.21239014631306 12.024023296682005
    vertex 60.43754578699512 -37.93553804714384 12.024023296682008
    vertex 60.98546778944874 -35.62882008934278 12.02402329668201
  endloop
endfacet
facet normal 1.0936166845574761e-14 -1.5463937294000556e-16 1.0
  outer loop
    vertex 60.98546778944874 -35.62882008934278 12.02402329668201
    vertex 60.43754578699512 -37.93553804714384 12.024023296682008
    vertex 64.09298086049198 -40.00000000000003 12.024023296681746
  endloop
endfacet
facet normal 1.0936166845574761e-14 -1.5463937294000556e-16 1.0
  outer loop
    vertex 60.98546778944874 -35.62882008934278 12.02402329668201
    vertex 64.09298086049198 -40.00000000000003 12.024023296681746
    vertex 64.09298086049196 -37.50000000000002 12.024023296682017
  endloop
endfacet
facet normal 1.0936166845574761e-14 -1.5463937294000556e-16 1.0
  outer loop
    vertex 64.09298086049196 -37.50000000000002 12.024023296682017
    vertex 64.09298086049198 -40.00000000000003 12.024023296681746
    vertex 64.09298086049208 -2.5000000000000093 12.024023296682028
  endloop
endfacet
facet normal 1.0936166845574761e-14 -1.5463937294000556e-16 1.0
  outer loop
    vertex 52.68881169306116 -11.796244035004895 12.024023296681996
    vertex 53.431746148244564 -16.388464339845736 12.024023296681996
    vertex 54.62858018068196 -8.073139558123431 12.024023296682001
  endloop
endfacet
facet normal 1.0936166845574761e-14 -1.5463937294000556e-16 1.0
  outer loop
    vertex 53.431746148244564 -16.388464339845736 12.024023296681996
    vertex 52.68881169306116 -11.796244035004895 12.024023296681996
    vertex 53.09298086049201 -19.999999999999975 12.024023296681996
  endloop
endfacet
facet normal 1.0936166845574761e-14 -1.5463937294000556e-16 1.0
  outer loop
    vertex 54.62858018068196 -8.073139558123431 12.024023296682001
    vertex 53.431746148244564 -16.388464339845736 12.024023296681996
    vertex 54.436223346813605 -12.902926031017866 12.024023296682001
  endloop
endfacet
facet normal 1.0936166845574761e-14 -1.5463937294000556e-16 1.0
  outer loop
    vertex 54.62858018068196 -8.073139558123431 12.024023296682001
    vertex 54.436223346813605 -12.902926031017866 12.024023296682001
    vertex 56.07136878547378 -9.664986695702796 12.024023296682005
  endloop
endfacet
facet normal 1.0936166845574761e-14 -1.5463937294000556e-16 1.0
  outer loop
    vertex 54.62858018068196 -8.073139558123431 12.024023296682001
    vertex 56.07136878547378 -9.664986695702796 12.024023296682005
    vertex 57.24356753979964 -4.788927347714937 12.024023296682008
  endloop
endfacet
facet normal 1.0936166845574761e-14 -1.5463937294000556e-16 1.0
  outer loop
    vertex 57.24356753979964 -4.788927347714937 12.024023296682008
    vertex 56.07136878547378 -9.664986695702796 12.024023296682005
    vertex 58.28013637256451 -6.78760985368693 12.024023296682012
  endloop
endfacet
facet normal 1.0936166845574761e-14 -1.5463937294000556e-16 1.0
  outer loop
    vertex 57.24356753979964 -4.788927347714937 12.024023296682008
    vertex 58.28013637256451 -6.78760985368693 12.024023296682012
    vertex 60.43754578699524 -2.0644619528561723 12.024023296682017
  endloop
endfacet
facet normal 1.0936166845574761e-14 -1.5463937294000556e-16 1.0
  outer loop
    vertex 60.43754578699524 -2.0644619528561723 12.024023296682017
    vertex 58.28013637256451 -6.78760985368693 12.024023296682012
    vertex 60.98546778944882 -4.3711799106572276 12.024023296682019
  endloop
endfacet
facet normal 1.0936166845574761e-14 -1.5463937294000556e-16 1.0
  outer loop
    vertex 60.43754578699524 -2.0644619528561723 12.024023296682017
    vertex 60.98546778944882 -4.3711799106572276 12.024023296682019
    vertex 64.0929808604921 -8.283651542484449e-15 12.024023296681756
  endloop
endfacet
facet normal 1.0936166845574761e-14 -1.5463937294000556e-16 1.0
  outer loop
    vertex 64.0929808604921 -8.283651542484449e-15 12.024023296681756
    vertex 60.98546778944882 -4.3711799106572276 12.024023296682019
    vertex 64.09298086049208 -2.5000000000000093 12.024023296682028
  endloop
endfacet
facet normal 1.0936166845574761e-14 -1.5463937294000556e-16 1.0
  outer loop
    vertex 64.0929808604921 -8.283651542484449e-15 12.024023296681756
    vertex 64.09298086049208 -2.5000000000000093 12.024023296682028
    vertex 64.09298086049198 -40.00000000000003 12.024023296681746
  endloop
endfacet
facet normal 1.0936166845574761e-14 -1.5463937294000556e-16 1.0
  outer loop
    vertex 64.0929808604921 -8.283651542484449e-15 12.024023296681756
    vertex 64.09298086049198 -40.00000000000003 12.024023296681746
    vertex 66.59298086049199 -40.00000000000003 12.02402329668175
  endloop
endfacet
facet normal 1.0936166845574761e-14 -1.5463937294000556e-16 1.0
  outer loop
    vertex 64.0929808604921 -8.283651542484449e-15 12.024023296681756
    vertex 66.59298086049199 -40.00000000000003 12.02402329668175
    vertex 66.5929808604921 -1.515731984369495e-14 12.024023296681763
  endloop
endfacet
facet normal 2.7673636035710907e-15 1.0 2.7755575615628914e-16
  outer loop
    vertex 66.5929808604921 -1.1896733598248943e-14 0.02402329668178449
    vertex 64.0929808604921 -8.283651542484449e-15 12.024023296681756
    vertex 66.5929808604921 -1.515731984369495e-14 12.024023296681763
  endloop
endfacet
facet normal 2.7673636035710907e-15 1.0 2.7755575615628914e-16
  outer loop
    vertex 64.0929808604921 -8.283651542484449e-15 12.024023296681756
    vertex 66.5929808604921 -1.1896733598248943e-14 0.02402329668178449
    vertex 64.0929808604921 -5.0230652970384425e-15 0.024023296681778848
  endloop
endfacet
facet normal 2.043025629019284e-15 0.9659258262890709 0.2588190451025111
  outer loop
    vertex 66.59298086049203 -22.125036817835984 5.454621397456238
    vertex 64.092980860492 -22.20000000000003 6.0240232966817615
    vertex 66.59298086049203 -22.200000000000035 6.024023296681768
  endloop
endfacet
facet normal 2.7673636035710903e-15 1.0 2.7755575615628914e-16
  outer loop
    vertex 64.092980860492 -22.20000000000003 6.0240232966817615
    vertex 66.59298086049203 -22.125036817835984 5.454621397456238
    vertex 64.092980860492 -22.12503681783598 5.454621397456232
  endloop
endfacet
facet normal 1.179458834109216e-15 0.866025403784435 0.5000000000000062
  outer loop
    vertex 66.59298086049203 -21.905255888325797 4.924023296681748
    vertex 64.092980860492 -22.12503681783598 5.454621397456232
    vertex 66.59298086049203 -22.125036817835984 5.454621397456238
  endloop
endfacet
facet normal 2.043025629019284e-15 0.9659258262890709 0.2588190451025111
  outer loop
    vertex 64.092980860492 -22.12503681783598 5.454621397456232
    vertex 66.59298086049203 -21.905255888325797 4.924023296681748
    vertex 64.09298086049202 -21.905255888325794 4.9240232966817405
  endloop
endfacet
facet normal 0.7329024663180966 0.6803337231571367 1.972932593352412e-15
  outer loop
    vertex 58.280136372564435 -33.21239014631306 12.024023296682005
    vertex 56.07136878547376 -30.335013304297185 0.02402329668175065
    vertex 56.07136878547372 -30.335013304297185 12.024023296682
  endloop
endfacet
facet normal 0.8466365492110062 0.5321715452183438 2.2086718302505242e-15
  outer loop
    vertex 56.07136878547376 -30.335013304297185 0.02402329668175065
    vertex 58.280136372564435 -33.21239014631306 12.024023296682005
    vertex 58.28013637256447 -33.21239014631306 0.024023296681754878
  endloop
endfacet
facet normal -2.0430256290192782e-15 -0.9659258262890704 -0.2588190451025131
  outer loop
    vertex 64.09298086049202 -17.874963182164073 6.593425195907292
    vertex 66.59298086049205 -18.09474411167427 7.12402329668179
    vertex 64.09298086049202 -18.094744111674263 7.1240232966817825
  endloop
endfacet
facet normal -1.1794588341092138e-15 -0.8660254037844348 -0.5000000000000068
  outer loop
    vertex 66.59298086049205 -18.09474411167427 7.12402329668179
    vertex 64.09298086049202 -17.874963182164073 6.593425195907292
    vertex 66.59298086049205 -17.87496318216408 6.593425195907299
  endloop
endfacet
facet normal -0.5730075780508246 -0.8195500689380291 -1.3906900887887312e-15
  outer loop
    vertex 60.43754578699516 -37.93553804714384 0.024023296681759107
    vertex 64.09298086049198 -40.00000000000003 12.024023296681746
    vertex 60.43754578699512 -37.93553804714384 12.024023296682008
  endloop
endfacet
facet normal -0.4917587198622948 -0.8707315093870195 -9.775967971796889e-16
  outer loop
    vertex 64.09298086049198 -40.00000000000003 12.024023296681746
    vertex 60.43754578699516 -37.93553804714384 0.024023296681759107
    vertex 64.09298086049198 -40.00000000000003 0.02402329668176757
  endloop
endfacet
facet normal -0.9270797862094974 -0.3748640686992455 -2.360832940711966e-15
  outer loop
    vertex 52.68881169306114 -28.203755964995068 0.02402329668174219
    vertex 51.49564292289525 -24.17876441006699 12.02402329668199
    vertex 51.49564292289528 -24.178764410066986 0.024023296681740778
  endloop
endfacet
facet normal -0.9816006790466014 -0.19094529817529218 -2.3106253656971135e-15
  outer loop
    vertex 51.49564292289525 -24.17876441006699 12.02402329668199
    vertex 52.68881169306114 -28.203755964995068 0.02402329668174219
    vertex 52.688811693061105 -28.203755964995068 12.024023296681992
  endloop
endfacet
facet normal 0.8466365492110062 0.5321715452183438 2.2086718302505242e-15
  outer loop
    vertex 56.07136878547372 -30.335013304297185 12.024023296682
    vertex 54.43622334681359 -27.097073968982098 0.024023296681747828
    vertex 54.43622334681357 -27.097073968982098 12.024023296681996
  endloop
endfacet
facet normal 0.9308336227055027 0.36544324708626064 2.4373338245977715e-15
  outer loop
    vertex 54.43622334681359 -27.097073968982098 0.024023296681747828
    vertex 56.07136878547372 -30.335013304297185 12.024023296682
    vertex 56.07136878547376 -30.335013304297185 0.02402329668175065
  endloop
endfacet
facet normal 1.0 -2.7673636035710907e-15 2.7755575615628914e-16
  outer loop
    vertex 66.5929808604921 -1.515731984369495e-14 12.024023296681763
    vertex 66.59298086049205 -18.900000000000034 7.92927918500755
    vertex 66.5929808604921 -1.1896733598248943e-14 0.02402329668178449
  endloop
endfacet
facet normal 1.0 -2.7673636035710907e-15 2.7755575615628914e-16
  outer loop
    vertex 66.59298086049205 -18.900000000000034 7.92927918500755
    vertex 66.5929808604921 -1.515731984369495e-14 12.024023296681763
    vertex 66.59298086049203 -19.430598100774485 8.149060114517733
  endloop
endfacet
facet normal 1.0 -2.7673636035710907e-15 2.7755575615628914e-16
  outer loop
    vertex 66.59298086049203 -19.430598100774485 8.149060114517733
    vertex 66.5929808604921 -1.515731984369495e-14 12.024023296681763
    vertex 66.59298086049199 -40.00000000000003 12.02402329668175
  endloop
endfacet
facet normal 1.0 -2.7673636035710907e-15 2.7755575615628914e-16
  outer loop
    vertex 66.5929808604921 -1.1896733598248943e-14 0.02402329668178449
    vertex 66.59298086049205 -18.900000000000034 7.92927918500755
    vertex 66.59298086049205 -18.444365081389627 7.579658215292159
  endloop
endfacet
facet normal 1.0 -2.7673636035710907e-15 2.7755575615628914e-16
  outer loop
    vertex 66.5929808604921 -1.1896733598248943e-14 0.02402329668178449
    vertex 66.59298086049205 -18.444365081389627 7.579658215292159
    vertex 66.59298086049205 -18.09474411167427 7.12402329668179
  endloop
endfacet
facet normal 1.0 -2.7673636035710907e-15 2.7755575615628914e-16
  outer loop
    vertex 66.5929808604921 -1.1896733598248943e-14 0.02402329668178449
    vertex 66.59298086049205 -18.09474411167427 7.12402329668179
    vertex 66.59298086049205 -17.87496318216408 6.593425195907299
  endloop
endfacet
facet normal 1.0 -2.7673636035710907e-15 2.7755575615628914e-16
  outer loop
    vertex 66.5929808604921 -1.1896733598248943e-14 0.02402329668178449
    vertex 66.59298086049205 -17.87496318216408 6.593425195907299
    vertex 66.59298086049205 -17.800000000000033 6.0240232966817695
  endloop
endfacet
facet normal 1.0 -2.7673636035710907e-15 2.7755575615628914e-16
  outer loop
    vertex 66.59298086049203 -19.430598100774485 8.149060114517733
    vertex 66.59298086049199 -40.00000000000003 12.02402329668175
    vertex 66.59298086049203 -20.000000000000036 8.224023296681764
  endloop
endfacet
facet normal 1.0 -2.7673636035710907e-15 2.7755575615628914e-16
  outer loop
    vertex 66.59298086049203 -20.000000000000036 8.224023296681764
    vertex 66.59298086049199 -40.00000000000003 12.02402329668175
    vertex 66.59298086049203 -20.569401899225582 8.149060114517733
  endloop
endfacet
facet normal 1.0 -2.7673636035710907e-15 2.7755575615628914e-16
  outer loop
    vertex 66.59298086049203 -20.569401899225582 8.149060114517733
    vertex 66.59298086049199 -40.00000000000003 12.02402329668175
    vertex 66.59298086049203 -21.100000000000033 7.929279185007549
  endloop
endfacet
facet normal 1.0 -2.7673636035710907e-15 2.7755575615628914e-16
  outer loop
    vertex 66.59298086049203 -21.100000000000033 7.929279185007549
    vertex 66.59298086049199 -40.00000000000003 12.02402329668175
    vertex 66.59298086049203 -21.555634918610437 7.5796582152921586
  endloop
endfacet
facet normal 1.0 -2.7673636035710907e-15 2.7755575615628914e-16
  outer loop
    vertex 66.59298086049203 -21.555634918610437 7.5796582152921586
    vertex 66.59298086049199 -40.00000000000003 12.02402329668175
    vertex 66.59298086049203 -21.9052558883258 7.124023296681789
  endloop
endfacet
facet normal 1.0 -2.7673636035710907e-15 2.7755575615628914e-16
  outer loop
    vertex 66.59298086049203 -21.9052558883258 7.124023296681789
    vertex 66.59298086049199 -40.00000000000003 12.02402329668175
    vertex 66.59298086049203 -22.125036817835984 6.593425195907297
  endloop
endfacet
facet normal 1.0 -2.7673636035710907e-15 2.7755575615628914e-16
  outer loop
    vertex 66.59298086049203 -22.125036817835984 6.593425195907297
    vertex 66.59298086049199 -40.00000000000003 12.02402329668175
    vertex 66.59298086049203 -22.200000000000035 6.024023296681768
  endloop
endfacet
facet normal 1.0 -2.7673636035710907e-15 2.7755575615628914e-16
  outer loop
    vertex 66.5929808604921 -1.1896733598248943e-14 0.02402329668178449
    vertex 66.59298086049205 -19.430598100774485 3.8989864788458033
    vertex 66.59298086049199 -40.00000000000003 0.024023296681773207
  endloop
endfacet
facet normal 1.0 -2.7673636035710907e-15 2.7755575615628914e-16
  outer loop
    vertex 66.59298086049205 -19.430598100774485 3.8989864788458033
    vertex 66.5929808604921 -1.1896733598248943e-14 0.02402329668178449
    vertex 66.59298086049206 -18.900000000000027 4.118767408355987
  endloop
endfacet
facet normal 1.0 -2.7673636035710907e-15 2.7755575615628914e-16
  outer loop
    vertex 66.59298086049206 -18.900000000000027 4.118767408355987
    vertex 66.5929808604921 -1.1896733598248943e-14 0.02402329668178449
    vertex 66.59298086049206 -18.444365081389623 4.468388378071378
  endloop
endfacet
facet normal 1.0 -2.7673636035710907e-15 2.7755575615628914e-16
  outer loop
    vertex 66.59298086049206 -18.444365081389623 4.468388378071378
    vertex 66.5929808604921 -1.1896733598248943e-14 0.02402329668178449
    vertex 66.59298086049206 -18.094744111674263 4.9240232966817485
  endloop
endfacet
facet normal 1.0 -2.7673636035710907e-15 2.7755575615628914e-16
  outer loop
    vertex 66.59298086049206 -18.094744111674263 4.9240232966817485
    vertex 66.5929808604921 -1.1896733598248943e-14 0.02402329668178449
    vertex 66.59298086049206 -17.87496318216408 5.45462139745624
  endloop
endfacet
facet normal 1.0 -2.7673636035710907e-15 2.7755575615628914e-16
  outer loop
    vertex 66.59298086049206 -17.87496318216408 5.45462139745624
    vertex 66.5929808604921 -1.1896733598248943e-14 0.02402329668178449
    vertex 66.59298086049205 -17.800000000000033 6.0240232966817695
  endloop
endfacet
facet normal 1.0 -2.7673636035710907e-15 2.7755575615628914e-16
  outer loop
    vertex 66.59298086049199 -40.00000000000003 0.024023296681773207
    vertex 66.59298086049205 -19.430598100774485 3.8989864788458033
    vertex 66.59298086049205 -20.000000000000032 3.8240232966817724
  endloop
endfacet
facet normal 1.0 -2.7673636035710907e-15 2.7755575615628914e-16
  outer loop
    vertex 66.59298086049199 -40.00000000000003 0.024023296681773207
    vertex 66.59298086049205 -20.000000000000032 3.8240232966817724
    vertex 66.59298086049205 -20.569401899225575 3.8989864788458033
  endloop
endfacet
facet normal 1.0 -2.7673636035710907e-15 2.7755575615628914e-16
  outer loop
    vertex 66.59298086049199 -40.00000000000003 0.024023296681773207
    vertex 66.59298086049205 -20.569401899225575 3.8989864788458033
    vertex 66.59298086049205 -21.10000000000003 4.118767408355987
  endloop
endfacet
facet normal 1.0 -2.7673636035710907e-15 2.7755575615628914e-16
  outer loop
    vertex 66.59298086049199 -40.00000000000003 0.024023296681773207
    vertex 66.59298086049205 -21.10000000000003 4.118767408355987
    vertex 66.59298086049205 -21.555634918610437 4.468388378071378
  endloop
endfacet
facet normal 1.0 -2.7673636035710907e-15 2.7755575615628914e-16
  outer loop
    vertex 66.59298086049199 -40.00000000000003 0.024023296681773207
    vertex 66.59298086049205 -21.555634918610437 4.468388378071378
    vertex 66.59298086049203 -21.905255888325797 4.924023296681748
  endloop
endfacet
facet normal 1.0 -2.7673636035710907e-15 2.7755575615628914e-16
  outer loop
    vertex 66.59298086049199 -40.00000000000003 0.024023296681773207
    vertex 66.59298086049203 -21.905255888325797 4.924023296681748
    vertex 66.59298086049203 -22.125036817835984 5.454621397456238
  endloop
endfacet
facet normal 1.0 -2.7673636035710907e-15 2.7755575615628914e-16
  outer loop
    vertex 66.59298086049199 -40.00000000000003 0.024023296681773207
    vertex 66.59298086049203 -22.125036817835984 5.454621397456238
    vertex 66.59298086049203 -22.200000000000035 6.024023296681768
  endloop
endfacet
facet normal 1.0 -2.7673636035710907e-15 2.7755575615628914e-16
  outer loop
    vertex 66.59298086049199 -40.00000000000003 0.024023296681773207
    vertex 66.59298086049203 -22.200000000000035 6.024023296681768
    vertex 66.59298086049199 -40.00000000000003 12.02402329668175
  endloop
endfacet
facet normal -0.8384436163006397 -0.5449883505954105 -2.192285178842705e-15
  outer loop
    vertex 54.62858018068192 -31.92686044187655 0.024023296681747828
    vertex 52.688811693061105 -28.203755964995068 12.024023296681992
    vertex 52.68881169306114 -28.203755964995068 0.02402329668174219
  endloop
endfacet
facet normal -0.9270797862094974 -0.3748640686992455 -2.360832940711966e-15
  outer loop
    vertex 52.688811693061105 -28.203755964995068 12.024023296681992
    vertex 54.62858018068192 -31.92686044187655 0.024023296681747828
    vertex 54.6285801806819 -31.92686044187655 12.024023296681996
  endloop
endfacet
facet normal -0.7189538599964932 -0.6950578013346395 -1.943064299719629e-15
  outer loop
    vertex 57.243567539799585 -35.21107265228506 0.024023296681752057
    vertex 54.6285801806819 -31.92686044187655 12.024023296681996
    vertex 54.62858018068192 -31.92686044187655 0.024023296681747828
  endloop
endfacet
facet normal -0.8384436163006397 -0.5449883505954105 -2.192285178842705e-15
  outer loop
    vertex 54.6285801806819 -31.92686044187655 12.024023296681996
    vertex 57.243567539799585 -35.21107265228506 0.024023296681752057
    vertex 57.24356753979956 -35.21107265228506 12.024023296682001
  endloop
endfacet
facet normal -0.9816006790466003 0.19094529817529798 -2.2201502240044606e-15
  outer loop
    vertex 51.49564292289531 -15.82123558993297 0.0240232966817436
    vertex 52.68881169306116 -11.796244035004895 12.024023296681996
    vertex 52.68881169306118 -11.796244035004893 0.024023296681747828
  endloop
endfacet
facet normal -0.9270797862094954 0.3748640686992506 -2.1527415806246805e-15
  outer loop
    vertex 52.68881169306116 -11.796244035004895 12.024023296681996
    vertex 51.49564292289531 -15.82123558993297 0.0240232966817436
    vertex 51.49564292289527 -15.821235589932972 12.024023296681992
  endloop
endfacet
facet normal 0.5158475847689187 0.8566803775551729 1.4935026413138155e-15
  outer loop
    vertex 64.09298086049199 -37.50000000000002 0.02402329668176757
    vertex 60.98546778944874 -35.62882008934278 12.02402329668201
    vertex 64.09298086049196 -37.50000000000002 12.024023296682017
  endloop
endfacet
facet normal 0.5935992687254599 0.8047607769819548 1.668362724695499e-15
  outer loop
    vertex 60.98546778944874 -35.62882008934278 12.02402329668201
    vertex 64.09298086049199 -37.50000000000002 0.02402329668176757
    vertex 60.98546778944876 -35.62882008934278 0.024023296681761928
  endloop
endfacet
facet normal 0.99562951535912 0.09339094252530049 1.8947170425758497e-15
  outer loop
    vertex 53.19009069579822 -21.03527618041007 2.1603199915254474
    vertex 53.09298086049205 -19.99999999999997 0.02402329668174642
    vertex 53.09298086049205 -19.999999999999964 2.0240232966817877
  endloop
endfacet
facet normal 1.0 -3.565992670005583e-15 2.4342966961835354e-15
  outer loop
    vertex 53.09298086049205 -19.99999999999997 0.02402329668174642
    vertex 53.19009069579822 -21.03527618041007 2.1603199915254474
    vertex 53.43174614824457 -23.61153566015422 0.02402329668174642
  endloop
endfacet
facet normal 0.9825562637084717 0.1859655576907945 2.234778287462837e-15
  outer loop
    vertex 53.43174614824457 -23.61153566015422 0.02402329668174642
    vertex 53.19009069579822 -21.03527618041007 2.1603199915254474
    vertex 53.28058265630988 -21.999999999999975 2.5599216815440027
  endloop
endfacet
facet normal 0.9825562637084717 0.1859655576907945 2.234778287462837e-15
  outer loop
    vertex 53.43174614824457 -23.61153566015422 0.02402329668174642
    vertex 53.28058265630988 -21.999999999999975 2.5599216815440027
    vertex 53.35828986446317 -22.828427124746163 3.1955961719355384
  endloop
endfacet
facet normal 0.9825562637084717 0.1859655576907945 2.234778287462837e-15
  outer loop
    vertex 53.43174614824457 -23.61153566015422 0.02402329668174642
    vertex 53.35828986446317 -22.828427124746163 3.1955961719355384
    vertex 53.41791670243967 -23.464101615137796 4.024023296681784
  endloop
endfacet
facet normal 0.9825562637084717 0.1859655576907945 2.234778287462837e-15
  outer loop
    vertex 53.43174614824457 -23.61153566015422 0.02402329668174642
    vertex 53.41791670243967 -23.464101615137796 4.024023296681784
    vertex 53.431746148244564 -23.611535660154146 4.379960567715892
  endloop
endfacet
facet normal 1.6351036423661532e-15 -0.25881904510250486 -0.9659258262890728
  outer loop
    vertex 66.59298086049203 -19.430598100774485 8.149060114517733
    vertex 64.092980860492 -20.00000000000003 8.224023296681759
    vertex 64.09298086049202 -19.430598100774482 8.149060114517727
  endloop
endfacet
facet normal 2.434296696183545e-15 2.775557561562824e-16 -1.0
  outer loop
    vertex 64.092980860492 -20.00000000000003 8.224023296681759
    vertex 66.59298086049203 -19.430598100774485 8.149060114517733
    vertex 66.59298086049203 -20.000000000000036 8.224023296681764
  endloop
endfacet
facet normal -0.5730075780508195 0.8195500689380327 -9.357484106046583e-16
  outer loop
    vertex 60.43754578699526 -2.0644619528561687 0.024023296681768978
    vertex 57.24356753979964 -4.788927347714937 12.024023296682008
    vertex 60.43754578699524 -2.0644619528561723 12.024023296682017
  endloop
endfacet
facet normal -0.718953859996489 0.6950578013346437 -1.5572297124761002e-15
  outer loop
    vertex 57.24356753979964 -4.788927347714937 12.024023296682008
    vertex 60.43754578699526 -2.0644619528561687 0.024023296681768978
    vertex 57.24356753979967 -4.7889273477149334 0.02402329668176052
  endloop
endfacet
facet normal -0.9816006790466003 0.19094529817529798 -2.2201502240044606e-15
  outer loop
    vertex 51.49564292289531 -15.82123558993297 0.0240232966817436
    vertex 51.478417341604214 -16.000000000000014 6.0240232966816425
    vertex 51.49564292289527 -15.821235589932972 12.024023296681992
  endloop
endfacet
facet normal -0.9953895415983129 0.09591486056237887 -2.1648064897514966e-15
  outer loop
    vertex 51.478417341604214 -16.000000000000014 6.0240232966816425
    vertex 51.49564292289531 -15.82123558993297 0.0240232966817436
    vertex 51.46528391199227 -16.136296694843725 4.988747116271597
  endloop
endfacet
facet normal -0.9953895415983129 0.09591486056237887 -2.1648064897514966e-15
  outer loop
    vertex 51.46528391199227 -16.136296694843725 4.988747116271597
    vertex 51.49564292289531 -15.82123558993297 0.0240232966817436
    vertex 51.42677864468047 -16.535898384862232 4.024023296681737
  endloop
endfacet
facet normal -0.9953895415983129 0.09591486056237887 -2.1648064897514966e-15
  outer loop
    vertex 51.42677864468047 -16.535898384862232 4.024023296681737
    vertex 51.49564292289531 -15.82123558993297 0.0240232966817436
    vertex 51.36552561000314 -17.171572875253776 3.195596171935534
  endloop
endfacet
facet normal -0.9953895415983129 0.09591486056237887 -2.1648064897514966e-15
  outer loop
    vertex 51.36552561000314 -17.171572875253776 3.195596171935534
    vertex 51.49564292289531 -15.82123558993297 0.0240232966817436
    vertex 51.092980860492055 -19.99999999999998 0.02402329668174219
  endloop
endfacet
facet normal -0.9953895415983129 0.09591486056237887 -2.1648064897514966e-15
  outer loop
    vertex 51.36552561000314 -17.171572875253776 3.195596171935534
    vertex 51.092980860492055 -19.99999999999998 0.02402329668174219
    vertex 51.28569910104813 -17.999999999999964 2.559921681543997
  endloop
endfacet
facet normal -0.9953895415983129 0.09591486056237887 -2.1648064897514966e-15
  outer loop
    vertex 51.28569910104813 -17.999999999999964 2.559921681543997
    vertex 51.092980860492055 -19.99999999999998 0.02402329668174219
    vertex 51.19273916248118 -18.964723819589913 2.1603199915254883
  endloop
endfacet
facet normal -0.9953895415983129 0.09591486056237887 -2.1648064897514966e-15
  outer loop
    vertex 51.19273916248118 -18.964723819589913 2.1603199915254883
    vertex 51.092980860492055 -19.99999999999998 0.02402329668174219
    vertex 51.092980860492055 -19.99999999999999 2.0240232966817384
  endloop
endfacet
facet normal -0.9816006790466003 0.19094529817529798 -2.2201502240044606e-15
  outer loop
    vertex 51.49564292289527 -15.821235589932972 12.024023296681992
    vertex 51.36552561000314 -17.171572875253773 8.852450421427884
    vertex 51.09298086049202 -19.99999999999998 12.02402329668199
  endloop
endfacet
facet normal -0.9953895415983129 0.09591486056237887 -2.1648064897514966e-15
  outer loop
    vertex 51.36552561000314 -17.171572875253773 8.852450421427884
    vertex 51.49564292289527 -15.821235589932972 12.024023296681992
    vertex 51.42677864468047 -16.53589838486221 8.024023296681639
  endloop
endfacet
facet normal -0.9953895415983129 0.09591486056237887 -2.1648064897514966e-15
  outer loop
    vertex 51.42677864468047 -16.53589838486221 8.024023296681639
    vertex 51.49564292289527 -15.821235589932972 12.024023296681992
    vertex 51.46528391199228 -16.13629669484368 7.059299477091733
  endloop
endfacet
facet normal -0.9953895415983129 0.09591486056237887 -2.1648064897514966e-15
  outer loop
    vertex 51.46528391199228 -16.13629669484368 7.059299477091733
    vertex 51.49564292289527 -15.821235589932972 12.024023296681992
    vertex 51.478417341604214 -16.000000000000014 6.0240232966816425
  endloop
endfacet
facet normal -1.0 2.8916247419932028e-15 -2.1860577059357905e-15
  outer loop
    vertex 51.09298086049202 -19.99999999999998 12.02402329668199
    vertex 51.36552561000314 -17.171572875253773 8.852450421427884
    vertex 51.285699101048124 -18.000000000000018 9.48812491181942
  endloop
endfacet
facet normal -1.0 2.8916247419932028e-15 -2.1860577059357905e-15
  outer loop
    vertex 51.09298086049202 -19.99999999999998 12.02402329668199
    vertex 51.285699101048124 -18.000000000000018 9.48812491181942
    vertex 51.19273916248116 -18.9647238195899 9.887726601838065
  endloop
endfacet
facet normal -1.0 2.8916247419932028e-15 -2.1860577059357905e-15
  outer loop
    vertex 51.09298086049202 -19.99999999999998 12.02402329668199
    vertex 51.19273916248116 -18.9647238195899 9.887726601838065
    vertex 51.09298086049203 -19.999999999999975 10.024023296681724
  endloop
endfacet
facet normal -0.9270797862094954 0.3748640686992506 -2.1527415806246805e-15
  outer loop
    vertex 52.68881169306118 -11.796244035004893 0.024023296681747828
    vertex 54.62858018068196 -8.073139558123431 12.024023296682001
    vertex 54.62858018068199 -8.073139558123428 0.02402329668175347
  endloop
endfacet
facet normal -0.8384436163006366 0.5449883505954152 -1.889755871350948e-15
  outer loop
    vertex 54.62858018068196 -8.073139558123431 12.024023296682001
    vertex 52.68881169306118 -11.796244035004893 0.024023296681747828
    vertex 52.68881169306116 -11.796244035004895 12.024023296681996
  endloop
endfacet
facet normal -0.4917587198622898 0.8707315093870223 -4.942437121856386e-16
  outer loop
    vertex 64.0929808604921 -8.283651542484449e-15 12.024023296681756
    vertex 60.43754578699526 -2.0644619528561687 0.024023296681768978
    vertex 60.43754578699524 -2.0644619528561723 12.024023296682017
  endloop
endfacet
facet normal -0.5730075780508195 0.8195500689380327 -9.357484106046583e-16
  outer loop
    vertex 60.43754578699526 -2.0644619528561687 0.024023296681768978
    vertex 64.0929808604921 -8.283651542484449e-15 12.024023296681756
    vertex 64.0929808604921 -5.0230652970384425e-15 0.024023296681778848
  endloop
endfacet
facet normal 7.244809774578677e-16 -0.5000000000000159 -0.8660254037844296
  outer loop
    vertex 66.59298086049205 -18.900000000000034 7.92927918500755
    vertex 64.09298086049202 -19.430598100774482 8.149060114517727
    vertex 64.09298086049202 -18.90000000000003 7.929279185007543
  endloop
endfacet
facet normal 1.6351036423661532e-15 -0.25881904510250486 -0.9659258262890728
  outer loop
    vertex 64.09298086049202 -19.430598100774482 8.149060114517727
    vertex 66.59298086049205 -18.900000000000034 7.92927918500755
    vertex 66.59298086049203 -19.430598100774485 8.149060114517733
  endloop
endfacet
facet normal -7.244809774578656e-16 0.5000000000000164 0.8660254037844294
  outer loop
    vertex 66.59298086049205 -21.10000000000003 4.118767408355987
    vertex 64.09298086049202 -20.569401899225568 3.898986478845797
    vertex 64.09298086049202 -21.100000000000023 4.118767408355981
  endloop
endfacet
facet normal -1.6351036423661548e-15 0.25881904510250425 0.9659258262890728
  outer loop
    vertex 64.09298086049202 -20.569401899225568 3.898986478845797
    vertex 66.59298086049205 -21.10000000000003 4.118767408355987
    vertex 66.59298086049205 -20.569401899225575 3.8989864788458033
  endloop
endfacet
facet normal 3.4918445810290493e-15 0.5000000000000181 -0.8660254037844284
  outer loop
    vertex 66.59298086049203 -21.100000000000033 7.929279185007549
    vertex 64.092980860492 -21.555634918610433 7.579658215292152
    vertex 64.092980860492 -21.10000000000003 7.929279185007543
  endloop
endfacet
facet normal 3.678129271385352e-15 0.7071067811865488 -0.7071067811865462
  outer loop
    vertex 64.092980860492 -21.555634918610433 7.579658215292152
    vertex 66.59298086049203 -21.100000000000033 7.929279185007549
    vertex 66.59298086049203 -21.555634918610437 7.5796582152921586
  endloop
endfacet
facet normal 3.61375553029279e-15 0.8660254037844355 -0.5000000000000059
  outer loop
    vertex 66.59298086049203 -21.9052558883258 7.124023296681789
    vertex 64.092980860492 -21.555634918610433 7.579658215292152
    vertex 66.59298086049203 -21.555634918610437 7.5796582152921586
  endloop
endfacet
facet normal 3.678129271385352e-15 0.7071067811865488 -0.7071067811865462
  outer loop
    vertex 64.092980860492 -21.555634918610433 7.579658215292152
    vertex 66.59298086049203 -21.9052558883258 7.124023296681789
    vertex 64.092980860492 -21.905255888325794 7.1240232966817825
  endloop
endfacet
facet normal 0.7329024663180924 -0.680333723157141 1.5952715114134053e-15
  outer loop
    vertex 58.280136372564534 -6.787609853686927 0.02402329668176334
    vertex 60.98546778944882 -4.3711799106572276 12.024023296682019
    vertex 58.28013637256451 -6.78760985368693 12.024023296682012
  endloop
endfacet
facet normal 0.5935992687254544 -0.8047607769819586 1.2216307527351973e-15
  outer loop
    vertex 60.98546778944882 -4.3711799106572276 12.024023296682019
    vertex 58.280136372564534 -6.787609853686927 0.02402329668176334
    vertex 60.985467789448855 -4.371179910657224 0.02402329668177039
  endloop
endfacet
facet normal 3.3031103218241285e-15 0.9659258262890711 -0.2588190451025105
  outer loop
    vertex 66.59298086049203 -22.125036817835984 6.593425195907297
    vertex 64.092980860492 -21.905255888325794 7.1240232966817825
    vertex 66.59298086049203 -21.9052558883258 7.124023296681789
  endloop
endfacet
facet normal 3.61375553029279e-15 0.8660254037844355 -0.5000000000000059
  outer loop
    vertex 64.092980860492 -21.905255888325794 7.1240232966817825
    vertex 66.59298086049203 -22.125036817835984 6.593425195907297
    vertex 64.092980860492 -22.12503681783598 6.593425195907292
  endloop
endfacet
facet normal 0.5935992687254544 -0.8047607769819586 1.2216307527351973e-15
  outer loop
    vertex 60.985467789448855 -4.371179910657224 0.02402329668177039
    vertex 64.09298086049208 -2.5000000000000093 12.024023296682028
    vertex 60.98546778944882 -4.3711799106572276 12.024023296682019
  endloop
endfacet
facet normal 0.5158475847689126 -0.8566803775551763 1.0179495013606484e-15
  outer loop
    vertex 64.09298086049208 -2.5000000000000093 12.024023296682028
    vertex 60.985467789448855 -4.371179910657224 0.02402329668177039
    vertex 64.09298086049209 -2.5000000000000058 0.02402329668177744
  endloop
endfacet
facet normal 0.9308336227055004 -0.3654432470862666 2.30021441992995e-15
  outer loop
    vertex 54.436223346813605 -12.902926031017866 12.024023296682001
    vertex 56.071368785473815 -9.664986695702794 0.02402329668175629
    vertex 56.07136878547378 -9.664986695702796 12.024023296682005
  endloop
endfacet
facet normal 0.8466365492110032 -0.5321715452183486 1.9132572789746464e-15
  outer loop
    vertex 56.071368785473815 -9.664986695702794 0.02402329668175629
    vertex 54.436223346813605 -12.902926031017866 12.024023296682001
    vertex 54.43622334681364 -12.902926031017863 0.02402329668175065
  endloop
endfacet
facet normal 2.7673636035710903e-15 1.0 2.7755575615628914e-16
  outer loop
    vertex 66.59298086049203 -22.200000000000035 6.024023296681768
    vertex 64.092980860492 -22.12503681783598 6.593425195907292
    vertex 66.59298086049203 -22.125036817835984 6.593425195907297
  endloop
endfacet
facet normal 3.3031103218241285e-15 0.9659258262890711 -0.2588190451025105
  outer loop
    vertex 64.092980860492 -22.12503681783598 6.593425195907292
    vertex 66.59298086049203 -22.200000000000035 6.024023296681768
    vertex 64.092980860492 -22.20000000000003 6.0240232966817615
  endloop
endfacet
facet normal 0.8466365492110032 -0.5321715452183486 1.9132572789746464e-15
  outer loop
    vertex 56.07136878547378 -9.664986695702796 12.024023296682005
    vertex 58.280136372564534 -6.787609853686927 0.02402329668176334
    vertex 58.28013637256451 -6.78760985368693 12.024023296682012
  endloop
endfacet
facet normal 0.7329024663180924 -0.680333723157141 1.5952715114134053e-15
  outer loop
    vertex 58.280136372564534 -6.787609853686927 0.02402329668176334
    vertex 56.07136878547378 -9.664986695702796 12.024023296682005
    vertex 56.071368785473815 -9.664986695702794 0.02402329668175629
  endloop
endfacet
facet normal 0.9956295153591194 -0.09339094252530795 2.9525982371471912e-15
  outer loop
    vertex 53.41791670243968 -16.53589838486226 4.02402329668174
    vertex 53.4317461482446 -16.388464339845733 0.02402329668174924
    vertex 53.4317461482446 -16.38846433984573 4.37996056771612
  endloop
endfacet
facet normal 0.9825562637084707 -0.1859655576908004 2.7545864652877136e-15
  outer loop
    vertex 53.4317461482446 -16.388464339845733 0.02402329668174924
    vertex 53.41791670243968 -16.53589838486226 4.02402329668174
    vertex 53.35828986446317 -17.17157287525379 3.1955961719355397
  endloop
endfacet
facet normal 0.9825562637084707 -0.1859655576908004 2.7545864652877136e-15
  outer loop
    vertex 53.4317461482446 -16.388464339845733 0.02402329668174924
    vertex 53.35828986446317 -17.17157287525379 3.1955961719355397
    vertex 53.09298086049205 -19.99999999999997 0.02402329668174642
  endloop
endfacet
facet normal 1.0 -3.565992670005583e-15 2.4342966961835354e-15
  outer loop
    vertex 53.09298086049205 -19.99999999999997 0.02402329668174642
    vertex 53.35828986446317 -17.17157287525379 3.1955961719355397
    vertex 53.280582656309875 -17.999999999999986 2.5599216815440027
  endloop
endfacet
facet normal 1.0 -3.565992670005583e-15 2.4342966961835354e-15
  outer loop
    vertex 53.09298086049205 -19.99999999999997 0.02402329668174642
    vertex 53.280582656309875 -17.999999999999986 2.5599216815440027
    vertex 53.19009069579821 -18.964723819589903 2.1603199915254474
  endloop
endfacet
facet normal 1.0 -3.565992670005583e-15 2.4342966961835354e-15
  outer loop
    vertex 53.09298086049205 -19.99999999999997 0.02402329668174642
    vertex 53.19009069579821 -18.964723819589903 2.1603199915254474
    vertex 53.09298086049205 -19.999999999999964 2.0240232966817877
  endloop
endfacet
facet normal 0.982556263708472 0.18596555769079368 3.7986231752090675e-15
  outer loop
    vertex 53.43174614824455 -23.611535660154225 12.024023296681996
    vertex 53.50441688865211 -23.863703305156285 7.059299477091781
    vertex 53.43174614824457 -23.611535660154217 7.668086025647308
  endloop
endfacet
facet normal 0.960894517939147 0.276914653629046 2.5553054039875607e-15
  outer loop
    vertex 53.50441688865211 -23.863703305156285 7.059299477091781
    vertex 53.43174614824455 -23.611535660154225 12.024023296681996
    vertex 54.43622334681357 -27.097073968982098 12.024023296681996
  endloop
endfacet
facet normal 0.960894517939147 0.276914653629046 2.5553054039875607e-15
  outer loop
    vertex 53.50441688865211 -23.863703305156285 7.059299477091781
    vertex 54.43622334681357 -27.097073968982098 12.024023296681996
    vertex 53.543695447681024 -24.000000000000007 6.024023296681736
  endloop
endfacet
facet normal 0.960894517939147 0.276914653629046 2.5553054039875607e-15
  outer loop
    vertex 53.504416888652095 -23.863703305156218 4.988747116271509
    vertex 53.43174614824457 -23.61153566015422 0.02402329668174642
    vertex 53.431746148244564 -23.611535660154146 4.379960567715892
  endloop
endfacet
facet normal 0.9825562637084717 0.1859655576907945 2.234778287462837e-15
  outer loop
    vertex 53.43174614824457 -23.61153566015422 0.02402329668174642
    vertex 53.504416888652095 -23.863703305156218 4.988747116271509
    vertex 54.43622334681359 -27.097073968982098 0.024023296681747828
  endloop
endfacet
facet normal 0.9308336227055027 0.36544324708626064 2.4373338245977715e-15
  outer loop
    vertex 54.43622334681359 -27.097073968982098 0.024023296681747828
    vertex 53.504416888652095 -23.863703305156218 4.988747116271509
    vertex 53.543695447681024 -24.000000000000007 6.024023296681736
  endloop
endfacet
facet normal 0.9308336227055027 0.36544324708626064 2.4373338245977715e-15
  outer loop
    vertex 54.43622334681359 -27.097073968982098 0.024023296681747828
    vertex 53.543695447681024 -24.000000000000007 6.024023296681736
    vertex 54.43622334681357 -27.097073968982098 12.024023296681996
  endloop
endfacet
facet normal 2.355138688025656e-16 0.7071067811865475 0.7071067811865478
  outer loop
    vertex 66.59298086049205 -21.555634918610437 4.468388378071378
    vertex 64.09298086049202 -21.100000000000023 4.118767408355981
    vertex 64.09298086049202 -21.55563491861043 4.468388378071371
  endloop
endfacet
facet normal -7.244809774578656e-16 0.5000000000000164 0.8660254037844294
  outer loop
    vertex 64.09298086049202 -21.100000000000023 4.118767408355981
    vertex 66.59298086049205 -21.555634918610437 4.468388378071378
    vertex 66.59298086049205 -21.10000000000003 4.118767408355987
  endloop
endfacet
facet normal -1.6351036423661548e-15 0.25881904510250425 0.9659258262890728
  outer loop
    vertex 66.59298086049205 -20.569401899225575 3.8989864788458033
    vertex 64.09298086049202 -20.000000000000025 3.824023296681766
    vertex 64.09298086049202 -20.569401899225568 3.898986478845797
  endloop
endfacet
facet normal -2.434296696183544e-15 2.542198029571104e-17 1.0
  outer loop
    vertex 64.09298086049202 -20.000000000000025 3.824023296681766
    vertex 66.59298086049205 -20.569401899225575 3.8989864788458033
    vertex 66.59298086049205 -20.000000000000032 3.8240232966817724
  endloop
endfacet
facet normal -2.434296696183544e-15 2.542198029571104e-17 1.0
  outer loop
    vertex 66.59298086049205 -20.000000000000032 3.8240232966817724
    vertex 64.09298086049202 -19.43059810077448 3.898986478845797
    vertex 64.09298086049202 -20.000000000000025 3.824023296681766
  endloop
endfacet
facet normal -3.0675964530215434e-15 -0.25881904510250364 0.9659258262890729
  outer loop
    vertex 64.09298086049202 -19.43059810077448 3.898986478845797
    vertex 66.59298086049205 -20.000000000000032 3.8240232966817724
    vertex 66.59298086049205 -19.430598100774485 3.8989864788458033
  endloop
endfacet
facet normal -6.5078322769050615e-15 0.7031209542008992 0.7110702664038324
  outer loop
    vertex 51.36552561000313 -22.82842712474617 3.1955961719355326
    vertex 53.28058265630988 -21.999999999999975 2.5599216815440027
    vertex 51.285699101048124 -21.99999999999998 2.559921681543997
  endloop
endfacet
facet normal -9.444482223597849e-15 0.5058441316313521 0.8626248979099338
  outer loop
    vertex 53.28058265630988 -21.999999999999975 2.5599216815440027
    vertex 51.36552561000313 -22.82842712474617 3.1955961719355326
    vertex 53.35828986446317 -22.828427124746163 3.1955961719355384
  endloop
endfacet
facet normal -6.134178793169794e-15 -0.9653917188097937 -0.2608041971546321
  outer loop
    vertex 51.46528391199228 -16.13629669484368 7.059299477091733
    vertex 53.543695447681046 -16.000000000000004 6.0240232966817375
    vertex 53.50441688865211 -16.136296694843733 7.059299477091784
  endloop
endfacet
facet normal -6.08891993776749e-15 -1.0 1.081494787875294e-14
  outer loop
    vertex 53.543695447681046 -16.000000000000004 6.0240232966817375
    vertex 51.46528391199228 -16.13629669484368 7.059299477091733
    vertex 51.478417341604214 -16.000000000000014 6.0240232966816425
  endloop
endfacet
facet normal -8.798413347213612e-15 4.084322890587722e-14 -1.0
  outer loop
    vertex 53.09298086049203 -19.999999999999964 10.024023296681728
    vertex 51.19273916248116 -21.035276180410065 9.887726601837974
    vertex 51.09298086049203 -19.999999999999975 10.024023296681724
  endloop
endfacet
facet normal -1.3210535146339324e-14 0.25137740555336774 -0.9678891465334538
  outer loop
    vertex 51.19273916248116 -21.035276180410065 9.887726601837974
    vertex 53.09298086049203 -19.999999999999964 10.024023296681728
    vertex 53.19009069579822 -21.035276180410076 9.887726601837933
  endloop
endfacet
facet normal -6.71488803167823e-15 0.7110086938763625 0.7031832173994408
  outer loop
    vertex 53.35828986446317 -22.828427124746163 3.1955961719355384
    vertex 51.42677864468045 -23.46410161513779 4.024023296681734
    vertex 53.41791670243967 -23.464101615137796 4.024023296681784
  endloop
endfacet
facet normal -8.678130367912921e-15 0.8640323307350483 0.5034363231279205
  outer loop
    vertex 51.42677864468045 -23.46410161513779 4.024023296681734
    vertex 53.35828986446317 -22.828427124746163 3.1955961719355384
    vertex 51.36552561000313 -22.82842712474617 3.1955961719355326
  endloop
endfacet
facet normal 9.235037709351958e-15 0.8679789249734486 -0.49660103282407364
  outer loop
    vertex 53.41791670243968 -23.464101615137753 8.024023296681731
    vertex 51.36552561000312 -22.828427124746167 8.852450421427884
    vertex 53.358289864463146 -22.828427124746128 8.852450421427932
  endloop
endfacet
facet normal 4.231036261266248e-15 0.7031209542009107 -0.7110702664038211
  outer loop
    vertex 51.36552561000312 -22.828427124746167 8.852450421427884
    vertex 53.41791670243968 -23.464101615137753 8.024023296681731
    vertex 51.42677864468045 -23.464101615137793 8.024023296681593
  endloop
endfacet
facet normal -1.373399484991026e-14 0.2660788284170947 -0.9639512731814748
  outer loop
    vertex 53.19009069579822 -21.035276180410076 9.887726601837933
    vertex 51.28569910104811 -21.99999999999998 9.488124911819465
    vertex 51.19273916248116 -21.035276180410065 9.887726601837974
  endloop
endfacet
facet normal -1.1456831677668538e-14 0.494020619634029 -0.8694501868286706
  outer loop
    vertex 51.28569910104811 -21.99999999999998 9.488124911819465
    vertex 53.19009069579822 -21.035276180410076 9.887726601837933
    vertex 53.280582656309875 -21.99999999999998 9.488124911819424
  endloop
endfacet
facet normal -8.20602607978905e-15 0.9238795325112953 0.3826834323650692
  outer loop
    vertex 53.431746148244564 -23.611535660154146 4.379960567715892
    vertex 51.46528391199225 -23.86370330515621 4.9887471162715045
    vertex 53.504416888652095 -23.863703305156218 4.988747116271509
  endloop
endfacet
facet normal -5.829683247192792e-15 0.9653917188097862 0.2608041971546598
  outer loop
    vertex 51.46528391199225 -23.86370330515621 4.9887471162715045
    vertex 53.431746148244564 -23.611535660154146 4.379960567715892
    vertex 51.42677864468045 -23.46410161513779 4.024023296681734
  endloop
endfacet
facet normal -8.678130367912921e-15 0.8640323307350483 0.5034363231279205
  outer loop
    vertex 51.42677864468045 -23.46410161513779 4.024023296681734
    vertex 53.431746148244564 -23.611535660154146 4.379960567715892
    vertex 53.41791670243967 -23.464101615137796 4.024023296681784
  endloop
endfacet
facet normal 5.264946272205058e-15 0.9238795325112898 -0.38268343236508257
  outer loop
    vertex 53.43174614824457 -23.611535660154217 7.668086025647308
    vertex 51.42677864468045 -23.464101615137793 8.024023296681593
    vertex 53.41791670243968 -23.464101615137753 8.024023296681731
  endloop
endfacet
facet normal 9.477553073201672e-15 0.8640323307350526 -0.5034363231279135
  outer loop
    vertex 51.42677864468045 -23.464101615137793 8.024023296681593
    vertex 53.43174614824457 -23.611535660154217 7.668086025647308
    vertex 51.46528391199225 -23.863703305156278 7.059299477091687
  endloop
endfacet
facet normal 7.101500225207748e-15 0.9653917188097925 -0.26080419715463726
  outer loop
    vertex 51.46528391199225 -23.863703305156278 7.059299477091687
    vertex 53.43174614824457 -23.611535660154217 7.668086025647308
    vertex 53.50441688865211 -23.863703305156285 7.059299477091781
  endloop
endfacet
facet normal -1.0740501280790978e-14 0.505844131631333 -0.8626248979099449
  outer loop
    vertex 53.280582656309875 -21.99999999999998 9.488124911819424
    vertex 51.36552561000312 -22.828427124746167 8.852450421427884
    vertex 51.28569910104811 -21.99999999999998 9.488124911819465
  endloop
endfacet
facet normal 4.231036261266248e-15 0.7031209542009107 -0.7110702664038211
  outer loop
    vertex 51.36552561000312 -22.828427124746167 8.852450421427884
    vertex 53.280582656309875 -21.99999999999998 9.488124911819424
    vertex 53.358289864463146 -22.828427124746128 8.852450421427932
  endloop
endfacet
facet normal -2.1175120105124427e-14 0.25137740555334226 0.9678891465334606
  outer loop
    vertex 51.192739162481175 -21.035276180410087 2.1603199915253977
    vertex 53.09298086049205 -19.999999999999964 2.0240232966817877
    vertex 51.092980860492055 -19.99999999999999 2.0240232966817384
  endloop
endfacet
facet normal -1.3869009600530964e-14 -2.5310303655019448e-14 1.0
  outer loop
    vertex 53.09298086049205 -19.999999999999964 2.0240232966817877
    vertex 51.192739162481175 -21.035276180410087 2.1603199915253977
    vertex 53.19009069579822 -21.03527618041007 2.1603199915254474
  endloop
endfacet
facet normal 2.822279228743924e-15 1.0 2.1175284826368005e-14
  outer loop
    vertex 53.543695447681024 -24.000000000000007 6.024023296681736
    vertex 51.46528391199225 -23.863703305156278 7.059299477091687
    vertex 53.50441688865211 -23.863703305156285 7.059299477091781
  endloop
endfacet
facet normal 7.101500225207748e-15 0.9653917188097925 -0.26080419715463726
  outer loop
    vertex 51.46528391199225 -23.863703305156278 7.059299477091687
    vertex 53.543695447681024 -24.000000000000007 6.024023296681736
    vertex 51.47841734160419 -24.000000000000007 6.024023296681595
  endloop
endfacet
facet normal -5.671350120216684e-15 0.9675432437829252 0.25270550332356295
  outer loop
    vertex 53.504416888652095 -23.863703305156218 4.988747116271509
    vertex 51.47841734160419 -24.000000000000007 6.024023296681595
    vertex 53.543695447681024 -24.000000000000007 6.024023296681736
  endloop
endfacet
facet normal 2.822279228743406e-15 1.0 3.232374832644888e-14
  outer loop
    vertex 51.47841734160419 -24.000000000000007 6.024023296681595
    vertex 53.504416888652095 -23.863703305156218 4.988747116271509
    vertex 51.46528391199225 -23.86370330515621 4.9887471162715045
  endloop
endfacet
facet normal -1.0777527393526112e-14 -0.8640323307350556 0.5034363231279082
  outer loop
    vertex 51.42677864468047 -16.535898384862232 4.024023296681737
    vertex 53.504416888652116 -16.136296694843754 4.988747116271601
    vertex 51.46528391199227 -16.136296694843725 4.988747116271597
  endloop
endfacet
facet normal -9.092673476940203e-15 -0.9675432437829281 0.25270550332355196
  outer loop
    vertex 53.504416888652116 -16.136296694843754 4.988747116271601
    vertex 51.42677864468047 -16.535898384862232 4.024023296681737
    vertex 53.4317461482446 -16.38846433984573 4.37996056771612
  endloop
endfacet
facet normal -1.0959117107545137e-14 -0.9238795325112826 0.3826834323650999
  outer loop
    vertex 53.4317461482446 -16.38846433984573 4.37996056771612
    vertex 51.42677864468047 -16.535898384862232 4.024023296681737
    vertex 53.41791670243968 -16.53589838486226 4.02402329668174
  endloop
endfacet
facet normal -6.088919937767563e-15 -1.0 1.8463941691849247e-14
  outer loop
    vertex 51.478417341604214 -16.000000000000014 6.0240232966816425
    vertex 53.504416888652116 -16.136296694843754 4.988747116271601
    vertex 53.543695447681046 -16.000000000000004 6.0240232966817375
  endloop
endfacet
facet normal -9.092673476940203e-15 -0.9675432437829281 0.25270550332355196
  outer loop
    vertex 53.504416888652116 -16.136296694843754 4.988747116271601
    vertex 51.478417341604214 -16.000000000000014 6.0240232966816425
    vertex 51.46528391199227 -16.136296694843725 4.988747116271597
  endloop
endfacet
facet normal -7.912380149202696e-16 -0.5058441316313315 0.8626248979099458
  outer loop
    vertex 53.280582656309875 -17.999999999999986 2.5599216815440027
    vertex 51.36552561000314 -17.171572875253776 3.195596171935534
    vertex 51.28569910104813 -17.999999999999964 2.559921681543997
  endloop
endfacet
facet normal -9.20744909731833e-15 -0.7031209542009177 0.7110702664038141
  outer loop
    vertex 51.36552561000314 -17.171572875253776 3.195596171935534
    vertex 53.280582656309875 -17.999999999999986 2.5599216815440027
    vertex 53.35828986446317 -17.17157287525379 3.1955961719355397
  endloop
endfacet
facet normal -6.134178793169794e-15 -0.9653917188097937 -0.2608041971546321
  outer loop
    vertex 51.46528391199228 -16.13629669484368 7.059299477091733
    vertex 53.41791670243968 -16.535898384862218 8.024023296681642
    vertex 51.42677864468047 -16.53589838486221 8.024023296681639
  endloop
endfacet
facet normal 1.2788017074256048e-15 -0.8679789249734654 -0.4966010328240443
  outer loop
    vertex 53.41791670243968 -16.535898384862218 8.024023296681642
    vertex 51.46528391199228 -16.13629669484368 7.059299477091733
    vertex 53.431746148244564 -16.38846433984573 7.66808602564731
  endloop
endfacet
facet normal -7.300326534390097e-15 -0.9238795325112851 -0.38268343236509383
  outer loop
    vertex 53.431746148244564 -16.38846433984573 7.66808602564731
    vertex 51.46528391199228 -16.13629669484368 7.059299477091733
    vertex 53.50441688865211 -16.136296694843733 7.059299477091784
  endloop
endfacet
facet normal -1.0021226494765844e-14 0.4940206196340539 0.8694501868286564
  outer loop
    vertex 51.285699101048124 -21.99999999999998 2.559921681543997
    vertex 53.19009069579822 -21.03527618041007 2.1603199915254474
    vertex 51.192739162481175 -21.035276180410087 2.1603199915253977
  endloop
endfacet
facet normal -2.053254689758761e-14 0.2660788284170768 0.9639512731814799
  outer loop
    vertex 53.19009069579822 -21.03527618041007 2.1603199915254474
    vertex 51.285699101048124 -21.99999999999998 2.559921681543997
    vertex 53.28058265630988 -21.999999999999975 2.5599216815440027
  endloop
endfacet
facet normal 1.0813540648581437e-14 -0.49402061963405736 -0.8694501868286544
  outer loop
    vertex 51.285699101048124 -18.000000000000018 9.48812491181942
    vertex 53.1900906957982 -18.964723819589906 9.887726601838024
    vertex 51.19273916248116 -18.9647238195899 9.887726601838065
  endloop
endfacet
facet normal -2.013916685176879e-15 -0.26607882841710045 -0.9639512731814732
  outer loop
    vertex 53.1900906957982 -18.964723819589906 9.887726601838024
    vertex 51.285699101048124 -18.000000000000018 9.48812491181942
    vertex 53.28058265630985 -17.999999999999996 9.48812491181947
  endloop
endfacet
facet normal -2.739495861531199e-15 -0.251377405553365 -0.9678891465334546
  outer loop
    vertex 51.19273916248116 -18.9647238195899 9.887726601838065
    vertex 53.09298086049203 -19.999999999999964 10.024023296681728
    vertex 51.09298086049203 -19.999999999999975 10.024023296681724
  endloop
endfacet
facet normal -8.798413347213612e-15 4.084322890587722e-14 -1.0
  outer loop
    vertex 53.09298086049203 -19.999999999999964 10.024023296681728
    vertex 51.19273916248116 -18.9647238195899 9.887726601838065
    vertex 53.1900906957982 -18.964723819589906 9.887726601838024
  endloop
endfacet
facet normal -9.20744909731833e-15 -0.7031209542009177 0.7110702664038141
  outer loop
    vertex 51.36552561000314 -17.171572875253776 3.195596171935534
    vertex 53.41791670243968 -16.53589838486226 4.02402329668174
    vertex 51.42677864468047 -16.535898384862232 4.024023296681737
  endloop
endfacet
facet normal -1.0793595807387692e-14 -0.8679789249734574 0.496601032824058
  outer loop
    vertex 53.41791670243968 -16.53589838486226 4.02402329668174
    vertex 51.36552561000314 -17.171572875253776 3.195596171935534
    vertex 53.35828986446317 -17.17157287525379 3.1955961719355397
  endloop
endfacet
facet normal 3.1810501307033755e-15 -0.26607882841707375 0.9639512731814807
  outer loop
    vertex 53.19009069579821 -18.964723819589903 2.1603199915254474
    vertex 51.28569910104813 -17.999999999999964 2.559921681543997
    vertex 51.19273916248118 -18.964723819589913 2.1603199915254883
  endloop
endfacet
facet normal -2.7124627799655017e-18 -0.4940206196340309 0.8694501868286695
  outer loop
    vertex 51.28569910104813 -17.999999999999964 2.559921681543997
    vertex 53.19009069579821 -18.964723819589903 2.1603199915254474
    vertex 53.280582656309875 -17.999999999999986 2.5599216815440027
  endloop
endfacet
facet normal 1.8128166592299877e-15 -0.8640323307350651 -0.503436323127892
  outer loop
    vertex 51.42677864468047 -16.53589838486221 8.024023296681639
    vertex 53.35828986446316 -17.171572875253688 8.852450421427843
    vertex 51.36552561000314 -17.171572875253773 8.852450421427884
  endloop
endfacet
facet normal 1.4300208724788032e-14 -0.7110086938763928 -0.7031832173994103
  outer loop
    vertex 53.35828986446316 -17.171572875253688 8.852450421427843
    vertex 51.42677864468047 -16.53589838486221 8.024023296681639
    vertex 53.41791670243968 -16.535898384862218 8.024023296681642
  endloop
endfacet
facet normal -1.3869009600530964e-14 -2.5310303655019448e-14 1.0
  outer loop
    vertex 53.09298086049205 -19.999999999999964 2.0240232966817877
    vertex 51.19273916248118 -18.964723819589913 2.1603199915254883
    vertex 51.092980860492055 -19.99999999999999 2.0240232966817384
  endloop
endfacet
facet normal 2.6878772018341623e-15 -0.2513774055533443 0.9678891465334599
  outer loop
    vertex 51.19273916248118 -18.964723819589913 2.1603199915254883
    vertex 53.09298086049205 -19.999999999999964 2.0240232966817877
    vertex 53.19009069579821 -18.964723819589903 2.1603199915254474
  endloop
endfacet
facet normal 1.4640621670977706e-14 -0.7031209542009197 -0.7110702664038121
  outer loop
    vertex 51.36552561000314 -17.171572875253773 8.852450421427884
    vertex 53.28058265630985 -17.999999999999996 9.48812491181947
    vertex 51.285699101048124 -18.000000000000018 9.48812491181942
  endloop
endfacet
facet normal 1.1569687316420522e-14 -0.5058441316313547 -0.8626248979099322
  outer loop
    vertex 53.28058265630985 -17.999999999999996 9.48812491181947
    vertex 51.36552561000314 -17.171572875253773 8.852450421427884
    vertex 53.35828986446316 -17.171572875253688 8.852450421427843
  endloop
endfacet
endsolid Untitled-56535948
