solid Untitled-565350de
facet normal 0.5000000000000049 0.8660254037844359 1.4571677198205323e-16
  outer loop
    vertex -7.299999999999964 1.5626933041053426 -5.639932965095795e-15
    vertex -6.287039989430597 1.1431115295859036 29.699999999999964
    vertex -6.287039989430588 1.1431115295859036 -5.639932965095795e-15
  endloop
endfacet
facet normal 0.2588190451025207 0.9659258262890683 7.542855155963278e-17
  outer loop
    vertex -6.287039989430597 1.1431115295859036 29.699999999999964
    vertex -7.299999999999964 1.5626933041053426 -5.639932965095795e-15
    vertex -7.299999999999972 1.5626933041053426 29.699999999999964
  endloop
endfacet
facet normal 0.2588190451025207 0.9659258262890683 7.542855155963278e-17
  outer loop
    vertex -6.287039989430588 1.1431115295859036 -5.639932965095795e-15
    vertex -5.199999999999999 1.0000000000000433 29.699999999999964
    vertex -5.19999999999999 1.0000000000000433 -5.639932965095795e-15
  endloop
endfacet
facet normal 0.0 1.0 0.0
  outer loop
    vertex -5.199999999999999 1.0000000000000433 29.699999999999964
    vertex -6.287039989430588 1.1431115295859036 -5.639932965095795e-15
    vertex -6.287039989430597 1.1431115295859036 29.699999999999964
  endloop
endfacet
facet normal 0.0 1.0 0.0
  outer loop
    vertex -5.19999999999999 1.0000000000000433 -5.639932965095795e-15
    vertex -4.112960010569401 1.1431115295859036 29.699999999999964
    vertex -4.112960010569393 1.1431115295859036 -5.639932965095795e-15
  endloop
endfacet
facet normal -0.25881904510251325 0.9659258262890703 -7.542855155963061e-17
  outer loop
    vertex -4.112960010569401 1.1431115295859036 29.699999999999964
    vertex -5.19999999999999 1.0000000000000433 -5.639932965095795e-15
    vertex -5.199999999999999 1.0000000000000433 29.699999999999964
  endloop
endfacet
facet normal -0.25881904510251325 0.9659258262890703 -7.542855155963061e-17
  outer loop
    vertex -4.112960010569393 1.1431115295859036 -5.639932965095795e-15
    vertex -3.0999999999999805 1.5626933041053426 29.699999999999964
    vertex -3.099999999999972 1.5626933041053426 -5.639932965095795e-15
  endloop
endfacet
facet normal -0.5000000000000089 0.8660254037844335 -1.4571677198205438e-16
  outer loop
    vertex -3.0999999999999805 1.5626933041053426 29.699999999999964
    vertex -4.112960010569393 1.1431115295859036 -5.639932965095795e-15
    vertex -4.112960010569401 1.1431115295859036 29.699999999999964
  endloop
endfacet
facet normal -0.5000000000000089 0.8660254037844335 -1.4571677198205438e-16
  outer loop
    vertex -3.099999999999972 1.5626933041053426 -5.639932965095795e-15
    vertex -2.2301515190165104 2.230151519016547 29.699999999999964
    vertex -2.230151519016502 2.230151519016547 -5.639932965095795e-15
  endloop
endfacet
facet normal -0.7071067811865565 0.7071067811865387 -2.0607463520224808e-16
  outer loop
    vertex -2.2301515190165104 2.230151519016547 29.699999999999964
    vertex -3.099999999999972 1.5626933041053426 -5.639932965095795e-15
    vertex -3.0999999999999805 1.5626933041053426 29.699999999999964
  endloop
endfacet
facet normal -0.7071067811865565 0.7071067811865387 -2.0607463520224808e-16
  outer loop
    vertex -2.2301515190165104 2.230151519016547 29.699999999999964
    vertex -1.5626933041053428 3.100000000000017 -5.639932965095795e-15
    vertex -2.230151519016502 2.230151519016547 -5.639932965095795e-15
  endloop
endfacet
facet normal -0.8660254037844359 0.5000000000000049 -2.52388852587842e-16
  outer loop
    vertex -1.5626933041053428 3.100000000000017 -5.639932965095795e-15
    vertex -2.2301515190165104 2.230151519016547 29.699999999999964
    vertex -1.5626933041053515 3.100000000000017 29.699999999999964
  endloop
endfacet
facet normal -0.8660254037844359 0.5000000000000049 -2.52388852587842e-16
  outer loop
    vertex -1.5626933041053515 3.100000000000017 29.699999999999964
    vertex -1.1431115295859038 4.112960010569347 -5.639932965095795e-15
    vertex -1.5626933041053428 3.100000000000017 -5.639932965095795e-15
  endloop
endfacet
facet normal -0.9659258262890683 0.2588190451025207 -2.815031867618783e-16
  outer loop
    vertex -1.1431115295859038 4.112960010569347 -5.639932965095795e-15
    vertex -1.5626933041053515 3.100000000000017 29.699999999999964
    vertex -1.1431115295859127 4.112960010569347 29.699999999999964
  endloop
endfacet
facet normal -0.9659258262890683 0.2588190451025207 -2.815031867618783e-16
  outer loop
    vertex -1.1431115295859127 4.112960010569347 29.699999999999964
    vertex -0.9999999999999983 5.19999999999999 -5.639932965095795e-15
    vertex -1.1431115295859038 4.112960010569347 -5.639932965095795e-15
  endloop
endfacet
facet normal -1.0 0.0 -2.914335439641036e-16
  outer loop
    vertex -0.9999999999999983 5.19999999999999 -5.639932965095795e-15
    vertex -1.1431115295859127 4.112960010569347 29.699999999999964
    vertex -1.000000000000007 5.19999999999999 29.699999999999964
  endloop
endfacet
facet normal -1.0 0.0 -2.914335439641036e-16
  outer loop
    vertex -1.000000000000007 5.19999999999999 29.699999999999964
    vertex -1.1431115295859038 6.2870399894306335 -5.639932965095795e-15
    vertex -0.9999999999999983 5.19999999999999 -5.639932965095795e-15
  endloop
endfacet
facet normal -0.9659258262890703 -0.25881904510251325 -2.815031867618789e-16
  outer loop
    vertex -1.1431115295859038 6.2870399894306335 -5.639932965095795e-15
    vertex -1.000000000000007 5.19999999999999 29.699999999999964
    vertex -1.1431115295859127 6.2870399894306335 29.699999999999964
  endloop
endfacet
facet normal -0.9659258262890703 -0.25881904510251325 -2.815031867618789e-16
  outer loop
    vertex -1.1431115295859127 6.2870399894306335 29.699999999999964
    vertex -1.5626933041053428 7.300000000000054 -5.639932965095795e-15
    vertex -1.1431115295859038 6.2870399894306335 -5.639932965095795e-15
  endloop
endfacet
facet normal -0.8660254037844335 -0.5000000000000089 -2.5238885258784124e-16
  outer loop
    vertex -1.5626933041053428 7.300000000000054 -5.639932965095795e-15
    vertex -1.1431115295859127 6.2870399894306335 29.699999999999964
    vertex -1.5626933041053515 7.300000000000054 29.699999999999964
  endloop
endfacet
facet normal -0.8660254037844335 -0.5000000000000089 -2.5238885258784124e-16
  outer loop
    vertex -1.5626933041053515 7.300000000000054 29.699999999999964
    vertex -2.230151519016502 8.169848480983434 -5.639932965095795e-15
    vertex -1.5626933041053428 7.300000000000054 -5.639932965095795e-15
  endloop
endfacet
facet normal -0.7071067811865387 -0.7071067811865565 -2.060746352022429e-16
  outer loop
    vertex -2.230151519016502 8.169848480983434 -5.639932965095795e-15
    vertex -1.5626933041053515 7.300000000000054 29.699999999999964
    vertex -2.2301515190165104 8.169848480983434 29.699999999999964
  endloop
endfacet
facet normal -0.5000000000000049 -0.8660254037844359 -1.4571677198205323e-16
  outer loop
    vertex -3.100000000000026 8.837306695894638 29.699999999999964
    vertex -2.230151519016502 8.169848480983434 -5.639932965095795e-15
    vertex -2.2301515190165104 8.169848480983434 29.699999999999964
  endloop
endfacet
facet normal -0.7071067811865387 -0.7071067811865565 -2.060746352022429e-16
  outer loop
    vertex -2.230151519016502 8.169848480983434 -5.639932965095795e-15
    vertex -3.100000000000026 8.837306695894638 29.699999999999964
    vertex -3.1000000000000174 8.837306695894638 -5.639932965095795e-15
  endloop
endfacet
facet normal -0.2588190451025207 -0.9659258262890683 -7.542855155963278e-17
  outer loop
    vertex -4.112960010569401 9.256888470414077 29.699999999999964
    vertex -3.1000000000000174 8.837306695894638 -5.639932965095795e-15
    vertex -3.100000000000026 8.837306695894638 29.699999999999964
  endloop
endfacet
facet normal -0.5000000000000049 -0.8660254037844359 -1.4571677198205323e-16
  outer loop
    vertex -3.1000000000000174 8.837306695894638 -5.639932965095795e-15
    vertex -4.112960010569401 9.256888470414077 29.699999999999964
    vertex -4.112960010569393 9.256888470414077 -5.639932965095795e-15
  endloop
endfacet
facet normal -0.0 -1.0 0.0
  outer loop
    vertex -5.199999999999999 9.399999999999938 29.699999999999964
    vertex -4.112960010569393 9.256888470414077 -5.639932965095795e-15
    vertex -4.112960010569401 9.256888470414077 29.699999999999964
  endloop
endfacet
facet normal -0.2588190451025207 -0.9659258262890683 -7.542855155963278e-17
  outer loop
    vertex -4.112960010569393 9.256888470414077 -5.639932965095795e-15
    vertex -5.199999999999999 9.399999999999938 29.699999999999964
    vertex -5.19999999999999 9.399999999999938 -5.639932965095795e-15
  endloop
endfacet
facet normal 0.25881904510251325 -0.9659258262890703 7.542855155963061e-17
  outer loop
    vertex -6.287039989430597 9.256888470414077 29.699999999999964
    vertex -5.19999999999999 9.399999999999938 -5.639932965095795e-15
    vertex -5.199999999999999 9.399999999999938 29.699999999999964
  endloop
endfacet
facet normal -0.0 -1.0 0.0
  outer loop
    vertex -5.19999999999999 9.399999999999938 -5.639932965095795e-15
    vertex -6.287039989430597 9.256888470414077 29.699999999999964
    vertex -6.287039989430588 9.256888470414077 -5.639932965095795e-15
  endloop
endfacet
facet normal 0.5000000000000089 -0.8660254037844335 1.4571677198205438e-16
  outer loop
    vertex -7.300000000000018 8.837306695894638 29.699999999999964
    vertex -6.287039989430588 9.256888470414077 -5.639932965095795e-15
    vertex -6.287039989430597 9.256888470414077 29.699999999999964
  endloop
endfacet
facet normal 0.25881904510251325 -0.9659258262890703 7.542855155963061e-17
  outer loop
    vertex -6.287039989430588 9.256888470414077 -5.639932965095795e-15
    vertex -7.300000000000018 8.837306695894638 29.699999999999964
    vertex -7.30000000000001 8.837306695894638 -5.639932965095795e-15
  endloop
endfacet
facet normal 0.7071067811865565 -0.7071067811865387 2.0607463520224808e-16
  outer loop
    vertex -8.169848480983488 8.169848480983434 29.699999999999964
    vertex -7.30000000000001 8.837306695894638 -5.639932965095795e-15
    vertex -7.300000000000018 8.837306695894638 29.699999999999964
  endloop
endfacet
facet normal 0.5000000000000089 -0.8660254037844335 1.4571677198205438e-16
  outer loop
    vertex -7.30000000000001 8.837306695894638 -5.639932965095795e-15
    vertex -8.169848480983488 8.169848480983434 29.699999999999964
    vertex -8.169848480983479 8.169848480983434 -5.639932965095795e-15
  endloop
endfacet
facet normal 0.7071067811865565 -0.7071067811865387 2.0607463520224808e-16
  outer loop
    vertex -8.169848480983488 8.169848480983434 29.699999999999964
    vertex -8.837306695894638 7.299999999999964 -5.639932965095795e-15
    vertex -8.169848480983479 8.169848480983434 -5.639932965095795e-15
  endloop
endfacet
facet normal 0.8660254037844359 -0.5000000000000049 2.52388852587842e-16
  outer loop
    vertex -8.837306695894638 7.299999999999964 -5.639932965095795e-15
    vertex -8.169848480983488 8.169848480983434 29.699999999999964
    vertex -8.837306695894647 7.299999999999964 29.699999999999964
  endloop
endfacet
facet normal 0.8660254037844359 -0.5000000000000049 2.52388852587842e-16
  outer loop
    vertex -8.837306695894647 7.299999999999964 29.699999999999964
    vertex -9.256888470414077 6.2870399894306335 -5.639932965095795e-15
    vertex -8.837306695894638 7.299999999999964 -5.639932965095795e-15
  endloop
endfacet
facet normal 0.9659258262890683 -0.2588190451025207 2.815031867618783e-16
  outer loop
    vertex -9.256888470414077 6.2870399894306335 -5.639932965095795e-15
    vertex -8.837306695894647 7.299999999999964 29.699999999999964
    vertex -9.256888470414086 6.2870399894306335 29.699999999999964
  endloop
endfacet
facet normal 0.9659258262890683 -0.2588190451025207 2.815031867618783e-16
  outer loop
    vertex -9.256888470414086 6.2870399894306335 29.699999999999964
    vertex -9.399999999999983 5.19999999999999 -5.639932965095795e-15
    vertex -9.256888470414077 6.2870399894306335 -5.639932965095795e-15
  endloop
endfacet
facet normal 1.0 0.0 2.914335439641036e-16
  outer loop
    vertex -9.399999999999983 5.19999999999999 -5.639932965095795e-15
    vertex -9.256888470414086 6.2870399894306335 29.699999999999964
    vertex -9.399999999999991 5.19999999999999 29.699999999999964
  endloop
endfacet
facet normal 1.0 0.0 2.914335439641036e-16
  outer loop
    vertex -9.399999999999991 5.19999999999999 29.699999999999964
    vertex -9.256888470414077 4.112960010569347 -5.639932965095795e-15
    vertex -9.399999999999983 5.19999999999999 -5.639932965095795e-15
  endloop
endfacet
facet normal 0.9659258262890703 0.25881904510251325 2.815031867618789e-16
  outer loop
    vertex -9.256888470414077 4.112960010569347 -5.639932965095795e-15
    vertex -9.399999999999991 5.19999999999999 29.699999999999964
    vertex -9.256888470414086 4.112960010569347 29.699999999999964
  endloop
endfacet
facet normal 0.9659258262890703 0.25881904510251325 2.815031867618789e-16
  outer loop
    vertex -9.256888470414086 4.112960010569347 29.699999999999964
    vertex -8.837306695894638 3.099999999999927 -5.639932965095795e-15
    vertex -9.256888470414077 4.112960010569347 -5.639932965095795e-15
  endloop
endfacet
facet normal 0.8660254037844335 0.5000000000000089 2.5238885258784124e-16
  outer loop
    vertex -8.837306695894638 3.099999999999927 -5.639932965095795e-15
    vertex -9.256888470414086 4.112960010569347 29.699999999999964
    vertex -8.837306695894647 3.099999999999927 29.699999999999964
  endloop
endfacet
facet normal 0.8660254037844335 0.5000000000000089 2.5238885258784124e-16
  outer loop
    vertex -8.837306695894647 3.099999999999927 29.699999999999964
    vertex -8.169848480983479 2.230151519016547 -5.639932965095795e-15
    vertex -8.837306695894638 3.099999999999927 -5.639932965095795e-15
  endloop
endfacet
facet normal 0.7071067811865387 0.7071067811865565 2.060746352022429e-16
  outer loop
    vertex -8.169848480983479 2.230151519016547 -5.639932965095795e-15
    vertex -8.837306695894647 3.099999999999927 29.699999999999964
    vertex -8.169848480983488 2.230151519016547 29.699999999999964
  endloop
endfacet
facet normal 0.7071067811865387 0.7071067811865565 2.060746352022429e-16
  outer loop
    vertex -8.169848480983479 2.230151519016547 -5.639932965095795e-15
    vertex -7.299999999999972 1.5626933041053426 29.699999999999964
    vertex -7.299999999999964 1.5626933041053426 -5.639932965095795e-15
  endloop
endfacet
facet normal 0.5000000000000049 0.8660254037844359 1.4571677198205323e-16
  outer loop
    vertex -7.299999999999972 1.5626933041053426 29.699999999999964
    vertex -8.169848480983479 2.230151519016547 -5.639932965095795e-15
    vertex -8.169848480983488 2.230151519016547 29.699999999999964
  endloop
endfacet
facet normal 0.2588190451025167 0.9659258262890694 7.54285515596316e-17
  outer loop
    vertex -3.854140965466904 10.222814296703115 -5.639932965095795e-15
    vertex -2.600000000000004 9.703332099679027 29.699999999999964
    vertex -2.5999999999999956 9.703332099679027 -5.639932965095795e-15
  endloop
endfacet
facet normal 0.49999999999999223 0.8660254037844433 1.4571677198204953e-16
  outer loop
    vertex -2.600000000000004 9.703332099679027 29.699999999999964
    vertex -3.854140965466904 10.222814296703115 -5.639932965095795e-15
    vertex -3.8541409654669123 10.222814296703115 29.699999999999964
  endloop
endfacet
facet normal 0.49999999999999223 0.8660254037844433 1.4571677198204953e-16
  outer loop
    vertex -2.5999999999999956 9.703332099679027 -5.639932965095795e-15
    vertex -1.5230447378299612 8.876955262170029 29.699999999999964
    vertex -1.5230447378299523 8.876955262170029 -5.639932965095795e-15
  endloop
endfacet
facet normal 0.7071067811865476 0.7071067811865476 2.060746352022455e-16
  outer loop
    vertex -1.5230447378299612 8.876955262170029 29.699999999999964
    vertex -2.5999999999999956 9.703332099679027 -5.639932965095795e-15
    vertex -2.600000000000004 9.703332099679027 29.699999999999964
  endloop
endfacet
facet normal 0.7071067811865476 0.7071067811865476 2.060746352022455e-16
  outer loop
    vertex -1.5230447378299612 8.876955262170029 29.699999999999964
    vertex -0.6966679003209093 7.79999999999994 -5.639932965095795e-15
    vertex -1.5230447378299523 8.876955262170029 -5.639932965095795e-15
  endloop
endfacet
facet normal 0.8660254037844433 0.49999999999999223 2.523888525878441e-16
  outer loop
    vertex -0.6966679003209093 7.79999999999994 -5.639932965095795e-15
    vertex -1.5230447378299612 8.876955262170029 29.699999999999964
    vertex -0.696667900320918 7.79999999999994 29.699999999999964
  endloop
endfacet
facet normal 0.8660254037844433 0.49999999999999223 2.523888525878441e-16
  outer loop
    vertex -0.696667900320918 7.79999999999994 29.699999999999964
    vertex -0.17718570329686567 6.545859034533077 -5.639932965095795e-15
    vertex -0.6966679003209093 7.79999999999994 -5.639932965095795e-15
  endloop
endfacet
facet normal 0.9659258262890694 0.2588190451025167 2.815031867618786e-16
  outer loop
    vertex -0.17718570329686567 6.545859034533077 -5.639932965095795e-15
    vertex -0.696667900320918 7.79999999999994 29.699999999999964
    vertex -0.17718570329687433 6.545859034533077 29.699999999999964
  endloop
endfacet
facet normal 0.9659258262890694 0.2588190451025167 2.815031867618786e-16
  outer loop
    vertex -0.17718570329687433 6.545859034533077 29.699999999999964
    vertex -2.588207426157509e-16 5.19999999999999 -5.639932965095795e-15
    vertex -0.17718570329686567 6.545859034533077 -5.639932965095795e-15
  endloop
endfacet
facet normal 1.0 0.0 2.914335439641036e-16
  outer loop
    vertex -2.588207426157509e-16 5.19999999999999 -5.639932965095795e-15
    vertex -0.17718570329687433 6.545859034533077 29.699999999999964
    vertex -8.914396998349618e-15 5.19999999999999 29.699999999999964
  endloop
endfacet
facet normal 1.0 0.0 2.914335439641036e-16
  outer loop
    vertex -8.914396998349618e-15 5.19999999999999 29.699999999999964
    vertex -0.17718570329686567 3.854140965466904 -5.639932965095795e-15
    vertex -2.588207426157509e-16 5.19999999999999 -5.639932965095795e-15
  endloop
endfacet
facet normal 0.9659258262890694 -0.2588190451025167 2.815031867618786e-16
  outer loop
    vertex -0.17718570329686567 3.854140965466904 -5.639932965095795e-15
    vertex -8.914396998349618e-15 5.19999999999999 29.699999999999964
    vertex -0.17718570329687433 3.854140965466904 29.699999999999964
  endloop
endfacet
facet normal 0.9659258262890694 -0.2588190451025167 2.815031867618786e-16
  outer loop
    vertex -0.17718570329687433 3.854140965466904 29.699999999999964
    vertex -0.6966679003209093 2.6000000000000405 -5.639932965095795e-15
    vertex -0.17718570329686567 3.854140965466904 -5.639932965095795e-15
  endloop
endfacet
facet normal 0.8660254037844433 -0.49999999999999223 2.523888525878441e-16
  outer loop
    vertex -0.6966679003209093 2.6000000000000405 -5.639932965095795e-15
    vertex -0.17718570329687433 3.854140965466904 29.699999999999964
    vertex -0.696667900320918 2.6000000000000405 29.699999999999964
  endloop
endfacet
facet normal 0.8660254037844433 -0.49999999999999223 2.523888525878441e-16
  outer loop
    vertex -0.696667900320918 2.6000000000000405 29.699999999999964
    vertex -1.5230447378299523 1.5230447378299523 -5.639932965095795e-15
    vertex -0.6966679003209093 2.6000000000000405 -5.639932965095795e-15
  endloop
endfacet
facet normal 0.7071067811865476 -0.7071067811865476 2.060746352022455e-16
  outer loop
    vertex -1.5230447378299523 1.5230447378299523 -5.639932965095795e-15
    vertex -0.696667900320918 2.6000000000000405 29.699999999999964
    vertex -1.5230447378299612 1.5230447378299523 29.699999999999964
  endloop
endfacet
facet normal 0.49999999999999223 -0.8660254037844433 1.4571677198204953e-16
  outer loop
    vertex -2.600000000000004 0.6966679003209542 29.699999999999964
    vertex -1.5230447378299523 1.5230447378299523 -5.639932965095795e-15
    vertex -1.5230447378299612 1.5230447378299523 29.699999999999964
  endloop
endfacet
facet normal 0.7071067811865476 -0.7071067811865476 2.060746352022455e-16
  outer loop
    vertex -1.5230447378299523 1.5230447378299523 -5.639932965095795e-15
    vertex -2.600000000000004 0.6966679003209542 29.699999999999964
    vertex -2.5999999999999956 0.6966679003209542 -5.639932965095795e-15
  endloop
endfacet
facet normal 0.2588190451025167 -0.9659258262890694 7.54285515596316e-17
  outer loop
    vertex -3.8541409654669123 0.17718570329686542 29.699999999999964
    vertex -2.5999999999999956 0.6966679003209542 -5.639932965095795e-15
    vertex -2.600000000000004 0.6966679003209542 29.699999999999964
  endloop
endfacet
facet normal 0.49999999999999223 -0.8660254037844433 1.4571677198204953e-16
  outer loop
    vertex -2.5999999999999956 0.6966679003209542 -5.639932965095795e-15
    vertex -3.8541409654669123 0.17718570329686542 29.699999999999964
    vertex -3.854140965466904 0.17718570329686542 -5.639932965095795e-15
  endloop
endfacet
facet normal -0.0 -1.0 0.0
  outer loop
    vertex -5.199999999999999 0.0 29.699999999999964
    vertex -3.854140965466904 0.17718570329686542 -5.639932965095795e-15
    vertex -3.8541409654669123 0.17718570329686542 29.699999999999964
  endloop
endfacet
facet normal 0.2588190451025167 -0.9659258262890694 7.54285515596316e-17
  outer loop
    vertex -3.854140965466904 0.17718570329686542 -5.639932965095795e-15
    vertex -5.199999999999999 0.0 29.699999999999964
    vertex -5.19999999999999 0.0 -5.639932965095795e-15
  endloop
endfacet
facet normal -0.2588190451025167 -0.9659258262890694 -7.54285515596316e-17
  outer loop
    vertex -6.545859034533086 0.17718570329686542 29.699999999999964
    vertex -5.19999999999999 0.0 -5.639932965095795e-15
    vertex -5.199999999999999 0.0 29.699999999999964
  endloop
endfacet
facet normal -0.0 -1.0 0.0
  outer loop
    vertex -5.19999999999999 0.0 -5.639932965095795e-15
    vertex -6.545859034533086 0.17718570329686542 29.699999999999964
    vertex -6.545859034533077 0.17718570329686542 -5.639932965095795e-15
  endloop
endfacet
facet normal -0.49999999999999223 -0.8660254037844433 -1.4571677198204953e-16
  outer loop
    vertex -7.7999999999999945 0.6966679003209542 29.699999999999964
    vertex -6.545859034533077 0.17718570329686542 -5.639932965095795e-15
    vertex -6.545859034533086 0.17718570329686542 29.699999999999964
  endloop
endfacet
facet normal -0.2588190451025167 -0.9659258262890694 -7.54285515596316e-17
  outer loop
    vertex -6.545859034533077 0.17718570329686542 -5.639932965095795e-15
    vertex -7.7999999999999945 0.6966679003209542 29.699999999999964
    vertex -7.799999999999986 0.6966679003209542 -5.639932965095795e-15
  endloop
endfacet
facet normal -0.7071067811865476 -0.7071067811865476 -2.060746352022455e-16
  outer loop
    vertex -8.876955262170037 1.5230447378299523 29.699999999999964
    vertex -7.799999999999986 0.6966679003209542 -5.639932965095795e-15
    vertex -7.7999999999999945 0.6966679003209542 29.699999999999964
  endloop
endfacet
facet normal -0.49999999999999223 -0.8660254037844433 -1.4571677198204953e-16
  outer loop
    vertex -7.799999999999986 0.6966679003209542 -5.639932965095795e-15
    vertex -8.876955262170037 1.5230447378299523 29.699999999999964
    vertex -8.876955262170029 1.5230447378299523 -5.639932965095795e-15
  endloop
endfacet
facet normal -0.7071067811865476 -0.7071067811865476 -2.060746352022455e-16
  outer loop
    vertex -8.876955262170037 1.5230447378299523 29.699999999999964
    vertex -9.703332099679072 2.6000000000000405 -1.127986593019159e-14
    vertex -8.876955262170029 1.5230447378299523 -5.639932965095795e-15
  endloop
endfacet
facet normal -0.8660254037844433 -0.49999999999999223 -2.523888525878441e-16
  outer loop
    vertex -9.703332099679072 2.6000000000000405 -1.127986593019159e-14
    vertex -8.876955262170037 1.5230447378299523 29.699999999999964
    vertex -9.70333209967908 2.6000000000000405 29.699999999999957
  endloop
endfacet
facet normal -0.8660254037844433 -0.49999999999999223 -2.523888525878441e-16
  outer loop
    vertex -9.70333209967908 2.6000000000000405 29.699999999999957
    vertex -10.222814296703115 3.854140965466904 -1.127986593019159e-14
    vertex -9.703332099679072 2.6000000000000405 -1.127986593019159e-14
  endloop
endfacet
facet normal -0.9659258262890694 -0.2588190451025167 -2.815031867618786e-16
  outer loop
    vertex -10.222814296703115 3.854140965466904 -1.127986593019159e-14
    vertex -9.70333209967908 2.6000000000000405 29.699999999999957
    vertex -10.222814296703124 3.854140965466904 29.699999999999957
  endloop
endfacet
facet normal -0.9659258262890694 -0.2588190451025167 -2.815031867618786e-16
  outer loop
    vertex -10.222814296703124 3.854140965466904 29.699999999999957
    vertex -10.39999999999998 5.19999999999999 -1.127986593019159e-14
    vertex -10.222814296703115 3.854140965466904 -1.127986593019159e-14
  endloop
endfacet
facet normal -1.0 0.0 -2.914335439641036e-16
  outer loop
    vertex -10.39999999999998 5.19999999999999 -1.127986593019159e-14
    vertex -10.222814296703124 3.854140965466904 29.699999999999957
    vertex -10.39999999999999 5.19999999999999 29.699999999999957
  endloop
endfacet
facet normal -1.0 0.0 -2.914335439641036e-16
  outer loop
    vertex -10.39999999999999 5.19999999999999 29.699999999999957
    vertex -10.222814296703115 6.545859034533077 -1.127986593019159e-14
    vertex -10.39999999999998 5.19999999999999 -1.127986593019159e-14
  endloop
endfacet
facet normal -0.9659258262890694 0.2588190451025167 -2.815031867618786e-16
  outer loop
    vertex -10.222814296703115 6.545859034533077 -1.127986593019159e-14
    vertex -10.39999999999999 5.19999999999999 29.699999999999957
    vertex -10.222814296703124 6.545859034533077 29.699999999999957
  endloop
endfacet
facet normal -0.9659258262890694 0.2588190451025167 -2.815031867618786e-16
  outer loop
    vertex -10.222814296703124 6.545859034533077 29.699999999999957
    vertex -9.703332099679072 7.79999999999994 -1.127986593019159e-14
    vertex -10.222814296703115 6.545859034533077 -1.127986593019159e-14
  endloop
endfacet
facet normal -0.8660254037844433 0.49999999999999223 -2.523888525878441e-16
  outer loop
    vertex -9.703332099679072 7.79999999999994 -1.127986593019159e-14
    vertex -10.222814296703124 6.545859034533077 29.699999999999957
    vertex -9.70333209967908 7.79999999999994 29.699999999999957
  endloop
endfacet
facet normal -0.8660254037844433 0.49999999999999223 -2.523888525878441e-16
  outer loop
    vertex -9.70333209967908 7.79999999999994 29.699999999999957
    vertex -8.876955262170029 8.876955262170029 -5.639932965095795e-15
    vertex -9.703332099679072 7.79999999999994 -1.127986593019159e-14
  endloop
endfacet
facet normal -0.7071067811865476 0.7071067811865476 -2.060746352022455e-16
  outer loop
    vertex -8.876955262170029 8.876955262170029 -5.639932965095795e-15
    vertex -9.70333209967908 7.79999999999994 29.699999999999957
    vertex -8.876955262170037 8.876955262170029 29.699999999999964
  endloop
endfacet
facet normal -0.7071067811865476 0.7071067811865476 -2.060746352022455e-16
  outer loop
    vertex -8.876955262170029 8.876955262170029 -5.639932965095795e-15
    vertex -7.7999999999999945 9.703332099679027 29.699999999999964
    vertex -7.799999999999986 9.703332099679027 -5.639932965095795e-15
  endloop
endfacet
facet normal -0.49999999999999223 0.8660254037844433 -1.4571677198204953e-16
  outer loop
    vertex -7.7999999999999945 9.703332099679027 29.699999999999964
    vertex -8.876955262170029 8.876955262170029 -5.639932965095795e-15
    vertex -8.876955262170037 8.876955262170029 29.699999999999964
  endloop
endfacet
facet normal -0.49999999999999223 0.8660254037844433 -1.4571677198204953e-16
  outer loop
    vertex -7.799999999999986 9.703332099679027 -5.639932965095795e-15
    vertex -6.545859034533086 10.222814296703115 29.699999999999964
    vertex -6.545859034533077 10.222814296703115 -5.639932965095795e-15
  endloop
endfacet
facet normal -0.2588190451025167 0.9659258262890694 -7.54285515596316e-17
  outer loop
    vertex -6.545859034533086 10.222814296703115 29.699999999999964
    vertex -7.799999999999986 9.703332099679027 -5.639932965095795e-15
    vertex -7.7999999999999945 9.703332099679027 29.699999999999964
  endloop
endfacet
facet normal -0.2588190451025167 0.9659258262890694 -7.54285515596316e-17
  outer loop
    vertex -6.545859034533077 10.222814296703115 -5.639932965095795e-15
    vertex -5.199999999999999 10.39999999999998 29.699999999999964
    vertex -5.19999999999999 10.39999999999998 -5.639932965095795e-15
  endloop
endfacet
facet normal 0.0 1.0 0.0
  outer loop
    vertex -5.199999999999999 10.39999999999998 29.699999999999964
    vertex -6.545859034533077 10.222814296703115 -5.639932965095795e-15
    vertex -6.545859034533086 10.222814296703115 29.699999999999964
  endloop
endfacet
facet normal 0.0 1.0 0.0
  outer loop
    vertex -5.19999999999999 10.39999999999998 -5.639932965095795e-15
    vertex -3.8541409654669123 10.222814296703115 29.699999999999964
    vertex -3.854140965466904 10.222814296703115 -5.639932965095795e-15
  endloop
endfacet
facet normal 0.2588190451025167 0.9659258262890694 7.54285515596316e-17
  outer loop
    vertex -3.8541409654669123 10.222814296703115 29.699999999999964
    vertex -5.19999999999999 10.39999999999998 -5.639932965095795e-15
    vertex -5.199999999999999 10.39999999999998 29.699999999999964
  endloop
endfacet
facet normal 2.914335439641036e-16 0.0 -1.0
  outer loop
    vertex -6.545859034533077 0.17718570329686542 -5.639932965095795e-15
    vertex -3.854140965466904 0.17718570329686542 -5.639932965095795e-15
    vertex -5.19999999999999 0.0 -5.639932965095795e-15
  endloop
endfacet
facet normal 2.914335439641036e-16 0.0 -1.0
  outer loop
    vertex -3.854140965466904 0.17718570329686542 -5.639932965095795e-15
    vertex -6.545859034533077 0.17718570329686542 -5.639932965095795e-15
    vertex -7.799999999999986 0.6966679003209542 -5.639932965095795e-15
  endloop
endfacet
facet normal 2.914335439641036e-16 0.0 -1.0
  outer loop
    vertex -3.854140965466904 0.17718570329686542 -5.639932965095795e-15
    vertex -7.799999999999986 0.6966679003209542 -5.639932965095795e-15
    vertex -2.5999999999999956 0.6966679003209542 -5.639932965095795e-15
  endloop
endfacet
facet normal 2.914335439641036e-16 0.0 -1.0
  outer loop
    vertex -2.5999999999999956 0.6966679003209542 -5.639932965095795e-15
    vertex -7.799999999999986 0.6966679003209542 -5.639932965095795e-15
    vertex -5.19999999999999 1.0000000000000433 -5.639932965095795e-15
  endloop
endfacet
facet normal 2.914335439641036e-16 0.0 -1.0
  outer loop
    vertex -5.19999999999999 1.0000000000000433 -5.639932965095795e-15
    vertex -7.799999999999986 0.6966679003209542 -5.639932965095795e-15
    vertex -6.287039989430588 1.1431115295859036 -5.639932965095795e-15
  endloop
endfacet
facet normal 2.914335439641036e-16 0.0 -1.0
  outer loop
    vertex -6.287039989430588 1.1431115295859036 -5.639932965095795e-15
    vertex -7.799999999999986 0.6966679003209542 -5.639932965095795e-15
    vertex -8.876955262170029 1.5230447378299523 -5.639932965095795e-15
  endloop
endfacet
facet normal 2.914335439641036e-16 0.0 -1.0
  outer loop
    vertex -6.287039989430588 1.1431115295859036 -5.639932965095795e-15
    vertex -8.876955262170029 1.5230447378299523 -5.639932965095795e-15
    vertex -7.299999999999964 1.5626933041053426 -5.639932965095795e-15
  endloop
endfacet
facet normal 2.914335439641036e-16 0.0 -1.0
  outer loop
    vertex -7.299999999999964 1.5626933041053426 -5.639932965095795e-15
    vertex -8.876955262170029 1.5230447378299523 -5.639932965095795e-15
    vertex -9.703332099679072 2.6000000000000405 -1.127986593019159e-14
  endloop
endfacet
facet normal 2.914335439641036e-16 0.0 -1.0
  outer loop
    vertex -7.299999999999964 1.5626933041053426 -5.639932965095795e-15
    vertex -9.703332099679072 2.6000000000000405 -1.127986593019159e-14
    vertex -8.169848480983479 2.230151519016547 -5.639932965095795e-15
  endloop
endfacet
facet normal 2.914335439641036e-16 0.0 -1.0
  outer loop
    vertex -8.169848480983479 2.230151519016547 -5.639932965095795e-15
    vertex -9.703332099679072 2.6000000000000405 -1.127986593019159e-14
    vertex -8.837306695894638 3.099999999999927 -5.639932965095795e-15
  endloop
endfacet
facet normal 2.914335439641036e-16 0.0 -1.0
  outer loop
    vertex -8.837306695894638 3.099999999999927 -5.639932965095795e-15
    vertex -9.703332099679072 2.6000000000000405 -1.127986593019159e-14
    vertex -10.222814296703115 3.854140965466904 -1.127986593019159e-14
  endloop
endfacet
facet normal 2.914335439641036e-16 0.0 -1.0
  outer loop
    vertex -8.837306695894638 3.099999999999927 -5.639932965095795e-15
    vertex -10.222814296703115 3.854140965466904 -1.127986593019159e-14
    vertex -9.256888470414077 4.112960010569347 -5.639932965095795e-15
  endloop
endfacet
facet normal 2.914335439641036e-16 0.0 -1.0
  outer loop
    vertex -9.256888470414077 4.112960010569347 -5.639932965095795e-15
    vertex -10.222814296703115 3.854140965466904 -1.127986593019159e-14
    vertex -10.39999999999998 5.19999999999999 -1.127986593019159e-14
  endloop
endfacet
facet normal 2.914335439641036e-16 0.0 -1.0
  outer loop
    vertex -9.256888470414077 4.112960010569347 -5.639932965095795e-15
    vertex -10.39999999999998 5.19999999999999 -1.127986593019159e-14
    vertex -9.399999999999983 5.19999999999999 -5.639932965095795e-15
  endloop
endfacet
facet normal 2.914335439641036e-16 0.0 -1.0
  outer loop
    vertex -9.399999999999983 5.19999999999999 -5.639932965095795e-15
    vertex -10.39999999999998 5.19999999999999 -1.127986593019159e-14
    vertex -10.222814296703115 6.545859034533077 -1.127986593019159e-14
  endloop
endfacet
facet normal 2.914335439641036e-16 0.0 -1.0
  outer loop
    vertex -9.399999999999983 5.19999999999999 -5.639932965095795e-15
    vertex -10.222814296703115 6.545859034533077 -1.127986593019159e-14
    vertex -9.256888470414077 6.2870399894306335 -5.639932965095795e-15
  endloop
endfacet
facet normal 2.914335439641036e-16 0.0 -1.0
  outer loop
    vertex -9.256888470414077 6.2870399894306335 -5.639932965095795e-15
    vertex -10.222814296703115 6.545859034533077 -1.127986593019159e-14
    vertex -8.837306695894638 7.299999999999964 -5.639932965095795e-15
  endloop
endfacet
facet normal 2.914335439641036e-16 0.0 -1.0
  outer loop
    vertex -8.837306695894638 7.299999999999964 -5.639932965095795e-15
    vertex -10.222814296703115 6.545859034533077 -1.127986593019159e-14
    vertex -9.703332099679072 7.79999999999994 -1.127986593019159e-14
  endloop
endfacet
facet normal 2.914335439641036e-16 0.0 -1.0
  outer loop
    vertex -8.837306695894638 7.299999999999964 -5.639932965095795e-15
    vertex -9.703332099679072 7.79999999999994 -1.127986593019159e-14
    vertex -8.169848480983479 8.169848480983434 -5.639932965095795e-15
  endloop
endfacet
facet normal 2.914335439641036e-16 0.0 -1.0
  outer loop
    vertex -8.169848480983479 8.169848480983434 -5.639932965095795e-15
    vertex -9.703332099679072 7.79999999999994 -1.127986593019159e-14
    vertex -8.876955262170029 8.876955262170029 -5.639932965095795e-15
  endloop
endfacet
facet normal 2.914335439641036e-16 0.0 -1.0
  outer loop
    vertex -8.169848480983479 8.169848480983434 -5.639932965095795e-15
    vertex -8.876955262170029 8.876955262170029 -5.639932965095795e-15
    vertex -7.30000000000001 8.837306695894638 -5.639932965095795e-15
  endloop
endfacet
facet normal 2.914335439641036e-16 0.0 -1.0
  outer loop
    vertex -7.30000000000001 8.837306695894638 -5.639932965095795e-15
    vertex -8.876955262170029 8.876955262170029 -5.639932965095795e-15
    vertex -6.287039989430588 9.256888470414077 -5.639932965095795e-15
  endloop
endfacet
facet normal 2.914335439641036e-16 0.0 -1.0
  outer loop
    vertex -6.287039989430588 9.256888470414077 -5.639932965095795e-15
    vertex -8.876955262170029 8.876955262170029 -5.639932965095795e-15
    vertex -7.799999999999986 9.703332099679027 -5.639932965095795e-15
  endloop
endfacet
facet normal 2.914335439641036e-16 0.0 -1.0
  outer loop
    vertex -6.287039989430588 9.256888470414077 -5.639932965095795e-15
    vertex -7.799999999999986 9.703332099679027 -5.639932965095795e-15
    vertex -5.19999999999999 9.399999999999938 -5.639932965095795e-15
  endloop
endfacet
facet normal 2.914335439641036e-16 0.0 -1.0
  outer loop
    vertex -2.5999999999999956 0.6966679003209542 -5.639932965095795e-15
    vertex -4.112960010569393 1.1431115295859036 -5.639932965095795e-15
    vertex -1.5230447378299523 1.5230447378299523 -5.639932965095795e-15
  endloop
endfacet
facet normal 2.914335439641036e-16 0.0 -1.0
  outer loop
    vertex -4.112960010569393 1.1431115295859036 -5.639932965095795e-15
    vertex -2.5999999999999956 0.6966679003209542 -5.639932965095795e-15
    vertex -5.19999999999999 1.0000000000000433 -5.639932965095795e-15
  endloop
endfacet
facet normal 2.914335439641036e-16 0.0 -1.0
  outer loop
    vertex -1.5230447378299523 1.5230447378299523 -5.639932965095795e-15
    vertex -4.112960010569393 1.1431115295859036 -5.639932965095795e-15
    vertex -3.099999999999972 1.5626933041053426 -5.639932965095795e-15
  endloop
endfacet
facet normal 2.914335439641036e-16 0.0 -1.0
  outer loop
    vertex -1.5230447378299523 1.5230447378299523 -5.639932965095795e-15
    vertex -3.099999999999972 1.5626933041053426 -5.639932965095795e-15
    vertex -0.6966679003209093 2.6000000000000405 -5.639932965095795e-15
  endloop
endfacet
facet normal 2.914335439641036e-16 0.0 -1.0
  outer loop
    vertex -0.6966679003209093 2.6000000000000405 -5.639932965095795e-15
    vertex -3.099999999999972 1.5626933041053426 -5.639932965095795e-15
    vertex -2.230151519016502 2.230151519016547 -5.639932965095795e-15
  endloop
endfacet
facet normal 2.914335439641036e-16 0.0 -1.0
  outer loop
    vertex -0.6966679003209093 2.6000000000000405 -5.639932965095795e-15
    vertex -2.230151519016502 2.230151519016547 -5.639932965095795e-15
    vertex -1.5626933041053428 3.100000000000017 -5.639932965095795e-15
  endloop
endfacet
facet normal 2.914335439641036e-16 0.0 -1.0
  outer loop
    vertex -0.6966679003209093 2.6000000000000405 -5.639932965095795e-15
    vertex -1.5626933041053428 3.100000000000017 -5.639932965095795e-15
    vertex -0.17718570329686567 3.854140965466904 -5.639932965095795e-15
  endloop
endfacet
facet normal 2.914335439641036e-16 0.0 -1.0
  outer loop
    vertex -0.17718570329686567 3.854140965466904 -5.639932965095795e-15
    vertex -1.5626933041053428 3.100000000000017 -5.639932965095795e-15
    vertex -1.1431115295859038 4.112960010569347 -5.639932965095795e-15
  endloop
endfacet
facet normal 2.914335439641036e-16 0.0 -1.0
  outer loop
    vertex -0.17718570329686567 3.854140965466904 -5.639932965095795e-15
    vertex -1.1431115295859038 4.112960010569347 -5.639932965095795e-15
    vertex -2.588207426157509e-16 5.19999999999999 -5.639932965095795e-15
  endloop
endfacet
facet normal 2.914335439641036e-16 0.0 -1.0
  outer loop
    vertex -2.588207426157509e-16 5.19999999999999 -5.639932965095795e-15
    vertex -1.1431115295859038 4.112960010569347 -5.639932965095795e-15
    vertex -0.9999999999999983 5.19999999999999 -5.639932965095795e-15
  endloop
endfacet
facet normal 2.914335439641036e-16 0.0 -1.0
  outer loop
    vertex -2.588207426157509e-16 5.19999999999999 -5.639932965095795e-15
    vertex -0.9999999999999983 5.19999999999999 -5.639932965095795e-15
    vertex -1.1431115295859038 6.2870399894306335 -5.639932965095795e-15
  endloop
endfacet
facet normal 2.914335439641036e-16 0.0 -1.0
  outer loop
    vertex -2.588207426157509e-16 5.19999999999999 -5.639932965095795e-15
    vertex -1.1431115295859038 6.2870399894306335 -5.639932965095795e-15
    vertex -0.17718570329686567 6.545859034533077 -5.639932965095795e-15
  endloop
endfacet
facet normal 2.914335439641036e-16 0.0 -1.0
  outer loop
    vertex -0.17718570329686567 6.545859034533077 -5.639932965095795e-15
    vertex -1.1431115295859038 6.2870399894306335 -5.639932965095795e-15
    vertex -1.5626933041053428 7.300000000000054 -5.639932965095795e-15
  endloop
endfacet
facet normal 2.914335439641036e-16 0.0 -1.0
  outer loop
    vertex -0.17718570329686567 6.545859034533077 -5.639932965095795e-15
    vertex -1.5626933041053428 7.300000000000054 -5.639932965095795e-15
    vertex -0.6966679003209093 7.79999999999994 -5.639932965095795e-15
  endloop
endfacet
facet normal 2.914335439641036e-16 0.0 -1.0
  outer loop
    vertex -0.6966679003209093 7.79999999999994 -5.639932965095795e-15
    vertex -1.5626933041053428 7.300000000000054 -5.639932965095795e-15
    vertex -2.230151519016502 8.169848480983434 -5.639932965095795e-15
  endloop
endfacet
facet normal 2.914335439641036e-16 0.0 -1.0
  outer loop
    vertex -0.6966679003209093 7.79999999999994 -5.639932965095795e-15
    vertex -2.230151519016502 8.169848480983434 -5.639932965095795e-15
    vertex -1.5230447378299523 8.876955262170029 -5.639932965095795e-15
  endloop
endfacet
facet normal 2.914335439641036e-16 0.0 -1.0
  outer loop
    vertex -1.5230447378299523 8.876955262170029 -5.639932965095795e-15
    vertex -2.230151519016502 8.169848480983434 -5.639932965095795e-15
    vertex -3.1000000000000174 8.837306695894638 -5.639932965095795e-15
  endloop
endfacet
facet normal 2.914335439641036e-16 0.0 -1.0
  outer loop
    vertex -1.5230447378299523 8.876955262170029 -5.639932965095795e-15
    vertex -3.1000000000000174 8.837306695894638 -5.639932965095795e-15
    vertex -4.112960010569393 9.256888470414077 -5.639932965095795e-15
  endloop
endfacet
facet normal 2.914335439641036e-16 0.0 -1.0
  outer loop
    vertex -1.5230447378299523 8.876955262170029 -5.639932965095795e-15
    vertex -4.112960010569393 9.256888470414077 -5.639932965095795e-15
    vertex -2.5999999999999956 9.703332099679027 -5.639932965095795e-15
  endloop
endfacet
facet normal 2.914335439641036e-16 0.0 -1.0
  outer loop
    vertex -2.5999999999999956 9.703332099679027 -5.639932965095795e-15
    vertex -4.112960010569393 9.256888470414077 -5.639932965095795e-15
    vertex -5.19999999999999 9.399999999999938 -5.639932965095795e-15
  endloop
endfacet
facet normal 2.914335439641036e-16 0.0 -1.0
  outer loop
    vertex -2.5999999999999956 9.703332099679027 -5.639932965095795e-15
    vertex -5.19999999999999 9.399999999999938 -5.639932965095795e-15
    vertex -7.799999999999986 9.703332099679027 -5.639932965095795e-15
  endloop
endfacet
facet normal 2.914335439641036e-16 0.0 -1.0
  outer loop
    vertex -2.5999999999999956 9.703332099679027 -5.639932965095795e-15
    vertex -7.799999999999986 9.703332099679027 -5.639932965095795e-15
    vertex -6.545859034533077 10.222814296703115 -5.639932965095795e-15
  endloop
endfacet
facet normal 2.914335439641036e-16 0.0 -1.0
  outer loop
    vertex -2.5999999999999956 9.703332099679027 -5.639932965095795e-15
    vertex -6.545859034533077 10.222814296703115 -5.639932965095795e-15
    vertex -3.854140965466904 10.222814296703115 -5.639932965095795e-15
  endloop
endfacet
facet normal 2.914335439641036e-16 0.0 -1.0
  outer loop
    vertex -3.854140965466904 10.222814296703115 -5.639932965095795e-15
    vertex -6.545859034533077 10.222814296703115 -5.639932965095795e-15
    vertex -5.19999999999999 10.39999999999998 -5.639932965095795e-15
  endloop
endfacet
facet normal -2.914335439641036e-16 0.0 1.0
  outer loop
    vertex -3.8541409654669123 0.17718570329686542 29.699999999999964
    vertex -6.545859034533086 0.17718570329686542 29.699999999999964
    vertex -5.199999999999999 0.0 29.699999999999964
  endloop
endfacet
facet normal -2.914335439641036e-16 0.0 1.0
  outer loop
    vertex -6.545859034533086 0.17718570329686542 29.699999999999964
    vertex -3.8541409654669123 0.17718570329686542 29.699999999999964
    vertex -2.600000000000004 0.6966679003209542 29.699999999999964
  endloop
endfacet
facet normal -2.914335439641036e-16 0.0 1.0
  outer loop
    vertex -6.545859034533086 0.17718570329686542 29.699999999999964
    vertex -2.600000000000004 0.6966679003209542 29.699999999999964
    vertex -7.7999999999999945 0.6966679003209542 29.699999999999964
  endloop
endfacet
facet normal -2.914335439641036e-16 0.0 1.0
  outer loop
    vertex -7.7999999999999945 0.6966679003209542 29.699999999999964
    vertex -2.600000000000004 0.6966679003209542 29.699999999999964
    vertex -5.199999999999999 1.0000000000000433 29.699999999999964
  endloop
endfacet
facet normal -2.914335439641036e-16 0.0 1.0
  outer loop
    vertex -5.199999999999999 1.0000000000000433 29.699999999999964
    vertex -2.600000000000004 0.6966679003209542 29.699999999999964
    vertex -4.112960010569401 1.1431115295859036 29.699999999999964
  endloop
endfacet
facet normal -2.914335439641036e-16 0.0 1.0
  outer loop
    vertex -4.112960010569401 1.1431115295859036 29.699999999999964
    vertex -2.600000000000004 0.6966679003209542 29.699999999999964
    vertex -1.5230447378299612 1.5230447378299523 29.699999999999964
  endloop
endfacet
facet normal -2.914335439641036e-16 0.0 1.0
  outer loop
    vertex -4.112960010569401 1.1431115295859036 29.699999999999964
    vertex -1.5230447378299612 1.5230447378299523 29.699999999999964
    vertex -3.0999999999999805 1.5626933041053426 29.699999999999964
  endloop
endfacet
facet normal -2.914335439641036e-16 0.0 1.0
  outer loop
    vertex -3.0999999999999805 1.5626933041053426 29.699999999999964
    vertex -1.5230447378299612 1.5230447378299523 29.699999999999964
    vertex -0.696667900320918 2.6000000000000405 29.699999999999964
  endloop
endfacet
facet normal -2.914335439641036e-16 0.0 1.0
  outer loop
    vertex -3.0999999999999805 1.5626933041053426 29.699999999999964
    vertex -0.696667900320918 2.6000000000000405 29.699999999999964
    vertex -2.2301515190165104 2.230151519016547 29.699999999999964
  endloop
endfacet
facet normal -2.914335439641036e-16 0.0 1.0
  outer loop
    vertex -2.2301515190165104 2.230151519016547 29.699999999999964
    vertex -0.696667900320918 2.6000000000000405 29.699999999999964
    vertex -1.5626933041053515 3.100000000000017 29.699999999999964
  endloop
endfacet
facet normal -2.914335439641036e-16 0.0 1.0
  outer loop
    vertex -1.5626933041053515 3.100000000000017 29.699999999999964
    vertex -0.696667900320918 2.6000000000000405 29.699999999999964
    vertex -0.17718570329687433 3.854140965466904 29.699999999999964
  endloop
endfacet
facet normal -2.914335439641036e-16 0.0 1.0
  outer loop
    vertex -1.5626933041053515 3.100000000000017 29.699999999999964
    vertex -0.17718570329687433 3.854140965466904 29.699999999999964
    vertex -1.1431115295859127 4.112960010569347 29.699999999999964
  endloop
endfacet
facet normal -2.914335439641036e-16 0.0 1.0
  outer loop
    vertex -1.1431115295859127 4.112960010569347 29.699999999999964
    vertex -0.17718570329687433 3.854140965466904 29.699999999999964
    vertex -8.914396998349618e-15 5.19999999999999 29.699999999999964
  endloop
endfacet
facet normal -2.914335439641036e-16 0.0 1.0
  outer loop
    vertex -1.1431115295859127 4.112960010569347 29.699999999999964
    vertex -8.914396998349618e-15 5.19999999999999 29.699999999999964
    vertex -1.000000000000007 5.19999999999999 29.699999999999964
  endloop
endfacet
facet normal -2.914335439641036e-16 0.0 1.0
  outer loop
    vertex -1.000000000000007 5.19999999999999 29.699999999999964
    vertex -8.914396998349618e-15 5.19999999999999 29.699999999999964
    vertex -0.17718570329687433 6.545859034533077 29.699999999999964
  endloop
endfacet
facet normal -2.914335439641036e-16 0.0 1.0
  outer loop
    vertex -1.000000000000007 5.19999999999999 29.699999999999964
    vertex -0.17718570329687433 6.545859034533077 29.699999999999964
    vertex -1.1431115295859127 6.2870399894306335 29.699999999999964
  endloop
endfacet
facet normal -2.914335439641036e-16 0.0 1.0
  outer loop
    vertex -1.1431115295859127 6.2870399894306335 29.699999999999964
    vertex -0.17718570329687433 6.545859034533077 29.699999999999964
    vertex -1.5626933041053515 7.300000000000054 29.699999999999964
  endloop
endfacet
facet normal -2.914335439641036e-16 0.0 1.0
  outer loop
    vertex -1.5626933041053515 7.300000000000054 29.699999999999964
    vertex -0.17718570329687433 6.545859034533077 29.699999999999964
    vertex -0.696667900320918 7.79999999999994 29.699999999999964
  endloop
endfacet
facet normal -2.914335439641036e-16 0.0 1.0
  outer loop
    vertex -1.5626933041053515 7.300000000000054 29.699999999999964
    vertex -0.696667900320918 7.79999999999994 29.699999999999964
    vertex -2.2301515190165104 8.169848480983434 29.699999999999964
  endloop
endfacet
facet normal -2.914335439641036e-16 0.0 1.0
  outer loop
    vertex -2.2301515190165104 8.169848480983434 29.699999999999964
    vertex -0.696667900320918 7.79999999999994 29.699999999999964
    vertex -1.5230447378299612 8.876955262170029 29.699999999999964
  endloop
endfacet
facet normal -2.914335439641036e-16 0.0 1.0
  outer loop
    vertex -2.2301515190165104 8.169848480983434 29.699999999999964
    vertex -1.5230447378299612 8.876955262170029 29.699999999999964
    vertex -3.100000000000026 8.837306695894638 29.699999999999964
  endloop
endfacet
facet normal -2.914335439641036e-16 0.0 1.0
  outer loop
    vertex -3.100000000000026 8.837306695894638 29.699999999999964
    vertex -1.5230447378299612 8.876955262170029 29.699999999999964
    vertex -4.112960010569401 9.256888470414077 29.699999999999964
  endloop
endfacet
facet normal -2.914335439641036e-16 0.0 1.0
  outer loop
    vertex -4.112960010569401 9.256888470414077 29.699999999999964
    vertex -1.5230447378299612 8.876955262170029 29.699999999999964
    vertex -2.600000000000004 9.703332099679027 29.699999999999964
  endloop
endfacet
facet normal -2.914335439641036e-16 0.0 1.0
  outer loop
    vertex -4.112960010569401 9.256888470414077 29.699999999999964
    vertex -2.600000000000004 9.703332099679027 29.699999999999964
    vertex -5.199999999999999 9.399999999999938 29.699999999999964
  endloop
endfacet
facet normal -2.914335439641036e-16 0.0 1.0
  outer loop
    vertex -7.7999999999999945 0.6966679003209542 29.699999999999964
    vertex -6.287039989430597 1.1431115295859036 29.699999999999964
    vertex -8.876955262170037 1.5230447378299523 29.699999999999964
  endloop
endfacet
facet normal -2.914335439641036e-16 0.0 1.0
  outer loop
    vertex -6.287039989430597 1.1431115295859036 29.699999999999964
    vertex -7.7999999999999945 0.6966679003209542 29.699999999999964
    vertex -5.199999999999999 1.0000000000000433 29.699999999999964
  endloop
endfacet
facet normal -2.914335439641036e-16 0.0 1.0
  outer loop
    vertex -8.876955262170037 1.5230447378299523 29.699999999999964
    vertex -6.287039989430597 1.1431115295859036 29.699999999999964
    vertex -7.299999999999972 1.5626933041053426 29.699999999999964
  endloop
endfacet
facet normal -2.914335439641036e-16 0.0 1.0
  outer loop
    vertex -8.876955262170037 1.5230447378299523 29.699999999999964
    vertex -7.299999999999972 1.5626933041053426 29.699999999999964
    vertex -9.70333209967908 2.6000000000000405 29.699999999999957
  endloop
endfacet
facet normal -2.914335439641036e-16 0.0 1.0
  outer loop
    vertex -9.70333209967908 2.6000000000000405 29.699999999999957
    vertex -7.299999999999972 1.5626933041053426 29.699999999999964
    vertex -8.169848480983488 2.230151519016547 29.699999999999964
  endloop
endfacet
facet normal -2.914335439641036e-16 0.0 1.0
  outer loop
    vertex -9.70333209967908 2.6000000000000405 29.699999999999957
    vertex -8.169848480983488 2.230151519016547 29.699999999999964
    vertex -8.837306695894647 3.099999999999927 29.699999999999964
  endloop
endfacet
facet normal -2.914335439641036e-16 0.0 1.0
  outer loop
    vertex -9.70333209967908 2.6000000000000405 29.699999999999957
    vertex -8.837306695894647 3.099999999999927 29.699999999999964
    vertex -10.222814296703124 3.854140965466904 29.699999999999957
  endloop
endfacet
facet normal -2.914335439641036e-16 0.0 1.0
  outer loop
    vertex -10.222814296703124 3.854140965466904 29.699999999999957
    vertex -8.837306695894647 3.099999999999927 29.699999999999964
    vertex -9.256888470414086 4.112960010569347 29.699999999999964
  endloop
endfacet
facet normal -2.914335439641036e-16 0.0 1.0
  outer loop
    vertex -10.222814296703124 3.854140965466904 29.699999999999957
    vertex -9.256888470414086 4.112960010569347 29.699999999999964
    vertex -10.39999999999999 5.19999999999999 29.699999999999957
  endloop
endfacet
facet normal -2.914335439641036e-16 0.0 1.0
  outer loop
    vertex -10.39999999999999 5.19999999999999 29.699999999999957
    vertex -9.256888470414086 4.112960010569347 29.699999999999964
    vertex -9.399999999999991 5.19999999999999 29.699999999999964
  endloop
endfacet
facet normal -2.914335439641036e-16 0.0 1.0
  outer loop
    vertex -10.39999999999999 5.19999999999999 29.699999999999957
    vertex -9.399999999999991 5.19999999999999 29.699999999999964
    vertex -9.256888470414086 6.2870399894306335 29.699999999999964
  endloop
endfacet
facet normal -2.914335439641036e-16 0.0 1.0
  outer loop
    vertex -10.39999999999999 5.19999999999999 29.699999999999957
    vertex -9.256888470414086 6.2870399894306335 29.699999999999964
    vertex -10.222814296703124 6.545859034533077 29.699999999999957
  endloop
endfacet
facet normal -2.914335439641036e-16 0.0 1.0
  outer loop
    vertex -10.222814296703124 6.545859034533077 29.699999999999957
    vertex -9.256888470414086 6.2870399894306335 29.699999999999964
    vertex -8.837306695894647 7.299999999999964 29.699999999999964
  endloop
endfacet
facet normal -2.914335439641036e-16 0.0 1.0
  outer loop
    vertex -10.222814296703124 6.545859034533077 29.699999999999957
    vertex -8.837306695894647 7.299999999999964 29.699999999999964
    vertex -9.70333209967908 7.79999999999994 29.699999999999957
  endloop
endfacet
facet normal -2.914335439641036e-16 0.0 1.0
  outer loop
    vertex -9.70333209967908 7.79999999999994 29.699999999999957
    vertex -8.837306695894647 7.299999999999964 29.699999999999964
    vertex -8.169848480983488 8.169848480983434 29.699999999999964
  endloop
endfacet
facet normal -2.914335439641036e-16 0.0 1.0
  outer loop
    vertex -9.70333209967908 7.79999999999994 29.699999999999957
    vertex -8.169848480983488 8.169848480983434 29.699999999999964
    vertex -8.876955262170037 8.876955262170029 29.699999999999964
  endloop
endfacet
facet normal -2.914335439641036e-16 0.0 1.0
  outer loop
    vertex -8.876955262170037 8.876955262170029 29.699999999999964
    vertex -8.169848480983488 8.169848480983434 29.699999999999964
    vertex -7.300000000000018 8.837306695894638 29.699999999999964
  endloop
endfacet
facet normal -2.914335439641036e-16 0.0 1.0
  outer loop
    vertex -8.876955262170037 8.876955262170029 29.699999999999964
    vertex -7.300000000000018 8.837306695894638 29.699999999999964
    vertex -6.287039989430597 9.256888470414077 29.699999999999964
  endloop
endfacet
facet normal -2.914335439641036e-16 0.0 1.0
  outer loop
    vertex -8.876955262170037 8.876955262170029 29.699999999999964
    vertex -6.287039989430597 9.256888470414077 29.699999999999964
    vertex -7.7999999999999945 9.703332099679027 29.699999999999964
  endloop
endfacet
facet normal -2.914335439641036e-16 0.0 1.0
  outer loop
    vertex -7.7999999999999945 9.703332099679027 29.699999999999964
    vertex -6.287039989430597 9.256888470414077 29.699999999999964
    vertex -5.199999999999999 9.399999999999938 29.699999999999964
  endloop
endfacet
facet normal -2.914335439641036e-16 0.0 1.0
  outer loop
    vertex -7.7999999999999945 9.703332099679027 29.699999999999964
    vertex -5.199999999999999 9.399999999999938 29.699999999999964
    vertex -2.600000000000004 9.703332099679027 29.699999999999964
  endloop
endfacet
facet normal -2.914335439641036e-16 0.0 1.0
  outer loop
    vertex -7.7999999999999945 9.703332099679027 29.699999999999964
    vertex -2.600000000000004 9.703332099679027 29.699999999999964
    vertex -3.8541409654669123 10.222814296703115 29.699999999999964
  endloop
endfacet
facet normal -2.914335439641036e-16 0.0 1.0
  outer loop
    vertex -7.7999999999999945 9.703332099679027 29.699999999999964
    vertex -3.8541409654669123 10.222814296703115 29.699999999999964
    vertex -6.545859034533086 10.222814296703115 29.699999999999964
  endloop
endfacet
facet normal -2.914335439641036e-16 0.0 1.0
  outer loop
    vertex -6.545859034533086 10.222814296703115 29.699999999999964
    vertex -3.8541409654669123 10.222814296703115 29.699999999999964
    vertex -5.199999999999999 10.39999999999998 29.699999999999964
  endloop
endfacet
endsolid Untitled-565350de
