  0
SECTION
  2
HEADER
  9
$ACADVER
  1
AC1018
  9
$ACADMAINTVER
 70
     0
  9
$DWGCODEPAGE
  3
ASCII
  9
$INSBASE
 10
0.0
 20
0.0
 30
0.0
  9
$EXTMIN
 10
1.000000000000000E+20
 20
1.000000000000000E+20
 30
1.000000000000000E+20
  9
$EXTMAX
 10
-1.000000000000000E+20
 20
-1.000000000000000E+20
 30
-1.000000000000000E+20
  9
$LIMMIN
 10
0.0
 20
0.0
  9
$LIMMAX
 10
12.0
 20
9.0
  9
$ORTHOMODE
 70
     0
  9
$REGENMODE
 70
     1
  9
$FILLMODE
 70
     1
  9
$QTEXTMODE
 70
     0
  9
$MIRRTEXT
 70
     1
  9
$LTSCALE
 40
1.0
  9
$ATTMODE
 70
     1
  9
$TEXTSIZE
 40
0.2
  9
$TRACEWID
 40
0.05
  9
$TEXTSTYLE
  7
Standard
  9
$CLAYER
  8
0
  9
$CELTYPE
  6
ByLayer
  9
$CECOLOR
 62
   256
  9
$CELTSCALE
 40
1.0
  9
$DISPSILH
 70
     0
  9
$DIMSCALE
 40
1.0
  9
$DIMASZ
 40
0.18
  9
$DIMEXO
 40
0.0625
  9
$DIMDLI
 40
0.38
  9
$DIMRND
 40
0.0
  9
$DIMDLE
 40
0.0
  9
$DIMEXE
 40
0.18
  9
$DIMTP
 40
0.0
  9
$DIMTM
 40
0.0
  9
$DIMTXT
 40
0.18
  9
$DIMCEN
 40
0.09
  9
$DIMTSZ
 40
0.0
  9
$DIMTOL
 70
     0
  9
$DIMLIM
 70
     0
  9
$DIMTIH
 70
     1
  9
$DIMTOH
 70
     1
  9
$DIMSE1
 70
     0
  9
$DIMSE2
 70
     0
  9
$DIMTAD
 70
     0
  9
$DIMZIN
 70
     0
  9
$DIMBLK
  1

  9
$DIMASO
 70
     1
  9
$DIMSHO
 70
     1
  9
$DIMPOST
  1

  9
$DIMAPOST
  1

  9
$DIMALT
 70
     0
  9
$DIMALTD
 70
     2
  9
$DIMALTF
 40
25.4
  9
$DIMLFAC
 40
1.0
  9
$DIMTOFL
 70
     0
  9
$DIMTVP
 40
0.0
  9
$DIMTIX
 70
     0
  9
$DIMSOXD
 70
     0
  9
$DIMSAH
 70
     0
  9
$DIMBLK1
  1

  9
$DIMBLK2
  1

  9
$DIMSTYLE
  2
Standard
  9
$DIMCLRD
 70
     0
  9
$DIMCLRE
 70
     0
  9
$DIMCLRT
 70
     0
  9
$DIMTFAC
 40
1.0
  9
$DIMGAP
 40
0.09
  9
$DIMJUST
 70
     0
  9
$DIMSD1
 70
     0
  9
$DIMSD2
 70
     0
  9
$DIMTOLJ
 70
     1
  9
$DIMTZIN
 70
     0
  9
$DIMALTZ
 70
     0
  9
$DIMALTTZ
 70
     0
  9
$DIMUPT
 70
     0
  9
$DIMDEC
 70
     4
  9
$DIMTDEC
 70
     4
  9
$DIMALTU
 70
     2
  9
$DIMALTTD
 70
     2
  9
$DIMTXSTY
  7
Standard
  9
$DIMAUNIT
 70
     0
  9
$DIMADEC
 70
     0
  9
$DIMALTRND
 40
0.0
  9
$DIMAZIN
 70
     0
  9
$DIMDSEP
 70
    46
  9
$DIMATFIT
 70
     3
  9
$DIMFRAC
 70
     0
  9
$DIMLDRBLK
  1

  9
$DIMLUNIT
 70
     2
  9
$DIMLWD
 70
    -2
  9
$DIMLWE
 70
    -2
  9
$DIMTMOVE
 70
     0
  9
$LUNITS
 70
     2
  9
$LUPREC
 70
     4
  9
$SKETCHINC
 40
0.1
  9
$FILLETRAD
 40
0.5
  9
$AUNITS
 70
     0
  9
$AUPREC
 70
     0
  9
$MENU
  1
.
  9
$ELEVATION
 40
0.0
  9
$PELEVATION
 40
0.0
  9
$THICKNESS
 40
0.0
  9
$LIMCHECK
 70
     0
  9
$CHAMFERA
 40
0.5
  9
$CHAMFERB
 40
0.5
  9
$CHAMFERC
 40
1.0
  9
$CHAMFERD
 40
0.0
  9
$SKPOLY
 70
     0
  9
$TDCREATE
 40
2457289.579814815
  9
$TDUCREATE
 40
2457289.538148148
  9
$TDUPDATE
 40
2457289.579814827
  9
$TDUUPDATE
 40
2457289.53814816
  9
$TDINDWG
 40
0.0000000116
  9
$TDUSRTIMER
 40
0.0000000116
  9
$USRTIMER
 70
     1
  9
$ANGBASE
 50
0.0
  9
$ANGDIR
 70
     0
  9
$PDMODE
 70
     0
  9
$PDSIZE
 40
0.0
  9
$PLINEWID
 40
0.0
  9
$SPLFRAME
 70
     0
  9
$SPLINETYPE
 70
     6
  9
$SPLINESEGS
 70
     8
  9
$HANDSEED
  5
68
  9
$SURFTAB1
 70
     6
  9
$SURFTAB2
 70
     6
  9
$SURFTYPE
 70
     6
  9
$SURFU
 70
     6
  9
$SURFV
 70
     6
  9
$UCSBASE
  2

  9
$UCSNAME
  2

  9
$UCSORG
 10
0.0
 20
0.0
 30
0.0
  9
$UCSXDIR
 10
1.0
 20
0.0
 30
0.0
  9
$UCSYDIR
 10
0.0
 20
1.0
 30
0.0
  9
$UCSORTHOREF
  2

  9
$UCSORTHOVIEW
 70
     0
  9
$UCSORGTOP
 10
0.0
 20
0.0
 30
0.0
  9
$UCSORGBOTTOM
 10
0.0
 20
0.0
 30
0.0
  9
$UCSORGLEFT
 10
0.0
 20
0.0
 30
0.0
  9
$UCSORGRIGHT
 10
0.0
 20
0.0
 30
0.0
  9
$UCSORGFRONT
 10
0.0
 20
0.0
 30
0.0
  9
$UCSORGBACK
 10
0.0
 20
0.0
 30
0.0
  9
$PUCSBASE
  2

  9
$PUCSNAME
  2

  9
$PUCSORG
 10
0.0
 20
0.0
 30
0.0
  9
$PUCSXDIR
 10
1.0
 20
0.0
 30
0.0
  9
$PUCSYDIR
 10
0.0
 20
1.0
 30
0.0
  9
$PUCSORTHOREF
  2

  9
$PUCSORTHOVIEW
 70
     0
  9
$PUCSORGTOP
 10
0.0
 20
0.0
 30
0.0
  9
$PUCSORGBOTTOM
 10
0.0
 20
0.0
 30
0.0
  9
$PUCSORGLEFT
 10
0.0
 20
0.0
 30
0.0
  9
$PUCSORGRIGHT
 10
0.0
 20
0.0
 30
0.0
  9
$PUCSORGFRONT
 10
0.0
 20
0.0
 30
0.0
  9
$PUCSORGBACK
 10
0.0
 20
0.0
 30
0.0
  9
$USERI1
 70
     0
  9
$USERI2
 70
     0
  9
$USERI3
 70
     0
  9
$USERI4
 70
     0
  9
$USERI5
 70
     0
  9
$USERR1
 40
0.0
  9
$USERR2
 40
0.0
  9
$USERR3
 40
0.0
  9
$USERR4
 40
0.0
  9
$USERR5
 40
0.0
  9
$WORLDVIEW
 70
     1
  9
$SHADEDGE
 70
     3
  9
$SHADEDIF
 70
    70
  9
$TILEMODE
 70
     1
  9
$MAXACTVP
 70
    64
  9
$PINSBASE
 10
0.0
 20
0.0
 30
0.0
  9
$PLIMCHECK
 70
     0
  9
$PEXTMIN
 10
1.000000000000000E+20
 20
1.000000000000000E+20
 30
1.000000000000000E+20
  9
$PEXTMAX
 10
-1.000000000000000E+20
 20
-1.000000000000000E+20
 30
-1.000000000000000E+20
  9
$PLIMMIN
 10
0.0
 20
0.0
  9
$PLIMMAX
 10
12.0
 20
9.0
  9
$UNITMODE
 70
     0
  9
$VISRETAIN
 70
     1
  9
$PLINEGEN
 70
     0
  9
$PSLTSCALE
 70
     1
  9
$TREEDEPTH
 70
  3020
  9
$CMLSTYLE
  2
Standard
  9
$CMLJUST
 70
     0
  9
$CMLSCALE
 40
1.0
  9
$PROXYGRAPHICS
 70
     1
  9
$MEASUREMENT
 70
     0
  9
$CELWEIGHT
370
    -1
  9
$ENDCAPS
280
     0
  9
$JOINSTYLE
280
     0
  9
$LWDISPLAY
290
     1
  9
$INSUNITS
 70
     1
  9
$HYPERLINKBASE
  1

  9
$STYLESHEET
  1

  9
$XEDIT
290
     1
  9
$CEPSNTYPE
380
     0
  9
$PSTYLEMODE
290
     1
  9
$FINGERPRINTGUID
  2
{547E7406-29B9-41F4-AEE4-3FF7EBD12A44}
  9
$VERSIONGUID
  2
{FAEB1C32-E019-11D5-929B-00C0DF256EC4}
  9
$EXTNAMES
290
     1
  9
$PSVPSCALE
 40
0.0
  9
$OLESTARTUP
290
     0
  9
$SORTENTS
280
   127
  9
$INDEXCTL
280
     0
  9
$HIDETEXT
280
     1
  9
$XCLIPFRAME
290
     0
  9
$HALOGAP
280
     0
  9
$OBSCOLOR
 70
   257
  9
$OBSLTYPE
280
     0
  9
$INTERSECTIONDISPLAY
280
     0
  9
$INTERSECTIONCOLOR
 70
   257
  9
$DIMASSOC
280
     2
  9
$PROJECTNAME
  1

  0
ENDSEC
  0
SECTION
  2
CLASSES
  0
CLASS
  1
ACDBDICTIONARYWDFLT
  2
AcDbDictionaryWithDefault
  3
ObjectDBX Classes
 90
        0
 91
        3
280
     0
281
     0
  0
CLASS
  1
VISUALSTYLE
  2
AcDbVisualStyle
  3
ObjectDBX Classes
 90
     4095
 91
        3
280
     0
281
     0
  0
ENDSEC
  0
SECTION
  2
TABLES
  0
TABLE
  2
VPORT
  5
8
330
0
100
AcDbSymbolTable
 70
     1
  0
VPORT
  5
29
330
8
100
AcDbSymbolTableRecord
100
AcDbViewportTableRecord
  2
*Active
 70
     0
 10
0.0
 20
0.0
 11
1.0
 21
1.0
 12
0.0
 22
0.0
 13
0.0
 23
0.0
 14
0.5
 24
0.5
 15
0.5
 25
0.5
 16
0.0
 26
0.0
 36
1.0
 17
115.0002914938554
 27
115.0002914938554
 37
0.0
 40
230.0005829877109
 41
1.0
 42
50.0
 43
0.0
 44
0.0
 50
0.0
 51
0.0
 71
     0
 72
   100
 73
     1
 74
     3
 75
     0
 76
     0
 77
     0
 78
     0
281
     0
 65
     1
110
0.0
120
0.0
130
0.0
111
1.0
121
0.0
131
0.0
112
0.0
122
1.0
132
0.0
 79
     0
146
0.0
  0
ENDTAB
  0
TABLE
  2
LTYPE
  5
5
330
0
100
AcDbSymbolTable
 70
     1
  0
LTYPE
  5
14
330
5
100
AcDbSymbolTableRecord
100
AcDbLinetypeTableRecord
  2
ByBlock
 70
     0
  3

 72
    65
 73
     0
 40
0.0
  0
LTYPE
  5
15
330
5
100
AcDbSymbolTableRecord
100
AcDbLinetypeTableRecord
  2
ByLayer
 70
     0
  3

 72
    65
 73
     0
 40
0.0
  0
LTYPE
  5
16
330
5
100
AcDbSymbolTableRecord
100
AcDbLinetypeTableRecord
  2
Continuous
 70
     0
  3
Solid line
 72
    65
 73
     0
 40
0.0
  0
ENDTAB
  0
TABLE
  2
LAYER
  5
2
330
0
100
AcDbSymbolTable
 70
     2
  0
LAYER
  5
10
330
2
100
AcDbSymbolTableRecord
100
AcDbLayerTableRecord
  2
0
 70
     0
 62
     7
  6
Continuous
370
    -3
390
F
  0
LAYER
  5
3B
330
2
100
AcDbSymbolTableRecord
100
AcDbLayerTableRecord
  2
Calque 1
 70
     0
 62
     7
  6
Continuous
370
    -3
390
F
  0
ENDTAB
  0
TABLE
  2
STYLE
  5
3
330
0
100
AcDbSymbolTable
 70
     1
  0
STYLE
  5
11
330
3
100
AcDbSymbolTableRecord
100
AcDbTextStyleTableRecord
  2
Standard
 70
     0
 40
0.0
 41
1.0
 50
0.0
 71
     0
 42
0.2
  3
txt
  4

  0
ENDTAB
  0
TABLE
  2
VIEW
  5
6
330
0
100
AcDbSymbolTable
 70
     0
  0
ENDTAB
  0
TABLE
  2
UCS
  5
7
330
0
100
AcDbSymbolTable
 70
     0
  0
ENDTAB
  0
TABLE
  2
APPID
  5
9
330
0
100
AcDbSymbolTable
 70
     1
  0
APPID
  5
12
330
9
100
AcDbSymbolTableRecord
100
AcDbRegAppTableRecord
  2
ACAD
 70
     0
  0
ENDTAB
  0
TABLE
  2
DIMSTYLE
  5
A
330
0
100
AcDbSymbolTable
 70
     1
100
AcDbDimStyleTable
  0
DIMSTYLE
105
27
330
A
100
AcDbSymbolTableRecord
100
AcDbDimStyleTableRecord
  2
Standard
 70
     0
340
11
  0
ENDTAB
  0
TABLE
  2
BLOCK_RECORD
  5
1
330
0
100
AcDbSymbolTable
 70
     1
  0
BLOCK_RECORD
  5
1F
330
1
100
AcDbSymbolTableRecord
100
AcDbBlockTableRecord
  2
*Model_Space
340
22
  0
BLOCK_RECORD
  5
1B
330
1
100
AcDbSymbolTableRecord
100
AcDbBlockTableRecord
  2
*Paper_Space
340
1E
  0
BLOCK_RECORD
  5
23
330
1
100
AcDbSymbolTableRecord
100
AcDbBlockTableRecord
  2
*Paper_Space0
340
26
  0
ENDTAB
  0
ENDSEC
  0
SECTION
  2
BLOCKS
  0
BLOCK
  5
20
330
1F
100
AcDbEntity
  8
0
100
AcDbBlockBegin
  2
*Model_Space
 70
     0
 71
     0
 10
0.0
 20
0.0
 30
0.0
  3
*Model_Space
  1

  0
ENDBLK
  5
21
330
1F
100
AcDbEntity
  8
0
100
AcDbBlockEnd
  0
BLOCK
  5
1C
330
1B
100
AcDbEntity
 67
     1
  8
0
100
AcDbBlockBegin
  2
*Paper_Space
 70
     0
 71
     0
 10
0.0
 20
0.0
 30
0.0
  3
*Paper_Space
  1

  0
ENDBLK
  5
1D
330
1B
100
AcDbEntity
 67
     1
  8
0
100
AcDbBlockEnd
  0
BLOCK
  5
24
330
23
100
AcDbEntity
  8
0
100
AcDbBlockBegin
  2
*Paper_Space0
 70
     0
 71
     0
 10
0.0
 20
0.0
 30
0.0
  3
*Paper_Space0
  1

  0
ENDBLK
  5
25
330
23
100
AcDbEntity
  8
0
100
AcDbBlockEnd
  0
ENDSEC
  0
SECTION
  2
ENTITIES
  0
SPLINE
  5
3C
330
1F
100
AcDbEntity
  8
Calque 1
370
     0
100
AcDbSpline
210
0.0
220
0.0
230
1.0
 70
    11
 71
     3
 72
   125
 73
   121
 74
     0
 42
0.0000000001
 43
0.0000000001
 40
0.0
 40
0.0
 40
0.0
 40
0.0
 40
1.0
 40
1.0
 40
1.0
 40
2.0
 40
2.0
 40
2.0
 40
3.0
 40
3.0
 40
3.0
 40
4.0
 40
4.0
 40
4.0
 40
5.0
 40
5.0
 40
5.0
 40
6.0
 40
6.0
 40
6.0
 40
7.0
 40
7.0
 40
7.0
 40
8.0
 40
8.0
 40
8.0
 40
9.0
 40
9.0
 40
9.0
 40
10.0
 40
10.0
 40
10.0
 40
11.0
 40
11.0
 40
11.0
 40
12.0
 40
12.0
 40
12.0
 40
13.0
 40
13.0
 40
13.0
 40
14.0
 40
14.0
 40
14.0
 40
15.0
 40
15.0
 40
15.0
 40
16.0
 40
16.0
 40
16.0
 40
17.0
 40
17.0
 40
17.0
 40
18.0
 40
18.0
 40
18.0
 40
19.0
 40
19.0
 40
19.0
 40
20.0
 40
20.0
 40
20.0
 40
21.0
 40
21.0
 40
21.0
 40
22.0
 40
22.0
 40
22.0
 40
23.0
 40
23.0
 40
23.0
 40
24.0
 40
24.0
 40
24.0
 40
25.0
 40
25.0
 40
25.0
 40
26.0
 40
26.0
 40
26.0
 40
27.0
 40
27.0
 40
27.0
 40
28.0
 40
28.0
 40
28.0
 40
29.0
 40
29.0
 40
29.0
 40
30.0
 40
30.0
 40
30.0
 40
31.0
 40
31.0
 40
31.0
 40
32.0
 40
32.0
 40
32.0
 40
33.0
 40
33.0
 40
33.0
 40
34.0
 40
34.0
 40
34.0
 40
35.0
 40
35.0
 40
35.0
 40
36.0
 40
36.0
 40
36.0
 40
37.0
 40
37.0
 40
37.0
 40
38.0
 40
38.0
 40
38.0
 40
39.0
 40
39.0
 40
39.0
 40
40.0
 40
40.0
 40
40.0
 40
40.0
 10
225.2101745552651
 20
18.70102415954343
 30
0.0
 10
225.2167202410052
 20
18.69895710088866
 30
0.0
 10
225.2229214169696
 20
18.69654553245808
 30
0.0
 10
225.2294671027097
 20
18.69447847380331
 30
0.0
 10
225.2077629868346
 20
18.70688082573197
 30
0.0
 10
225.1881259296142
 20
18.72031670698802
 30
0.0
 10
225.166421813739
 20
18.73271905891668
 30
0.0
 10
225.1605651475505
 20
18.73685317622623
 30
0.0
 10
225.1550529911378
 20
18.74133180331158
 30
0.0
 10
225.1491963249492
 20
18.74546592062114
 30
0.0
 10
225.1047545638715
 20
18.77061513425426
 30
0.0
 10
225.0606573125696
 20
18.79886493586955
 30
0.0
 10
225.0162155514919
 20
18.82435865927846
 30
0.0
 10
214.5238258198438
 20
25.03311383867702
 30
0.0
 10
215.0002828397699
 20
34.99978165246018
 30
0.0
 10
215.0002828397699
 20
34.99978165246018
 30
0.0
 10
215.0002828397699
 20
34.99978165246018
 30
0.0
 10
215.0002828397699
 20
57.99994330416401
 30
0.0
 10
215.0002828397699
 20
57.99994330416401
 30
0.0
 10
215.0002828397699
 20
61.31378283754736
 30
0.0
 10
212.3137956081113
 20
63.99992555943008
 30
0.0
 10
209.0003005845038
 20
63.99992555943008
 30
0.0
 10
209.0003005845038
 20
63.99992555943008
 30
0.0
 10
208.7756802106847
 20
63.99992555943008
 30
0.0
 10
208.7756802106847
 20
63.99992555943008
 30
0.0
 10
207.2426117083917
 20
64.0426447716288
 30
0.0
 10
198.2095653870162
 20
65.01381782959821
 30
0.0
 10
195.4155911053093
 20
81.83554116217354
 30
0.0
 10
193.8518612329705
 20
92.20356286475923
 30
0.0
 10
193.0002330672023
 20
103.3670576396583
 30
0.0
 10
193.0002330672023
 20
115.0002914938554
 30
0.0
 10
193.0002330672023
 20
161.6806770946847
 30
0.0
 10
206.7075880265803
 20
200.8082026258467
 30
0.0
 10
225.151263383604
 20
211.2561505964171
 30
0.0
 10
227.7757388556192
 20
213.0582812336069
 30
0.0
 10
229.500010283479
 20
216.0760146146934
 30
0.0
 10
229.500010283479
 20
219.5000972763315
 30
0.0
 10
229.500010283479
 20
225.0229334921199
 30
0.0
 10
225.0231057470078
 20
229.5001825383669
 30
0.0
 10
219.4999250214436
 20
229.5001825383669
 30
0.0
 10
216.0748088304781
 20
229.5001825383669
 30
0.0
 10
213.0565586847279
 20
227.7747053262918
 30
0.0
 10
211.2544280475381
 20
225.1490240700613
 30
0.0
 10
200.8047575280887
 20
206.706382242365
 30
0.0
 10
161.678437781142
 20
193.0002330672023
 30
0.0
 10
115.0002914938554
 20
193.0002330672023
 30
0.0
 10
68.32231746145672
 20
193.0002330672023
 30
0.0
 10
29.19616996939792
 20
206.7062099874771
 30
0.0
 10
18.74598268528483
 20
225.1486795602855
 30
0.0
 10
16.94367979320718
 20
227.7745330714039
 30
0.0
 10
13.92560190234484
 20
229.5001825383669
 30
0.0
 10
10.50014120160353
 20
229.5001825383669
 30
0.0
 10
4.977132730927251
 20
229.5001825383669
 30
0.0
 10
0.5000559395681391
 20
225.0229334921199
 30
0.0
 10
0.5000559395681391
 20
219.5000972763315
 30
0.0
 10
0.5000559395681391
 20
216.0763591244692
 30
0.0
 10
2.224155112540066
 20
213.0591425080464
 30
0.0
 10
4.847769310115789
 20
211.2566673610808
 30
0.0
 10
23.29230594157898
 20
200.8097529198378
 30
0.0
 10
37.00017766562063
 20
161.6817106240121
 30
0.0
 10
37.00017766562063
 20
115.0002914938554
 30
0.0
 10
37.00017766562063
 20
103.3815270502417
 30
0.0
 10
36.15044430361939
 20
92.23181266637452
 30
0.0
 10
34.59050403881433
 20
81.8748152766143
 30
0.0
 10
31.80410897217492
 20
65.0148513589256
 30
0.0
 10
22.75797127931912
 20
64.0426447716288
 30
0.0
 10
21.22386924769878
 20
63.99992555943008
 30
0.0
 10
21.22386924769878
 20
63.99992555943008
 30
0.0
 10
21.00011014831917
 20
63.99992555943008
 30
0.0
 10
21.00011014831917
 20
63.99992555943008
 30
0.0
 10
17.68644286982371
 20
63.99992555943008
 30
0.0
 10
15.00012789305309
 20
61.31378283754736
 30
0.0
 10
15.00012789305309
 20
57.99994330416401
 30
0.0
 10
15.00012789305309
 20
57.99994330416401
 30
0.0
 10
15.00012789305309
 20
34.99978165246018
 30
0.0
 10
15.00012789305309
 20
34.99978165246018
 30
0.0
 10
15.00012789305309
 20
34.99978165246018
 30
0.0
 10
15.00012789305309
 20
34.99943714268439
 30
0.0
 10
15.00012789305309
 20
34.99943714268439
 30
0.0
 10
15.00012789305309
 20
34.99943714268439
 30
0.0
 10
14.99961112838939
 20
34.99978165246018
 30
0.0
 10
14.99961112838939
 20
34.99978165246018
 30
0.0
 10
14.99961112838939
 20
34.99978165246018
 30
0.0
 10
15.47761844230658
 20
25.01485482055982
 30
0.0
 10
4.955256360164195
 20
18.80713317048865
 30
0.0
 10
4.919427343481393
 20
18.78646258394088
 30
0.0
 10
4.883942836574388
 20
18.76372493873833
 30
0.0
 10
4.847941565003688
 20
18.74339886196636
 30
0.0
 10
4.843118428142541
 20
18.7402982739842
 30
0.0
 10
4.838639801057192
 20
18.73650866645044
 30
0.0
 10
4.833988919083943
 20
18.73306356869248
 30
0.0
 10
4.812112548320886
 20
18.72031670698802
 30
0.0
 10
4.792303236212606
 20
18.70722533550776
 30
0.0
 10
4.77042686544955
 20
18.69447847380331
 30
0.0
 10
4.776972551189678
 20
18.69654553245808
 30
0.0
 10
4.783345982041906
 20
18.69895710088866
 30
0.0
 10
4.789891667782033
 20
18.70102415954343
 30
0.0
 10
2.19952266357064
 20
16.89441489526832
 30
0.0
 10
0.5000559395681391
 20
13.89786886539325
 30
0.0
 10
0.5000559395681391
 20
10.49996894671563
 30
0.0
 10
0.5000559395681391
 20
4.977132730927251
 30
0.0
 10
4.977132730927251
 20
0.499883684680241
 30
0.0
 10
10.50014120160353
 20
0.499883684680241
 30
0.0
 10
13.92560190234484
 20
0.499883684680241
 30
0.0
 10
16.94385204809507
 20
2.225533151643251
 30
0.0
 10
18.74598268528483
 20
4.85138666276165
 30
0.0
 10
29.19651447917372
 20
23.29368398068216
 30
0.0
 10
68.3226619712325
 20
36.99966090095694
 30
0.0
 10
115.0002914938554
 20
36.99966090095694
 30
0.0
 10
161.6780932713662
 20
36.99966090095694
 30
0.0
 10
200.8044130183129
 20
23.29368398068216
 30
0.0
 10
211.2544280475381
 20
4.851042152985854
 30
0.0
 10
213.0565586847279
 20
2.225188641867454
 30
0.0
 10
216.0744643207023
 20
0.499883684680241
 30
0.0
 10
219.4999250214436
 20
0.499883684680241
 30
0.0
 10
225.0231057470078
 20
0.499883684680241
 30
0.0
 10
229.500010283479
 20
4.977132730927251
 30
0.0
 10
229.500010283479
 20
10.49996894671563
 30
0.0
 10
229.500010283479
 20
13.89786886539325
 30
0.0
 10
227.8005435594765
 20
16.89407038549253
 30
0.0
 10
225.2101745552651
 20
18.70102415954343
 30
0.0
  0
SPLINE
  5
3D
330
1F
100
AcDbEntity
  8
Calque 1
370
     0
100
AcDbSpline
210
0.0
220
0.0
230
1.0
 70
    11
 71
     3
 72
    17
 73
    13
 74
     0
 42
0.0000000001
 43
0.0000000001
 40
0.0
 40
0.0
 40
0.0
 40
0.0
 40
1.0
 40
1.0
 40
1.0
 40
2.0
 40
2.0
 40
2.0
 40
3.0
 40
3.0
 40
3.0
 40
4.0
 40
4.0
 40
4.0
 40
4.0
 10
219.4999250214436
 20
221.0500467576385
 30
0.0
 10
220.3560318142971
 20
221.0500467576385
 30
0.0
 10
221.0502190125264
 20
220.356204069185
 30
0.0
 10
221.0502190125264
 20
219.5000972763315
 30
0.0
 10
221.0502190125264
 20
218.643990483478
 30
0.0
 10
220.3560318142971
 20
217.9501477950246
 30
0.0
 10
219.4999250214436
 20
217.9501477950246
 30
0.0
 10
218.6441627383659
 20
217.9501477950246
 30
0.0
 10
217.9499755401367
 20
218.643990483478
 30
0.0
 10
217.9499755401367
 20
219.5000972763315
 30
0.0
 10
217.9499755401367
 20
220.356204069185
 30
0.0
 10
218.6441627383659
 20
221.0500467576385
 30
0.0
 10
219.4999250214436
 20
221.0500467576385
 30
0.0
  0
SPLINE
  5
3E
330
1F
100
AcDbEntity
  8
Calque 1
370
     0
100
AcDbSpline
210
0.0
220
0.0
230
1.0
 70
    11
 71
     3
 72
    17
 73
    13
 74
     0
 42
0.0000000001
 43
0.0000000001
 40
0.0
 40
0.0
 40
0.0
 40
0.0
 40
1.0
 40
1.0
 40
1.0
 40
2.0
 40
2.0
 40
2.0
 40
3.0
 40
3.0
 40
3.0
 40
4.0
 40
4.0
 40
4.0
 40
4.0
 10
10.49996894671563
 20
217.9501477950246
 30
0.0
 10
9.644034408750052
 20
217.9501477950246
 30
0.0
 10
8.95001946540867
 20
218.643990483478
 30
0.0
 10
8.95001946540867
 20
219.5000972763315
 30
0.0
 10
8.95001946540867
 20
220.356204069185
 30
0.0
 10
9.644034408750052
 20
221.0500467576385
 30
0.0
 10
10.49996894671563
 20
221.0500467576385
 30
0.0
 10
11.35607573956911
 20
221.0500467576385
 30
0.0
 10
12.0500906829105
 20
220.356204069185
 30
0.0
 10
12.0500906829105
 20
219.5000972763315
 30
0.0
 10
12.0500906829105
 20
218.643990483478
 30
0.0
 10
11.35607573956911
 20
217.9501477950246
 30
0.0
 10
10.49996894671563
 20
217.9501477950246
 30
0.0
  0
SPLINE
  5
3F
330
1F
100
AcDbEntity
  8
Calque 1
370
     0
100
AcDbSpline
210
0.0
220
0.0
230
1.0
 70
    11
 71
     3
 72
    17
 73
    13
 74
     0
 42
0.0000000001
 43
0.0000000001
 40
0.0
 40
0.0
 40
0.0
 40
0.0
 40
1.0
 40
1.0
 40
1.0
 40
2.0
 40
2.0
 40
2.0
 40
3.0
 40
3.0
 40
3.0
 40
4.0
 40
4.0
 40
4.0
 40
4.0
 10
10.49996894671563
 20
8.95001946540867
 30
0.0
 10
9.644034408750052
 20
8.95001946540867
 30
0.0
 10
8.95001946540867
 20
9.643862153862155
 30
0.0
 10
8.95001946540867
 20
10.49996894671563
 30
0.0
 10
8.95001946540867
 20
11.35607573956911
 30
0.0
 10
9.644034408750052
 20
12.0499184280226
 30
0.0
 10
10.49996894671563
 20
12.0499184280226
 30
0.0
 10
11.35607573956911
 20
12.0499184280226
 30
0.0
 10
12.0500906829105
 20
11.35607573956911
 30
0.0
 10
12.0500906829105
 20
10.49996894671563
 30
0.0
 10
12.0500906829105
 20
9.643862153862155
 30
0.0
 10
11.35607573956911
 20
8.95001946540867
 30
0.0
 10
10.49996894671563
 20
8.95001946540867
 30
0.0
  0
SPLINE
  5
40
330
1F
100
AcDbEntity
  8
Calque 1
370
     0
100
AcDbSpline
210
0.0
220
0.0
230
1.0
 70
    11
 71
     3
 72
    17
 73
    13
 74
     0
 42
0.0000000001
 43
0.0000000001
 40
0.0
 40
0.0
 40
0.0
 40
0.0
 40
1.0
 40
1.0
 40
1.0
 40
2.0
 40
2.0
 40
2.0
 40
3.0
 40
3.0
 40
3.0
 40
4.0
 40
4.0
 40
4.0
 40
4.0
 10
24.99986864531269
 20
37.35002734294164
 30
0.0
 10
24.08864028833182
 20
37.35002734294164
 30
0.0
 10
23.35001132902483
 20
38.08865630224863
 30
0.0
 10
23.35001132902483
 20
39.00022916900529
 30
0.0
 10
23.35001132902483
 20
39.91145752598616
 30
0.0
 10
24.08864028833182
 20
40.65008648529314
 30
0.0
 10
24.99986864531269
 20
40.65008648529314
 30
0.0
 10
25.91109700229355
 20
40.65008648529314
 30
0.0
 10
26.65007047137633
 20
39.91145752598616
 30
0.0
 10
26.65007047137633
 20
39.00022916900529
 30
0.0
 10
26.65007047137633
 20
38.08865630224863
 30
0.0
 10
25.91109700229355
 20
37.35002734294164
 30
0.0
 10
24.99986864531269
 20
37.35002734294164
 30
0.0
  0
SPLINE
  5
41
330
1F
100
AcDbEntity
  8
Calque 1
370
     0
100
AcDbSpline
210
0.0
220
0.0
230
1.0
 70
    11
 71
     3
 72
    17
 73
    13
 74
     0
 42
0.0000000001
 43
0.0000000001
 40
0.0
 40
0.0
 40
0.0
 40
0.0
 40
1.0
 40
1.0
 40
1.0
 40
2.0
 40
2.0
 40
2.0
 40
3.0
 40
3.0
 40
3.0
 40
4.0
 40
4.0
 40
4.0
 40
4.0
 10
24.99986864531269
 20
54.34986222960359
 30
0.0
 10
24.08864028833182
 20
54.34986222960359
 30
0.0
 10
23.35001132902483
 20
55.08849118891058
 30
0.0
 10
23.35001132902483
 20
56.00006405566725
 30
0.0
 10
23.35001132902483
 20
56.91129241264812
 30
0.0
 10
24.08864028833182
 20
57.6499213719551
 30
0.0
 10
24.99986864531269
 20
57.6499213719551
 30
0.0
 10
25.91109700229355
 20
57.6499213719551
 30
0.0
 10
26.65007047137633
 20
56.91129241264812
 30
0.0
 10
26.65007047137633
 20
56.00006405566725
 30
0.0
 10
26.65007047137633
 20
55.08849118891058
 30
0.0
 10
25.91109700229355
 20
54.34986222960359
 30
0.0
 10
24.99986864531269
 20
54.34986222960359
 30
0.0
  0
SPLINE
  5
42
330
1F
100
AcDbEntity
  8
Calque 1
370
     0
100
AcDbSpline
210
0.0
220
0.0
230
1.0
 70
    11
 71
     3
 72
    17
 73
    13
 74
     0
 42
0.0000000001
 43
0.0000000001
 40
0.0
 40
0.0
 40
0.0
 40
0.0
 40
1.0
 40
1.0
 40
1.0
 40
2.0
 40
2.0
 40
2.0
 40
3.0
 40
3.0
 40
3.0
 40
4.0
 40
4.0
 40
4.0
 40
4.0
 10
139.0000482600318
 20
180.6502466244613
 30
0.0
 10
139.9116211267885
 20
180.6502466244613
 30
0.0
 10
140.6502500860955
 20
179.9114454102664
 30
0.0
 10
140.6502500860955
 20
179.0002170532855
 30
0.0
 10
140.6502500860955
 20
178.0886441865289
 30
0.0
 10
139.9116211267885
 20
177.3500152272219
 30
0.0
 10
139.0000482600318
 20
177.3500152272219
 30
0.0
 10
138.0891644128268
 20
177.3500152272219
 30
0.0
 10
137.3498464339682
 20
178.0886441865289
 30
0.0
 10
137.3498464339682
 20
179.0002170532855
 30
0.0
 10
137.3498464339682
 20
179.9114454102664
 30
0.0
 10
138.0891644128268
 20
180.6502466244613
 30
0.0
 10
139.0000482600318
 20
180.6502466244613
 30
0.0
  0
SPLINE
  5
43
330
1F
100
AcDbEntity
  8
Calque 1
370
     0
100
AcDbSpline
210
0.0
220
0.0
230
1.0
 70
    11
 71
     3
 72
    17
 73
    13
 74
     0
 42
0.0000000001
 43
0.0000000001
 40
0.0
 40
0.0
 40
0.0
 40
0.0
 40
1.0
 40
1.0
 40
1.0
 40
2.0
 40
2.0
 40
2.0
 40
3.0
 40
3.0
 40
3.0
 40
4.0
 40
4.0
 40
4.0
 40
4.0
 10
127.0000837494997
 20
180.6502466244613
 30
0.0
 10
127.9113121064806
 20
180.6502466244613
 30
0.0
 10
128.6499410657875
 20
179.9114454102664
 30
0.0
 10
128.6499410657875
 20
179.0002170532855
 30
0.0
 10
128.6499410657875
 20
178.0886441865289
 30
0.0
 10
127.9113121064806
 20
177.3500152272219
 30
0.0
 10
127.0000837494997
 20
177.3500152272219
 30
0.0
 10
126.0888553925188
 20
177.3500152272219
 30
0.0
 10
125.349881923436
 20
178.0886441865289
 30
0.0
 10
125.349881923436
 20
179.0002170532855
 30
0.0
 10
125.349881923436
 20
179.9114454102664
 30
0.0
 10
126.0888553925188
 20
180.6502466244613
 30
0.0
 10
127.0000837494997
 20
180.6502466244613
 30
0.0
  0
SPLINE
  5
44
330
1F
100
AcDbEntity
  8
Calque 1
370
     0
100
AcDbSpline
210
0.0
220
0.0
230
1.0
 70
    11
 71
     3
 72
    17
 73
    13
 74
     0
 42
0.0000000001
 43
0.0000000001
 40
0.0
 40
0.0
 40
0.0
 40
0.0
 40
1.0
 40
1.0
 40
1.0
 40
2.0
 40
2.0
 40
2.0
 40
3.0
 40
3.0
 40
3.0
 40
4.0
 40
4.0
 40
4.0
 40
4.0
 10
120.9997569844578
 20
180.6502466244613
 30
0.0
 10
121.9109853414387
 20
180.6502466244613
 30
0.0
 10
122.6499588105215
 20
179.9114454102664
 30
0.0
 10
122.6499588105215
 20
179.0002170532855
 30
0.0
 10
122.6499588105215
 20
178.0886441865289
 30
0.0
 10
121.9109853414387
 20
177.3500152272219
 30
0.0
 10
120.9997569844578
 20
177.3500152272219
 30
0.0
 10
120.0885286274769
 20
177.3500152272219
 30
0.0
 10
119.34989966817
 20
178.0886441865289
 30
0.0
 10
119.34989966817
 20
179.0002170532855
 30
0.0
 10
119.34989966817
 20
179.9114454102664
 30
0.0
 10
120.0885286274769
 20
180.6502466244613
 30
0.0
 10
120.9997569844578
 20
180.6502466244613
 30
0.0
  0
SPLINE
  5
45
330
1F
100
AcDbEntity
  8
Calque 1
370
     0
100
AcDbSpline
210
0.0
220
0.0
230
1.0
 70
    11
 71
     3
 72
    17
 73
    13
 74
     0
 42
0.0000000001
 43
0.0000000001
 40
0.0
 40
0.0
 40
0.0
 40
0.0
 40
1.0
 40
1.0
 40
1.0
 40
2.0
 40
2.0
 40
2.0
 40
3.0
 40
3.0
 40
3.0
 40
4.0
 40
4.0
 40
4.0
 40
4.0
 10
115.0001192389675
 20
180.6502466244613
 30
0.0
 10
115.9113475959484
 20
180.6502466244613
 30
0.0
 10
116.6499765552554
 20
179.9114454102664
 30
0.0
 10
116.6499765552554
 20
179.0002170532855
 30
0.0
 10
116.6499765552554
 20
178.0886441865289
 30
0.0
 10
115.9113475959484
 20
177.3500152272219
 30
0.0
 10
115.0001192389675
 20
177.3500152272219
 30
0.0
 10
114.0888908819867
 20
177.3500152272219
 30
0.0
 10
113.3500896677918
 20
178.0886441865289
 30
0.0
 10
113.3500896677918
 20
179.0002170532855
 30
0.0
 10
113.3500896677918
 20
179.9114454102664
 30
0.0
 10
114.0888908819867
 20
180.6502466244613
 30
0.0
 10
115.0001192389675
 20
180.6502466244613
 30
0.0
  0
SPLINE
  5
46
330
1F
100
AcDbEntity
  8
Calque 1
370
     0
100
AcDbSpline
210
0.0
220
0.0
230
1.0
 70
    11
 71
     3
 72
    17
 73
    13
 74
     0
 42
0.0000000001
 43
0.0000000001
 40
0.0
 40
0.0
 40
0.0
 40
0.0
 40
1.0
 40
1.0
 40
1.0
 40
2.0
 40
2.0
 40
2.0
 40
3.0
 40
3.0
 40
3.0
 40
4.0
 40
4.0
 40
4.0
 40
4.0
 10
109.0003092385894
 20
180.6502466244613
 30
0.0
 10
109.9115375955702
 20
180.6502466244613
 30
0.0
 10
110.6501665548772
 20
179.9114454102664
 30
0.0
 10
110.6501665548772
 20
179.0002170532855
 30
0.0
 10
110.6501665548772
 20
178.0886441865289
 30
0.0
 10
109.9115375955702
 20
177.3500152272219
 30
0.0
 10
109.0003092385894
 20
177.3500152272219
 30
0.0
 10
108.0890808816085
 20
177.3500152272219
 30
0.0
 10
107.3501074125257
 20
178.0886441865289
 30
0.0
 10
107.3501074125257
 20
179.0002170532855
 30
0.0
 10
107.3501074125257
 20
179.9114454102664
 30
0.0
 10
108.0890808816085
 20
180.6502466244613
 30
0.0
 10
109.0003092385894
 20
180.6502466244613
 30
0.0
  0
SPLINE
  5
47
330
1F
100
AcDbEntity
  8
Calque 1
370
     0
100
AcDbSpline
210
0.0
220
0.0
230
1.0
 70
    11
 71
     3
 72
    17
 73
    13
 74
     0
 42
0.0000000001
 43
0.0000000001
 40
0.0
 40
0.0
 40
0.0
 40
0.0
 40
1.0
 40
1.0
 40
1.0
 40
2.0
 40
2.0
 40
2.0
 40
3.0
 40
3.0
 40
3.0
 40
4.0
 40
4.0
 40
4.0
 40
4.0
 10
103.0001547284354
 20
180.6502466244613
 30
0.0
 10
103.9113830854162
 20
180.6502466244613
 30
0.0
 10
104.6501842996111
 20
179.9114454102664
 30
0.0
 10
104.6501842996111
 20
179.0002170532855
 30
0.0
 10
104.6501842996111
 20
178.0886441865289
 30
0.0
 10
103.9113830854162
 20
177.3500152272219
 30
0.0
 10
103.0001547284354
 20
177.3500152272219
 30
0.0
 10
102.0889263714545
 20
177.3500152272219
 30
0.0
 10
101.3501251572596
 20
178.0886441865289
 30
0.0
 10
101.3501251572596
 20
179.0002170532855
 30
0.0
 10
101.3501251572596
 20
179.9114454102664
 30
0.0
 10
102.0889263714545
 20
180.6502466244613
 30
0.0
 10
103.0001547284354
 20
180.6502466244613
 30
0.0
  0
SPLINE
  5
48
330
1F
100
AcDbEntity
  8
Calque 1
370
     0
100
AcDbSpline
210
0.0
220
0.0
230
1.0
 70
    11
 71
     3
 72
    17
 73
    13
 74
     0
 42
0.0000000001
 43
0.0000000001
 40
0.0
 40
0.0
 40
0.0
 40
0.0
 40
1.0
 40
1.0
 40
1.0
 40
2.0
 40
2.0
 40
2.0
 40
3.0
 40
3.0
 40
3.0
 40
4.0
 40
4.0
 40
4.0
 40
4.0
 10
91.00001796301532
 20
180.6502466244613
 30
0.0
 10
91.9112463199962
 20
180.6502466244613
 30
0.0
 10
92.65021978907897
 20
179.9114454102664
 30
0.0
 10
92.65021978907897
 20
179.0002170532855
 30
0.0
 10
92.65021978907897
 20
178.0886441865289
 30
0.0
 10
91.9112463199962
 20
177.3500152272219
 30
0.0
 10
91.00001796301532
 20
177.3500152272219
 30
0.0
 10
90.08878960603445
 20
177.3500152272219
 30
0.0
 10
89.35016064672747
 20
178.0886441865289
 30
0.0
 10
89.35016064672747
 20
179.0002170532855
 30
0.0
 10
89.35016064672747
 20
179.9114454102664
 30
0.0
 10
90.08878960603445
 20
180.6502466244613
 30
0.0
 10
91.00001796301532
 20
180.6502466244613
 30
0.0
  0
SPLINE
  5
49
330
1F
100
AcDbEntity
  8
Calque 1
370
     0
100
AcDbSpline
210
0.0
220
0.0
230
1.0
 70
    11
 71
     3
 72
    17
 73
    13
 74
     0
 42
0.0000000001
 43
0.0000000001
 40
0.0
 40
0.0
 40
0.0
 40
0.0
 40
1.0
 40
1.0
 40
1.0
 40
2.0
 40
2.0
 40
2.0
 40
3.0
 40
3.0
 40
3.0
 40
4.0
 40
4.0
 40
4.0
 40
4.0
 10
40.49988022304602
 20
47.34976809520124
 30
0.0
 10
39.58865186606515
 20
47.34976809520124
 30
0.0
 10
38.85002290675816
 20
48.08839705450823
 30
0.0
 10
38.85002290675816
 20
48.99996992126489
 30
0.0
 10
38.85002290675816
 20
49.91119827824576
 30
0.0
 10
39.58865186606515
 20
50.64982723755274
 30
0.0
 10
40.49988022304602
 20
50.64982723755274
 30
0.0
 10
41.41110858002688
 20
50.64982723755274
 30
0.0
 10
42.15008204910966
 20
49.91119827824576
 30
0.0
 10
42.15008204910966
 20
48.99996992126489
 30
0.0
 10
42.15008204910966
 20
48.08839705450823
 30
0.0
 10
41.41110858002688
 20
47.34976809520124
 30
0.0
 10
40.49988022304602
 20
47.34976809520124
 30
0.0
  0
SPLINE
  5
4A
330
1F
100
AcDbEntity
  8
Calque 1
370
     0
100
AcDbSpline
210
0.0
220
0.0
230
1.0
 70
    11
 71
     3
 72
    17
 73
    13
 74
     0
 42
0.0000000001
 43
0.0000000001
 40
0.0
 40
0.0
 40
0.0
 40
0.0
 40
1.0
 40
1.0
 40
1.0
 40
2.0
 40
2.0
 40
2.0
 40
3.0
 40
3.0
 40
3.0
 40
4.0
 40
4.0
 40
4.0
 40
4.0
 10
40.49988022304602
 20
179.3500667306065
 30
0.0
 10
39.58865186606515
 20
179.3500667306065
 30
0.0
 10
38.85002290675816
 20
180.0886956899135
 30
0.0
 10
38.85002290675816
 20
181.0002685566702
 30
0.0
 10
38.85002290675816
 20
181.911496913651
 30
0.0
 10
39.58865186606515
 20
182.650125872958
 30
0.0
 10
40.49988022304602
 20
182.650125872958
 30
0.0
 10
41.41110858002688
 20
182.650125872958
 30
0.0
 10
42.15008204910966
 20
181.911496913651
 30
0.0
 10
42.15008204910966
 20
181.0002685566702
 30
0.0
 10
42.15008204910966
 20
180.0886956899135
 30
0.0
 10
41.41110858002688
 20
179.3500667306065
 30
0.0
 10
40.49988022304602
 20
179.3500667306065
 30
0.0
  0
SPLINE
  5
4B
330
1F
100
AcDbEntity
  8
Calque 1
370
     0
100
AcDbSpline
210
0.0
220
0.0
230
1.0
 70
    11
 71
     3
 72
    17
 73
    13
 74
     0
 42
0.0000000001
 43
0.0000000001
 40
0.0
 40
0.0
 40
0.0
 40
0.0
 40
1.0
 40
1.0
 40
1.0
 40
2.0
 40
2.0
 40
2.0
 40
3.0
 40
3.0
 40
3.0
 40
4.0
 40
4.0
 40
4.0
 40
4.0
 10
50.50013773996931
 20
47.34976809520124
 30
0.0
 10
49.58890938298844
 20
47.34976809520124
 30
0.0
 10
48.85010816879356
 20
48.08839705450823
 30
0.0
 10
48.85010816879356
 20
48.99996992126489
 30
0.0
 10
48.85010816879356
 20
49.91119827824576
 30
0.0
 10
49.58890938298844
 20
50.64982723755274
 30
0.0
 10
50.50013773996931
 20
50.64982723755274
 30
0.0
 10
51.41136609695018
 20
50.64982723755274
 30
0.0
 10
52.15016731114506
 20
49.91119827824576
 30
0.0
 10
52.15016731114506
 20
48.99996992126489
 30
0.0
 10
52.15016731114506
 20
48.08839705450823
 30
0.0
 10
51.41136609695018
 20
47.34976809520124
 30
0.0
 10
50.50013773996931
 20
47.34976809520124
 30
0.0
  0
SPLINE
  5
4C
330
1F
100
AcDbEntity
  8
Calque 1
370
     0
100
AcDbSpline
210
0.0
220
0.0
230
1.0
 70
    11
 71
     3
 72
    17
 73
    13
 74
     0
 42
0.0000000001
 43
0.0000000001
 40
0.0
 40
0.0
 40
0.0
 40
0.0
 40
1.0
 40
1.0
 40
1.0
 40
2.0
 40
2.0
 40
2.0
 40
3.0
 40
3.0
 40
3.0
 40
4.0
 40
4.0
 40
4.0
 40
4.0
 10
50.50013773996931
 20
179.3500667306065
 30
0.0
 10
49.58890938298844
 20
179.3500667306065
 30
0.0
 10
48.85010816879356
 20
180.0886956899135
 30
0.0
 10
48.85010816879356
 20
181.0002685566702
 30
0.0
 10
48.85010816879356
 20
181.911496913651
 30
0.0
 10
49.58890938298844
 20
182.650125872958
 30
0.0
 10
50.50013773996931
 20
182.650125872958
 30
0.0
 10
51.41136609695018
 20
182.650125872958
 30
0.0
 10
52.15016731114506
 20
181.911496913651
 30
0.0
 10
52.15016731114506
 20
181.0002685566702
 30
0.0
 10
52.15016731114506
 20
180.0886956899135
 30
0.0
 10
51.41136609695018
 20
179.3500667306065
 30
0.0
 10
50.50013773996931
 20
179.3500667306065
 30
0.0
  0
SPLINE
  5
4D
330
1F
100
AcDbEntity
  8
Calque 1
370
     0
100
AcDbSpline
210
0.0
220
0.0
230
1.0
 70
    11
 71
     3
 72
    17
 73
    13
 74
     0
 42
0.0000000001
 43
0.0000000001
 40
0.0
 40
0.0
 40
0.0
 40
0.0
 40
1.0
 40
1.0
 40
1.0
 40
2.0
 40
2.0
 40
2.0
 40
3.0
 40
3.0
 40
3.0
 40
4.0
 40
4.0
 40
4.0
 40
4.0
 10
55.500180370987
 20
38.84967839698237
 30
0.0
 10
54.31265517381761
 20
38.84967839698237
 30
0.0
 10
53.35009486024312
 20
39.81258322033266
 30
0.0
 10
53.35009486024312
 20
40.99976390772625
 30
0.0
 10
53.35009486024312
 20
42.18728910489565
 30
0.0
 10
54.31265517381761
 20
43.14984941847015
 30
0.0
 10
55.500180370987
 20
43.14984941847015
 30
0.0
 10
56.6875333132685
 20
43.14984941847015
 30
0.0
 10
57.650093626843
 20
42.18728910489565
 30
0.0
 10
57.650093626843
 20
40.99976390772625
 30
0.0
 10
57.650093626843
 20
39.81258322033266
 30
0.0
 10
56.6875333132685
 20
38.84967839698237
 30
0.0
 10
55.500180370987
 20
38.84967839698237
 30
0.0
  0
SPLINE
  5
4E
330
1F
100
AcDbEntity
  8
Calque 1
370
     0
100
AcDbSpline
210
0.0
220
0.0
230
1.0
 70
    11
 71
     3
 72
    17
 73
    13
 74
     0
 42
0.0000000001
 43
0.0000000001
 40
0.0
 40
0.0
 40
0.0
 40
0.0
 40
1.0
 40
1.0
 40
1.0
 40
2.0
 40
2.0
 40
2.0
 40
3.0
 40
3.0
 40
3.0
 40
4.0
 40
4.0
 40
4.0
 40
4.0
 10
68.0000285661994
 20
42.84978140375168
 30
0.0
 10
66.26025419842874
 20
42.84978140375168
 30
0.0
 10
64.85000343120713
 20
44.2602044258612
 30
0.0
 10
64.85000343120713
 20
45.99997879363185
 30
0.0
 10
64.85000343120713
 20
47.73940865162671
 30
0.0
 10
66.26025419842874
 20
49.14983167373622
 30
0.0
 10
68.0000285661994
 20
49.14983167373622
 30
0.0
 10
69.73963067908215
 20
49.14983167373622
 30
0.0
 10
71.15005370119167
 20
47.73940865162671
 30
0.0
 10
71.15005370119167
 20
45.99997879363185
 30
0.0
 10
71.15005370119167
 20
44.2602044258612
 30
0.0
 10
69.73963067908215
 20
42.84978140375168
 30
0.0
 10
68.0000285661994
 20
42.84978140375168
 30
0.0
  0
SPLINE
  5
4F
330
1F
100
AcDbEntity
  8
Calque 1
370
     0
100
AcDbSpline
210
0.0
220
0.0
230
1.0
 70
    11
 71
     3
 72
    17
 73
    13
 74
     0
 42
0.0000000001
 43
0.0000000001
 40
0.0
 40
0.0
 40
0.0
 40
0.0
 40
1.0
 40
1.0
 40
1.0
 40
2.0
 40
2.0
 40
2.0
 40
3.0
 40
3.0
 40
3.0
 40
4.0
 40
4.0
 40
4.0
 40
4.0
 10
68.0000285661994
 20
58.84984892105315
 30
0.0
 10
66.26025419842874
 20
58.84984892105315
 30
0.0
 10
64.85000343120713
 20
60.26027194316267
 30
0.0
 10
64.85000343120713
 20
62.00004631093332
 30
0.0
 10
64.85000343120713
 20
63.73947616892818
 30
0.0
 10
66.26025419842874
 20
65.14989919103769
 30
0.0
 10
68.0000285661994
 20
65.14989919103769
 30
0.0
 10
69.73963067908215
 20
65.14989919103769
 30
0.0
 10
71.15005370119167
 20
63.73947616892818
 30
0.0
 10
71.15005370119167
 20
62.00004631093332
 30
0.0
 10
71.15005370119167
 20
60.26027194316267
 30
0.0
 10
69.73963067908215
 20
58.84984892105315
 30
0.0
 10
68.0000285661994
 20
58.84984892105315
 30
0.0
  0
SPLINE
  5
50
330
1F
100
AcDbEntity
  8
Calque 1
370
     0
100
AcDbSpline
210
0.0
220
0.0
230
1.0
 70
    11
 71
     3
 72
    17
 73
    13
 74
     0
 42
0.0000000001
 43
0.0000000001
 40
0.0
 40
0.0
 40
0.0
 40
0.0
 40
1.0
 40
1.0
 40
1.0
 40
2.0
 40
2.0
 40
2.0
 40
3.0
 40
3.0
 40
3.0
 40
4.0
 40
4.0
 40
4.0
 40
4.0
 10
68.0000285661994
 20
164.8499947771216
 30
0.0
 10
66.26025419842874
 20
164.8499947771216
 30
0.0
 10
64.85000343120713
 20
166.2604177992311
 30
0.0
 10
64.85000343120713
 20
168.0001921670017
 30
0.0
 10
64.85000343120713
 20
169.7397942798845
 30
0.0
 10
66.26025419842874
 20
171.150217301994
 30
0.0
 10
68.0000285661994
 20
171.150217301994
 30
0.0
 10
69.73963067908215
 20
171.150217301994
 30
0.0
 10
71.15005370119167
 20
169.7397942798845
 30
0.0
 10
71.15005370119167
 20
168.0001921670017
 30
0.0
 10
71.15005370119167
 20
166.2604177992311
 30
0.0
 10
69.73963067908215
 20
164.8499947771216
 30
0.0
 10
68.0000285661994
 20
164.8499947771216
 30
0.0
  0
SPLINE
  5
51
330
1F
100
AcDbEntity
  8
Calque 1
370
     0
100
AcDbSpline
210
0.0
220
0.0
230
1.0
 70
    11
 71
     3
 72
    17
 73
    13
 74
     0
 42
0.0000000001
 43
0.0000000001
 40
0.0
 40
0.0
 40
0.0
 40
0.0
 40
1.0
 40
1.0
 40
1.0
 40
2.0
 40
2.0
 40
2.0
 40
3.0
 40
3.0
 40
3.0
 40
4.0
 40
4.0
 40
4.0
 40
4.0
 10
68.0000285661994
 20
180.850062294423
 30
0.0
 10
66.26025419842874
 20
180.850062294423
 30
0.0
 10
64.85000343120713
 20
182.2604853165326
 30
0.0
 10
64.85000343120713
 20
184.0002596843032
 30
0.0
 10
64.85000343120713
 20
185.739861797186
 30
0.0
 10
66.26025419842874
 20
187.1502848192955
 30
0.0
 10
68.0000285661994
 20
187.1502848192955
 30
0.0
 10
69.73963067908215
 20
187.1502848192955
 30
0.0
 10
71.15005370119167
 20
185.739861797186
 30
0.0
 10
71.15005370119167
 20
184.0002596843032
 30
0.0
 10
71.15005370119167
 20
182.2604853165326
 30
0.0
 10
69.73963067908215
 20
180.850062294423
 30
0.0
 10
68.0000285661994
 20
180.850062294423
 30
0.0
  0
SPLINE
  5
52
330
1F
100
AcDbEntity
  8
Calque 1
370
     0
100
AcDbSpline
210
0.0
220
0.0
230
1.0
 70
    11
 71
     3
 72
    17
 73
    13
 74
     0
 42
0.0000000001
 43
0.0000000001
 40
0.0
 40
0.0
 40
0.0
 40
0.0
 40
1.0
 40
1.0
 40
1.0
 40
2.0
 40
2.0
 40
2.0
 40
3.0
 40
3.0
 40
3.0
 40
4.0
 40
4.0
 40
4.0
 40
4.0
 10
91.00001796301532
 20
49.3499918534738
 30
0.0
 10
90.08878960603445
 20
49.3499918534738
 30
0.0
 10
89.35016064672747
 20
50.08862081278078
 30
0.0
 10
89.35016064672747
 20
51.00019367953745
 30
0.0
 10
89.35016064672747
 20
51.91142203651832
 30
0.0
 10
90.08878960603445
 20
52.6500509958253
 30
0.0
 10
91.00001796301532
 20
52.6500509958253
 30
0.0
 10
91.9112463199962
 20
52.6500509958253
 30
0.0
 10
92.65021978907897
 20
51.91142203651832
 30
0.0
 10
92.65021978907897
 20
51.00019367953745
 30
0.0
 10
92.65021978907897
 20
50.08862081278078
 30
0.0
 10
91.9112463199962
 20
49.3499918534738
 30
0.0
 10
91.00001796301532
 20
49.3499918534738
 30
0.0
  0
SPLINE
  5
53
330
1F
100
AcDbEntity
  8
Calque 1
370
     0
100
AcDbSpline
210
0.0
220
0.0
230
1.0
 70
    11
 71
     3
 72
    17
 73
    13
 74
     0
 42
0.0000000001
 43
0.0000000001
 40
0.0
 40
0.0
 40
0.0
 40
0.0
 40
1.0
 40
1.0
 40
1.0
 40
2.0
 40
2.0
 40
2.0
 40
3.0
 40
3.0
 40
3.0
 40
4.0
 40
4.0
 40
4.0
 40
4.0
 10
103.0001547284354
 20
49.3499918534738
 30
0.0
 10
102.0889263714545
 20
49.3499918534738
 30
0.0
 10
101.3501251572596
 20
50.08862081278078
 30
0.0
 10
101.3501251572596
 20
51.00019367953745
 30
0.0
 10
101.3501251572596
 20
51.91142203651832
 30
0.0
 10
102.0889263714545
 20
52.6500509958253
 30
0.0
 10
103.0001547284354
 20
52.6500509958253
 30
0.0
 10
103.9113830854162
 20
52.6500509958253
 30
0.0
 10
104.6501842996111
 20
51.91142203651832
 30
0.0
 10
104.6501842996111
 20
51.00019367953745
 30
0.0
 10
104.6501842996111
 20
50.08862081278078
 30
0.0
 10
103.9113830854162
 20
49.3499918534738
 30
0.0
 10
103.0001547284354
 20
49.3499918534738
 30
0.0
  0
SPLINE
  5
54
330
1F
100
AcDbEntity
  8
Calque 1
370
     0
100
AcDbSpline
210
0.0
220
0.0
230
1.0
 70
    11
 71
     3
 72
    17
 73
    13
 74
     0
 42
0.0000000001
 43
0.0000000001
 40
0.0
 40
0.0
 40
0.0
 40
0.0
 40
1.0
 40
1.0
 40
1.0
 40
2.0
 40
2.0
 40
2.0
 40
3.0
 40
3.0
 40
3.0
 40
4.0
 40
4.0
 40
4.0
 40
4.0
 10
109.0003092385894
 20
49.3499918534738
 30
0.0
 10
108.0890808816085
 20
49.3499918534738
 30
0.0
 10
107.3501074125257
 20
50.08862081278078
 30
0.0
 10
107.3501074125257
 20
51.00019367953745
 30
0.0
 10
107.3501074125257
 20
51.91142203651832
 30
0.0
 10
108.0890808816085
 20
52.6500509958253
 30
0.0
 10
109.0003092385894
 20
52.6500509958253
 30
0.0
 10
109.9115375955702
 20
52.6500509958253
 30
0.0
 10
110.6501665548772
 20
51.91142203651832
 30
0.0
 10
110.6501665548772
 20
51.00019367953745
 30
0.0
 10
110.6501665548772
 20
50.08862081278078
 30
0.0
 10
109.9115375955702
 20
49.3499918534738
 30
0.0
 10
109.0003092385894
 20
49.3499918534738
 30
0.0
  0
SPLINE
  5
55
330
1F
100
AcDbEntity
  8
Calque 1
370
     0
100
AcDbSpline
210
0.0
220
0.0
230
1.0
 70
    11
 71
     3
 72
    17
 73
    13
 74
     0
 42
0.0000000001
 43
0.0000000001
 40
0.0
 40
0.0
 40
0.0
 40
0.0
 40
1.0
 40
1.0
 40
1.0
 40
2.0
 40
2.0
 40
2.0
 40
3.0
 40
3.0
 40
3.0
 40
4.0
 40
4.0
 40
4.0
 40
4.0
 10
115.0001192389675
 20
49.3499918534738
 30
0.0
 10
114.0888908819867
 20
49.3499918534738
 30
0.0
 10
113.3500896677918
 20
50.08862081278078
 30
0.0
 10
113.3500896677918
 20
51.00019367953745
 30
0.0
 10
113.3500896677918
 20
51.91142203651832
 30
0.0
 10
114.0888908819867
 20
52.6500509958253
 30
0.0
 10
115.0001192389675
 20
52.6500509958253
 30
0.0
 10
115.9113475959484
 20
52.6500509958253
 30
0.0
 10
116.6499765552554
 20
51.91142203651832
 30
0.0
 10
116.6499765552554
 20
51.00019367953745
 30
0.0
 10
116.6499765552554
 20
50.08862081278078
 30
0.0
 10
115.9113475959484
 20
49.3499918534738
 30
0.0
 10
115.0001192389675
 20
49.3499918534738
 30
0.0
  0
SPLINE
  5
56
330
1F
100
AcDbEntity
  8
Calque 1
370
     0
100
AcDbSpline
210
0.0
220
0.0
230
1.0
 70
    11
 71
     3
 72
    17
 73
    13
 74
     0
 42
0.0000000001
 43
0.0000000001
 40
0.0
 40
0.0
 40
0.0
 40
0.0
 40
1.0
 40
1.0
 40
1.0
 40
2.0
 40
2.0
 40
2.0
 40
3.0
 40
3.0
 40
3.0
 40
4.0
 40
4.0
 40
4.0
 40
4.0
 10
120.9997569844578
 20
49.3499918534738
 30
0.0
 10
120.0885286274769
 20
49.3499918534738
 30
0.0
 10
119.34989966817
 20
50.08862081278078
 30
0.0
 10
119.34989966817
 20
51.00019367953745
 30
0.0
 10
119.34989966817
 20
51.91142203651832
 30
0.0
 10
120.0885286274769
 20
52.6500509958253
 30
0.0
 10
120.9997569844578
 20
52.6500509958253
 30
0.0
 10
121.9109853414387
 20
52.6500509958253
 30
0.0
 10
122.6499588105215
 20
51.91142203651832
 30
0.0
 10
122.6499588105215
 20
51.00019367953745
 30
0.0
 10
122.6499588105215
 20
50.08862081278078
 30
0.0
 10
121.9109853414387
 20
49.3499918534738
 30
0.0
 10
120.9997569844578
 20
49.3499918534738
 30
0.0
  0
SPLINE
  5
57
330
1F
100
AcDbEntity
  8
Calque 1
370
     0
100
AcDbSpline
210
0.0
220
0.0
230
1.0
 70
    11
 71
     3
 72
    17
 73
    13
 74
     0
 42
0.0000000001
 43
0.0000000001
 40
0.0
 40
0.0
 40
0.0
 40
0.0
 40
1.0
 40
1.0
 40
1.0
 40
2.0
 40
2.0
 40
2.0
 40
3.0
 40
3.0
 40
3.0
 40
4.0
 40
4.0
 40
4.0
 40
4.0
 10
127.0000837494997
 20
49.3499918534738
 30
0.0
 10
126.0888553925188
 20
49.3499918534738
 30
0.0
 10
125.349881923436
 20
50.08862081278078
 30
0.0
 10
125.349881923436
 20
51.00019367953745
 30
0.0
 10
125.349881923436
 20
51.91142203651832
 30
0.0
 10
126.0888553925188
 20
52.6500509958253
 30
0.0
 10
127.0000837494997
 20
52.6500509958253
 30
0.0
 10
127.9113121064806
 20
52.6500509958253
 30
0.0
 10
128.6499410657875
 20
51.91142203651832
 30
0.0
 10
128.6499410657875
 20
51.00019367953745
 30
0.0
 10
128.6499410657875
 20
50.08862081278078
 30
0.0
 10
127.9113121064806
 20
49.3499918534738
 30
0.0
 10
127.0000837494997
 20
49.3499918534738
 30
0.0
  0
SPLINE
  5
58
330
1F
100
AcDbEntity
  8
Calque 1
370
     0
100
AcDbSpline
210
0.0
220
0.0
230
1.0
 70
    11
 71
     3
 72
    17
 73
    13
 74
     0
 42
0.0000000001
 43
0.0000000001
 40
0.0
 40
0.0
 40
0.0
 40
0.0
 40
1.0
 40
1.0
 40
1.0
 40
2.0
 40
2.0
 40
2.0
 40
3.0
 40
3.0
 40
3.0
 40
4.0
 40
4.0
 40
4.0
 40
4.0
 10
139.0000482600318
 20
49.3499918534738
 30
0.0
 10
138.0891644128268
 20
49.3499918534738
 30
0.0
 10
137.3498464339682
 20
50.08862081278078
 30
0.0
 10
137.3498464339682
 20
51.00019367953745
 30
0.0
 10
137.3498464339682
 20
51.91142203651832
 30
0.0
 10
138.0891644128268
 20
52.6500509958253
 30
0.0
 10
139.0000482600318
 20
52.6500509958253
 30
0.0
 10
139.9116211267885
 20
52.6500509958253
 30
0.0
 10
140.6502500860955
 20
51.91142203651832
 30
0.0
 10
140.6502500860955
 20
51.00019367953745
 30
0.0
 10
140.6502500860955
 20
50.08862081278078
 30
0.0
 10
139.9116211267885
 20
49.3499918534738
 30
0.0
 10
139.0000482600318
 20
49.3499918534738
 30
0.0
  0
SPLINE
  5
59
330
1F
100
AcDbEntity
  8
Calque 1
370
     0
100
AcDbSpline
210
0.0
220
0.0
230
1.0
 70
    11
 71
     3
 72
    17
 73
    13
 74
     0
 42
0.0000000001
 43
0.0000000001
 40
0.0
 40
0.0
 40
0.0
 40
0.0
 40
1.0
 40
1.0
 40
1.0
 40
2.0
 40
2.0
 40
2.0
 40
3.0
 40
3.0
 40
3.0
 40
4.0
 40
4.0
 40
4.0
 40
4.0
 10
114.9999469840796
 20
75.00012270060175
 30
0.0
 10
92.9086021209261
 20
75.00012270060175
 30
0.0
 10
74.99995044571385
 20
92.9084298660382
 30
0.0
 10
74.99995044571385
 20
114.9999469840796
 30
0.0
 10
74.99995044571385
 20
137.0914641021211
 30
0.0
 10
92.9086021209261
 20
155.0001157773333
 30
0.0
 10
114.9999469840796
 20
155.0001157773333
 30
0.0
 10
137.0911195923453
 20
155.0001157773333
 30
0.0
 10
155.0001157773333
 20
137.0914641021211
 30
0.0
 10
155.0001157773333
 20
114.9999469840796
 30
0.0
 10
155.0001157773333
 20
92.9084298660382
 30
0.0
 10
137.0911195923453
 20
75.00012270060175
 30
0.0
 10
114.9999469840796
 20
75.00012270060175
 30
0.0
  0
SPLINE
  5
5A
330
1F
100
AcDbEntity
  8
Calque 1
370
     0
100
AcDbSpline
210
0.0
220
0.0
230
1.0
 70
    11
 71
     3
 72
    17
 73
    13
 74
     0
 42
0.0000000001
 43
0.0000000001
 40
0.0
 40
0.0
 40
0.0
 40
0.0
 40
1.0
 40
1.0
 40
1.0
 40
2.0
 40
2.0
 40
2.0
 40
3.0
 40
3.0
 40
3.0
 40
4.0
 40
4.0
 40
4.0
 40
4.0
 10
161.9998654019599
 20
42.84978140375168
 30
0.0
 10
160.2600910341892
 20
42.84978140375168
 30
0.0
 10
158.8496680120797
 20
44.2602044258612
 30
0.0
 10
158.8496680120797
 20
45.99997879363185
 30
0.0
 10
158.8496680120797
 20
47.73940865162671
 30
0.0
 10
160.2600910341892
 20
49.14983167373622
 30
0.0
 10
161.9998654019599
 20
49.14983167373622
 30
0.0
 10
163.7396397697305
 20
49.14983167373622
 30
0.0
 10
165.15006279184
 20
47.73940865162671
 30
0.0
 10
165.15006279184
 20
45.99997879363185
 30
0.0
 10
165.15006279184
 20
44.2602044258612
 30
0.0
 10
163.7396397697305
 20
42.84978140375168
 30
0.0
 10
161.9998654019599
 20
42.84978140375168
 30
0.0
  0
SPLINE
  5
5B
330
1F
100
AcDbEntity
  8
Calque 1
370
     0
100
AcDbSpline
210
0.0
220
0.0
230
1.0
 70
    11
 71
     3
 72
    17
 73
    13
 74
     0
 42
0.0000000001
 43
0.0000000001
 40
0.0
 40
0.0
 40
0.0
 40
0.0
 40
1.0
 40
1.0
 40
1.0
 40
2.0
 40
2.0
 40
2.0
 40
3.0
 40
3.0
 40
3.0
 40
4.0
 40
4.0
 40
4.0
 40
4.0
 10
161.9998654019599
 20
58.84984892105315
 30
0.0
 10
160.2600910341892
 20
58.84984892105315
 30
0.0
 10
158.8496680120797
 20
60.26027194316267
 30
0.0
 10
158.8496680120797
 20
62.00004631093332
 30
0.0
 10
158.8496680120797
 20
63.73947616892818
 30
0.0
 10
160.2600910341892
 20
65.14989919103769
 30
0.0
 10
161.9998654019599
 20
65.14989919103769
 30
0.0
 10
163.7396397697305
 20
65.14989919103769
 30
0.0
 10
165.15006279184
 20
63.73947616892818
 30
0.0
 10
165.15006279184
 20
62.00004631093332
 30
0.0
 10
165.15006279184
 20
60.26027194316267
 30
0.0
 10
163.7396397697305
 20
58.84984892105315
 30
0.0
 10
161.9998654019599
 20
58.84984892105315
 30
0.0
  0
SPLINE
  5
5C
330
1F
100
AcDbEntity
  8
Calque 1
370
     0
100
AcDbSpline
210
0.0
220
0.0
230
1.0
 70
    11
 71
     3
 72
    17
 73
    13
 74
     0
 42
0.0000000001
 43
0.0000000001
 40
0.0
 40
0.0
 40
0.0
 40
0.0
 40
1.0
 40
1.0
 40
1.0
 40
2.0
 40
2.0
 40
2.0
 40
3.0
 40
3.0
 40
3.0
 40
4.0
 40
4.0
 40
4.0
 40
4.0
 10
161.9998654019599
 20
164.8499947771216
 30
0.0
 10
160.2600910341892
 20
164.8499947771216
 30
0.0
 10
158.8496680120797
 20
166.2604177992311
 30
0.0
 10
158.8496680120797
 20
168.0001921670017
 30
0.0
 10
158.8496680120797
 20
169.7397942798845
 30
0.0
 10
160.2600910341892
 20
171.150217301994
 30
0.0
 10
161.9998654019599
 20
171.150217301994
 30
0.0
 10
163.7396397697305
 20
171.150217301994
 30
0.0
 10
165.15006279184
 20
169.7397942798845
 30
0.0
 10
165.15006279184
 20
168.0001921670017
 30
0.0
 10
165.15006279184
 20
166.2604177992311
 30
0.0
 10
163.7396397697305
 20
164.8499947771216
 30
0.0
 10
161.9998654019599
 20
164.8499947771216
 30
0.0
  0
SPLINE
  5
5D
330
1F
100
AcDbEntity
  8
Calque 1
370
     0
100
AcDbSpline
210
0.0
220
0.0
230
1.0
 70
    11
 71
     3
 72
    17
 73
    13
 74
     0
 42
0.0000000001
 43
0.0000000001
 40
0.0
 40
0.0
 40
0.0
 40
0.0
 40
1.0
 40
1.0
 40
1.0
 40
2.0
 40
2.0
 40
2.0
 40
3.0
 40
3.0
 40
3.0
 40
4.0
 40
4.0
 40
4.0
 40
4.0
 10
161.9998654019599
 20
180.850062294423
 30
0.0
 10
160.2600910341892
 20
180.850062294423
 30
0.0
 10
158.8496680120797
 20
182.2604853165326
 30
0.0
 10
158.8496680120797
 20
184.0002596843032
 30
0.0
 10
158.8496680120797
 20
185.739861797186
 30
0.0
 10
160.2600910341892
 20
187.1502848192955
 30
0.0
 10
161.9998654019599
 20
187.1502848192955
 30
0.0
 10
163.7396397697305
 20
187.1502848192955
 30
0.0
 10
165.15006279184
 20
185.739861797186
 30
0.0
 10
165.15006279184
 20
184.0002596843032
 30
0.0
 10
165.15006279184
 20
182.2604853165326
 30
0.0
 10
163.7396397697305
 20
180.850062294423
 30
0.0
 10
161.9998654019599
 20
180.850062294423
 30
0.0
  0
SPLINE
  5
5E
330
1F
100
AcDbEntity
  8
Calque 1
370
     0
100
AcDbSpline
210
0.0
220
0.0
230
1.0
 70
    11
 71
     3
 72
    17
 73
    13
 74
     0
 42
0.0000000001
 43
0.0000000001
 40
0.0
 40
0.0
 40
0.0
 40
0.0
 40
1.0
 40
1.0
 40
1.0
 40
2.0
 40
2.0
 40
2.0
 40
3.0
 40
3.0
 40
3.0
 40
4.0
 40
4.0
 40
4.0
 40
4.0
 10
174.500058106948
 20
38.84967839698237
 30
0.0
 10
173.3128774195545
 20
38.84967839698237
 30
0.0
 10
172.35031710598
 20
39.81258322033266
 30
0.0
 10
172.35031710598
 20
40.99976390772625
 30
0.0
 10
172.35031710598
 20
42.18728910489565
 30
0.0
 10
173.3128774195545
 20
43.14984941847015
 30
0.0
 10
174.500058106948
 20
43.14984941847015
 30
0.0
 10
175.6875833041175
 20
43.14984941847015
 30
0.0
 10
176.650143617692
 20
42.18728910489565
 30
0.0
 10
176.650143617692
 20
40.99976390772625
 30
0.0
 10
176.650143617692
 20
39.81258322033266
 30
0.0
 10
175.6875833041175
 20
38.84967839698237
 30
0.0
 10
174.500058106948
 20
38.84967839698237
 30
0.0
  0
SPLINE
  5
5F
330
1F
100
AcDbEntity
  8
Calque 1
370
     0
100
AcDbSpline
210
0.0
220
0.0
230
1.0
 70
    11
 71
     3
 72
    17
 73
    13
 74
     0
 42
0.0000000001
 43
0.0000000001
 40
0.0
 40
0.0
 40
0.0
 40
0.0
 40
1.0
 40
1.0
 40
1.0
 40
2.0
 40
2.0
 40
2.0
 40
3.0
 40
3.0
 40
3.0
 40
4.0
 40
4.0
 40
4.0
 40
4.0
 10
179.4999284830779
 20
47.34976809520124
 30
0.0
 10
178.5890446358728
 20
47.34976809520124
 30
0.0
 10
177.8504156765658
 20
48.08839705450823
 30
0.0
 10
177.8504156765658
 20
48.99996992126489
 30
0.0
 10
177.8504156765658
 20
49.91119827824576
 30
0.0
 10
178.5890446358728
 20
50.64982723755274
 30
0.0
 10
179.4999284830779
 20
50.64982723755274
 30
0.0
 10
180.4115013498345
 20
50.64982723755274
 30
0.0
 10
181.1501303091415
 20
49.91119827824576
 30
0.0
 10
181.1501303091415
 20
48.99996992126489
 30
0.0
 10
181.1501303091415
 20
48.08839705450823
 30
0.0
 10
180.4115013498345
 20
47.34976809520124
 30
0.0
 10
179.4999284830779
 20
47.34976809520124
 30
0.0
  0
SPLINE
  5
60
330
1F
100
AcDbEntity
  8
Calque 1
370
     0
100
AcDbSpline
210
0.0
220
0.0
230
1.0
 70
    11
 71
     3
 72
    17
 73
    13
 74
     0
 42
0.0000000001
 43
0.0000000001
 40
0.0
 40
0.0
 40
0.0
 40
0.0
 40
1.0
 40
1.0
 40
1.0
 40
2.0
 40
2.0
 40
2.0
 40
3.0
 40
3.0
 40
3.0
 40
4.0
 40
4.0
 40
4.0
 40
4.0
 10
179.4999284830779
 20
179.3500667306065
 30
0.0
 10
178.5890446358728
 20
179.3500667306065
 30
0.0
 10
177.8504156765658
 20
180.0886956899135
 30
0.0
 10
177.8504156765658
 20
181.0002685566702
 30
0.0
 10
177.8504156765658
 20
181.911496913651
 30
0.0
 10
178.5890446358728
 20
182.650125872958
 30
0.0
 10
179.4999284830779
 20
182.650125872958
 30
0.0
 10
180.4115013498345
 20
182.650125872958
 30
0.0
 10
181.1501303091415
 20
181.911496913651
 30
0.0
 10
181.1501303091415
 20
181.0002685566702
 30
0.0
 10
181.1501303091415
 20
180.0886956899135
 30
0.0
 10
180.4115013498345
 20
179.3500667306065
 30
0.0
 10
179.4999284830779
 20
179.3500667306065
 30
0.0
  0
SPLINE
  5
61
330
1F
100
AcDbEntity
  8
Calque 1
370
     0
100
AcDbSpline
210
0.0
220
0.0
230
1.0
 70
    11
 71
     3
 72
    17
 73
    13
 74
     0
 42
0.0000000001
 43
0.0000000001
 40
0.0
 40
0.0
 40
0.0
 40
0.0
 40
1.0
 40
1.0
 40
1.0
 40
2.0
 40
2.0
 40
2.0
 40
3.0
 40
3.0
 40
3.0
 40
4.0
 40
4.0
 40
4.0
 40
4.0
 10
189.4996692353374
 20
47.34976809520124
 30
0.0
 10
188.5887853881324
 20
47.34976809520124
 30
0.0
 10
187.8501564288254
 20
48.08839705450823
 30
0.0
 10
187.8501564288254
 20
48.99996992126489
 30
0.0
 10
187.8501564288254
 20
49.91119827824576
 30
0.0
 10
188.5887853881324
 20
50.64982723755274
 30
0.0
 10
189.4996692353374
 20
50.64982723755274
 30
0.0
 10
190.4112421020941
 20
50.64982723755274
 30
0.0
 10
191.1498710614011
 20
49.91119827824576
 30
0.0
 10
191.1498710614011
 20
48.99996992126489
 30
0.0
 10
191.1498710614011
 20
48.08839705450823
 30
0.0
 10
190.4112421020941
 20
47.34976809520124
 30
0.0
 10
189.4996692353374
 20
47.34976809520124
 30
0.0
  0
SPLINE
  5
62
330
1F
100
AcDbEntity
  8
Calque 1
370
     0
100
AcDbSpline
210
0.0
220
0.0
230
1.0
 70
    11
 71
     3
 72
    17
 73
    13
 74
     0
 42
0.0000000001
 43
0.0000000001
 40
0.0
 40
0.0
 40
0.0
 40
0.0
 40
1.0
 40
1.0
 40
1.0
 40
2.0
 40
2.0
 40
2.0
 40
3.0
 40
3.0
 40
3.0
 40
4.0
 40
4.0
 40
4.0
 40
4.0
 10
189.4996692353374
 20
179.3500667306065
 30
0.0
 10
188.5887853881324
 20
179.3500667306065
 30
0.0
 10
187.8501564288254
 20
180.0886956899135
 30
0.0
 10
187.8501564288254
 20
181.0002685566702
 30
0.0
 10
187.8501564288254
 20
181.911496913651
 30
0.0
 10
188.5887853881324
 20
182.650125872958
 30
0.0
 10
189.4996692353374
 20
182.650125872958
 30
0.0
 10
190.4112421020941
 20
182.650125872958
 30
0.0
 10
191.1498710614011
 20
181.911496913651
 30
0.0
 10
191.1498710614011
 20
181.0002685566702
 30
0.0
 10
191.1498710614011
 20
180.0886956899135
 30
0.0
 10
190.4112421020941
 20
179.3500667306065
 30
0.0
 10
189.4996692353374
 20
179.3500667306065
 30
0.0
  0
SPLINE
  5
63
330
1F
100
AcDbEntity
  8
Calque 1
370
     0
100
AcDbSpline
210
0.0
220
0.0
230
1.0
 70
    11
 71
     3
 72
    17
 73
    13
 74
     0
 42
0.0000000001
 43
0.0000000001
 40
0.0
 40
0.0
 40
0.0
 40
0.0
 40
1.0
 40
1.0
 40
1.0
 40
2.0
 40
2.0
 40
2.0
 40
3.0
 40
3.0
 40
3.0
 40
4.0
 40
4.0
 40
4.0
 40
4.0
 10
204.9998530679587
 20
37.35002734294164
 30
0.0
 10
204.0886247109778
 20
37.35002734294164
 30
0.0
 10
203.3499957516708
 20
38.08865630224863
 30
0.0
 10
203.3499957516708
 20
39.00022916900529
 30
0.0
 10
203.3499957516708
 20
39.91145752598616
 30
0.0
 10
204.0886247109778
 20
40.65008648529314
 30
0.0
 10
204.9998530679587
 20
40.65008648529314
 30
0.0
 10
205.9110814249395
 20
40.65008648529314
 30
0.0
 10
206.6500548940223
 20
39.91145752598616
 30
0.0
 10
206.6500548940223
 20
39.00022916900529
 30
0.0
 10
206.6500548940223
 20
38.08865630224863
 30
0.0
 10
205.9110814249395
 20
37.35002734294164
 30
0.0
 10
204.9998530679587
 20
37.35002734294164
 30
0.0
  0
SPLINE
  5
64
330
1F
100
AcDbEntity
  8
Calque 1
370
     0
100
AcDbSpline
210
0.0
220
0.0
230
1.0
 70
    11
 71
     3
 72
    17
 73
    13
 74
     0
 42
0.0000000001
 43
0.0000000001
 40
0.0
 40
0.0
 40
0.0
 40
0.0
 40
1.0
 40
1.0
 40
1.0
 40
2.0
 40
2.0
 40
2.0
 40
3.0
 40
3.0
 40
3.0
 40
4.0
 40
4.0
 40
4.0
 40
4.0
 10
204.9998530679587
 20
54.34986222960359
 30
0.0
 10
204.0886247109778
 20
54.34986222960359
 30
0.0
 10
203.3499957516708
 20
55.08849118891058
 30
0.0
 10
203.3499957516708
 20
56.00006405566725
 30
0.0
 10
203.3499957516708
 20
56.91129241264812
 30
0.0
 10
204.0886247109778
 20
57.6499213719551
 30
0.0
 10
204.9998530679587
 20
57.6499213719551
 30
0.0
 10
205.9110814249395
 20
57.6499213719551
 30
0.0
 10
206.6500548940223
 20
56.91129241264812
 30
0.0
 10
206.6500548940223
 20
56.00006405566725
 30
0.0
 10
206.6500548940223
 20
55.08849118891058
 30
0.0
 10
205.9110814249395
 20
54.34986222960359
 30
0.0
 10
204.9998530679587
 20
54.34986222960359
 30
0.0
  0
SPLINE
  5
65
330
1F
100
AcDbEntity
  8
Calque 1
370
     0
100
AcDbSpline
210
0.0
220
0.0
230
1.0
 70
    11
 71
     3
 72
    17
 73
    13
 74
     0
 42
0.0000000001
 43
0.0000000001
 40
0.0
 40
0.0
 40
0.0
 40
0.0
 40
1.0
 40
1.0
 40
1.0
 40
2.0
 40
2.0
 40
2.0
 40
3.0
 40
3.0
 40
3.0
 40
4.0
 40
4.0
 40
4.0
 40
4.0
 10
219.4999250214436
 20
8.95001946540867
 30
0.0
 10
218.6441627383659
 20
8.95001946540867
 30
0.0
 10
217.9499755401367
 20
9.643862153862155
 30
0.0
 10
217.9499755401367
 20
10.49996894671563
 30
0.0
 10
217.9499755401367
 20
11.35607573956911
 30
0.0
 10
218.6441627383659
 20
12.0499184280226
 30
0.0
 10
219.4999250214436
 20
12.0499184280226
 30
0.0
 10
220.3560318142971
 20
12.0499184280226
 30
0.0
 10
221.0502190125264
 20
11.35607573956911
 30
0.0
 10
221.0502190125264
 20
10.49996894671563
 30
0.0
 10
221.0502190125264
 20
9.643862153862155
 30
0.0
 10
220.3560318142971
 20
8.95001946540867
 30
0.0
 10
219.4999250214436
 20
8.95001946540867
 30
0.0
  0
HATCH
  5
66
330
1F
100
AcDbEntity
  8
Calque 1
 62
   250
100
AcDbHatch
 10
0.0
 20
0.0
 30
0.0
210
0.0
220
0.0
230
1.0
  2
SOLID
 70
     1
 71
     0
 91
       42
 92
        1
 93
        1
 72
     4
 94
        3
 73
     0
 74
     1
 95
      125
 96
      121
 40
0.0
 40
0.0
 40
0.0
 40
0.0
 40
1.0
 40
1.0
 40
1.0
 40
2.0
 40
2.0
 40
2.0
 40
3.0
 40
3.0
 40
3.0
 40
4.0
 40
4.0
 40
4.0
 40
5.0
 40
5.0
 40
5.0
 40
6.0
 40
6.0
 40
6.0
 40
7.0
 40
7.0
 40
7.0
 40
8.0
 40
8.0
 40
8.0
 40
9.0
 40
9.0
 40
9.0
 40
10.0
 40
10.0
 40
10.0
 40
11.0
 40
11.0
 40
11.0
 40
12.0
 40
12.0
 40
12.0
 40
13.0
 40
13.0
 40
13.0
 40
14.0
 40
14.0
 40
14.0
 40
15.0
 40
15.0
 40
15.0
 40
16.0
 40
16.0
 40
16.0
 40
17.0
 40
17.0
 40
17.0
 40
18.0
 40
18.0
 40
18.0
 40
19.0
 40
19.0
 40
19.0
 40
20.0
 40
20.0
 40
20.0
 40
21.0
 40
21.0
 40
21.0
 40
22.0
 40
22.0
 40
22.0
 40
23.0
 40
23.0
 40
23.0
 40
24.0
 40
24.0
 40
24.0
 40
25.0
 40
25.0
 40
25.0
 40
26.0
 40
26.0
 40
26.0
 40
27.0
 40
27.0
 40
27.0
 40
28.0
 40
28.0
 40
28.0
 40
29.0
 40
29.0
 40
29.0
 40
30.0
 40
30.0
 40
30.0
 40
31.0
 40
31.0
 40
31.0
 40
32.0
 40
32.0
 40
32.0
 40
33.0
 40
33.0
 40
33.0
 40
34.0
 40
34.0
 40
34.0
 40
35.0
 40
35.0
 40
35.0
 40
36.0
 40
36.0
 40
36.0
 40
37.0
 40
37.0
 40
37.0
 40
38.0
 40
38.0
 40
38.0
 40
39.0
 40
39.0
 40
39.0
 40
40.0
 40
40.0
 40
40.0
 40
40.0
 10
225.2101745552651
 20
18.70102415954343
 10
225.2167202410052
 20
18.69895710088866
 10
225.2229214169696
 20
18.69654553245808
 10
225.2294671027097
 20
18.69447847380331
 10
225.2077629868346
 20
18.70688082573197
 10
225.1881259296142
 20
18.72031670698802
 10
225.166421813739
 20
18.73271905891668
 10
225.1605651475505
 20
18.73685317622623
 10
225.1550529911378
 20
18.74133180331158
 10
225.1491963249492
 20
18.74546592062114
 10
225.1047545638715
 20
18.77061513425426
 10
225.0606573125696
 20
18.79886493586955
 10
225.0162155514919
 20
18.82435865927846
 10
214.5238258198438
 20
25.03311383867702
 10
215.0002828397699
 20
34.99978165246018
 10
215.0002828397699
 20
34.99978165246018
 10
215.0002828397699
 20
34.99978165246018
 10
215.0002828397699
 20
57.99994330416401
 10
215.0002828397699
 20
57.99994330416401
 10
215.0002828397699
 20
61.31378283754736
 10
212.3137956081113
 20
63.99992555943008
 10
209.0003005845038
 20
63.99992555943008
 10
209.0003005845038
 20
63.99992555943008
 10
208.7756802106847
 20
63.99992555943008
 10
208.7756802106847
 20
63.99992555943008
 10
207.2426117083917
 20
64.0426447716288
 10
198.2095653870162
 20
65.01381782959821
 10
195.4155911053093
 20
81.83554116217354
 10
193.8518612329705
 20
92.20356286475923
 10
193.0002330672023
 20
103.3670576396583
 10
193.0002330672023
 20
115.0002914938554
 10
193.0002330672023
 20
161.6806770946847
 10
206.7075880265803
 20
200.8082026258467
 10
225.151263383604
 20
211.2561505964171
 10
227.7757388556192
 20
213.0582812336069
 10
229.500010283479
 20
216.0760146146934
 10
229.500010283479
 20
219.5000972763315
 10
229.500010283479
 20
225.0229334921199
 10
225.0231057470078
 20
229.5001825383669
 10
219.4999250214436
 20
229.5001825383669
 10
216.0748088304781
 20
229.5001825383669
 10
213.0565586847279
 20
227.7747053262918
 10
211.2544280475381
 20
225.1490240700613
 10
200.8047575280887
 20
206.706382242365
 10
161.678437781142
 20
193.0002330672023
 10
115.0002914938554
 20
193.0002330672023
 10
68.32231746145672
 20
193.0002330672023
 10
29.19616996939792
 20
206.7062099874771
 10
18.74598268528483
 20
225.1486795602855
 10
16.94367979320718
 20
227.7745330714039
 10
13.92560190234484
 20
229.5001825383669
 10
10.50014120160353
 20
229.5001825383669
 10
4.977132730927251
 20
229.5001825383669
 10
0.5000559395681391
 20
225.0229334921199
 10
0.5000559395681391
 20
219.5000972763315
 10
0.5000559395681391
 20
216.0763591244692
 10
2.224155112540066
 20
213.0591425080464
 10
4.847769310115789
 20
211.2566673610808
 10
23.29230594157898
 20
200.8097529198378
 10
37.00017766562063
 20
161.6817106240121
 10
37.00017766562063
 20
115.0002914938554
 10
37.00017766562063
 20
103.3815270502417
 10
36.15044430361939
 20
92.23181266637452
 10
34.59050403881433
 20
81.8748152766143
 10
31.80410897217492
 20
65.0148513589256
 10
22.75797127931912
 20
64.0426447716288
 10
21.22386924769878
 20
63.99992555943008
 10
21.22386924769878
 20
63.99992555943008
 10
21.00011014831917
 20
63.99992555943008
 10
21.00011014831917
 20
63.99992555943008
 10
17.68644286982371
 20
63.99992555943008
 10
15.00012789305309
 20
61.31378283754736
 10
15.00012789305309
 20
57.99994330416401
 10
15.00012789305309
 20
57.99994330416401
 10
15.00012789305309
 20
34.99978165246018
 10
15.00012789305309
 20
34.99978165246018
 10
15.00012789305309
 20
34.99978165246018
 10
15.00012789305309
 20
34.99943714268439
 10
15.00012789305309
 20
34.99943714268439
 10
15.00012789305309
 20
34.99943714268439
 10
14.99961112838939
 20
34.99978165246018
 10
14.99961112838939
 20
34.99978165246018
 10
14.99961112838939
 20
34.99978165246018
 10
15.47761844230658
 20
25.01485482055982
 10
4.955256360164195
 20
18.80713317048865
 10
4.919427343481393
 20
18.78646258394088
 10
4.883942836574388
 20
18.76372493873833
 10
4.847941565003688
 20
18.74339886196636
 10
4.843118428142541
 20
18.7402982739842
 10
4.838639801057192
 20
18.73650866645044
 10
4.833988919083943
 20
18.73306356869248
 10
4.812112548320886
 20
18.72031670698802
 10
4.792303236212606
 20
18.70722533550776
 10
4.77042686544955
 20
18.69447847380331
 10
4.776972551189678
 20
18.69654553245808
 10
4.783345982041906
 20
18.69895710088866
 10
4.789891667782033
 20
18.70102415954343
 10
2.19952266357064
 20
16.89441489526832
 10
0.5000559395681391
 20
13.89786886539325
 10
0.5000559395681391
 20
10.49996894671563
 10
0.5000559395681391
 20
4.977132730927251
 10
4.977132730927251
 20
0.499883684680241
 10
10.50014120160353
 20
0.499883684680241
 10
13.92560190234484
 20
0.499883684680241
 10
16.94385204809507
 20
2.225533151643251
 10
18.74598268528483
 20
4.85138666276165
 10
29.19651447917372
 20
23.29368398068216
 10
68.3226619712325
 20
36.99966090095694
 10
115.0002914938554
 20
36.99966090095694
 10
161.6780932713662
 20
36.99966090095694
 10
200.8044130183129
 20
23.29368398068216
 10
211.2544280475381
 20
4.851042152985854
 10
213.0565586847279
 20
2.225188641867454
 10
216.0744643207023
 20
0.499883684680241
 10
219.4999250214436
 20
0.499883684680241
 10
225.0231057470078
 20
0.499883684680241
 10
229.500010283479
 20
4.977132730927251
 10
229.500010283479
 20
10.49996894671563
 10
229.500010283479
 20
13.89786886539325
 10
227.8005435594765
 20
16.89407038549253
 10
225.2101745552651
 20
18.70102415954343
 97
        0
 92
        1
 93
        1
 72
     4
 94
        3
 73
     0
 74
     1
 95
       17
 96
       13
 40
0.0
 40
0.0
 40
0.0
 40
0.0
 40
1.0
 40
1.0
 40
1.0
 40
2.0
 40
2.0
 40
2.0
 40
3.0
 40
3.0
 40
3.0
 40
4.0
 40
4.0
 40
4.0
 40
4.0
 10
219.4999250214436
 20
221.0500467576385
 10
220.3560318142971
 20
221.0500467576385
 10
221.0502190125264
 20
220.356204069185
 10
221.0502190125264
 20
219.5000972763315
 10
221.0502190125264
 20
218.643990483478
 10
220.3560318142971
 20
217.9501477950246
 10
219.4999250214436
 20
217.9501477950246
 10
218.6441627383659
 20
217.9501477950246
 10
217.9499755401367
 20
218.643990483478
 10
217.9499755401367
 20
219.5000972763315
 10
217.9499755401367
 20
220.356204069185
 10
218.6441627383659
 20
221.0500467576385
 10
219.4999250214436
 20
221.0500467576385
 97
        0
 92
        1
 93
        1
 72
     4
 94
        3
 73
     0
 74
     1
 95
       17
 96
       13
 40
0.0
 40
0.0
 40
0.0
 40
0.0
 40
1.0
 40
1.0
 40
1.0
 40
2.0
 40
2.0
 40
2.0
 40
3.0
 40
3.0
 40
3.0
 40
4.0
 40
4.0
 40
4.0
 40
4.0
 10
10.49996894671563
 20
217.9501477950246
 10
9.644034408750052
 20
217.9501477950246
 10
8.95001946540867
 20
218.643990483478
 10
8.95001946540867
 20
219.5000972763315
 10
8.95001946540867
 20
220.356204069185
 10
9.644034408750052
 20
221.0500467576385
 10
10.49996894671563
 20
221.0500467576385
 10
11.35607573956911
 20
221.0500467576385
 10
12.0500906829105
 20
220.356204069185
 10
12.0500906829105
 20
219.5000972763315
 10
12.0500906829105
 20
218.643990483478
 10
11.35607573956911
 20
217.9501477950246
 10
10.49996894671563
 20
217.9501477950246
 97
        0
 92
        1
 93
        1
 72
     4
 94
        3
 73
     0
 74
     1
 95
       17
 96
       13
 40
0.0
 40
0.0
 40
0.0
 40
0.0
 40
1.0
 40
1.0
 40
1.0
 40
2.0
 40
2.0
 40
2.0
 40
3.0
 40
3.0
 40
3.0
 40
4.0
 40
4.0
 40
4.0
 40
4.0
 10
10.49996894671563
 20
8.95001946540867
 10
9.644034408750052
 20
8.95001946540867
 10
8.95001946540867
 20
9.643862153862155
 10
8.95001946540867
 20
10.49996894671563
 10
8.95001946540867
 20
11.35607573956911
 10
9.644034408750052
 20
12.0499184280226
 10
10.49996894671563
 20
12.0499184280226
 10
11.35607573956911
 20
12.0499184280226
 10
12.0500906829105
 20
11.35607573956911
 10
12.0500906829105
 20
10.49996894671563
 10
12.0500906829105
 20
9.643862153862155
 10
11.35607573956911
 20
8.95001946540867
 10
10.49996894671563
 20
8.95001946540867
 97
        0
 92
        1
 93
        1
 72
     4
 94
        3
 73
     0
 74
     1
 95
       17
 96
       13
 40
0.0
 40
0.0
 40
0.0
 40
0.0
 40
1.0
 40
1.0
 40
1.0
 40
2.0
 40
2.0
 40
2.0
 40
3.0
 40
3.0
 40
3.0
 40
4.0
 40
4.0
 40
4.0
 40
4.0
 10
24.99986864531269
 20
37.35002734294164
 10
24.08864028833182
 20
37.35002734294164
 10
23.35001132902483
 20
38.08865630224863
 10
23.35001132902483
 20
39.00022916900529
 10
23.35001132902483
 20
39.91145752598616
 10
24.08864028833182
 20
40.65008648529314
 10
24.99986864531269
 20
40.65008648529314
 10
25.91109700229355
 20
40.65008648529314
 10
26.65007047137633
 20
39.91145752598616
 10
26.65007047137633
 20
39.00022916900529
 10
26.65007047137633
 20
38.08865630224863
 10
25.91109700229355
 20
37.35002734294164
 10
24.99986864531269
 20
37.35002734294164
 97
        0
 92
        1
 93
        1
 72
     4
 94
        3
 73
     0
 74
     1
 95
       17
 96
       13
 40
0.0
 40
0.0
 40
0.0
 40
0.0
 40
1.0
 40
1.0
 40
1.0
 40
2.0
 40
2.0
 40
2.0
 40
3.0
 40
3.0
 40
3.0
 40
4.0
 40
4.0
 40
4.0
 40
4.0
 10
24.99986864531269
 20
54.34986222960359
 10
24.08864028833182
 20
54.34986222960359
 10
23.35001132902483
 20
55.08849118891058
 10
23.35001132902483
 20
56.00006405566725
 10
23.35001132902483
 20
56.91129241264812
 10
24.08864028833182
 20
57.6499213719551
 10
24.99986864531269
 20
57.6499213719551
 10
25.91109700229355
 20
57.6499213719551
 10
26.65007047137633
 20
56.91129241264812
 10
26.65007047137633
 20
56.00006405566725
 10
26.65007047137633
 20
55.08849118891058
 10
25.91109700229355
 20
54.34986222960359
 10
24.99986864531269
 20
54.34986222960359
 97
        0
 92
        1
 93
        1
 72
     4
 94
        3
 73
     0
 74
     1
 95
       17
 96
       13
 40
0.0
 40
0.0
 40
0.0
 40
0.0
 40
1.0
 40
1.0
 40
1.0
 40
2.0
 40
2.0
 40
2.0
 40
3.0
 40
3.0
 40
3.0
 40
4.0
 40
4.0
 40
4.0
 40
4.0
 10
139.0000482600318
 20
180.6502466244613
 10
139.9116211267885
 20
180.6502466244613
 10
140.6502500860955
 20
179.9114454102664
 10
140.6502500860955
 20
179.0002170532855
 10
140.6502500860955
 20
178.0886441865289
 10
139.9116211267885
 20
177.3500152272219
 10
139.0000482600318
 20
177.3500152272219
 10
138.0891644128268
 20
177.3500152272219
 10
137.3498464339682
 20
178.0886441865289
 10
137.3498464339682
 20
179.0002170532855
 10
137.3498464339682
 20
179.9114454102664
 10
138.0891644128268
 20
180.6502466244613
 10
139.0000482600318
 20
180.6502466244613
 97
        0
 92
        1
 93
        1
 72
     4
 94
        3
 73
     0
 74
     1
 95
       17
 96
       13
 40
0.0
 40
0.0
 40
0.0
 40
0.0
 40
1.0
 40
1.0
 40
1.0
 40
2.0
 40
2.0
 40
2.0
 40
3.0
 40
3.0
 40
3.0
 40
4.0
 40
4.0
 40
4.0
 40
4.0
 10
127.0000837494997
 20
180.6502466244613
 10
127.9113121064806
 20
180.6502466244613
 10
128.6499410657875
 20
179.9114454102664
 10
128.6499410657875
 20
179.0002170532855
 10
128.6499410657875
 20
178.0886441865289
 10
127.9113121064806
 20
177.3500152272219
 10
127.0000837494997
 20
177.3500152272219
 10
126.0888553925188
 20
177.3500152272219
 10
125.349881923436
 20
178.0886441865289
 10
125.349881923436
 20
179.0002170532855
 10
125.349881923436
 20
179.9114454102664
 10
126.0888553925188
 20
180.6502466244613
 10
127.0000837494997
 20
180.6502466244613
 97
        0
 92
        1
 93
        1
 72
     4
 94
        3
 73
     0
 74
     1
 95
       17
 96
       13
 40
0.0
 40
0.0
 40
0.0
 40
0.0
 40
1.0
 40
1.0
 40
1.0
 40
2.0
 40
2.0
 40
2.0
 40
3.0
 40
3.0
 40
3.0
 40
4.0
 40
4.0
 40
4.0
 40
4.0
 10
120.9997569844578
 20
180.6502466244613
 10
121.9109853414387
 20
180.6502466244613
 10
122.6499588105215
 20
179.9114454102664
 10
122.6499588105215
 20
179.0002170532855
 10
122.6499588105215
 20
178.0886441865289
 10
121.9109853414387
 20
177.3500152272219
 10
120.9997569844578
 20
177.3500152272219
 10
120.0885286274769
 20
177.3500152272219
 10
119.34989966817
 20
178.0886441865289
 10
119.34989966817
 20
179.0002170532855
 10
119.34989966817
 20
179.9114454102664
 10
120.0885286274769
 20
180.6502466244613
 10
120.9997569844578
 20
180.6502466244613
 97
        0
 92
        1
 93
        1
 72
     4
 94
        3
 73
     0
 74
     1
 95
       17
 96
       13
 40
0.0
 40
0.0
 40
0.0
 40
0.0
 40
1.0
 40
1.0
 40
1.0
 40
2.0
 40
2.0
 40
2.0
 40
3.0
 40
3.0
 40
3.0
 40
4.0
 40
4.0
 40
4.0
 40
4.0
 10
115.0001192389675
 20
180.6502466244613
 10
115.9113475959484
 20
180.6502466244613
 10
116.6499765552554
 20
179.9114454102664
 10
116.6499765552554
 20
179.0002170532855
 10
116.6499765552554
 20
178.0886441865289
 10
115.9113475959484
 20
177.3500152272219
 10
115.0001192389675
 20
177.3500152272219
 10
114.0888908819867
 20
177.3500152272219
 10
113.3500896677918
 20
178.0886441865289
 10
113.3500896677918
 20
179.0002170532855
 10
113.3500896677918
 20
179.9114454102664
 10
114.0888908819867
 20
180.6502466244613
 10
115.0001192389675
 20
180.6502466244613
 97
        0
 92
        1
 93
        1
 72
     4
 94
        3
 73
     0
 74
     1
 95
       17
 96
       13
 40
0.0
 40
0.0
 40
0.0
 40
0.0
 40
1.0
 40
1.0
 40
1.0
 40
2.0
 40
2.0
 40
2.0
 40
3.0
 40
3.0
 40
3.0
 40
4.0
 40
4.0
 40
4.0
 40
4.0
 10
109.0003092385894
 20
180.6502466244613
 10
109.9115375955702
 20
180.6502466244613
 10
110.6501665548772
 20
179.9114454102664
 10
110.6501665548772
 20
179.0002170532855
 10
110.6501665548772
 20
178.0886441865289
 10
109.9115375955702
 20
177.3500152272219
 10
109.0003092385894
 20
177.3500152272219
 10
108.0890808816085
 20
177.3500152272219
 10
107.3501074125257
 20
178.0886441865289
 10
107.3501074125257
 20
179.0002170532855
 10
107.3501074125257
 20
179.9114454102664
 10
108.0890808816085
 20
180.6502466244613
 10
109.0003092385894
 20
180.6502466244613
 97
        0
 92
        1
 93
        1
 72
     4
 94
        3
 73
     0
 74
     1
 95
       17
 96
       13
 40
0.0
 40
0.0
 40
0.0
 40
0.0
 40
1.0
 40
1.0
 40
1.0
 40
2.0
 40
2.0
 40
2.0
 40
3.0
 40
3.0
 40
3.0
 40
4.0
 40
4.0
 40
4.0
 40
4.0
 10
103.0001547284354
 20
180.6502466244613
 10
103.9113830854162
 20
180.6502466244613
 10
104.6501842996111
 20
179.9114454102664
 10
104.6501842996111
 20
179.0002170532855
 10
104.6501842996111
 20
178.0886441865289
 10
103.9113830854162
 20
177.3500152272219
 10
103.0001547284354
 20
177.3500152272219
 10
102.0889263714545
 20
177.3500152272219
 10
101.3501251572596
 20
178.0886441865289
 10
101.3501251572596
 20
179.0002170532855
 10
101.3501251572596
 20
179.9114454102664
 10
102.0889263714545
 20
180.6502466244613
 10
103.0001547284354
 20
180.6502466244613
 97
        0
 92
        1
 93
        1
 72
     4
 94
        3
 73
     0
 74
     1
 95
       17
 96
       13
 40
0.0
 40
0.0
 40
0.0
 40
0.0
 40
1.0
 40
1.0
 40
1.0
 40
2.0
 40
2.0
 40
2.0
 40
3.0
 40
3.0
 40
3.0
 40
4.0
 40
4.0
 40
4.0
 40
4.0
 10
91.00001796301532
 20
180.6502466244613
 10
91.9112463199962
 20
180.6502466244613
 10
92.65021978907897
 20
179.9114454102664
 10
92.65021978907897
 20
179.0002170532855
 10
92.65021978907897
 20
178.0886441865289
 10
91.9112463199962
 20
177.3500152272219
 10
91.00001796301532
 20
177.3500152272219
 10
90.08878960603445
 20
177.3500152272219
 10
89.35016064672747
 20
178.0886441865289
 10
89.35016064672747
 20
179.0002170532855
 10
89.35016064672747
 20
179.9114454102664
 10
90.08878960603445
 20
180.6502466244613
 10
91.00001796301532
 20
180.6502466244613
 97
        0
 92
        1
 93
        1
 72
     4
 94
        3
 73
     0
 74
     1
 95
       17
 96
       13
 40
0.0
 40
0.0
 40
0.0
 40
0.0
 40
1.0
 40
1.0
 40
1.0
 40
2.0
 40
2.0
 40
2.0
 40
3.0
 40
3.0
 40
3.0
 40
4.0
 40
4.0
 40
4.0
 40
4.0
 10
40.49988022304602
 20
47.34976809520124
 10
39.58865186606515
 20
47.34976809520124
 10
38.85002290675816
 20
48.08839705450823
 10
38.85002290675816
 20
48.99996992126489
 10
38.85002290675816
 20
49.91119827824576
 10
39.58865186606515
 20
50.64982723755274
 10
40.49988022304602
 20
50.64982723755274
 10
41.41110858002688
 20
50.64982723755274
 10
42.15008204910966
 20
49.91119827824576
 10
42.15008204910966
 20
48.99996992126489
 10
42.15008204910966
 20
48.08839705450823
 10
41.41110858002688
 20
47.34976809520124
 10
40.49988022304602
 20
47.34976809520124
 97
        0
 92
        1
 93
        1
 72
     4
 94
        3
 73
     0
 74
     1
 95
       17
 96
       13
 40
0.0
 40
0.0
 40
0.0
 40
0.0
 40
1.0
 40
1.0
 40
1.0
 40
2.0
 40
2.0
 40
2.0
 40
3.0
 40
3.0
 40
3.0
 40
4.0
 40
4.0
 40
4.0
 40
4.0
 10
40.49988022304602
 20
179.3500667306065
 10
39.58865186606515
 20
179.3500667306065
 10
38.85002290675816
 20
180.0886956899135
 10
38.85002290675816
 20
181.0002685566702
 10
38.85002290675816
 20
181.911496913651
 10
39.58865186606515
 20
182.650125872958
 10
40.49988022304602
 20
182.650125872958
 10
41.41110858002688
 20
182.650125872958
 10
42.15008204910966
 20
181.911496913651
 10
42.15008204910966
 20
181.0002685566702
 10
42.15008204910966
 20
180.0886956899135
 10
41.41110858002688
 20
179.3500667306065
 10
40.49988022304602
 20
179.3500667306065
 97
        0
 92
        1
 93
        1
 72
     4
 94
        3
 73
     0
 74
     1
 95
       17
 96
       13
 40
0.0
 40
0.0
 40
0.0
 40
0.0
 40
1.0
 40
1.0
 40
1.0
 40
2.0
 40
2.0
 40
2.0
 40
3.0
 40
3.0
 40
3.0
 40
4.0
 40
4.0
 40
4.0
 40
4.0
 10
50.50013773996931
 20
47.34976809520124
 10
49.58890938298844
 20
47.34976809520124
 10
48.85010816879356
 20
48.08839705450823
 10
48.85010816879356
 20
48.99996992126489
 10
48.85010816879356
 20
49.91119827824576
 10
49.58890938298844
 20
50.64982723755274
 10
50.50013773996931
 20
50.64982723755274
 10
51.41136609695018
 20
50.64982723755274
 10
52.15016731114506
 20
49.91119827824576
 10
52.15016731114506
 20
48.99996992126489
 10
52.15016731114506
 20
48.08839705450823
 10
51.41136609695018
 20
47.34976809520124
 10
50.50013773996931
 20
47.34976809520124
 97
        0
 92
        1
 93
        1
 72
     4
 94
        3
 73
     0
 74
     1
 95
       17
 96
       13
 40
0.0
 40
0.0
 40
0.0
 40
0.0
 40
1.0
 40
1.0
 40
1.0
 40
2.0
 40
2.0
 40
2.0
 40
3.0
 40
3.0
 40
3.0
 40
4.0
 40
4.0
 40
4.0
 40
4.0
 10
50.50013773996931
 20
179.3500667306065
 10
49.58890938298844
 20
179.3500667306065
 10
48.85010816879356
 20
180.0886956899135
 10
48.85010816879356
 20
181.0002685566702
 10
48.85010816879356
 20
181.911496913651
 10
49.58890938298844
 20
182.650125872958
 10
50.50013773996931
 20
182.650125872958
 10
51.41136609695018
 20
182.650125872958
 10
52.15016731114506
 20
181.911496913651
 10
52.15016731114506
 20
181.0002685566702
 10
52.15016731114506
 20
180.0886956899135
 10
51.41136609695018
 20
179.3500667306065
 10
50.50013773996931
 20
179.3500667306065
 97
        0
 92
        1
 93
        1
 72
     4
 94
        3
 73
     0
 74
     1
 95
       17
 96
       13
 40
0.0
 40
0.0
 40
0.0
 40
0.0
 40
1.0
 40
1.0
 40
1.0
 40
2.0
 40
2.0
 40
2.0
 40
3.0
 40
3.0
 40
3.0
 40
4.0
 40
4.0
 40
4.0
 40
4.0
 10
55.500180370987
 20
38.84967839698237
 10
54.31265517381761
 20
38.84967839698237
 10
53.35009486024312
 20
39.81258322033266
 10
53.35009486024312
 20
40.99976390772625
 10
53.35009486024312
 20
42.18728910489565
 10
54.31265517381761
 20
43.14984941847015
 10
55.500180370987
 20
43.14984941847015
 10
56.6875333132685
 20
43.14984941847015
 10
57.650093626843
 20
42.18728910489565
 10
57.650093626843
 20
40.99976390772625
 10
57.650093626843
 20
39.81258322033266
 10
56.6875333132685
 20
38.84967839698237
 10
55.500180370987
 20
38.84967839698237
 97
        0
 92
        1
 93
        1
 72
     4
 94
        3
 73
     0
 74
     1
 95
       17
 96
       13
 40
0.0
 40
0.0
 40
0.0
 40
0.0
 40
1.0
 40
1.0
 40
1.0
 40
2.0
 40
2.0
 40
2.0
 40
3.0
 40
3.0
 40
3.0
 40
4.0
 40
4.0
 40
4.0
 40
4.0
 10
68.0000285661994
 20
42.84978140375168
 10
66.26025419842874
 20
42.84978140375168
 10
64.85000343120713
 20
44.2602044258612
 10
64.85000343120713
 20
45.99997879363185
 10
64.85000343120713
 20
47.73940865162671
 10
66.26025419842874
 20
49.14983167373622
 10
68.0000285661994
 20
49.14983167373622
 10
69.73963067908215
 20
49.14983167373622
 10
71.15005370119167
 20
47.73940865162671
 10
71.15005370119167
 20
45.99997879363185
 10
71.15005370119167
 20
44.2602044258612
 10
69.73963067908215
 20
42.84978140375168
 10
68.0000285661994
 20
42.84978140375168
 97
        0
 92
        1
 93
        1
 72
     4
 94
        3
 73
     0
 74
     1
 95
       17
 96
       13
 40
0.0
 40
0.0
 40
0.0
 40
0.0
 40
1.0
 40
1.0
 40
1.0
 40
2.0
 40
2.0
 40
2.0
 40
3.0
 40
3.0
 40
3.0
 40
4.0
 40
4.0
 40
4.0
 40
4.0
 10
68.0000285661994
 20
58.84984892105315
 10
66.26025419842874
 20
58.84984892105315
 10
64.85000343120713
 20
60.26027194316267
 10
64.85000343120713
 20
62.00004631093332
 10
64.85000343120713
 20
63.73947616892818
 10
66.26025419842874
 20
65.14989919103769
 10
68.0000285661994
 20
65.14989919103769
 10
69.73963067908215
 20
65.14989919103769
 10
71.15005370119167
 20
63.73947616892818
 10
71.15005370119167
 20
62.00004631093332
 10
71.15005370119167
 20
60.26027194316267
 10
69.73963067908215
 20
58.84984892105315
 10
68.0000285661994
 20
58.84984892105315
 97
        0
 92
        1
 93
        1
 72
     4
 94
        3
 73
     0
 74
     1
 95
       17
 96
       13
 40
0.0
 40
0.0
 40
0.0
 40
0.0
 40
1.0
 40
1.0
 40
1.0
 40
2.0
 40
2.0
 40
2.0
 40
3.0
 40
3.0
 40
3.0
 40
4.0
 40
4.0
 40
4.0
 40
4.0
 10
68.0000285661994
 20
164.8499947771216
 10
66.26025419842874
 20
164.8499947771216
 10
64.85000343120713
 20
166.2604177992311
 10
64.85000343120713
 20
168.0001921670017
 10
64.85000343120713
 20
169.7397942798845
 10
66.26025419842874
 20
171.150217301994
 10
68.0000285661994
 20
171.150217301994
 10
69.73963067908215
 20
171.150217301994
 10
71.15005370119167
 20
169.7397942798845
 10
71.15005370119167
 20
168.0001921670017
 10
71.15005370119167
 20
166.2604177992311
 10
69.73963067908215
 20
164.8499947771216
 10
68.0000285661994
 20
164.8499947771216
 97
        0
 92
        1
 93
        1
 72
     4
 94
        3
 73
     0
 74
     1
 95
       17
 96
       13
 40
0.0
 40
0.0
 40
0.0
 40
0.0
 40
1.0
 40
1.0
 40
1.0
 40
2.0
 40
2.0
 40
2.0
 40
3.0
 40
3.0
 40
3.0
 40
4.0
 40
4.0
 40
4.0
 40
4.0
 10
68.0000285661994
 20
180.850062294423
 10
66.26025419842874
 20
180.850062294423
 10
64.85000343120713
 20
182.2604853165326
 10
64.85000343120713
 20
184.0002596843032
 10
64.85000343120713
 20
185.739861797186
 10
66.26025419842874
 20
187.1502848192955
 10
68.0000285661994
 20
187.1502848192955
 10
69.73963067908215
 20
187.1502848192955
 10
71.15005370119167
 20
185.739861797186
 10
71.15005370119167
 20
184.0002596843032
 10
71.15005370119167
 20
182.2604853165326
 10
69.73963067908215
 20
180.850062294423
 10
68.0000285661994
 20
180.850062294423
 97
        0
 92
        1
 93
        1
 72
     4
 94
        3
 73
     0
 74
     1
 95
       17
 96
       13
 40
0.0
 40
0.0
 40
0.0
 40
0.0
 40
1.0
 40
1.0
 40
1.0
 40
2.0
 40
2.0
 40
2.0
 40
3.0
 40
3.0
 40
3.0
 40
4.0
 40
4.0
 40
4.0
 40
4.0
 10
91.00001796301532
 20
49.3499918534738
 10
90.08878960603445
 20
49.3499918534738
 10
89.35016064672747
 20
50.08862081278078
 10
89.35016064672747
 20
51.00019367953745
 10
89.35016064672747
 20
51.91142203651832
 10
90.08878960603445
 20
52.6500509958253
 10
91.00001796301532
 20
52.6500509958253
 10
91.9112463199962
 20
52.6500509958253
 10
92.65021978907897
 20
51.91142203651832
 10
92.65021978907897
 20
51.00019367953745
 10
92.65021978907897
 20
50.08862081278078
 10
91.9112463199962
 20
49.3499918534738
 10
91.00001796301532
 20
49.3499918534738
 97
        0
 92
        1
 93
        1
 72
     4
 94
        3
 73
     0
 74
     1
 95
       17
 96
       13
 40
0.0
 40
0.0
 40
0.0
 40
0.0
 40
1.0
 40
1.0
 40
1.0
 40
2.0
 40
2.0
 40
2.0
 40
3.0
 40
3.0
 40
3.0
 40
4.0
 40
4.0
 40
4.0
 40
4.0
 10
103.0001547284354
 20
49.3499918534738
 10
102.0889263714545
 20
49.3499918534738
 10
101.3501251572596
 20
50.08862081278078
 10
101.3501251572596
 20
51.00019367953745
 10
101.3501251572596
 20
51.91142203651832
 10
102.0889263714545
 20
52.6500509958253
 10
103.0001547284354
 20
52.6500509958253
 10
103.9113830854162
 20
52.6500509958253
 10
104.6501842996111
 20
51.91142203651832
 10
104.6501842996111
 20
51.00019367953745
 10
104.6501842996111
 20
50.08862081278078
 10
103.9113830854162
 20
49.3499918534738
 10
103.0001547284354
 20
49.3499918534738
 97
        0
 92
        1
 93
        1
 72
     4
 94
        3
 73
     0
 74
     1
 95
       17
 96
       13
 40
0.0
 40
0.0
 40
0.0
 40
0.0
 40
1.0
 40
1.0
 40
1.0
 40
2.0
 40
2.0
 40
2.0
 40
3.0
 40
3.0
 40
3.0
 40
4.0
 40
4.0
 40
4.0
 40
4.0
 10
109.0003092385894
 20
49.3499918534738
 10
108.0890808816085
 20
49.3499918534738
 10
107.3501074125257
 20
50.08862081278078
 10
107.3501074125257
 20
51.00019367953745
 10
107.3501074125257
 20
51.91142203651832
 10
108.0890808816085
 20
52.6500509958253
 10
109.0003092385894
 20
52.6500509958253
 10
109.9115375955702
 20
52.6500509958253
 10
110.6501665548772
 20
51.91142203651832
 10
110.6501665548772
 20
51.00019367953745
 10
110.6501665548772
 20
50.08862081278078
 10
109.9115375955702
 20
49.3499918534738
 10
109.0003092385894
 20
49.3499918534738
 97
        0
 92
        1
 93
        1
 72
     4
 94
        3
 73
     0
 74
     1
 95
       17
 96
       13
 40
0.0
 40
0.0
 40
0.0
 40
0.0
 40
1.0
 40
1.0
 40
1.0
 40
2.0
 40
2.0
 40
2.0
 40
3.0
 40
3.0
 40
3.0
 40
4.0
 40
4.0
 40
4.0
 40
4.0
 10
115.0001192389675
 20
49.3499918534738
 10
114.0888908819867
 20
49.3499918534738
 10
113.3500896677918
 20
50.08862081278078
 10
113.3500896677918
 20
51.00019367953745
 10
113.3500896677918
 20
51.91142203651832
 10
114.0888908819867
 20
52.6500509958253
 10
115.0001192389675
 20
52.6500509958253
 10
115.9113475959484
 20
52.6500509958253
 10
116.6499765552554
 20
51.91142203651832
 10
116.6499765552554
 20
51.00019367953745
 10
116.6499765552554
 20
50.08862081278078
 10
115.9113475959484
 20
49.3499918534738
 10
115.0001192389675
 20
49.3499918534738
 97
        0
 92
        1
 93
        1
 72
     4
 94
        3
 73
     0
 74
     1
 95
       17
 96
       13
 40
0.0
 40
0.0
 40
0.0
 40
0.0
 40
1.0
 40
1.0
 40
1.0
 40
2.0
 40
2.0
 40
2.0
 40
3.0
 40
3.0
 40
3.0
 40
4.0
 40
4.0
 40
4.0
 40
4.0
 10
120.9997569844578
 20
49.3499918534738
 10
120.0885286274769
 20
49.3499918534738
 10
119.34989966817
 20
50.08862081278078
 10
119.34989966817
 20
51.00019367953745
 10
119.34989966817
 20
51.91142203651832
 10
120.0885286274769
 20
52.6500509958253
 10
120.9997569844578
 20
52.6500509958253
 10
121.9109853414387
 20
52.6500509958253
 10
122.6499588105215
 20
51.91142203651832
 10
122.6499588105215
 20
51.00019367953745
 10
122.6499588105215
 20
50.08862081278078
 10
121.9109853414387
 20
49.3499918534738
 10
120.9997569844578
 20
49.3499918534738
 97
        0
 92
        1
 93
        1
 72
     4
 94
        3
 73
     0
 74
     1
 95
       17
 96
       13
 40
0.0
 40
0.0
 40
0.0
 40
0.0
 40
1.0
 40
1.0
 40
1.0
 40
2.0
 40
2.0
 40
2.0
 40
3.0
 40
3.0
 40
3.0
 40
4.0
 40
4.0
 40
4.0
 40
4.0
 10
127.0000837494997
 20
49.3499918534738
 10
126.0888553925188
 20
49.3499918534738
 10
125.349881923436
 20
50.08862081278078
 10
125.349881923436
 20
51.00019367953745
 10
125.349881923436
 20
51.91142203651832
 10
126.0888553925188
 20
52.6500509958253
 10
127.0000837494997
 20
52.6500509958253
 10
127.9113121064806
 20
52.6500509958253
 10
128.6499410657875
 20
51.91142203651832
 10
128.6499410657875
 20
51.00019367953745
 10
128.6499410657875
 20
50.08862081278078
 10
127.9113121064806
 20
49.3499918534738
 10
127.0000837494997
 20
49.3499918534738
 97
        0
 92
        1
 93
        1
 72
     4
 94
        3
 73
     0
 74
     1
 95
       17
 96
       13
 40
0.0
 40
0.0
 40
0.0
 40
0.0
 40
1.0
 40
1.0
 40
1.0
 40
2.0
 40
2.0
 40
2.0
 40
3.0
 40
3.0
 40
3.0
 40
4.0
 40
4.0
 40
4.0
 40
4.0
 10
139.0000482600318
 20
49.3499918534738
 10
138.0891644128268
 20
49.3499918534738
 10
137.3498464339682
 20
50.08862081278078
 10
137.3498464339682
 20
51.00019367953745
 10
137.3498464339682
 20
51.91142203651832
 10
138.0891644128268
 20
52.6500509958253
 10
139.0000482600318
 20
52.6500509958253
 10
139.9116211267885
 20
52.6500509958253
 10
140.6502500860955
 20
51.91142203651832
 10
140.6502500860955
 20
51.00019367953745
 10
140.6502500860955
 20
50.08862081278078
 10
139.9116211267885
 20
49.3499918534738
 10
139.0000482600318
 20
49.3499918534738
 97
        0
 92
        1
 93
        1
 72
     4
 94
        3
 73
     0
 74
     1
 95
       17
 96
       13
 40
0.0
 40
0.0
 40
0.0
 40
0.0
 40
1.0
 40
1.0
 40
1.0
 40
2.0
 40
2.0
 40
2.0
 40
3.0
 40
3.0
 40
3.0
 40
4.0
 40
4.0
 40
4.0
 40
4.0
 10
114.9999469840796
 20
75.00012270060175
 10
92.9086021209261
 20
75.00012270060175
 10
74.99995044571385
 20
92.9084298660382
 10
74.99995044571385
 20
114.9999469840796
 10
74.99995044571385
 20
137.0914641021211
 10
92.9086021209261
 20
155.0001157773333
 10
114.9999469840796
 20
155.0001157773333
 10
137.0911195923453
 20
155.0001157773333
 10
155.0001157773333
 20
137.0914641021211
 10
155.0001157773333
 20
114.9999469840796
 10
155.0001157773333
 20
92.9084298660382
 10
137.0911195923453
 20
75.00012270060175
 10
114.9999469840796
 20
75.00012270060175
 97
        0
 92
        1
 93
        1
 72
     4
 94
        3
 73
     0
 74
     1
 95
       17
 96
       13
 40
0.0
 40
0.0
 40
0.0
 40
0.0
 40
1.0
 40
1.0
 40
1.0
 40
2.0
 40
2.0
 40
2.0
 40
3.0
 40
3.0
 40
3.0
 40
4.0
 40
4.0
 40
4.0
 40
4.0
 10
161.9998654019599
 20
42.84978140375168
 10
160.2600910341892
 20
42.84978140375168
 10
158.8496680120797
 20
44.2602044258612
 10
158.8496680120797
 20
45.99997879363185
 10
158.8496680120797
 20
47.73940865162671
 10
160.2600910341892
 20
49.14983167373622
 10
161.9998654019599
 20
49.14983167373622
 10
163.7396397697305
 20
49.14983167373622
 10
165.15006279184
 20
47.73940865162671
 10
165.15006279184
 20
45.99997879363185
 10
165.15006279184
 20
44.2602044258612
 10
163.7396397697305
 20
42.84978140375168
 10
161.9998654019599
 20
42.84978140375168
 97
        0
 92
        1
 93
        1
 72
     4
 94
        3
 73
     0
 74
     1
 95
       17
 96
       13
 40
0.0
 40
0.0
 40
0.0
 40
0.0
 40
1.0
 40
1.0
 40
1.0
 40
2.0
 40
2.0
 40
2.0
 40
3.0
 40
3.0
 40
3.0
 40
4.0
 40
4.0
 40
4.0
 40
4.0
 10
161.9998654019599
 20
58.84984892105315
 10
160.2600910341892
 20
58.84984892105315
 10
158.8496680120797
 20
60.26027194316267
 10
158.8496680120797
 20
62.00004631093332
 10
158.8496680120797
 20
63.73947616892818
 10
160.2600910341892
 20
65.14989919103769
 10
161.9998654019599
 20
65.14989919103769
 10
163.7396397697305
 20
65.14989919103769
 10
165.15006279184
 20
63.73947616892818
 10
165.15006279184
 20
62.00004631093332
 10
165.15006279184
 20
60.26027194316267
 10
163.7396397697305
 20
58.84984892105315
 10
161.9998654019599
 20
58.84984892105315
 97
        0
 92
        1
 93
        1
 72
     4
 94
        3
 73
     0
 74
     1
 95
       17
 96
       13
 40
0.0
 40
0.0
 40
0.0
 40
0.0
 40
1.0
 40
1.0
 40
1.0
 40
2.0
 40
2.0
 40
2.0
 40
3.0
 40
3.0
 40
3.0
 40
4.0
 40
4.0
 40
4.0
 40
4.0
 10
161.9998654019599
 20
164.8499947771216
 10
160.2600910341892
 20
164.8499947771216
 10
158.8496680120797
 20
166.2604177992311
 10
158.8496680120797
 20
168.0001921670017
 10
158.8496680120797
 20
169.7397942798845
 10
160.2600910341892
 20
171.150217301994
 10
161.9998654019599
 20
171.150217301994
 10
163.7396397697305
 20
171.150217301994
 10
165.15006279184
 20
169.7397942798845
 10
165.15006279184
 20
168.0001921670017
 10
165.15006279184
 20
166.2604177992311
 10
163.7396397697305
 20
164.8499947771216
 10
161.9998654019599
 20
164.8499947771216
 97
        0
 92
        1
 93
        1
 72
     4
 94
        3
 73
     0
 74
     1
 95
       17
 96
       13
 40
0.0
 40
0.0
 40
0.0
 40
0.0
 40
1.0
 40
1.0
 40
1.0
 40
2.0
 40
2.0
 40
2.0
 40
3.0
 40
3.0
 40
3.0
 40
4.0
 40
4.0
 40
4.0
 40
4.0
 10
161.9998654019599
 20
180.850062294423
 10
160.2600910341892
 20
180.850062294423
 10
158.8496680120797
 20
182.2604853165326
 10
158.8496680120797
 20
184.0002596843032
 10
158.8496680120797
 20
185.739861797186
 10
160.2600910341892
 20
187.1502848192955
 10
161.9998654019599
 20
187.1502848192955
 10
163.7396397697305
 20
187.1502848192955
 10
165.15006279184
 20
185.739861797186
 10
165.15006279184
 20
184.0002596843032
 10
165.15006279184
 20
182.2604853165326
 10
163.7396397697305
 20
180.850062294423
 10
161.9998654019599
 20
180.850062294423
 97
        0
 92
        1
 93
        1
 72
     4
 94
        3
 73
     0
 74
     1
 95
       17
 96
       13
 40
0.0
 40
0.0
 40
0.0
 40
0.0
 40
1.0
 40
1.0
 40
1.0
 40
2.0
 40
2.0
 40
2.0
 40
3.0
 40
3.0
 40
3.0
 40
4.0
 40
4.0
 40
4.0
 40
4.0
 10
174.500058106948
 20
38.84967839698237
 10
173.3128774195545
 20
38.84967839698237
 10
172.35031710598
 20
39.81258322033266
 10
172.35031710598
 20
40.99976390772625
 10
172.35031710598
 20
42.18728910489565
 10
173.3128774195545
 20
43.14984941847015
 10
174.500058106948
 20
43.14984941847015
 10
175.6875833041175
 20
43.14984941847015
 10
176.650143617692
 20
42.18728910489565
 10
176.650143617692
 20
40.99976390772625
 10
176.650143617692
 20
39.81258322033266
 10
175.6875833041175
 20
38.84967839698237
 10
174.500058106948
 20
38.84967839698237
 97
        0
 92
        1
 93
        1
 72
     4
 94
        3
 73
     0
 74
     1
 95
       17
 96
       13
 40
0.0
 40
0.0
 40
0.0
 40
0.0
 40
1.0
 40
1.0
 40
1.0
 40
2.0
 40
2.0
 40
2.0
 40
3.0
 40
3.0
 40
3.0
 40
4.0
 40
4.0
 40
4.0
 40
4.0
 10
179.4999284830779
 20
47.34976809520124
 10
178.5890446358728
 20
47.34976809520124
 10
177.8504156765658
 20
48.08839705450823
 10
177.8504156765658
 20
48.99996992126489
 10
177.8504156765658
 20
49.91119827824576
 10
178.5890446358728
 20
50.64982723755274
 10
179.4999284830779
 20
50.64982723755274
 10
180.4115013498345
 20
50.64982723755274
 10
181.1501303091415
 20
49.91119827824576
 10
181.1501303091415
 20
48.99996992126489
 10
181.1501303091415
 20
48.08839705450823
 10
180.4115013498345
 20
47.34976809520124
 10
179.4999284830779
 20
47.34976809520124
 97
        0
 92
        1
 93
        1
 72
     4
 94
        3
 73
     0
 74
     1
 95
       17
 96
       13
 40
0.0
 40
0.0
 40
0.0
 40
0.0
 40
1.0
 40
1.0
 40
1.0
 40
2.0
 40
2.0
 40
2.0
 40
3.0
 40
3.0
 40
3.0
 40
4.0
 40
4.0
 40
4.0
 40
4.0
 10
179.4999284830779
 20
179.3500667306065
 10
178.5890446358728
 20
179.3500667306065
 10
177.8504156765658
 20
180.0886956899135
 10
177.8504156765658
 20
181.0002685566702
 10
177.8504156765658
 20
181.911496913651
 10
178.5890446358728
 20
182.650125872958
 10
179.4999284830779
 20
182.650125872958
 10
180.4115013498345
 20
182.650125872958
 10
181.1501303091415
 20
181.911496913651
 10
181.1501303091415
 20
181.0002685566702
 10
181.1501303091415
 20
180.0886956899135
 10
180.4115013498345
 20
179.3500667306065
 10
179.4999284830779
 20
179.3500667306065
 97
        0
 92
        1
 93
        1
 72
     4
 94
        3
 73
     0
 74
     1
 95
       17
 96
       13
 40
0.0
 40
0.0
 40
0.0
 40
0.0
 40
1.0
 40
1.0
 40
1.0
 40
2.0
 40
2.0
 40
2.0
 40
3.0
 40
3.0
 40
3.0
 40
4.0
 40
4.0
 40
4.0
 40
4.0
 10
189.4996692353374
 20
47.34976809520124
 10
188.5887853881324
 20
47.34976809520124
 10
187.8501564288254
 20
48.08839705450823
 10
187.8501564288254
 20
48.99996992126489
 10
187.8501564288254
 20
49.91119827824576
 10
188.5887853881324
 20
50.64982723755274
 10
189.4996692353374
 20
50.64982723755274
 10
190.4112421020941
 20
50.64982723755274
 10
191.1498710614011
 20
49.91119827824576
 10
191.1498710614011
 20
48.99996992126489
 10
191.1498710614011
 20
48.08839705450823
 10
190.4112421020941
 20
47.34976809520124
 10
189.4996692353374
 20
47.34976809520124
 97
        0
 92
        1
 93
        1
 72
     4
 94
        3
 73
     0
 74
     1
 95
       17
 96
       13
 40
0.0
 40
0.0
 40
0.0
 40
0.0
 40
1.0
 40
1.0
 40
1.0
 40
2.0
 40
2.0
 40
2.0
 40
3.0
 40
3.0
 40
3.0
 40
4.0
 40
4.0
 40
4.0
 40
4.0
 10
189.4996692353374
 20
179.3500667306065
 10
188.5887853881324
 20
179.3500667306065
 10
187.8501564288254
 20
180.0886956899135
 10
187.8501564288254
 20
181.0002685566702
 10
187.8501564288254
 20
181.911496913651
 10
188.5887853881324
 20
182.650125872958
 10
189.4996692353374
 20
182.650125872958
 10
190.4112421020941
 20
182.650125872958
 10
191.1498710614011
 20
181.911496913651
 10
191.1498710614011
 20
181.0002685566702
 10
191.1498710614011
 20
180.0886956899135
 10
190.4112421020941
 20
179.3500667306065
 10
189.4996692353374
 20
179.3500667306065
 97
        0
 92
        1
 93
        1
 72
     4
 94
        3
 73
     0
 74
     1
 95
       17
 96
       13
 40
0.0
 40
0.0
 40
0.0
 40
0.0
 40
1.0
 40
1.0
 40
1.0
 40
2.0
 40
2.0
 40
2.0
 40
3.0
 40
3.0
 40
3.0
 40
4.0
 40
4.0
 40
4.0
 40
4.0
 10
204.9998530679587
 20
37.35002734294164
 10
204.0886247109778
 20
37.35002734294164
 10
203.3499957516708
 20
38.08865630224863
 10
203.3499957516708
 20
39.00022916900529
 10
203.3499957516708
 20
39.91145752598616
 10
204.0886247109778
 20
40.65008648529314
 10
204.9998530679587
 20
40.65008648529314
 10
205.9110814249395
 20
40.65008648529314
 10
206.6500548940223
 20
39.91145752598616
 10
206.6500548940223
 20
39.00022916900529
 10
206.6500548940223
 20
38.08865630224863
 10
205.9110814249395
 20
37.35002734294164
 10
204.9998530679587
 20
37.35002734294164
 97
        0
 92
        1
 93
        1
 72
     4
 94
        3
 73
     0
 74
     1
 95
       17
 96
       13
 40
0.0
 40
0.0
 40
0.0
 40
0.0
 40
1.0
 40
1.0
 40
1.0
 40
2.0
 40
2.0
 40
2.0
 40
3.0
 40
3.0
 40
3.0
 40
4.0
 40
4.0
 40
4.0
 40
4.0
 10
204.9998530679587
 20
54.34986222960359
 10
204.0886247109778
 20
54.34986222960359
 10
203.3499957516708
 20
55.08849118891058
 10
203.3499957516708
 20
56.00006405566725
 10
203.3499957516708
 20
56.91129241264812
 10
204.0886247109778
 20
57.6499213719551
 10
204.9998530679587
 20
57.6499213719551
 10
205.9110814249395
 20
57.6499213719551
 10
206.6500548940223
 20
56.91129241264812
 10
206.6500548940223
 20
56.00006405566725
 10
206.6500548940223
 20
55.08849118891058
 10
205.9110814249395
 20
54.34986222960359
 10
204.9998530679587
 20
54.34986222960359
 97
        0
 92
        1
 93
        1
 72
     4
 94
        3
 73
     0
 74
     1
 95
       17
 96
       13
 40
0.0
 40
0.0
 40
0.0
 40
0.0
 40
1.0
 40
1.0
 40
1.0
 40
2.0
 40
2.0
 40
2.0
 40
3.0
 40
3.0
 40
3.0
 40
4.0
 40
4.0
 40
4.0
 40
4.0
 10
219.4999250214436
 20
8.95001946540867
 10
218.6441627383659
 20
8.95001946540867
 10
217.9499755401367
 20
9.643862153862155
 10
217.9499755401367
 20
10.49996894671563
 10
217.9499755401367
 20
11.35607573956911
 10
218.6441627383659
 20
12.0499184280226
 10
219.4999250214436
 20
12.0499184280226
 10
220.3560318142971
 20
12.0499184280226
 10
221.0502190125264
 20
11.35607573956911
 10
221.0502190125264
 20
10.49996894671563
 10
221.0502190125264
 20
9.643862153862155
 10
220.3560318142971
 20
8.95001946540867
 10
219.4999250214436
 20
8.95001946540867
 97
        0
 75
     2
 76
     1
 98
        0
  0
ENDSEC
  0
SECTION
  2
OBJECTS
  0
DICTIONARY
  5
C
330
0
100
AcDbDictionary
281
     1
  3
ACAD_GROUP
350
D
  3
ACAD_LAYOUT
350
1A
  3
ACAD_MLINESTYLE
350
17
  3
ACAD_PLOTSETTINGS
350
19
  3
ACAD_PLOTSTYLENAME
350
E
  3
ACAD_TABLESTYLE
350
67
  3
ACAD_VISUALSTYLE
350
2A
  0
DICTIONARY
  5
D
102
{ACAD_REACTORS
330
C
102
}
330
C
100
AcDbDictionary
281
     1
  0
DICTIONARY
  5
1A
102
{ACAD_REACTORS
330
C
102
}
330
C
100
AcDbDictionary
281
     1
  3
Layout1
350
1E
  3
Layout2
350
26
  3
Model
350
22
  0
DICTIONARY
  5
17
102
{ACAD_REACTORS
330
C
102
}
330
C
100
AcDbDictionary
281
     1
  3
Standard
350
18
  0
DICTIONARY
  5
19
102
{ACAD_REACTORS
330
C
102
}
330
C
100
AcDbDictionary
281
     1
  0
ACDBDICTIONARYWDFLT
  5
E
102
{ACAD_REACTORS
330
C
102
}
330
C
100
AcDbDictionary
281
     1
  3
Normal
350
F
100
AcDbDictionaryWithDefault
340
F
  0
DICTIONARY
  5
67
102
{ACAD_REACTORS
330
C
102
}
330
C
100
AcDbDictionary
281
     1
  0
DICTIONARY
  5
2A
102
{ACAD_REACTORS
330
C
102
}
330
C
100
AcDbDictionary
281
     1
  3
2dWireframe
350
2F
  3
3D Hidden
350
31
  3
3dWireframe
350
30
  3
Basic
350
32
  3
Brighten
350
36
  3
ColorChange
350
3A
  3
Conceptual
350
34
  3
Dim
350
35
  3
Facepattern
350
39
  3
Flat
350
2B
  3
FlatWithEdges
350
2C
  3
Gouraud
350
2D
  3
GouraudWithEdges
350
2E
  3
Linepattern
350
38
  3
Realistic
350
33
  3
Thicken
350
37
  0
LAYOUT
  5
1E
102
{ACAD_REACTORS
330
1A
102
}
330
1A
100
AcDbPlotSettings
  1

  2
none_device
  4

  6

 40
0.0
 41
0.0
 42
0.0
 43
0.0
 44
0.0
 45
0.0
 46
0.0
 47
0.0
 48
0.0
 49
0.0
140
0.0
141
0.0
142
1.0
143
1.0
 70
   688
 72
     0
 73
     0
 74
     5
  7

 75
    16
 76
     0
 77
     2
 78
   300
147
1.0
148
0.0
149
0.0
100
AcDbLayout
  1
Layout1
 70
     1
 71
     1
 10
0.0
 20
0.0
 11
12.0
 21
9.0
 12
0.0
 22
0.0
 32
0.0
 14
1.000000000000000E+20
 24
1.000000000000000E+20
 34
1.000000000000000E+20
 15
-1.000000000000000E+20
 25
-1.000000000000000E+20
 35
-1.000000000000000E+20
146
0.0
 13
0.0
 23
0.0
 33
0.0
 16
1.0
 26
0.0
 36
0.0
 17
0.0
 27
1.0
 37
0.0
 76
     0
330
1B
  0
LAYOUT
  5
26
102
{ACAD_REACTORS
330
1A
102
}
330
1A
100
AcDbPlotSettings
  1

  2
none_device
  4

  6

 40
0.0
 41
0.0
 42
0.0
 43
0.0
 44
0.0
 45
0.0
 46
0.0
 47
0.0
 48
0.0
 49
0.0
140
0.0
141
0.0
142
1.0
143
1.0
 70
   688
 72
     0
 73
     0
 74
     5
  7

 75
    16
 76
     0
 77
     2
 78
   300
147
1.0
148
0.0
149
0.0
100
AcDbLayout
  1
Layout2
 70
     1
 71
     2
 10
0.0
 20
0.0
 11
0.0
 21
0.0
 12
0.0
 22
0.0
 32
0.0
 14
0.0
 24
0.0
 34
0.0
 15
0.0
 25
0.0
 35
0.0
146
0.0
 13
0.0
 23
0.0
 33
0.0
 16
1.0
 26
0.0
 36
0.0
 17
0.0
 27
1.0
 37
0.0
 76
     0
330
23
  0
LAYOUT
  5
22
102
{ACAD_REACTORS
330
1A
102
}
330
1A
100
AcDbPlotSettings
  1

  2
none_device
  4

  6

 40
0.0
 41
0.0
 42
0.0
 43
0.0
 44
0.0
 45
0.0
 46
0.0
 47
0.0
 48
0.0
 49
0.0
140
0.0
141
0.0
142
1.0
143
1.0
 70
  1712
 72
     0
 73
     0
 74
     0
  7

 75
     0
 76
     0
 77
     2
 78
   300
147
1.0
148
0.0
149
0.0
100
AcDbLayout
  1
Model
 70
     1
 71
     0
 10
0.0
 20
0.0
 11
12.0
 21
9.0
 12
0.0
 22
0.0
 32
0.0
 14
1.000000000000000E+20
 24
1.000000000000000E+20
 34
1.000000000000000E+20
 15
-1.000000000000000E+20
 25
-1.000000000000000E+20
 35
-1.000000000000000E+20
146
0.0
 13
0.0
 23
0.0
 33
0.0
 16
1.0
 26
0.0
 36
0.0
 17
0.0
 27
1.0
 37
0.0
 76
     0
330
1F
331
29
  0
MLINESTYLE
  5
18
102
{ACAD_REACTORS
330
17
102
}
330
17
100
AcDbMlineStyle
  2
Standard
 70
     0
  3

 62
   256
 51
90.0
 52
90.0
 71
     2
 49
0.5
 62
   256
  6
BYLAYER
 49
-0.5
 62
   256
  6
BYLAYER
  0
ACDBPLACEHOLDER
  5
F
102
{ACAD_REACTORS
330
E
102
}
330
E
  0
VISUALSTYLE
  5
2F
102
{ACAD_REACTORS
330
2A
102
}
330
2A
100
AcDbVisualStyle
  2
2dWireframe
 70
     4
 71
     0
 72
     2
 73
     0
 90
        0
 40
-0.6
 41
-30.0
 62
     5
 63
     7
421
 16777215
 74
     1
 91
        4
 64
     7
 65
   257
 75
     1
175
     1
 42
1.0
 92
        0
 66
   257
 43
1.0
 76
     1
 77
     6
 78
     2
 67
     7
 79
     5
170
     0
171
     0
290
     0
174
     0
 93
        1
 44
0.0
173
     0
291
     0
 45
0.0
1001
ACAD
1000
AcDbSavedByObjectVersion
1070
     0
  0
VISUALSTYLE
  5
31
102
{ACAD_REACTORS
330
2A
102
}
330
2A
100
AcDbVisualStyle
  2
3D Hidden
 70
     6
 71
     1
 72
     2
 73
     2
 90
        0
 40
-0.6
 41
-30.0
 62
     5
 63
     7
421
 16777215
 74
     2
 91
        2
 64
     7
 65
   257
 75
     2
175
     1
 42
40.0
 92
        0
 66
   257
 43
1.0
 76
     1
 77
     6
 78
     2
 67
     7
 79
     3
170
     0
171
     0
290
     0
174
     0
 93
        1
 44
0.0
173
     0
291
     0
 45
0.0
1001
ACAD
1000
AcDbSavedByObjectVersion
1070
     0
  0
VISUALSTYLE
  5
30
102
{ACAD_REACTORS
330
2A
102
}
330
2A
100
AcDbVisualStyle
  2
3dWireframe
 70
     5
 71
     0
 72
     2
 73
     0
 90
        0
 40
-0.6
 41
-30.0
 62
     5
 63
     7
421
 16777215
 74
     1
 91
        4
 64
     7
 65
   257
 75
     1
175
     1
 42
1.0
 92
        0
 66
   257
 43
1.0
 76
     1
 77
     6
 78
     2
 67
     7
 79
     5
170
     0
171
     0
290
     0
174
     0
 93
        1
 44
0.0
173
     0
291
     0
 45
0.0
1001
ACAD
1000
AcDbSavedByObjectVersion
1070
     0
  0
VISUALSTYLE
  5
32
102
{ACAD_REACTORS
330
2A
102
}
330
2A
100
AcDbVisualStyle
  2
Basic
 70
     7
 71
     1
 72
     0
 73
     1
 90
        0
 40
-0.6
 41
-30.0
 62
     5
 63
     7
421
 16777215
 74
     0
 91
        4
 64
     7
 65
   257
 75
     1
175
     1
 42
1.0
 92
        8
 66
     7
 43
1.0
 76
     1
 77
     6
 78
     2
 67
     7
 79
     5
170
     0
171
     0
290
     0
174
     0
 93
        1
 44
0.0
173
     0
291
     1
 45
0.0
1001
ACAD
1000
AcDbSavedByObjectVersion
1070
     0
  0
VISUALSTYLE
  5
36
102
{ACAD_REACTORS
330
2A
102
}
330
2A
100
AcDbVisualStyle
  2
Brighten
 70
    12
 71
     2
 72
     2
 73
     0
 90
        0
 40
-0.6
 41
-30.0
 62
     5
 63
     7
421
 16777215
 74
     1
 91
        4
 64
     7
 65
   257
 75
     1
175
     1
 42
1.0
 92
        8
 66
     7
 43
1.0
 76
     1
 77
     6
 78
     2
 67
     7
 79
     5
170
     0
171
     0
290
     0
174
     0
 93
        1
 44
50.0
173
     0
291
     1
 45
0.0
1001
ACAD
1000
AcDbSavedByObjectVersion
1070
     0
  0
VISUALSTYLE
  5
3A
102
{ACAD_REACTORS
330
2A
102
}
330
2A
100
AcDbVisualStyle
  2
ColorChange
 70
    16
 71
     2
 72
     2
 73
     3
 90
        0
 40
-0.6
 41
-30.0
 62
     5
 63
     8
421
  8421504
 74
     1
 91
        4
 64
     7
 65
   257
 75
     1
175
     1
 42
1.0
 92
        8
 66
     8
424
  8421504
 43
1.0
 76
     1
 77
     6
 78
     2
 67
     7
 79
     5
170
     0
171
     0
290
     0
174
     0
 93
        1
 44
0.0
173
     0
291
     1
 45
0.0
1001
ACAD
1000
AcDbSavedByObjectVersion
1070
     0
  0
VISUALSTYLE
  5
34
102
{ACAD_REACTORS
330
2A
102
}
330
2A
100
AcDbVisualStyle
  2
Conceptual
 70
     9
 71
     3
 72
     2
 73
     0
 90
        0
 40
-0.6
 41
-30.0
 62
     5
 63
     7
421
 16777215
 74
     2
 91
        2
 64
     7
 65
   257
 75
     1
175
     1
 42
40.0
 92
        8
 66
     7
 43
1.0
 76
     1
 77
     6
 78
     2
 67
     7
 79
     3
170
     0
171
     0
290
     0
174
     0
 93
        1
 44
0.0
173
     0
291
     0
 45
0.0
1001
ACAD
1000
AcDbSavedByObjectVersion
1070
     0
  0
VISUALSTYLE
  5
35
102
{ACAD_REACTORS
330
2A
102
}
330
2A
100
AcDbVisualStyle
  2
Dim
 70
    11
 71
     2
 72
     2
 73
     0
 90
        0
 40
-0.6
 41
-30.0
 62
     5
 63
     7
421
 16777215
 74
     1
 91
        4
 64
     7
 65
   257
 75
     1
175
     1
 42
1.0
 92
        8
 66
     7
 43
1.0
 76
     1
 77
     6
 78
     2
 67
     7
 79
     5
170
     0
171
     0
290
     0
174
     0
 93
        1
 44
-50.0
173
     0
291
     1
 45
0.0
1001
ACAD
1000
AcDbSavedByObjectVersion
1070
     0
  0
VISUALSTYLE
  5
39
102
{ACAD_REACTORS
330
2A
102
}
330
2A
100
AcDbVisualStyle
  2
Facepattern
 70
    15
 71
     2
 72
     2
 73
     0
 90
        0
 40
-0.6
 41
-30.0
 62
     5
 63
     7
421
 16777215
 74
     1
 91
        4
 64
     7
 65
   257
 75
     1
175
     1
 42
1.0
 92
        8
 66
     7
 43
1.0
 76
     1
 77
     6
 78
     2
 67
     7
 79
     5
170
     0
171
     0
290
     0
174
     0
 93
        1
 44
0.0
173
     0
291
     1
 45
0.0
1001
ACAD
1000
AcDbSavedByObjectVersion
1070
     0
  0
VISUALSTYLE
  5
2B
102
{ACAD_REACTORS
330
2A
102
}
330
2A
100
AcDbVisualStyle
  2
Flat
 70
     0
 71
     2
 72
     1
 73
     1
 90
        2
 40
-0.6
 41
30.0
 62
     5
 63
     7
421
 16777215
 74
     0
 91
        4
 64
     7
 65
   257
 75
     1
175
     1
 42
1.0
 92
        8
 66
     7
 43
1.0
 76
     1
 77
     6
 78
     2
 67
     7
 79
     5
170
     0
171
     0
290
     0
174
     0
 93
       13
 44
0.0
173
     0
291
     1
 45
0.0
1001
ACAD
1000
AcDbSavedByObjectVersion
1070
     0
  0
VISUALSTYLE
  5
2C
102
{ACAD_REACTORS
330
2A
102
}
330
2A
100
AcDbVisualStyle
  2
FlatWithEdges
 70
     1
 71
     2
 72
     1
 73
     1
 90
        2
 40
-0.6
 41
30.0
 62
     5
 63
     7
421
 16777215
 74
     1
 91
        4
 64
     7
 65
   257
 75
     1
175
     1
 42
1.0
 92
        0
 66
   257
 43
1.0
 76
     1
 77
     6
 78
     2
 67
     7
 79
     5
170
     0
171
     0
290
     0
174
     0
 93
       13
 44
0.0
173
     0
291
     1
 45
0.0
1001
ACAD
1000
AcDbSavedByObjectVersion
1070
     0
  0
VISUALSTYLE
  5
2D
102
{ACAD_REACTORS
330
2A
102
}
330
2A
100
AcDbVisualStyle
  2
Gouraud
 70
     2
 71
     2
 72
     2
 73
     1
 90
        2
 40
-0.6
 41
30.0
 62
     5
 63
     7
421
 16777215
 74
     0
 91
        4
 64
     7
 65
   257
 75
     1
175
     1
 42
1.0
 92
        0
 66
     7
 43
1.0
 76
     1
 77
     6
 78
     2
 67
     7
 79
     5
170
     0
171
     0
290
     0
174
     0
 93
       13
 44
0.0
173
     0
291
     1
 45
0.0
1001
ACAD
1000
AcDbSavedByObjectVersion
1070
     0
  0
VISUALSTYLE
  5
2E
102
{ACAD_REACTORS
330
2A
102
}
330
2A
100
AcDbVisualStyle
  2
GouraudWithEdges
 70
     3
 71
     2
 72
     2
 73
     1
 90
        2
 40
-0.6
 41
30.0
 62
     5
 63
     7
421
 16777215
 74
     1
 91
        4
 64
     7
 65
   257
 75
     1
175
     1
 42
1.0
 92
        0
 66
   257
 43
1.0
 76
     1
 77
     6
 78
     2
 67
     7
 79
     5
170
     0
171
     0
290
     0
174
     0
 93
       13
 44
0.0
173
     0
291
     1
 45
0.0
1001
ACAD
1000
AcDbSavedByObjectVersion
1070
     0
  0
VISUALSTYLE
  5
38
102
{ACAD_REACTORS
330
2A
102
}
330
2A
100
AcDbVisualStyle
  2
Linepattern
 70
    14
 71
     2
 72
     2
 73
     0
 90
        0
 40
-0.6
 41
-30.0
 62
     5
 63
     7
421
 16777215
 74
     1
 91
        4
 64
     7
 65
   257
 75
     7
175
     7
 42
1.0
 92
        8
 66
     7
 43
1.0
 76
     1
 77
     6
 78
     2
 67
     7
 79
     5
170
     0
171
     0
290
     0
174
     0
 93
        1
 44
0.0
173
     0
291
     1
 45
0.0
1001
ACAD
1000
AcDbSavedByObjectVersion
1070
     0
  0
VISUALSTYLE
  5
33
102
{ACAD_REACTORS
330
2A
102
}
330
2A
100
AcDbVisualStyle
  2
Realistic
 70
     8
 71
     2
 72
     2
 73
     0
 90
        0
 40
-0.6
 41
-30.0
 62
     5
 63
     7
421
 16777215
 74
     1
 91
        0
 64
     7
 65
   257
 75
     1
175
     1
 42
1.0
 92
        8
 66
     8
424
  7895160
 43
1.0
 76
     1
 77
     6
 78
     2
 67
     7
 79
     5
170
     0
171
     0
290
     0
174
     0
 93
       13
 44
0.0
173
     0
291
     0
 45
0.0
1001
ACAD
1000
AcDbSavedByObjectVersion
1070
     0
  0
VISUALSTYLE
  5
37
102
{ACAD_REACTORS
330
2A
102
}
330
2A
100
AcDbVisualStyle
  2
Thicken
 70
    13
 71
     2
 72
     2
 73
     0
 90
        0
 40
-0.6
 41
-30.0
 62
     5
 63
     7
421
 16777215
 74
     1
 91
        4
 64
     7
 65
   257
 75
     1
175
     1
 42
1.0
 92
       12
 66
     7
 43
1.0
 76
     1
 77
     6
 78
     2
 67
     7
 79
     5
170
     0
171
     0
290
     0
174
     0
 93
        1
 44
0.0
173
     0
291
     1
 45
0.0
1001
ACAD
1000
AcDbSavedByObjectVersion
1070
     0
  0
ENDSEC
  0
EOF
