solid Untitled-56535070
facet normal 0.5000000000000049 0.8660254037844359 1.3877787807814595e-16
  outer loop
    vertex 5.077185703296882 4.3626933041053375 3.7012060083441155e-15
    vertex 6.090145713866255 3.9431115295858987 8.50000000000001
    vertex 6.090145713866257 3.9431115295858987 3.877453913503359e-15
  endloop
endfacet
facet normal 0.2588190451025207 0.9659258262890683 7.183671577107885e-17
  outer loop
    vertex 6.090145713866255 3.9431115295858987 8.50000000000001
    vertex 5.077185703296882 4.3626933041053375 3.7012060083441155e-15
    vertex 5.077185703296879 4.3626933041053375 8.50000000000001
  endloop
endfacet
facet normal 0.2588190451025207 0.9659258262890683 7.183671577107885e-17
  outer loop
    vertex 6.090145713866257 3.9431115295858987 3.877453913503359e-15
    vertex 7.1771857032968525 3.799999999999993 8.50000000000001
    vertex 7.177185703296855 3.799999999999993 4.229949723821846e-15
  endloop
endfacet
facet normal 0.0 1.0 0.0
  outer loop
    vertex 7.1771857032968525 3.799999999999993 8.50000000000001
    vertex 6.090145713866257 3.9431115295858987 3.877453913503359e-15
    vertex 6.090145713866255 3.9431115295858987 8.50000000000001
  endloop
endfacet
facet normal 0.0 1.0 0.0
  outer loop
    vertex 7.177185703296855 3.799999999999993 4.229949723821846e-15
    vertex 8.26422569272745 3.9431115295858987 8.50000000000001
    vertex 8.264225692727454 3.9431115295858987 4.5824455341403335e-15
  endloop
endfacet
facet normal -0.25881904510251325 0.9659258262890703 -7.183671577107678e-17
  outer loop
    vertex 8.26422569272745 3.9431115295858987 8.50000000000001
    vertex 7.177185703296855 3.799999999999993 4.229949723821846e-15
    vertex 7.1771857032968525 3.799999999999993 8.50000000000001
  endloop
endfacet
facet normal -0.25881904510251325 0.9659258262890703 -7.183671577107678e-17
  outer loop
    vertex 8.264225692727454 3.9431115295858987 4.5824455341403335e-15
    vertex 9.27718570329687 4.3626933041053375 8.50000000000001
    vertex 9.277185703296874 4.3626933041053375 4.758693439299577e-15
  endloop
endfacet
facet normal -0.5000000000000089 0.8660254037844335 -1.3877787807814706e-16
  outer loop
    vertex 9.27718570329687 4.3626933041053375 8.50000000000001
    vertex 8.264225692727454 3.9431115295858987 4.5824455341403335e-15
    vertex 8.26422569272745 3.9431115295858987 8.50000000000001
  endloop
endfacet
facet normal -0.5000000000000089 0.8660254037844335 -1.3877787807814706e-16
  outer loop
    vertex 9.277185703296874 4.3626933041053375 4.758693439299577e-15
    vertex 10.147034184280342 5.0301515190164965 8.500000000000012
    vertex 10.147034184280344 5.0301515190164965 4.93494134445882e-15
  endloop
endfacet
facet normal -0.7071067811865565 0.7071067811865387 -1.962615573354744e-16
  outer loop
    vertex 10.147034184280342 5.0301515190164965 8.500000000000012
    vertex 9.277185703296874 4.3626933041053375 4.758693439299577e-15
    vertex 9.27718570329687 4.3626933041053375 8.50000000000001
  endloop
endfacet
facet normal -0.7071067811865565 0.7071067811865387 -1.962615573354744e-16
  outer loop
    vertex 10.147034184280342 5.0301515190164965 8.500000000000012
    vertex 10.814492399191503 5.900000000000012 5.287437154777308e-15
    vertex 10.147034184280344 5.0301515190164965 4.93494134445882e-15
  endloop
endfacet
facet normal -0.8660254037844359 0.5000000000000049 -2.4037033579794477e-16
  outer loop
    vertex 10.814492399191503 5.900000000000012 5.287437154777308e-15
    vertex 10.147034184280342 5.0301515190164965 8.500000000000012
    vertex 10.8144923991915 5.900000000000012 8.500000000000012
  endloop
endfacet
facet normal -0.8660254037844359 0.5000000000000049 -2.4037033579794477e-16
  outer loop
    vertex 10.8144923991915 5.900000000000012 8.500000000000012
    vertex 11.234074173710942 6.912960010569387 5.287437154777308e-15
    vertex 10.814492399191503 5.900000000000012 5.287437154777308e-15
  endloop
endfacet
facet normal -0.9659258262890683 0.2588190451025207 -2.680982731065508e-16
  outer loop
    vertex 11.234074173710942 6.912960010569387 5.287437154777308e-15
    vertex 10.8144923991915 5.900000000000012 8.500000000000012
    vertex 11.234074173710939 6.912960010569387 8.500000000000012
  endloop
endfacet
facet normal -0.9659258262890683 0.2588190451025207 -2.680982731065508e-16
  outer loop
    vertex 11.234074173710939 6.912960010569387 8.500000000000012
    vertex 11.377185703296847 7.999999999999985 5.287437154777308e-15
    vertex 11.234074173710942 6.912960010569387 5.287437154777308e-15
  endloop
endfacet
facet normal -1.0 0.0 -2.775557561562892e-16
  outer loop
    vertex 11.377185703296847 7.999999999999985 5.287437154777308e-15
    vertex 11.234074173710939 6.912960010569387 8.500000000000012
    vertex 11.377185703296846 7.999999999999985 8.500000000000012
  endloop
endfacet
facet normal -1.0 0.0 -2.775557561562892e-16
  outer loop
    vertex 11.377185703296846 7.999999999999985 8.500000000000012
    vertex 11.234074173710942 9.087039989430583 5.287437154777308e-15
    vertex 11.377185703296847 7.999999999999985 5.287437154777308e-15
  endloop
endfacet
facet normal -0.9659258262890703 -0.25881904510251325 -2.6809827310655133e-16
  outer loop
    vertex 11.234074173710942 9.087039989430583 5.287437154777308e-15
    vertex 11.377185703296846 7.999999999999985 8.500000000000012
    vertex 11.234074173710939 9.087039989430583 8.500000000000012
  endloop
endfacet
facet normal -0.9659258262890703 -0.25881904510251325 -2.6809827310655133e-16
  outer loop
    vertex 11.234074173710939 9.087039989430583 8.500000000000012
    vertex 10.814492399191503 10.100000000000003 5.287437154777308e-15
    vertex 11.234074173710942 9.087039989430583 5.287437154777308e-15
  endloop
endfacet
facet normal -0.8660254037844335 -0.5000000000000089 -2.403703357979441e-16
  outer loop
    vertex 10.814492399191503 10.100000000000003 5.287437154777308e-15
    vertex 11.234074173710939 9.087039989430583 8.500000000000012
    vertex 10.8144923991915 10.100000000000003 8.500000000000012
  endloop
endfacet
facet normal -0.8660254037844335 -0.5000000000000089 -2.403703357979441e-16
  outer loop
    vertex 10.8144923991915 10.100000000000003 8.500000000000012
    vertex 10.147034184280344 10.969848480983474 4.93494134445882e-15
    vertex 10.814492399191503 10.100000000000003 5.287437154777308e-15
  endloop
endfacet
facet normal -0.7071067811865387 -0.7071067811865565 -1.9626155733546947e-16
  outer loop
    vertex 10.147034184280344 10.969848480983474 4.93494134445882e-15
    vertex 10.8144923991915 10.100000000000003 8.500000000000012
    vertex 10.147034184280342 10.969848480983474 8.500000000000012
  endloop
endfacet
facet normal -0.5000000000000049 -0.8660254037844359 -1.3877787807814595e-16
  outer loop
    vertex 9.277185703296826 11.637306695894633 8.50000000000001
    vertex 10.147034184280344 10.969848480983474 4.93494134445882e-15
    vertex 10.147034184280342 10.969848480983474 8.500000000000012
  endloop
endfacet
facet normal -0.7071067811865387 -0.7071067811865565 -1.9626155733546947e-16
  outer loop
    vertex 10.147034184280344 10.969848480983474 4.93494134445882e-15
    vertex 9.277185703296826 11.637306695894633 8.50000000000001
    vertex 9.277185703296828 11.637306695894633 4.758693439299577e-15
  endloop
endfacet
facet normal -0.2588190451025207 -0.9659258262890683 -7.183671577107885e-17
  outer loop
    vertex 8.26422569272745 12.056888470414073 8.50000000000001
    vertex 9.277185703296828 11.637306695894633 4.758693439299577e-15
    vertex 9.277185703296826 11.637306695894633 8.50000000000001
  endloop
endfacet
facet normal -0.5000000000000049 -0.8660254037844359 -1.3877787807814595e-16
  outer loop
    vertex 9.277185703296828 11.637306695894633 4.758693439299577e-15
    vertex 8.26422569272745 12.056888470414073 8.50000000000001
    vertex 8.264225692727454 12.056888470414073 4.5824455341403335e-15
  endloop
endfacet
facet normal -0.0 -1.0 0.0
  outer loop
    vertex 7.1771857032968525 12.199999999999978 8.50000000000001
    vertex 8.264225692727454 12.056888470414073 4.5824455341403335e-15
    vertex 8.26422569272745 12.056888470414073 8.50000000000001
  endloop
endfacet
facet normal -0.2588190451025207 -0.9659258262890683 -7.183671577107885e-17
  outer loop
    vertex 8.264225692727454 12.056888470414073 4.5824455341403335e-15
    vertex 7.1771857032968525 12.199999999999978 8.50000000000001
    vertex 7.177185703296855 12.199999999999978 4.229949723821846e-15
  endloop
endfacet
facet normal 0.25881904510251325 -0.9659258262890703 7.183671577107678e-17
  outer loop
    vertex 6.090145713866255 12.056888470414073 8.50000000000001
    vertex 7.177185703296855 12.199999999999978 4.229949723821846e-15
    vertex 7.1771857032968525 12.199999999999978 8.50000000000001
  endloop
endfacet
facet normal -0.0 -1.0 0.0
  outer loop
    vertex 7.177185703296855 12.199999999999978 4.229949723821846e-15
    vertex 6.090145713866255 12.056888470414073 8.50000000000001
    vertex 6.090145713866257 12.056888470414073 3.877453913503359e-15
  endloop
endfacet
facet normal 0.5000000000000089 -0.8660254037844335 1.3877787807814706e-16
  outer loop
    vertex 5.077185703296834 11.637306695894633 8.50000000000001
    vertex 6.090145713866257 12.056888470414073 3.877453913503359e-15
    vertex 6.090145713866255 12.056888470414073 8.50000000000001
  endloop
endfacet
facet normal 0.25881904510251325 -0.9659258262890703 7.183671577107678e-17
  outer loop
    vertex 6.090145713866257 12.056888470414073 3.877453913503359e-15
    vertex 5.077185703296834 11.637306695894633 8.50000000000001
    vertex 5.077185703296837 11.637306695894633 3.7012060083441155e-15
  endloop
endfacet
facet normal 0.7071067811865565 -0.7071067811865387 1.962615573354744e-16
  outer loop
    vertex 4.207337222313364 10.969848480983474 8.50000000000001
    vertex 5.077185703296837 11.637306695894633 3.7012060083441155e-15
    vertex 5.077185703296834 11.637306695894633 8.50000000000001
  endloop
endfacet
facet normal 0.5000000000000089 -0.8660254037844335 1.3877787807814706e-16
  outer loop
    vertex 5.077185703296837 11.637306695894633 3.7012060083441155e-15
    vertex 4.207337222313364 10.969848480983474 8.50000000000001
    vertex 4.207337222313367 10.969848480983474 3.348710198025628e-15
  endloop
endfacet
facet normal 0.7071067811865565 -0.7071067811865387 1.962615573354744e-16
  outer loop
    vertex 4.207337222313364 10.969848480983474 8.50000000000001
    vertex 3.5398790074022077 10.099999999999959 3.1724622928663847e-15
    vertex 4.207337222313367 10.969848480983474 3.348710198025628e-15
  endloop
endfacet
facet normal 0.8660254037844359 -0.5000000000000049 2.4037033579794477e-16
  outer loop
    vertex 3.5398790074022077 10.099999999999959 3.1724622928663847e-15
    vertex 4.207337222313364 10.969848480983474 8.50000000000001
    vertex 3.5398790074022046 10.099999999999959 8.50000000000001
  endloop
endfacet
facet normal 0.8660254037844359 -0.5000000000000049 2.4037033579794477e-16
  outer loop
    vertex 3.5398790074022046 10.099999999999959 8.50000000000001
    vertex 3.1202972328827685 9.087039989430583 2.996214387707141e-15
    vertex 3.5398790074022077 10.099999999999959 3.1724622928663847e-15
  endloop
endfacet
facet normal 0.9659258262890683 -0.2588190451025207 2.680982731065508e-16
  outer loop
    vertex 3.1202972328827685 9.087039989430583 2.996214387707141e-15
    vertex 3.5398790074022046 10.099999999999959 8.50000000000001
    vertex 3.120297232882766 9.087039989430583 8.50000000000001
  endloop
endfacet
facet normal 0.9659258262890683 -0.2588190451025207 2.680982731065508e-16
  outer loop
    vertex 3.120297232882766 9.087039989430583 8.50000000000001
    vertex 2.977185703296863 7.999999999999985 2.996214387707141e-15
    vertex 3.1202972328827685 9.087039989430583 2.996214387707141e-15
  endloop
endfacet
facet normal 1.0 0.0 2.775557561562892e-16
  outer loop
    vertex 2.977185703296863 7.999999999999985 2.996214387707141e-15
    vertex 3.120297232882766 9.087039989430583 8.50000000000001
    vertex 2.9771857032968603 7.999999999999985 8.50000000000001
  endloop
endfacet
facet normal 1.0 0.0 2.775557561562892e-16
  outer loop
    vertex 2.9771857032968603 7.999999999999985 8.50000000000001
    vertex 3.1202972328827685 6.912960010569387 2.996214387707141e-15
    vertex 2.977185703296863 7.999999999999985 2.996214387707141e-15
  endloop
endfacet
facet normal 0.9659258262890703 0.25881904510251325 2.6809827310655133e-16
  outer loop
    vertex 3.1202972328827685 6.912960010569387 2.996214387707141e-15
    vertex 2.9771857032968603 7.999999999999985 8.50000000000001
    vertex 3.120297232882766 6.912960010569387 8.50000000000001
  endloop
endfacet
facet normal 0.9659258262890703 0.25881904510251325 2.6809827310655133e-16
  outer loop
    vertex 3.120297232882766 6.912960010569387 8.50000000000001
    vertex 3.5398790074022077 5.899999999999967 3.1724622928663847e-15
    vertex 3.1202972328827685 6.912960010569387 2.996214387707141e-15
  endloop
endfacet
facet normal 0.8660254037844335 0.5000000000000089 2.403703357979441e-16
  outer loop
    vertex 3.5398790074022077 5.899999999999967 3.1724622928663847e-15
    vertex 3.120297232882766 6.912960010569387 8.50000000000001
    vertex 3.5398790074022046 5.899999999999967 8.50000000000001
  endloop
endfacet
facet normal 0.8660254037844335 0.5000000000000089 2.403703357979441e-16
  outer loop
    vertex 3.5398790074022046 5.899999999999967 8.50000000000001
    vertex 4.207337222313367 5.0301515190164965 3.348710198025628e-15
    vertex 3.5398790074022077 5.899999999999967 3.1724622928663847e-15
  endloop
endfacet
facet normal 0.7071067811865387 0.7071067811865565 1.9626155733546947e-16
  outer loop
    vertex 4.207337222313367 5.0301515190164965 3.348710198025628e-15
    vertex 3.5398790074022046 5.899999999999967 8.50000000000001
    vertex 4.207337222313364 5.0301515190164965 8.50000000000001
  endloop
endfacet
facet normal 0.7071067811865387 0.7071067811865565 1.9626155733546947e-16
  outer loop
    vertex 4.207337222313367 5.0301515190164965 3.348710198025628e-15
    vertex 5.077185703296879 4.3626933041053375 8.50000000000001
    vertex 5.077185703296882 4.3626933041053375 3.7012060083441155e-15
  endloop
endfacet
facet normal 0.5000000000000049 0.8660254037844359 1.3877787807814595e-16
  outer loop
    vertex 5.077185703296879 4.3626933041053375 8.50000000000001
    vertex 4.207337222313367 5.0301515190164965 3.348710198025628e-15
    vertex 4.207337222313364 5.0301515190164965 8.50000000000001
  endloop
endfacet
facet normal 0.2588190451025167 0.9659258262890694 7.183671577107774e-17
  outer loop
    vertex 8.523044737829942 13.02281429670311 4.5824455341403335e-15
    vertex 9.777185703296848 12.503332099679067 8.50000000000001
    vertex 9.777185703296851 12.503332099679067 4.93494134445882e-15
  endloop
endfacet
facet normal 0.49999999999999223 0.8660254037844433 1.3877787807814242e-16
  outer loop
    vertex 9.777185703296848 12.503332099679067 8.50000000000001
    vertex 8.523044737829942 13.02281429670311 4.5824455341403335e-15
    vertex 8.52304473782994 13.02281429670311 8.50000000000001
  endloop
endfacet
facet normal 0.49999999999999223 0.8660254037844433 1.3877787807814242e-16
  outer loop
    vertex 9.777185703296851 12.503332099679067 4.93494134445882e-15
    vertex 10.854140965466891 11.676955262170024 8.500000000000012
    vertex 10.854140965466893 11.676955262170024 5.287437154777308e-15
  endloop
endfacet
facet normal 0.7071067811865476 0.7071067811865476 1.9626155733547194e-16
  outer loop
    vertex 10.854140965466891 11.676955262170024 8.500000000000012
    vertex 9.777185703296851 12.503332099679067 4.93494134445882e-15
    vertex 9.777185703296848 12.503332099679067 8.50000000000001
  endloop
endfacet
facet normal 0.7071067811865476 0.7071067811865476 1.9626155733547194e-16
  outer loop
    vertex 10.854140965466891 11.676955262170024 8.500000000000012
    vertex 11.680517802975936 10.59999999999998 5.4636850599365515e-15
    vertex 10.854140965466893 11.676955262170024 5.287437154777308e-15
  endloop
endfacet
facet normal 0.8660254037844433 0.49999999999999223 2.403703357979468e-16
  outer loop
    vertex 11.680517802975936 10.59999999999998 5.4636850599365515e-15
    vertex 10.854140965466891 11.676955262170024 8.500000000000012
    vertex 11.680517802975935 10.59999999999998 8.500000000000012
  endloop
endfacet
facet normal 0.8660254037844433 0.49999999999999223 2.403703357979468e-16
  outer loop
    vertex 11.680517802975935 10.59999999999998 8.500000000000012
    vertex 12.19999999999998 9.345859034533072 5.639932965095795e-15
    vertex 11.680517802975936 10.59999999999998 5.4636850599365515e-15
  endloop
endfacet
facet normal 0.9659258262890694 0.2588190451025167 2.680982731065511e-16
  outer loop
    vertex 12.19999999999998 9.345859034533072 5.639932965095795e-15
    vertex 11.680517802975935 10.59999999999998 8.500000000000012
    vertex 12.199999999999978 9.345859034533072 8.500000000000012
  endloop
endfacet
facet normal 0.9659258262890694 0.2588190451025167 2.680982731065511e-16
  outer loop
    vertex 12.199999999999978 9.345859034533072 8.500000000000012
    vertex 12.377185703296846 7.999999999999985 5.639932965095795e-15
    vertex 12.19999999999998 9.345859034533072 5.639932965095795e-15
  endloop
endfacet
facet normal 1.0 0.0 2.775557561562892e-16
  outer loop
    vertex 12.377185703296846 7.999999999999985 5.639932965095795e-15
    vertex 12.199999999999978 9.345859034533072 8.500000000000012
    vertex 12.377185703296844 7.999999999999985 8.500000000000012
  endloop
endfacet
facet normal 1.0 0.0 2.775557561562892e-16
  outer loop
    vertex 12.377185703296844 7.999999999999985 8.500000000000012
    vertex 12.19999999999998 6.654140965466898 5.639932965095795e-15
    vertex 12.377185703296846 7.999999999999985 5.639932965095795e-15
  endloop
endfacet
facet normal 0.9659258262890694 -0.2588190451025167 2.680982731065511e-16
  outer loop
    vertex 12.19999999999998 6.654140965466898 5.639932965095795e-15
    vertex 12.377185703296844 7.999999999999985 8.500000000000012
    vertex 12.199999999999978 6.654140965466898 8.500000000000012
  endloop
endfacet
facet normal 0.9659258262890694 -0.2588190451025167 2.680982731065511e-16
  outer loop
    vertex 12.199999999999978 6.654140965466898 8.500000000000012
    vertex 11.680517802975936 5.39999999999999 5.4636850599365515e-15
    vertex 12.19999999999998 6.654140965466898 5.639932965095795e-15
  endloop
endfacet
facet normal 0.8660254037844433 -0.49999999999999223 2.403703357979468e-16
  outer loop
    vertex 11.680517802975936 5.39999999999999 5.4636850599365515e-15
    vertex 12.199999999999978 6.654140965466898 8.500000000000012
    vertex 11.680517802975935 5.39999999999999 8.500000000000012
  endloop
endfacet
facet normal 0.8660254037844433 -0.49999999999999223 2.403703357979468e-16
  outer loop
    vertex 11.680517802975935 5.39999999999999 8.500000000000012
    vertex 10.854140965466893 4.323044737829947 5.287437154777308e-15
    vertex 11.680517802975936 5.39999999999999 5.4636850599365515e-15
  endloop
endfacet
facet normal 0.7071067811865476 -0.7071067811865476 1.9626155733547194e-16
  outer loop
    vertex 10.854140965466893 4.323044737829947 5.287437154777308e-15
    vertex 11.680517802975935 5.39999999999999 8.500000000000012
    vertex 10.854140965466891 4.323044737829947 8.500000000000012
  endloop
endfacet
facet normal 0.49999999999999223 -0.8660254037844433 1.3877787807814242e-16
  outer loop
    vertex 9.777185703296848 3.496667900320904 8.50000000000001
    vertex 10.854140965466893 4.323044737829947 5.287437154777308e-15
    vertex 10.854140965466891 4.323044737829947 8.500000000000012
  endloop
endfacet
facet normal 0.7071067811865476 -0.7071067811865476 1.9626155733547194e-16
  outer loop
    vertex 10.854140965466893 4.323044737829947 5.287437154777308e-15
    vertex 9.777185703296848 3.496667900320904 8.50000000000001
    vertex 9.777185703296851 3.496667900320904 4.93494134445882e-15
  endloop
endfacet
facet normal 0.2588190451025167 -0.9659258262890694 7.183671577107774e-17
  outer loop
    vertex 8.52304473782994 2.9771857032968603 8.50000000000001
    vertex 9.777185703296851 3.496667900320904 4.93494134445882e-15
    vertex 9.777185703296848 3.496667900320904 8.50000000000001
  endloop
endfacet
facet normal 0.49999999999999223 -0.8660254037844433 1.3877787807814242e-16
  outer loop
    vertex 9.777185703296851 3.496667900320904 4.93494134445882e-15
    vertex 8.52304473782994 2.9771857032968603 8.50000000000001
    vertex 8.523044737829942 2.9771857032968603 4.5824455341403335e-15
  endloop
endfacet
facet normal -0.0 -1.0 0.0
  outer loop
    vertex 7.1771857032968525 2.799999999999995 8.50000000000001
    vertex 8.523044737829942 2.9771857032968603 4.5824455341403335e-15
    vertex 8.52304473782994 2.9771857032968603 8.50000000000001
  endloop
endfacet
facet normal 0.2588190451025167 -0.9659258262890694 7.183671577107774e-17
  outer loop
    vertex 8.523044737829942 2.9771857032968603 4.5824455341403335e-15
    vertex 7.1771857032968525 2.799999999999995 8.50000000000001
    vertex 7.177185703296855 2.799999999999995 4.229949723821846e-15
  endloop
endfacet
facet normal -0.2588190451025167 -0.9659258262890694 -7.183671577107774e-17
  outer loop
    vertex 5.831326668763766 2.9771857032968603 8.50000000000001
    vertex 7.177185703296855 2.799999999999995 4.229949723821846e-15
    vertex 7.1771857032968525 2.799999999999995 8.50000000000001
  endloop
endfacet
facet normal -0.0 -1.0 0.0
  outer loop
    vertex 7.177185703296855 2.799999999999995 4.229949723821846e-15
    vertex 5.831326668763766 2.9771857032968603 8.50000000000001
    vertex 5.831326668763769 2.9771857032968603 3.877453913503359e-15
  endloop
endfacet
facet normal -0.49999999999999223 -0.8660254037844433 -1.3877787807814242e-16
  outer loop
    vertex 4.577185703296857 3.496667900320904 8.50000000000001
    vertex 5.831326668763769 2.9771857032968603 3.877453913503359e-15
    vertex 5.831326668763766 2.9771857032968603 8.50000000000001
  endloop
endfacet
facet normal -0.2588190451025167 -0.9659258262890694 -7.183671577107774e-17
  outer loop
    vertex 5.831326668763769 2.9771857032968603 3.877453913503359e-15
    vertex 4.577185703296857 3.496667900320904 8.50000000000001
    vertex 4.57718570329686 3.496667900320904 3.524958103184872e-15
  endloop
endfacet
facet normal -0.7071067811865476 -0.7071067811865476 -1.9626155733547194e-16
  outer loop
    vertex 3.5002304411268144 4.323044737829947 8.50000000000001
    vertex 4.57718570329686 3.496667900320904 3.524958103184872e-15
    vertex 4.577185703296857 3.496667900320904 8.50000000000001
  endloop
endfacet
facet normal -0.49999999999999223 -0.8660254037844433 -1.3877787807814242e-16
  outer loop
    vertex 4.57718570329686 3.496667900320904 3.524958103184872e-15
    vertex 3.5002304411268144 4.323044737829947 8.50000000000001
    vertex 3.500230441126817 4.323044737829947 3.1724622928663847e-15
  endloop
endfacet
facet normal -0.7071067811865476 -0.7071067811865476 -1.9626155733547194e-16
  outer loop
    vertex 3.5002304411268144 4.323044737829947 8.50000000000001
    vertex 2.673853603617774 5.39999999999999 2.996214387707141e-15
    vertex 3.500230441126817 4.323044737829947 3.1724622928663847e-15
  endloop
endfacet
facet normal -0.8660254037844433 -0.49999999999999223 -2.403703357979468e-16
  outer loop
    vertex 2.673853603617774 5.39999999999999 2.996214387707141e-15
    vertex 3.5002304411268144 4.323044737829947 8.50000000000001
    vertex 2.673853603617771 5.39999999999999 8.50000000000001
  endloop
endfacet
facet normal -0.8660254037844433 -0.49999999999999223 -2.403703357979468e-16
  outer loop
    vertex 2.673853603617771 5.39999999999999 8.50000000000001
    vertex 2.1543714065937305 6.654140965466898 2.8199664825478975e-15
    vertex 2.673853603617774 5.39999999999999 2.996214387707141e-15
  endloop
endfacet
facet normal -0.9659258262890694 -0.2588190451025167 -2.680982731065511e-16
  outer loop
    vertex 2.1543714065937305 6.654140965466898 2.8199664825478975e-15
    vertex 2.673853603617771 5.39999999999999 8.50000000000001
    vertex 2.1543714065937274 6.654140965466898 8.50000000000001
  endloop
endfacet
facet normal -0.9659258262890694 -0.2588190451025167 -2.680982731065511e-16
  outer loop
    vertex 2.1543714065937274 6.654140965466898 8.50000000000001
    vertex 1.977185703296865 7.999999999999985 2.8199664825478975e-15
    vertex 2.1543714065937305 6.654140965466898 2.8199664825478975e-15
  endloop
endfacet
facet normal -1.0 0.0 -2.775557561562892e-16
  outer loop
    vertex 1.977185703296865 7.999999999999985 2.8199664825478975e-15
    vertex 2.1543714065937274 6.654140965466898 8.50000000000001
    vertex 1.977185703296862 7.999999999999985 8.50000000000001
  endloop
endfacet
facet normal -1.0 0.0 -2.775557561562892e-16
  outer loop
    vertex 1.977185703296862 7.999999999999985 8.50000000000001
    vertex 2.1543714065937305 9.345859034533072 2.8199664825478975e-15
    vertex 1.977185703296865 7.999999999999985 2.8199664825478975e-15
  endloop
endfacet
facet normal -0.9659258262890694 0.2588190451025167 -2.680982731065511e-16
  outer loop
    vertex 2.1543714065937305 9.345859034533072 2.8199664825478975e-15
    vertex 1.977185703296862 7.999999999999985 8.50000000000001
    vertex 2.1543714065937274 9.345859034533072 8.50000000000001
  endloop
endfacet
facet normal -0.9659258262890694 0.2588190451025167 -2.680982731065511e-16
  outer loop
    vertex 2.1543714065937274 9.345859034533072 8.50000000000001
    vertex 2.673853603617774 10.59999999999998 2.996214387707141e-15
    vertex 2.1543714065937305 9.345859034533072 2.8199664825478975e-15
  endloop
endfacet
facet normal -0.8660254037844433 0.49999999999999223 -2.403703357979468e-16
  outer loop
    vertex 2.673853603617774 10.59999999999998 2.996214387707141e-15
    vertex 2.1543714065937274 9.345859034533072 8.50000000000001
    vertex 2.673853603617771 10.59999999999998 8.50000000000001
  endloop
endfacet
facet normal -0.8660254037844433 0.49999999999999223 -2.403703357979468e-16
  outer loop
    vertex 2.673853603617771 10.59999999999998 8.50000000000001
    vertex 3.500230441126817 11.676955262170024 3.1724622928663847e-15
    vertex 2.673853603617774 10.59999999999998 2.996214387707141e-15
  endloop
endfacet
facet normal -0.7071067811865476 0.7071067811865476 -1.9626155733547194e-16
  outer loop
    vertex 3.500230441126817 11.676955262170024 3.1724622928663847e-15
    vertex 2.673853603617771 10.59999999999998 8.50000000000001
    vertex 3.5002304411268144 11.676955262170024 8.50000000000001
  endloop
endfacet
facet normal -0.7071067811865476 0.7071067811865476 -1.9626155733547194e-16
  outer loop
    vertex 3.500230441126817 11.676955262170024 3.1724622928663847e-15
    vertex 4.577185703296857 12.503332099679067 8.50000000000001
    vertex 4.57718570329686 12.503332099679067 3.524958103184872e-15
  endloop
endfacet
facet normal -0.49999999999999223 0.8660254037844433 -1.3877787807814242e-16
  outer loop
    vertex 4.577185703296857 12.503332099679067 8.50000000000001
    vertex 3.500230441126817 11.676955262170024 3.1724622928663847e-15
    vertex 3.5002304411268144 11.676955262170024 8.50000000000001
  endloop
endfacet
facet normal -0.49999999999999223 0.8660254037844433 -1.3877787807814242e-16
  outer loop
    vertex 4.57718570329686 12.503332099679067 3.524958103184872e-15
    vertex 5.831326668763766 13.02281429670311 8.50000000000001
    vertex 5.831326668763769 13.02281429670311 3.877453913503359e-15
  endloop
endfacet
facet normal -0.2588190451025167 0.9659258262890694 -7.183671577107774e-17
  outer loop
    vertex 5.831326668763766 13.02281429670311 8.50000000000001
    vertex 4.57718570329686 12.503332099679067 3.524958103184872e-15
    vertex 4.577185703296857 12.503332099679067 8.50000000000001
  endloop
endfacet
facet normal -0.2588190451025167 0.9659258262890694 -7.183671577107774e-17
  outer loop
    vertex 5.831326668763769 13.02281429670311 3.877453913503359e-15
    vertex 7.1771857032968525 13.199999999999976 8.50000000000001
    vertex 7.177185703296855 13.199999999999976 4.229949723821846e-15
  endloop
endfacet
facet normal 0.0 1.0 0.0
  outer loop
    vertex 7.1771857032968525 13.199999999999976 8.50000000000001
    vertex 5.831326668763769 13.02281429670311 3.877453913503359e-15
    vertex 5.831326668763766 13.02281429670311 8.50000000000001
  endloop
endfacet
facet normal 0.0 1.0 0.0
  outer loop
    vertex 7.177185703296855 13.199999999999976 4.229949723821846e-15
    vertex 8.52304473782994 13.02281429670311 8.50000000000001
    vertex 8.523044737829942 13.02281429670311 4.5824455341403335e-15
  endloop
endfacet
facet normal 0.2588190451025167 0.9659258262890694 7.183671577107774e-17
  outer loop
    vertex 8.52304473782994 13.02281429670311 8.50000000000001
    vertex 7.177185703296855 13.199999999999976 4.229949723821846e-15
    vertex 7.1771857032968525 13.199999999999976 8.50000000000001
  endloop
endfacet
facet normal 2.775557561562892e-16 -0.0 -1.0
  outer loop
    vertex 5.831326668763769 2.9771857032968603 3.877453913503359e-15
    vertex 8.523044737829942 2.9771857032968603 4.5824455341403335e-15
    vertex 7.177185703296855 2.799999999999995 4.229949723821846e-15
  endloop
endfacet
facet normal 2.775557561562892e-16 -0.0 -1.0
  outer loop
    vertex 8.523044737829942 2.9771857032968603 4.5824455341403335e-15
    vertex 5.831326668763769 2.9771857032968603 3.877453913503359e-15
    vertex 4.57718570329686 3.496667900320904 3.524958103184872e-15
  endloop
endfacet
facet normal 2.775557561562892e-16 -0.0 -1.0
  outer loop
    vertex 8.523044737829942 2.9771857032968603 4.5824455341403335e-15
    vertex 4.57718570329686 3.496667900320904 3.524958103184872e-15
    vertex 9.777185703296851 3.496667900320904 4.93494134445882e-15
  endloop
endfacet
facet normal 2.775557561562892e-16 -0.0 -1.0
  outer loop
    vertex 9.777185703296851 3.496667900320904 4.93494134445882e-15
    vertex 4.57718570329686 3.496667900320904 3.524958103184872e-15
    vertex 7.177185703296855 3.799999999999993 4.229949723821846e-15
  endloop
endfacet
facet normal 2.775557561562892e-16 -0.0 -1.0
  outer loop
    vertex 7.177185703296855 3.799999999999993 4.229949723821846e-15
    vertex 4.57718570329686 3.496667900320904 3.524958103184872e-15
    vertex 6.090145713866257 3.9431115295858987 3.877453913503359e-15
  endloop
endfacet
facet normal 2.775557561562892e-16 -0.0 -1.0
  outer loop
    vertex 6.090145713866257 3.9431115295858987 3.877453913503359e-15
    vertex 4.57718570329686 3.496667900320904 3.524958103184872e-15
    vertex 3.500230441126817 4.323044737829947 3.1724622928663847e-15
  endloop
endfacet
facet normal 2.775557561562892e-16 -0.0 -1.0
  outer loop
    vertex 6.090145713866257 3.9431115295858987 3.877453913503359e-15
    vertex 3.500230441126817 4.323044737829947 3.1724622928663847e-15
    vertex 5.077185703296882 4.3626933041053375 3.7012060083441155e-15
  endloop
endfacet
facet normal 2.775557561562892e-16 -0.0 -1.0
  outer loop
    vertex 5.077185703296882 4.3626933041053375 3.7012060083441155e-15
    vertex 3.500230441126817 4.323044737829947 3.1724622928663847e-15
    vertex 2.673853603617774 5.39999999999999 2.996214387707141e-15
  endloop
endfacet
facet normal 2.775557561562892e-16 -0.0 -1.0
  outer loop
    vertex 5.077185703296882 4.3626933041053375 3.7012060083441155e-15
    vertex 2.673853603617774 5.39999999999999 2.996214387707141e-15
    vertex 4.207337222313367 5.0301515190164965 3.348710198025628e-15
  endloop
endfacet
facet normal 2.775557561562892e-16 -0.0 -1.0
  outer loop
    vertex 4.207337222313367 5.0301515190164965 3.348710198025628e-15
    vertex 2.673853603617774 5.39999999999999 2.996214387707141e-15
    vertex 3.5398790074022077 5.899999999999967 3.1724622928663847e-15
  endloop
endfacet
facet normal 2.775557561562892e-16 -0.0 -1.0
  outer loop
    vertex 3.5398790074022077 5.899999999999967 3.1724622928663847e-15
    vertex 2.673853603617774 5.39999999999999 2.996214387707141e-15
    vertex 2.1543714065937305 6.654140965466898 2.8199664825478975e-15
  endloop
endfacet
facet normal 2.775557561562892e-16 -0.0 -1.0
  outer loop
    vertex 3.5398790074022077 5.899999999999967 3.1724622928663847e-15
    vertex 2.1543714065937305 6.654140965466898 2.8199664825478975e-15
    vertex 3.1202972328827685 6.912960010569387 2.996214387707141e-15
  endloop
endfacet
facet normal 2.775557561562892e-16 -0.0 -1.0
  outer loop
    vertex 3.1202972328827685 6.912960010569387 2.996214387707141e-15
    vertex 2.1543714065937305 6.654140965466898 2.8199664825478975e-15
    vertex 1.977185703296865 7.999999999999985 2.8199664825478975e-15
  endloop
endfacet
facet normal 2.775557561562892e-16 -0.0 -1.0
  outer loop
    vertex 3.1202972328827685 6.912960010569387 2.996214387707141e-15
    vertex 1.977185703296865 7.999999999999985 2.8199664825478975e-15
    vertex 2.977185703296863 7.999999999999985 2.996214387707141e-15
  endloop
endfacet
facet normal 2.775557561562892e-16 -0.0 -1.0
  outer loop
    vertex 2.977185703296863 7.999999999999985 2.996214387707141e-15
    vertex 1.977185703296865 7.999999999999985 2.8199664825478975e-15
    vertex 2.1543714065937305 9.345859034533072 2.8199664825478975e-15
  endloop
endfacet
facet normal 2.775557561562892e-16 -0.0 -1.0
  outer loop
    vertex 2.977185703296863 7.999999999999985 2.996214387707141e-15
    vertex 2.1543714065937305 9.345859034533072 2.8199664825478975e-15
    vertex 3.1202972328827685 9.087039989430583 2.996214387707141e-15
  endloop
endfacet
facet normal 2.775557561562892e-16 -0.0 -1.0
  outer loop
    vertex 3.1202972328827685 9.087039989430583 2.996214387707141e-15
    vertex 2.1543714065937305 9.345859034533072 2.8199664825478975e-15
    vertex 3.5398790074022077 10.099999999999959 3.1724622928663847e-15
  endloop
endfacet
facet normal 2.775557561562892e-16 -0.0 -1.0
  outer loop
    vertex 3.5398790074022077 10.099999999999959 3.1724622928663847e-15
    vertex 2.1543714065937305 9.345859034533072 2.8199664825478975e-15
    vertex 2.673853603617774 10.59999999999998 2.996214387707141e-15
  endloop
endfacet
facet normal 2.775557561562892e-16 -0.0 -1.0
  outer loop
    vertex 3.5398790074022077 10.099999999999959 3.1724622928663847e-15
    vertex 2.673853603617774 10.59999999999998 2.996214387707141e-15
    vertex 4.207337222313367 10.969848480983474 3.348710198025628e-15
  endloop
endfacet
facet normal 2.775557561562892e-16 -0.0 -1.0
  outer loop
    vertex 4.207337222313367 10.969848480983474 3.348710198025628e-15
    vertex 2.673853603617774 10.59999999999998 2.996214387707141e-15
    vertex 3.500230441126817 11.676955262170024 3.1724622928663847e-15
  endloop
endfacet
facet normal 2.775557561562892e-16 -0.0 -1.0
  outer loop
    vertex 4.207337222313367 10.969848480983474 3.348710198025628e-15
    vertex 3.500230441126817 11.676955262170024 3.1724622928663847e-15
    vertex 5.077185703296837 11.637306695894633 3.7012060083441155e-15
  endloop
endfacet
facet normal 2.775557561562892e-16 -0.0 -1.0
  outer loop
    vertex 5.077185703296837 11.637306695894633 3.7012060083441155e-15
    vertex 3.500230441126817 11.676955262170024 3.1724622928663847e-15
    vertex 6.090145713866257 12.056888470414073 3.877453913503359e-15
  endloop
endfacet
facet normal 2.775557561562892e-16 -0.0 -1.0
  outer loop
    vertex 6.090145713866257 12.056888470414073 3.877453913503359e-15
    vertex 3.500230441126817 11.676955262170024 3.1724622928663847e-15
    vertex 4.57718570329686 12.503332099679067 3.524958103184872e-15
  endloop
endfacet
facet normal 2.775557561562892e-16 -0.0 -1.0
  outer loop
    vertex 6.090145713866257 12.056888470414073 3.877453913503359e-15
    vertex 4.57718570329686 12.503332099679067 3.524958103184872e-15
    vertex 7.177185703296855 12.199999999999978 4.229949723821846e-15
  endloop
endfacet
facet normal 2.775557561562892e-16 -0.0 -1.0
  outer loop
    vertex 9.777185703296851 3.496667900320904 4.93494134445882e-15
    vertex 8.264225692727454 3.9431115295858987 4.5824455341403335e-15
    vertex 10.854140965466893 4.323044737829947 5.287437154777308e-15
  endloop
endfacet
facet normal 2.775557561562892e-16 -0.0 -1.0
  outer loop
    vertex 8.264225692727454 3.9431115295858987 4.5824455341403335e-15
    vertex 9.777185703296851 3.496667900320904 4.93494134445882e-15
    vertex 7.177185703296855 3.799999999999993 4.229949723821846e-15
  endloop
endfacet
facet normal 2.775557561562892e-16 -0.0 -1.0
  outer loop
    vertex 10.854140965466893 4.323044737829947 5.287437154777308e-15
    vertex 8.264225692727454 3.9431115295858987 4.5824455341403335e-15
    vertex 9.277185703296874 4.3626933041053375 4.758693439299577e-15
  endloop
endfacet
facet normal 2.775557561562892e-16 -0.0 -1.0
  outer loop
    vertex 10.854140965466893 4.323044737829947 5.287437154777308e-15
    vertex 9.277185703296874 4.3626933041053375 4.758693439299577e-15
    vertex 11.680517802975936 5.39999999999999 5.4636850599365515e-15
  endloop
endfacet
facet normal 2.775557561562892e-16 -0.0 -1.0
  outer loop
    vertex 11.680517802975936 5.39999999999999 5.4636850599365515e-15
    vertex 9.277185703296874 4.3626933041053375 4.758693439299577e-15
    vertex 10.147034184280344 5.0301515190164965 4.93494134445882e-15
  endloop
endfacet
facet normal 2.775557561562892e-16 -0.0 -1.0
  outer loop
    vertex 11.680517802975936 5.39999999999999 5.4636850599365515e-15
    vertex 10.147034184280344 5.0301515190164965 4.93494134445882e-15
    vertex 10.814492399191503 5.900000000000012 5.287437154777308e-15
  endloop
endfacet
facet normal 2.775557561562892e-16 -0.0 -1.0
  outer loop
    vertex 11.680517802975936 5.39999999999999 5.4636850599365515e-15
    vertex 10.814492399191503 5.900000000000012 5.287437154777308e-15
    vertex 12.19999999999998 6.654140965466898 5.639932965095795e-15
  endloop
endfacet
facet normal 2.775557561562892e-16 -0.0 -1.0
  outer loop
    vertex 12.19999999999998 6.654140965466898 5.639932965095795e-15
    vertex 10.814492399191503 5.900000000000012 5.287437154777308e-15
    vertex 11.234074173710942 6.912960010569387 5.287437154777308e-15
  endloop
endfacet
facet normal 2.775557561562892e-16 -0.0 -1.0
  outer loop
    vertex 12.19999999999998 6.654140965466898 5.639932965095795e-15
    vertex 11.234074173710942 6.912960010569387 5.287437154777308e-15
    vertex 12.377185703296846 7.999999999999985 5.639932965095795e-15
  endloop
endfacet
facet normal 2.775557561562892e-16 -0.0 -1.0
  outer loop
    vertex 12.377185703296846 7.999999999999985 5.639932965095795e-15
    vertex 11.234074173710942 6.912960010569387 5.287437154777308e-15
    vertex 11.377185703296847 7.999999999999985 5.287437154777308e-15
  endloop
endfacet
facet normal 2.775557561562892e-16 -0.0 -1.0
  outer loop
    vertex 12.377185703296846 7.999999999999985 5.639932965095795e-15
    vertex 11.377185703296847 7.999999999999985 5.287437154777308e-15
    vertex 11.234074173710942 9.087039989430583 5.287437154777308e-15
  endloop
endfacet
facet normal 2.775557561562892e-16 -0.0 -1.0
  outer loop
    vertex 12.377185703296846 7.999999999999985 5.639932965095795e-15
    vertex 11.234074173710942 9.087039989430583 5.287437154777308e-15
    vertex 12.19999999999998 9.345859034533072 5.639932965095795e-15
  endloop
endfacet
facet normal 2.775557561562892e-16 -0.0 -1.0
  outer loop
    vertex 12.19999999999998 9.345859034533072 5.639932965095795e-15
    vertex 11.234074173710942 9.087039989430583 5.287437154777308e-15
    vertex 10.814492399191503 10.100000000000003 5.287437154777308e-15
  endloop
endfacet
facet normal 2.775557561562892e-16 -0.0 -1.0
  outer loop
    vertex 12.19999999999998 9.345859034533072 5.639932965095795e-15
    vertex 10.814492399191503 10.100000000000003 5.287437154777308e-15
    vertex 11.680517802975936 10.59999999999998 5.4636850599365515e-15
  endloop
endfacet
facet normal 2.775557561562892e-16 -0.0 -1.0
  outer loop
    vertex 11.680517802975936 10.59999999999998 5.4636850599365515e-15
    vertex 10.814492399191503 10.100000000000003 5.287437154777308e-15
    vertex 10.147034184280344 10.969848480983474 4.93494134445882e-15
  endloop
endfacet
facet normal 2.775557561562892e-16 -0.0 -1.0
  outer loop
    vertex 11.680517802975936 10.59999999999998 5.4636850599365515e-15
    vertex 10.147034184280344 10.969848480983474 4.93494134445882e-15
    vertex 10.854140965466893 11.676955262170024 5.287437154777308e-15
  endloop
endfacet
facet normal 2.775557561562892e-16 -0.0 -1.0
  outer loop
    vertex 10.854140965466893 11.676955262170024 5.287437154777308e-15
    vertex 10.147034184280344 10.969848480983474 4.93494134445882e-15
    vertex 9.277185703296828 11.637306695894633 4.758693439299577e-15
  endloop
endfacet
facet normal 2.775557561562892e-16 -0.0 -1.0
  outer loop
    vertex 10.854140965466893 11.676955262170024 5.287437154777308e-15
    vertex 9.277185703296828 11.637306695894633 4.758693439299577e-15
    vertex 8.264225692727454 12.056888470414073 4.5824455341403335e-15
  endloop
endfacet
facet normal 2.775557561562892e-16 -0.0 -1.0
  outer loop
    vertex 10.854140965466893 11.676955262170024 5.287437154777308e-15
    vertex 8.264225692727454 12.056888470414073 4.5824455341403335e-15
    vertex 9.777185703296851 12.503332099679067 4.93494134445882e-15
  endloop
endfacet
facet normal 2.775557561562892e-16 -0.0 -1.0
  outer loop
    vertex 9.777185703296851 12.503332099679067 4.93494134445882e-15
    vertex 8.264225692727454 12.056888470414073 4.5824455341403335e-15
    vertex 7.177185703296855 12.199999999999978 4.229949723821846e-15
  endloop
endfacet
facet normal 2.775557561562892e-16 -0.0 -1.0
  outer loop
    vertex 9.777185703296851 12.503332099679067 4.93494134445882e-15
    vertex 7.177185703296855 12.199999999999978 4.229949723821846e-15
    vertex 4.57718570329686 12.503332099679067 3.524958103184872e-15
  endloop
endfacet
facet normal 2.775557561562892e-16 -0.0 -1.0
  outer loop
    vertex 9.777185703296851 12.503332099679067 4.93494134445882e-15
    vertex 4.57718570329686 12.503332099679067 3.524958103184872e-15
    vertex 5.831326668763769 13.02281429670311 3.877453913503359e-15
  endloop
endfacet
facet normal 2.775557561562892e-16 -0.0 -1.0
  outer loop
    vertex 9.777185703296851 12.503332099679067 4.93494134445882e-15
    vertex 5.831326668763769 13.02281429670311 3.877453913503359e-15
    vertex 8.523044737829942 13.02281429670311 4.5824455341403335e-15
  endloop
endfacet
facet normal 2.775557561562892e-16 -0.0 -1.0
  outer loop
    vertex 8.523044737829942 13.02281429670311 4.5824455341403335e-15
    vertex 5.831326668763769 13.02281429670311 3.877453913503359e-15
    vertex 7.177185703296855 13.199999999999976 4.229949723821846e-15
  endloop
endfacet
facet normal -2.775557561562892e-16 0.0 1.0
  outer loop
    vertex 8.52304473782994 2.9771857032968603 8.50000000000001
    vertex 5.831326668763766 2.9771857032968603 8.50000000000001
    vertex 7.1771857032968525 2.799999999999995 8.50000000000001
  endloop
endfacet
facet normal -2.775557561562892e-16 0.0 1.0
  outer loop
    vertex 5.831326668763766 2.9771857032968603 8.50000000000001
    vertex 8.52304473782994 2.9771857032968603 8.50000000000001
    vertex 9.777185703296848 3.496667900320904 8.50000000000001
  endloop
endfacet
facet normal -2.775557561562892e-16 0.0 1.0
  outer loop
    vertex 5.831326668763766 2.9771857032968603 8.50000000000001
    vertex 9.777185703296848 3.496667900320904 8.50000000000001
    vertex 4.577185703296857 3.496667900320904 8.50000000000001
  endloop
endfacet
facet normal -2.775557561562892e-16 0.0 1.0
  outer loop
    vertex 4.577185703296857 3.496667900320904 8.50000000000001
    vertex 9.777185703296848 3.496667900320904 8.50000000000001
    vertex 7.1771857032968525 3.799999999999993 8.50000000000001
  endloop
endfacet
facet normal -2.775557561562892e-16 0.0 1.0
  outer loop
    vertex 7.1771857032968525 3.799999999999993 8.50000000000001
    vertex 9.777185703296848 3.496667900320904 8.50000000000001
    vertex 8.26422569272745 3.9431115295858987 8.50000000000001
  endloop
endfacet
facet normal -2.775557561562892e-16 0.0 1.0
  outer loop
    vertex 8.26422569272745 3.9431115295858987 8.50000000000001
    vertex 9.777185703296848 3.496667900320904 8.50000000000001
    vertex 10.854140965466891 4.323044737829947 8.500000000000012
  endloop
endfacet
facet normal -2.775557561562892e-16 0.0 1.0
  outer loop
    vertex 8.26422569272745 3.9431115295858987 8.50000000000001
    vertex 10.854140965466891 4.323044737829947 8.500000000000012
    vertex 9.27718570329687 4.3626933041053375 8.50000000000001
  endloop
endfacet
facet normal -2.775557561562892e-16 0.0 1.0
  outer loop
    vertex 9.27718570329687 4.3626933041053375 8.50000000000001
    vertex 10.854140965466891 4.323044737829947 8.500000000000012
    vertex 11.680517802975935 5.39999999999999 8.500000000000012
  endloop
endfacet
facet normal -2.775557561562892e-16 0.0 1.0
  outer loop
    vertex 9.27718570329687 4.3626933041053375 8.50000000000001
    vertex 11.680517802975935 5.39999999999999 8.500000000000012
    vertex 10.147034184280342 5.0301515190164965 8.500000000000012
  endloop
endfacet
facet normal -2.775557561562892e-16 0.0 1.0
  outer loop
    vertex 10.147034184280342 5.0301515190164965 8.500000000000012
    vertex 11.680517802975935 5.39999999999999 8.500000000000012
    vertex 10.8144923991915 5.900000000000012 8.500000000000012
  endloop
endfacet
facet normal -2.775557561562892e-16 0.0 1.0
  outer loop
    vertex 10.8144923991915 5.900000000000012 8.500000000000012
    vertex 11.680517802975935 5.39999999999999 8.500000000000012
    vertex 12.199999999999978 6.654140965466898 8.500000000000012
  endloop
endfacet
facet normal -2.775557561562892e-16 0.0 1.0
  outer loop
    vertex 10.8144923991915 5.900000000000012 8.500000000000012
    vertex 12.199999999999978 6.654140965466898 8.500000000000012
    vertex 11.234074173710939 6.912960010569387 8.500000000000012
  endloop
endfacet
facet normal -2.775557561562892e-16 0.0 1.0
  outer loop
    vertex 11.234074173710939 6.912960010569387 8.500000000000012
    vertex 12.199999999999978 6.654140965466898 8.500000000000012
    vertex 12.377185703296844 7.999999999999985 8.500000000000012
  endloop
endfacet
facet normal -2.775557561562892e-16 0.0 1.0
  outer loop
    vertex 11.234074173710939 6.912960010569387 8.500000000000012
    vertex 12.377185703296844 7.999999999999985 8.500000000000012
    vertex 11.377185703296846 7.999999999999985 8.500000000000012
  endloop
endfacet
facet normal -2.775557561562892e-16 0.0 1.0
  outer loop
    vertex 11.377185703296846 7.999999999999985 8.500000000000012
    vertex 12.377185703296844 7.999999999999985 8.500000000000012
    vertex 12.199999999999978 9.345859034533072 8.500000000000012
  endloop
endfacet
facet normal -2.775557561562892e-16 0.0 1.0
  outer loop
    vertex 11.377185703296846 7.999999999999985 8.500000000000012
    vertex 12.199999999999978 9.345859034533072 8.500000000000012
    vertex 11.234074173710939 9.087039989430583 8.500000000000012
  endloop
endfacet
facet normal -2.775557561562892e-16 0.0 1.0
  outer loop
    vertex 11.234074173710939 9.087039989430583 8.500000000000012
    vertex 12.199999999999978 9.345859034533072 8.500000000000012
    vertex 10.8144923991915 10.100000000000003 8.500000000000012
  endloop
endfacet
facet normal -2.775557561562892e-16 0.0 1.0
  outer loop
    vertex 10.8144923991915 10.100000000000003 8.500000000000012
    vertex 12.199999999999978 9.345859034533072 8.500000000000012
    vertex 11.680517802975935 10.59999999999998 8.500000000000012
  endloop
endfacet
facet normal -2.775557561562892e-16 0.0 1.0
  outer loop
    vertex 10.8144923991915 10.100000000000003 8.500000000000012
    vertex 11.680517802975935 10.59999999999998 8.500000000000012
    vertex 10.147034184280342 10.969848480983474 8.500000000000012
  endloop
endfacet
facet normal -2.775557561562892e-16 0.0 1.0
  outer loop
    vertex 10.147034184280342 10.969848480983474 8.500000000000012
    vertex 11.680517802975935 10.59999999999998 8.500000000000012
    vertex 10.854140965466891 11.676955262170024 8.500000000000012
  endloop
endfacet
facet normal -2.775557561562892e-16 0.0 1.0
  outer loop
    vertex 10.147034184280342 10.969848480983474 8.500000000000012
    vertex 10.854140965466891 11.676955262170024 8.500000000000012
    vertex 9.277185703296826 11.637306695894633 8.50000000000001
  endloop
endfacet
facet normal -2.775557561562892e-16 0.0 1.0
  outer loop
    vertex 9.277185703296826 11.637306695894633 8.50000000000001
    vertex 10.854140965466891 11.676955262170024 8.500000000000012
    vertex 8.26422569272745 12.056888470414073 8.50000000000001
  endloop
endfacet
facet normal -2.775557561562892e-16 0.0 1.0
  outer loop
    vertex 8.26422569272745 12.056888470414073 8.50000000000001
    vertex 10.854140965466891 11.676955262170024 8.500000000000012
    vertex 9.777185703296848 12.503332099679067 8.50000000000001
  endloop
endfacet
facet normal -2.775557561562892e-16 0.0 1.0
  outer loop
    vertex 8.26422569272745 12.056888470414073 8.50000000000001
    vertex 9.777185703296848 12.503332099679067 8.50000000000001
    vertex 7.1771857032968525 12.199999999999978 8.50000000000001
  endloop
endfacet
facet normal -2.775557561562892e-16 0.0 1.0
  outer loop
    vertex 4.577185703296857 3.496667900320904 8.50000000000001
    vertex 6.090145713866255 3.9431115295858987 8.50000000000001
    vertex 3.5002304411268144 4.323044737829947 8.50000000000001
  endloop
endfacet
facet normal -2.775557561562892e-16 0.0 1.0
  outer loop
    vertex 6.090145713866255 3.9431115295858987 8.50000000000001
    vertex 4.577185703296857 3.496667900320904 8.50000000000001
    vertex 7.1771857032968525 3.799999999999993 8.50000000000001
  endloop
endfacet
facet normal -2.775557561562892e-16 0.0 1.0
  outer loop
    vertex 3.5002304411268144 4.323044737829947 8.50000000000001
    vertex 6.090145713866255 3.9431115295858987 8.50000000000001
    vertex 5.077185703296879 4.3626933041053375 8.50000000000001
  endloop
endfacet
facet normal -2.775557561562892e-16 0.0 1.0
  outer loop
    vertex 3.5002304411268144 4.323044737829947 8.50000000000001
    vertex 5.077185703296879 4.3626933041053375 8.50000000000001
    vertex 2.673853603617771 5.39999999999999 8.50000000000001
  endloop
endfacet
facet normal -2.775557561562892e-16 0.0 1.0
  outer loop
    vertex 2.673853603617771 5.39999999999999 8.50000000000001
    vertex 5.077185703296879 4.3626933041053375 8.50000000000001
    vertex 4.207337222313364 5.0301515190164965 8.50000000000001
  endloop
endfacet
facet normal -2.775557561562892e-16 0.0 1.0
  outer loop
    vertex 2.673853603617771 5.39999999999999 8.50000000000001
    vertex 4.207337222313364 5.0301515190164965 8.50000000000001
    vertex 3.5398790074022046 5.899999999999967 8.50000000000001
  endloop
endfacet
facet normal -2.775557561562892e-16 0.0 1.0
  outer loop
    vertex 2.673853603617771 5.39999999999999 8.50000000000001
    vertex 3.5398790074022046 5.899999999999967 8.50000000000001
    vertex 2.1543714065937274 6.654140965466898 8.50000000000001
  endloop
endfacet
facet normal -2.775557561562892e-16 0.0 1.0
  outer loop
    vertex 2.1543714065937274 6.654140965466898 8.50000000000001
    vertex 3.5398790074022046 5.899999999999967 8.50000000000001
    vertex 3.120297232882766 6.912960010569387 8.50000000000001
  endloop
endfacet
facet normal -2.775557561562892e-16 0.0 1.0
  outer loop
    vertex 2.1543714065937274 6.654140965466898 8.50000000000001
    vertex 3.120297232882766 6.912960010569387 8.50000000000001
    vertex 1.977185703296862 7.999999999999985 8.50000000000001
  endloop
endfacet
facet normal -2.775557561562892e-16 0.0 1.0
  outer loop
    vertex 1.977185703296862 7.999999999999985 8.50000000000001
    vertex 3.120297232882766 6.912960010569387 8.50000000000001
    vertex 2.9771857032968603 7.999999999999985 8.50000000000001
  endloop
endfacet
facet normal -2.775557561562892e-16 0.0 1.0
  outer loop
    vertex 1.977185703296862 7.999999999999985 8.50000000000001
    vertex 2.9771857032968603 7.999999999999985 8.50000000000001
    vertex 3.120297232882766 9.087039989430583 8.50000000000001
  endloop
endfacet
facet normal -2.775557561562892e-16 0.0 1.0
  outer loop
    vertex 1.977185703296862 7.999999999999985 8.50000000000001
    vertex 3.120297232882766 9.087039989430583 8.50000000000001
    vertex 2.1543714065937274 9.345859034533072 8.50000000000001
  endloop
endfacet
facet normal -2.775557561562892e-16 0.0 1.0
  outer loop
    vertex 2.1543714065937274 9.345859034533072 8.50000000000001
    vertex 3.120297232882766 9.087039989430583 8.50000000000001
    vertex 3.5398790074022046 10.099999999999959 8.50000000000001
  endloop
endfacet
facet normal -2.775557561562892e-16 0.0 1.0
  outer loop
    vertex 2.1543714065937274 9.345859034533072 8.50000000000001
    vertex 3.5398790074022046 10.099999999999959 8.50000000000001
    vertex 2.673853603617771 10.59999999999998 8.50000000000001
  endloop
endfacet
facet normal -2.775557561562892e-16 0.0 1.0
  outer loop
    vertex 2.673853603617771 10.59999999999998 8.50000000000001
    vertex 3.5398790074022046 10.099999999999959 8.50000000000001
    vertex 4.207337222313364 10.969848480983474 8.50000000000001
  endloop
endfacet
facet normal -2.775557561562892e-16 0.0 1.0
  outer loop
    vertex 2.673853603617771 10.59999999999998 8.50000000000001
    vertex 4.207337222313364 10.969848480983474 8.50000000000001
    vertex 3.5002304411268144 11.676955262170024 8.50000000000001
  endloop
endfacet
facet normal -2.775557561562892e-16 0.0 1.0
  outer loop
    vertex 3.5002304411268144 11.676955262170024 8.50000000000001
    vertex 4.207337222313364 10.969848480983474 8.50000000000001
    vertex 5.077185703296834 11.637306695894633 8.50000000000001
  endloop
endfacet
facet normal -2.775557561562892e-16 0.0 1.0
  outer loop
    vertex 3.5002304411268144 11.676955262170024 8.50000000000001
    vertex 5.077185703296834 11.637306695894633 8.50000000000001
    vertex 6.090145713866255 12.056888470414073 8.50000000000001
  endloop
endfacet
facet normal -2.775557561562892e-16 0.0 1.0
  outer loop
    vertex 3.5002304411268144 11.676955262170024 8.50000000000001
    vertex 6.090145713866255 12.056888470414073 8.50000000000001
    vertex 4.577185703296857 12.503332099679067 8.50000000000001
  endloop
endfacet
facet normal -2.775557561562892e-16 0.0 1.0
  outer loop
    vertex 4.577185703296857 12.503332099679067 8.50000000000001
    vertex 6.090145713866255 12.056888470414073 8.50000000000001
    vertex 7.1771857032968525 12.199999999999978 8.50000000000001
  endloop
endfacet
facet normal -2.775557561562892e-16 0.0 1.0
  outer loop
    vertex 4.577185703296857 12.503332099679067 8.50000000000001
    vertex 7.1771857032968525 12.199999999999978 8.50000000000001
    vertex 9.777185703296848 12.503332099679067 8.50000000000001
  endloop
endfacet
facet normal -2.775557561562892e-16 0.0 1.0
  outer loop
    vertex 4.577185703296857 12.503332099679067 8.50000000000001
    vertex 9.777185703296848 12.503332099679067 8.50000000000001
    vertex 8.52304473782994 13.02281429670311 8.50000000000001
  endloop
endfacet
facet normal -2.775557561562892e-16 0.0 1.0
  outer loop
    vertex 4.577185703296857 12.503332099679067 8.50000000000001
    vertex 8.52304473782994 13.02281429670311 8.50000000000001
    vertex 5.831326668763766 13.02281429670311 8.50000000000001
  endloop
endfacet
facet normal -2.775557561562892e-16 0.0 1.0
  outer loop
    vertex 5.831326668763766 13.02281429670311 8.50000000000001
    vertex 8.52304473782994 13.02281429670311 8.50000000000001
    vertex 7.1771857032968525 13.199999999999976 8.50000000000001
  endloop
endfacet
endsolid Untitled-56535070
