solid Untitled-565350ff
facet normal 0.5000000000000049 0.8660254037844359 1.4571677198205323e-16
  outer loop
    vertex 7.7000000000000215 1.5626933041053426 2.8199664825478975e-15
    vertex 8.71296001056939 1.1431115295859036 23.69999999999998
    vertex 8.712960010569397 1.1431115295859036 2.8199664825478975e-15
  endloop
endfacet
facet normal 0.2588190451025207 0.9659258262890683 7.542855155963278e-17
  outer loop
    vertex 8.71296001056939 1.1431115295859036 23.69999999999998
    vertex 7.7000000000000215 1.5626933041053426 2.8199664825478975e-15
    vertex 7.700000000000014 1.5626933041053426 23.69999999999998
  endloop
endfacet
facet normal 0.2588190451025207 0.9659258262890683 7.542855155963278e-17
  outer loop
    vertex 8.712960010569397 1.1431115295859036 2.8199664825478975e-15
    vertex 9.799999999999988 1.0000000000000433 23.69999999999998
    vertex 9.799999999999995 1.0000000000000433 2.8199664825478975e-15
  endloop
endfacet
facet normal 0.0 1.0 0.0
  outer loop
    vertex 9.799999999999988 1.0000000000000433 23.69999999999998
    vertex 8.712960010569397 1.1431115295859036 2.8199664825478975e-15
    vertex 8.71296001056939 1.1431115295859036 23.69999999999998
  endloop
endfacet
facet normal 0.0 1.0 0.0
  outer loop
    vertex 9.799999999999995 1.0000000000000433 2.8199664825478975e-15
    vertex 10.887039989430585 1.1431115295859036 23.699999999999985
    vertex 10.887039989430592 1.1431115295859036 5.639932965095795e-15
  endloop
endfacet
facet normal -0.25881904510251325 0.9659258262890703 -7.542855155963061e-17
  outer loop
    vertex 10.887039989430585 1.1431115295859036 23.699999999999985
    vertex 9.799999999999995 1.0000000000000433 2.8199664825478975e-15
    vertex 9.799999999999988 1.0000000000000433 23.69999999999998
  endloop
endfacet
facet normal -0.25881904510251325 0.9659258262890703 -7.542855155963061e-17
  outer loop
    vertex 10.887039989430592 1.1431115295859036 5.639932965095795e-15
    vertex 11.900000000000006 1.5626933041053426 23.699999999999985
    vertex 11.900000000000013 1.5626933041053426 5.639932965095795e-15
  endloop
endfacet
facet normal -0.5000000000000089 0.8660254037844335 -1.4571677198205438e-16
  outer loop
    vertex 11.900000000000006 1.5626933041053426 23.699999999999985
    vertex 10.887039989430592 1.1431115295859036 5.639932965095795e-15
    vertex 10.887039989430585 1.1431115295859036 23.699999999999985
  endloop
endfacet
facet normal -0.5000000000000089 0.8660254037844335 -1.4571677198205438e-16
  outer loop
    vertex 11.900000000000013 1.5626933041053426 5.639932965095795e-15
    vertex 12.769848480983477 2.230151519016547 23.699999999999985
    vertex 12.769848480983482 2.230151519016547 5.639932965095795e-15
  endloop
endfacet
facet normal -0.7071067811865565 0.7071067811865387 -2.0607463520224808e-16
  outer loop
    vertex 12.769848480983477 2.230151519016547 23.699999999999985
    vertex 11.900000000000013 1.5626933041053426 5.639932965095795e-15
    vertex 11.900000000000006 1.5626933041053426 23.699999999999985
  endloop
endfacet
facet normal -0.7071067811865565 0.7071067811865387 -2.0607463520224808e-16
  outer loop
    vertex 12.769848480983477 2.230151519016547 23.699999999999985
    vertex 13.437306695894641 3.100000000000017 5.639932965095795e-15
    vertex 12.769848480983482 2.230151519016547 5.639932965095795e-15
  endloop
endfacet
facet normal -0.8660254037844359 0.5000000000000049 -2.52388852587842e-16
  outer loop
    vertex 13.437306695894641 3.100000000000017 5.639932965095795e-15
    vertex 12.769848480983477 2.230151519016547 23.699999999999985
    vertex 13.437306695894636 3.100000000000017 23.699999999999985
  endloop
endfacet
facet normal -0.8660254037844359 0.5000000000000049 -2.52388852587842e-16
  outer loop
    vertex 13.437306695894636 3.100000000000017 23.699999999999985
    vertex 13.85688847041408 4.112960010569347 5.639932965095795e-15
    vertex 13.437306695894641 3.100000000000017 5.639932965095795e-15
  endloop
endfacet
facet normal -0.9659258262890683 0.2588190451025207 -2.815031867618783e-16
  outer loop
    vertex 13.85688847041408 4.112960010569347 5.639932965095795e-15
    vertex 13.437306695894636 3.100000000000017 23.699999999999985
    vertex 13.856888470414075 4.112960010569347 23.699999999999985
  endloop
endfacet
facet normal -0.9659258262890683 0.2588190451025207 -2.815031867618783e-16
  outer loop
    vertex 13.856888470414075 4.112960010569347 23.699999999999985
    vertex 13.999999999999986 5.19999999999999 5.639932965095795e-15
    vertex 13.85688847041408 4.112960010569347 5.639932965095795e-15
  endloop
endfacet
facet normal -1.0 0.0 -2.914335439641036e-16
  outer loop
    vertex 13.999999999999986 5.19999999999999 5.639932965095795e-15
    vertex 13.856888470414075 4.112960010569347 23.699999999999985
    vertex 13.99999999999998 5.19999999999999 23.699999999999985
  endloop
endfacet
facet normal -1.0 0.0 -2.914335439641036e-16
  outer loop
    vertex 13.99999999999998 5.19999999999999 23.699999999999985
    vertex 13.85688847041408 6.2870399894306335 5.639932965095795e-15
    vertex 13.999999999999986 5.19999999999999 5.639932965095795e-15
  endloop
endfacet
facet normal -0.9659258262890703 -0.25881904510251325 -2.815031867618789e-16
  outer loop
    vertex 13.85688847041408 6.2870399894306335 5.639932965095795e-15
    vertex 13.99999999999998 5.19999999999999 23.699999999999985
    vertex 13.856888470414075 6.2870399894306335 23.699999999999985
  endloop
endfacet
facet normal -0.9659258262890703 -0.25881904510251325 -2.815031867618789e-16
  outer loop
    vertex 13.856888470414075 6.2870399894306335 23.699999999999985
    vertex 13.437306695894641 7.300000000000054 5.639932965095795e-15
    vertex 13.85688847041408 6.2870399894306335 5.639932965095795e-15
  endloop
endfacet
facet normal -0.8660254037844335 -0.5000000000000089 -2.5238885258784124e-16
  outer loop
    vertex 13.437306695894641 7.300000000000054 5.639932965095795e-15
    vertex 13.856888470414075 6.2870399894306335 23.699999999999985
    vertex 13.437306695894636 7.300000000000054 23.699999999999985
  endloop
endfacet
facet normal -0.8660254037844335 -0.5000000000000089 -2.5238885258784124e-16
  outer loop
    vertex 13.437306695894636 7.300000000000054 23.699999999999985
    vertex 12.769848480983482 8.169848480983434 5.639932965095795e-15
    vertex 13.437306695894641 7.300000000000054 5.639932965095795e-15
  endloop
endfacet
facet normal -0.7071067811865387 -0.7071067811865565 -2.060746352022429e-16
  outer loop
    vertex 12.769848480983482 8.169848480983434 5.639932965095795e-15
    vertex 13.437306695894636 7.300000000000054 23.699999999999985
    vertex 12.769848480983477 8.169848480983434 23.699999999999985
  endloop
endfacet
facet normal -0.5000000000000049 -0.8660254037844359 -1.4571677198205323e-16
  outer loop
    vertex 11.899999999999961 8.837306695894638 23.699999999999985
    vertex 12.769848480983482 8.169848480983434 5.639932965095795e-15
    vertex 12.769848480983477 8.169848480983434 23.699999999999985
  endloop
endfacet
facet normal -0.7071067811865387 -0.7071067811865565 -2.060746352022429e-16
  outer loop
    vertex 12.769848480983482 8.169848480983434 5.639932965095795e-15
    vertex 11.899999999999961 8.837306695894638 23.699999999999985
    vertex 11.899999999999968 8.837306695894638 5.639932965095795e-15
  endloop
endfacet
facet normal -0.2588190451025207 -0.9659258262890683 -7.542855155963278e-17
  outer loop
    vertex 10.887039989430585 9.256888470414077 23.699999999999985
    vertex 11.899999999999968 8.837306695894638 5.639932965095795e-15
    vertex 11.899999999999961 8.837306695894638 23.699999999999985
  endloop
endfacet
facet normal -0.5000000000000049 -0.8660254037844359 -1.4571677198205323e-16
  outer loop
    vertex 11.899999999999968 8.837306695894638 5.639932965095795e-15
    vertex 10.887039989430585 9.256888470414077 23.699999999999985
    vertex 10.887039989430592 9.256888470414077 5.639932965095795e-15
  endloop
endfacet
facet normal -0.0 -1.0 0.0
  outer loop
    vertex 9.799999999999988 9.399999999999938 23.69999999999998
    vertex 10.887039989430592 9.256888470414077 5.639932965095795e-15
    vertex 10.887039989430585 9.256888470414077 23.699999999999985
  endloop
endfacet
facet normal -0.2588190451025207 -0.9659258262890683 -7.542855155963278e-17
  outer loop
    vertex 10.887039989430592 9.256888470414077 5.639932965095795e-15
    vertex 9.799999999999988 9.399999999999938 23.69999999999998
    vertex 9.799999999999995 9.399999999999938 2.8199664825478975e-15
  endloop
endfacet
facet normal 0.25881904510251325 -0.9659258262890703 7.542855155963061e-17
  outer loop
    vertex 8.71296001056939 9.256888470414077 23.69999999999998
    vertex 9.799999999999995 9.399999999999938 2.8199664825478975e-15
    vertex 9.799999999999988 9.399999999999938 23.69999999999998
  endloop
endfacet
facet normal -0.0 -1.0 0.0
  outer loop
    vertex 9.799999999999995 9.399999999999938 2.8199664825478975e-15
    vertex 8.71296001056939 9.256888470414077 23.69999999999998
    vertex 8.712960010569397 9.256888470414077 2.8199664825478975e-15
  endloop
endfacet
facet normal 0.5000000000000089 -0.8660254037844335 1.4571677198205438e-16
  outer loop
    vertex 7.699999999999969 8.837306695894638 23.69999999999998
    vertex 8.712960010569397 9.256888470414077 2.8199664825478975e-15
    vertex 8.71296001056939 9.256888470414077 23.69999999999998
  endloop
endfacet
facet normal 0.25881904510251325 -0.9659258262890703 7.542855155963061e-17
  outer loop
    vertex 8.712960010569397 9.256888470414077 2.8199664825478975e-15
    vertex 7.699999999999969 8.837306695894638 23.69999999999998
    vertex 7.699999999999976 8.837306695894638 2.8199664825478975e-15
  endloop
endfacet
facet normal 0.7071067811865565 -0.7071067811865387 2.0607463520224808e-16
  outer loop
    vertex 6.830151519016499 8.169848480983434 23.69999999999998
    vertex 7.699999999999976 8.837306695894638 2.8199664825478975e-15
    vertex 7.699999999999969 8.837306695894638 23.69999999999998
  endloop
endfacet
facet normal 0.5000000000000089 -0.8660254037844335 1.4571677198205438e-16
  outer loop
    vertex 7.699999999999976 8.837306695894638 2.8199664825478975e-15
    vertex 6.830151519016499 8.169848480983434 23.69999999999998
    vertex 6.830151519016506 8.169848480983434 2.8199664825478975e-15
  endloop
endfacet
facet normal 0.7071067811865565 -0.7071067811865387 2.0607463520224808e-16
  outer loop
    vertex 6.830151519016499 8.169848480983434 23.69999999999998
    vertex 6.162693304105347 7.299999999999964 2.8199664825478975e-15
    vertex 6.830151519016506 8.169848480983434 2.8199664825478975e-15
  endloop
endfacet
facet normal 0.8660254037844359 -0.5000000000000049 2.52388852587842e-16
  outer loop
    vertex 6.162693304105347 7.299999999999964 2.8199664825478975e-15
    vertex 6.830151519016499 8.169848480983434 23.69999999999998
    vertex 6.16269330410534 7.299999999999964 23.69999999999998
  endloop
endfacet
facet normal 0.8660254037844359 -0.5000000000000049 2.52388852587842e-16
  outer loop
    vertex 6.16269330410534 7.299999999999964 23.69999999999998
    vertex 5.743111529585908 6.2870399894306335 2.8199664825478975e-15
    vertex 6.162693304105347 7.299999999999964 2.8199664825478975e-15
  endloop
endfacet
facet normal 0.9659258262890683 -0.2588190451025207 2.815031867618783e-16
  outer loop
    vertex 5.743111529585908 6.2870399894306335 2.8199664825478975e-15
    vertex 6.16269330410534 7.299999999999964 23.69999999999998
    vertex 5.743111529585901 6.2870399894306335 23.69999999999998
  endloop
endfacet
facet normal 0.9659258262890683 -0.2588190451025207 2.815031867618783e-16
  outer loop
    vertex 5.743111529585901 6.2870399894306335 23.69999999999998
    vertex 5.600000000000002 5.19999999999999 2.8199664825478975e-15
    vertex 5.743111529585908 6.2870399894306335 2.8199664825478975e-15
  endloop
endfacet
facet normal 1.0 0.0 2.914335439641036e-16
  outer loop
    vertex 5.600000000000002 5.19999999999999 2.8199664825478975e-15
    vertex 5.743111529585901 6.2870399894306335 23.69999999999998
    vertex 5.599999999999995 5.19999999999999 23.69999999999998
  endloop
endfacet
facet normal 1.0 0.0 2.914335439641036e-16
  outer loop
    vertex 5.599999999999995 5.19999999999999 23.69999999999998
    vertex 5.743111529585908 4.112960010569347 2.8199664825478975e-15
    vertex 5.600000000000002 5.19999999999999 2.8199664825478975e-15
  endloop
endfacet
facet normal 0.9659258262890703 0.25881904510251325 2.815031867618789e-16
  outer loop
    vertex 5.743111529585908 4.112960010569347 2.8199664825478975e-15
    vertex 5.599999999999995 5.19999999999999 23.69999999999998
    vertex 5.743111529585901 4.112960010569347 23.69999999999998
  endloop
endfacet
facet normal 0.9659258262890703 0.25881904510251325 2.815031867618789e-16
  outer loop
    vertex 5.743111529585901 4.112960010569347 23.69999999999998
    vertex 6.162693304105347 3.099999999999927 2.8199664825478975e-15
    vertex 5.743111529585908 4.112960010569347 2.8199664825478975e-15
  endloop
endfacet
facet normal 0.8660254037844335 0.5000000000000089 2.5238885258784124e-16
  outer loop
    vertex 6.162693304105347 3.099999999999927 2.8199664825478975e-15
    vertex 5.743111529585901 4.112960010569347 23.69999999999998
    vertex 6.16269330410534 3.099999999999927 23.69999999999998
  endloop
endfacet
facet normal 0.8660254037844335 0.5000000000000089 2.5238885258784124e-16
  outer loop
    vertex 6.16269330410534 3.099999999999927 23.69999999999998
    vertex 6.830151519016506 2.230151519016547 2.8199664825478975e-15
    vertex 6.162693304105347 3.099999999999927 2.8199664825478975e-15
  endloop
endfacet
facet normal 0.7071067811865387 0.7071067811865565 2.060746352022429e-16
  outer loop
    vertex 6.830151519016506 2.230151519016547 2.8199664825478975e-15
    vertex 6.16269330410534 3.099999999999927 23.69999999999998
    vertex 6.830151519016499 2.230151519016547 23.69999999999998
  endloop
endfacet
facet normal 0.7071067811865387 0.7071067811865565 2.060746352022429e-16
  outer loop
    vertex 6.830151519016506 2.230151519016547 2.8199664825478975e-15
    vertex 7.700000000000014 1.5626933041053426 23.69999999999998
    vertex 7.7000000000000215 1.5626933041053426 2.8199664825478975e-15
  endloop
endfacet
facet normal 0.5000000000000049 0.8660254037844359 1.4571677198205323e-16
  outer loop
    vertex 7.700000000000014 1.5626933041053426 23.69999999999998
    vertex 6.830151519016506 2.230151519016547 2.8199664825478975e-15
    vertex 6.830151519016499 2.230151519016547 23.69999999999998
  endloop
endfacet
facet normal 0.2588190451025167 0.9659258262890694 7.54285515596316e-17
  outer loop
    vertex 11.145859034533082 10.222814296703115 5.639932965095795e-15
    vertex 12.399999999999983 9.703332099679027 23.699999999999985
    vertex 12.39999999999999 9.703332099679027 5.639932965095795e-15
  endloop
endfacet
facet normal 0.49999999999999223 0.8660254037844433 1.4571677198204953e-16
  outer loop
    vertex 12.399999999999983 9.703332099679027 23.699999999999985
    vertex 11.145859034533082 10.222814296703115 5.639932965095795e-15
    vertex 11.145859034533075 10.222814296703115 23.699999999999985
  endloop
endfacet
facet normal 0.49999999999999223 0.8660254037844433 1.4571677198204953e-16
  outer loop
    vertex 12.39999999999999 9.703332099679027 5.639932965095795e-15
    vertex 13.476955262170026 8.876955262170029 23.699999999999985
    vertex 13.476955262170032 8.876955262170029 5.639932965095795e-15
  endloop
endfacet
facet normal 0.7071067811865476 0.7071067811865476 2.060746352022455e-16
  outer loop
    vertex 13.476955262170026 8.876955262170029 23.699999999999985
    vertex 12.39999999999999 9.703332099679027 5.639932965095795e-15
    vertex 12.399999999999983 9.703332099679027 23.699999999999985
  endloop
endfacet
facet normal 0.7071067811865476 0.7071067811865476 2.060746352022455e-16
  outer loop
    vertex 13.476955262170026 8.876955262170029 23.699999999999985
    vertex 14.303332099679075 7.79999999999994 5.639932965095795e-15
    vertex 13.476955262170032 8.876955262170029 5.639932965095795e-15
  endloop
endfacet
facet normal 0.8660254037844433 0.49999999999999223 2.523888525878441e-16
  outer loop
    vertex 14.303332099679075 7.79999999999994 5.639932965095795e-15
    vertex 13.476955262170026 8.876955262170029 23.699999999999985
    vertex 14.30333209967907 7.79999999999994 23.699999999999985
  endloop
endfacet
facet normal 0.8660254037844433 0.49999999999999223 2.523888525878441e-16
  outer loop
    vertex 14.30333209967907 7.79999999999994 23.699999999999985
    vertex 14.822814296703118 6.545859034533077 5.639932965095795e-15
    vertex 14.303332099679075 7.79999999999994 5.639932965095795e-15
  endloop
endfacet
facet normal 0.9659258262890694 0.2588190451025167 2.815031867618786e-16
  outer loop
    vertex 14.822814296703118 6.545859034533077 5.639932965095795e-15
    vertex 14.30333209967907 7.79999999999994 23.699999999999985
    vertex 14.822814296703113 6.545859034533077 23.699999999999985
  endloop
endfacet
facet normal 0.9659258262890694 0.2588190451025167 2.815031867618786e-16
  outer loop
    vertex 14.822814296703113 6.545859034533077 23.699999999999985
    vertex 14.999999999999984 5.19999999999999 5.639932965095795e-15
    vertex 14.822814296703118 6.545859034533077 5.639932965095795e-15
  endloop
endfacet
facet normal 1.0 0.0 2.914335439641036e-16
  outer loop
    vertex 14.999999999999984 5.19999999999999 5.639932965095795e-15
    vertex 14.822814296703113 6.545859034533077 23.699999999999985
    vertex 14.999999999999979 5.19999999999999 23.699999999999985
  endloop
endfacet
facet normal 1.0 0.0 2.914335439641036e-16
  outer loop
    vertex 14.999999999999979 5.19999999999999 23.699999999999985
    vertex 14.822814296703118 3.854140965466904 5.639932965095795e-15
    vertex 14.999999999999984 5.19999999999999 5.639932965095795e-15
  endloop
endfacet
facet normal 0.9659258262890694 -0.2588190451025167 2.815031867618786e-16
  outer loop
    vertex 14.822814296703118 3.854140965466904 5.639932965095795e-15
    vertex 14.999999999999979 5.19999999999999 23.699999999999985
    vertex 14.822814296703113 3.854140965466904 23.699999999999985
  endloop
endfacet
facet normal 0.9659258262890694 -0.2588190451025167 2.815031867618786e-16
  outer loop
    vertex 14.822814296703113 3.854140965466904 23.699999999999985
    vertex 14.303332099679075 2.6000000000000405 5.639932965095795e-15
    vertex 14.822814296703118 3.854140965466904 5.639932965095795e-15
  endloop
endfacet
facet normal 0.8660254037844433 -0.49999999999999223 2.523888525878441e-16
  outer loop
    vertex 14.303332099679075 2.6000000000000405 5.639932965095795e-15
    vertex 14.822814296703113 3.854140965466904 23.699999999999985
    vertex 14.30333209967907 2.6000000000000405 23.699999999999985
  endloop
endfacet
facet normal 0.8660254037844433 -0.49999999999999223 2.523888525878441e-16
  outer loop
    vertex 14.30333209967907 2.6000000000000405 23.699999999999985
    vertex 13.476955262170032 1.5230447378299523 5.639932965095795e-15
    vertex 14.303332099679075 2.6000000000000405 5.639932965095795e-15
  endloop
endfacet
facet normal 0.7071067811865476 -0.7071067811865476 2.060746352022455e-16
  outer loop
    vertex 13.476955262170032 1.5230447378299523 5.639932965095795e-15
    vertex 14.30333209967907 2.6000000000000405 23.699999999999985
    vertex 13.476955262170026 1.5230447378299523 23.699999999999985
  endloop
endfacet
facet normal 0.49999999999999223 -0.8660254037844433 1.4571677198204953e-16
  outer loop
    vertex 12.399999999999983 0.6966679003209542 23.699999999999985
    vertex 13.476955262170032 1.5230447378299523 5.639932965095795e-15
    vertex 13.476955262170026 1.5230447378299523 23.699999999999985
  endloop
endfacet
facet normal 0.7071067811865476 -0.7071067811865476 2.060746352022455e-16
  outer loop
    vertex 13.476955262170032 1.5230447378299523 5.639932965095795e-15
    vertex 12.399999999999983 0.6966679003209542 23.699999999999985
    vertex 12.39999999999999 0.6966679003209542 5.639932965095795e-15
  endloop
endfacet
facet normal 0.2588190451025167 -0.9659258262890694 7.54285515596316e-17
  outer loop
    vertex 11.145859034533075 0.17718570329686542 23.699999999999985
    vertex 12.39999999999999 0.6966679003209542 5.639932965095795e-15
    vertex 12.399999999999983 0.6966679003209542 23.699999999999985
  endloop
endfacet
facet normal 0.49999999999999223 -0.8660254037844433 1.4571677198204953e-16
  outer loop
    vertex 12.39999999999999 0.6966679003209542 5.639932965095795e-15
    vertex 11.145859034533075 0.17718570329686542 23.699999999999985
    vertex 11.145859034533082 0.17718570329686542 5.639932965095795e-15
  endloop
endfacet
facet normal -0.0 -1.0 0.0
  outer loop
    vertex 9.799999999999988 0.0 23.69999999999998
    vertex 11.145859034533082 0.17718570329686542 5.639932965095795e-15
    vertex 11.145859034533075 0.17718570329686542 23.699999999999985
  endloop
endfacet
facet normal 0.2588190451025167 -0.9659258262890694 7.54285515596316e-17
  outer loop
    vertex 11.145859034533082 0.17718570329686542 5.639932965095795e-15
    vertex 9.799999999999988 0.0 23.69999999999998
    vertex 9.799999999999995 0.0 2.8199664825478975e-15
  endloop
endfacet
facet normal -0.2588190451025167 -0.9659258262890694 -7.54285515596316e-17
  outer loop
    vertex 8.454140965466902 0.17718570329686542 23.69999999999998
    vertex 9.799999999999995 0.0 2.8199664825478975e-15
    vertex 9.799999999999988 0.0 23.69999999999998
  endloop
endfacet
facet normal -0.0 -1.0 0.0
  outer loop
    vertex 9.799999999999995 0.0 2.8199664825478975e-15
    vertex 8.454140965466902 0.17718570329686542 23.69999999999998
    vertex 8.454140965466907 0.17718570329686542 2.8199664825478975e-15
  endloop
endfacet
facet normal -0.49999999999999223 -0.8660254037844433 -1.4571677198204953e-16
  outer loop
    vertex 7.199999999999992 0.6966679003209542 23.69999999999998
    vertex 8.454140965466907 0.17718570329686542 2.8199664825478975e-15
    vertex 8.454140965466902 0.17718570329686542 23.69999999999998
  endloop
endfacet
facet normal -0.2588190451025167 -0.9659258262890694 -7.54285515596316e-17
  outer loop
    vertex 8.454140965466907 0.17718570329686542 2.8199664825478975e-15
    vertex 7.199999999999992 0.6966679003209542 23.69999999999998
    vertex 7.199999999999999 0.6966679003209542 2.8199664825478975e-15
  endloop
endfacet
facet normal -0.7071067811865476 -0.7071067811865476 -2.060746352022455e-16
  outer loop
    vertex 6.123044737829949 1.5230447378299523 23.69999999999998
    vertex 7.199999999999999 0.6966679003209542 2.8199664825478975e-15
    vertex 7.199999999999992 0.6966679003209542 23.69999999999998
  endloop
endfacet
facet normal -0.49999999999999223 -0.8660254037844433 -1.4571677198204953e-16
  outer loop
    vertex 7.199999999999999 0.6966679003209542 2.8199664825478975e-15
    vertex 6.123044737829949 1.5230447378299523 23.69999999999998
    vertex 6.123044737829956 1.5230447378299523 2.8199664825478975e-15
  endloop
endfacet
facet normal -0.7071067811865476 -0.7071067811865476 -2.060746352022455e-16
  outer loop
    vertex 6.123044737829949 1.5230447378299523 23.69999999999998
    vertex 5.296667900320913 2.6000000000000405 2.8199664825478975e-15
    vertex 6.123044737829956 1.5230447378299523 2.8199664825478975e-15
  endloop
endfacet
facet normal -0.8660254037844433 -0.49999999999999223 -2.523888525878441e-16
  outer loop
    vertex 5.296667900320913 2.6000000000000405 2.8199664825478975e-15
    vertex 6.123044737829949 1.5230447378299523 23.69999999999998
    vertex 5.296667900320906 2.6000000000000405 23.69999999999998
  endloop
endfacet
facet normal -0.8660254037844433 -0.49999999999999223 -2.523888525878441e-16
  outer loop
    vertex 5.296667900320906 2.6000000000000405 23.69999999999998
    vertex 4.77718570329687 3.854140965466904 2.8199664825478975e-15
    vertex 5.296667900320913 2.6000000000000405 2.8199664825478975e-15
  endloop
endfacet
facet normal -0.9659258262890694 -0.2588190451025167 -2.815031867618786e-16
  outer loop
    vertex 4.77718570329687 3.854140965466904 2.8199664825478975e-15
    vertex 5.296667900320906 2.6000000000000405 23.69999999999998
    vertex 4.777185703296863 3.854140965466904 23.69999999999998
  endloop
endfacet
facet normal -0.9659258262890694 -0.2588190451025167 -2.815031867618786e-16
  outer loop
    vertex 4.777185703296863 3.854140965466904 23.69999999999998
    vertex 4.600000000000004 5.19999999999999 2.8199664825478975e-15
    vertex 4.77718570329687 3.854140965466904 2.8199664825478975e-15
  endloop
endfacet
facet normal -1.0 0.0 -2.914335439641036e-16
  outer loop
    vertex 4.600000000000004 5.19999999999999 2.8199664825478975e-15
    vertex 4.777185703296863 3.854140965466904 23.69999999999998
    vertex 4.599999999999997 5.19999999999999 23.69999999999998
  endloop
endfacet
facet normal -1.0 0.0 -2.914335439641036e-16
  outer loop
    vertex 4.599999999999997 5.19999999999999 23.69999999999998
    vertex 4.77718570329687 6.545859034533077 2.8199664825478975e-15
    vertex 4.600000000000004 5.19999999999999 2.8199664825478975e-15
  endloop
endfacet
facet normal -0.9659258262890694 0.2588190451025167 -2.815031867618786e-16
  outer loop
    vertex 4.77718570329687 6.545859034533077 2.8199664825478975e-15
    vertex 4.599999999999997 5.19999999999999 23.69999999999998
    vertex 4.777185703296863 6.545859034533077 23.69999999999998
  endloop
endfacet
facet normal -0.9659258262890694 0.2588190451025167 -2.815031867618786e-16
  outer loop
    vertex 4.777185703296863 6.545859034533077 23.69999999999998
    vertex 5.296667900320913 7.79999999999994 2.8199664825478975e-15
    vertex 4.77718570329687 6.545859034533077 2.8199664825478975e-15
  endloop
endfacet
facet normal -0.8660254037844433 0.49999999999999223 -2.523888525878441e-16
  outer loop
    vertex 5.296667900320913 7.79999999999994 2.8199664825478975e-15
    vertex 4.777185703296863 6.545859034533077 23.69999999999998
    vertex 5.296667900320906 7.79999999999994 23.69999999999998
  endloop
endfacet
facet normal -0.8660254037844433 0.49999999999999223 -2.523888525878441e-16
  outer loop
    vertex 5.296667900320906 7.79999999999994 23.69999999999998
    vertex 6.123044737829956 8.876955262170029 2.8199664825478975e-15
    vertex 5.296667900320913 7.79999999999994 2.8199664825478975e-15
  endloop
endfacet
facet normal -0.7071067811865476 0.7071067811865476 -2.060746352022455e-16
  outer loop
    vertex 6.123044737829956 8.876955262170029 2.8199664825478975e-15
    vertex 5.296667900320906 7.79999999999994 23.69999999999998
    vertex 6.123044737829949 8.876955262170029 23.69999999999998
  endloop
endfacet
facet normal -0.7071067811865476 0.7071067811865476 -2.060746352022455e-16
  outer loop
    vertex 6.123044737829956 8.876955262170029 2.8199664825478975e-15
    vertex 7.199999999999992 9.703332099679027 23.69999999999998
    vertex 7.199999999999999 9.703332099679027 2.8199664825478975e-15
  endloop
endfacet
facet normal -0.49999999999999223 0.8660254037844433 -1.4571677198204953e-16
  outer loop
    vertex 7.199999999999992 9.703332099679027 23.69999999999998
    vertex 6.123044737829956 8.876955262170029 2.8199664825478975e-15
    vertex 6.123044737829949 8.876955262170029 23.69999999999998
  endloop
endfacet
facet normal -0.49999999999999223 0.8660254037844433 -1.4571677198204953e-16
  outer loop
    vertex 7.199999999999999 9.703332099679027 2.8199664825478975e-15
    vertex 8.454140965466902 10.222814296703115 23.69999999999998
    vertex 8.454140965466907 10.222814296703115 2.8199664825478975e-15
  endloop
endfacet
facet normal -0.2588190451025167 0.9659258262890694 -7.54285515596316e-17
  outer loop
    vertex 8.454140965466902 10.222814296703115 23.69999999999998
    vertex 7.199999999999999 9.703332099679027 2.8199664825478975e-15
    vertex 7.199999999999992 9.703332099679027 23.69999999999998
  endloop
endfacet
facet normal -0.2588190451025167 0.9659258262890694 -7.54285515596316e-17
  outer loop
    vertex 8.454140965466907 10.222814296703115 2.8199664825478975e-15
    vertex 9.799999999999988 10.39999999999998 23.69999999999998
    vertex 9.799999999999995 10.39999999999998 2.8199664825478975e-15
  endloop
endfacet
facet normal 0.0 1.0 0.0
  outer loop
    vertex 9.799999999999988 10.39999999999998 23.69999999999998
    vertex 8.454140965466907 10.222814296703115 2.8199664825478975e-15
    vertex 8.454140965466902 10.222814296703115 23.69999999999998
  endloop
endfacet
facet normal 0.0 1.0 0.0
  outer loop
    vertex 9.799999999999995 10.39999999999998 2.8199664825478975e-15
    vertex 11.145859034533075 10.222814296703115 23.699999999999985
    vertex 11.145859034533082 10.222814296703115 5.639932965095795e-15
  endloop
endfacet
facet normal 0.2588190451025167 0.9659258262890694 7.54285515596316e-17
  outer loop
    vertex 11.145859034533075 10.222814296703115 23.699999999999985
    vertex 9.799999999999995 10.39999999999998 2.8199664825478975e-15
    vertex 9.799999999999988 10.39999999999998 23.69999999999998
  endloop
endfacet
facet normal 2.914335439641036e-16 0.0 -1.0
  outer loop
    vertex 8.454140965466907 0.17718570329686542 2.8199664825478975e-15
    vertex 11.145859034533082 0.17718570329686542 5.639932965095795e-15
    vertex 9.799999999999995 0.0 2.8199664825478975e-15
  endloop
endfacet
facet normal 2.914335439641036e-16 0.0 -1.0
  outer loop
    vertex 11.145859034533082 0.17718570329686542 5.639932965095795e-15
    vertex 8.454140965466907 0.17718570329686542 2.8199664825478975e-15
    vertex 7.199999999999999 0.6966679003209542 2.8199664825478975e-15
  endloop
endfacet
facet normal 2.914335439641036e-16 0.0 -1.0
  outer loop
    vertex 11.145859034533082 0.17718570329686542 5.639932965095795e-15
    vertex 7.199999999999999 0.6966679003209542 2.8199664825478975e-15
    vertex 12.39999999999999 0.6966679003209542 5.639932965095795e-15
  endloop
endfacet
facet normal 2.914335439641036e-16 0.0 -1.0
  outer loop
    vertex 12.39999999999999 0.6966679003209542 5.639932965095795e-15
    vertex 7.199999999999999 0.6966679003209542 2.8199664825478975e-15
    vertex 9.799999999999995 1.0000000000000433 2.8199664825478975e-15
  endloop
endfacet
facet normal 2.914335439641036e-16 0.0 -1.0
  outer loop
    vertex 9.799999999999995 1.0000000000000433 2.8199664825478975e-15
    vertex 7.199999999999999 0.6966679003209542 2.8199664825478975e-15
    vertex 8.712960010569397 1.1431115295859036 2.8199664825478975e-15
  endloop
endfacet
facet normal 2.914335439641036e-16 0.0 -1.0
  outer loop
    vertex 8.712960010569397 1.1431115295859036 2.8199664825478975e-15
    vertex 7.199999999999999 0.6966679003209542 2.8199664825478975e-15
    vertex 6.123044737829956 1.5230447378299523 2.8199664825478975e-15
  endloop
endfacet
facet normal 2.914335439641036e-16 0.0 -1.0
  outer loop
    vertex 8.712960010569397 1.1431115295859036 2.8199664825478975e-15
    vertex 6.123044737829956 1.5230447378299523 2.8199664825478975e-15
    vertex 7.7000000000000215 1.5626933041053426 2.8199664825478975e-15
  endloop
endfacet
facet normal 2.914335439641036e-16 0.0 -1.0
  outer loop
    vertex 7.7000000000000215 1.5626933041053426 2.8199664825478975e-15
    vertex 6.123044737829956 1.5230447378299523 2.8199664825478975e-15
    vertex 5.296667900320913 2.6000000000000405 2.8199664825478975e-15
  endloop
endfacet
facet normal 2.914335439641036e-16 0.0 -1.0
  outer loop
    vertex 7.7000000000000215 1.5626933041053426 2.8199664825478975e-15
    vertex 5.296667900320913 2.6000000000000405 2.8199664825478975e-15
    vertex 6.830151519016506 2.230151519016547 2.8199664825478975e-15
  endloop
endfacet
facet normal 2.914335439641036e-16 0.0 -1.0
  outer loop
    vertex 6.830151519016506 2.230151519016547 2.8199664825478975e-15
    vertex 5.296667900320913 2.6000000000000405 2.8199664825478975e-15
    vertex 6.162693304105347 3.099999999999927 2.8199664825478975e-15
  endloop
endfacet
facet normal 2.914335439641036e-16 0.0 -1.0
  outer loop
    vertex 6.162693304105347 3.099999999999927 2.8199664825478975e-15
    vertex 5.296667900320913 2.6000000000000405 2.8199664825478975e-15
    vertex 4.77718570329687 3.854140965466904 2.8199664825478975e-15
  endloop
endfacet
facet normal 2.914335439641036e-16 0.0 -1.0
  outer loop
    vertex 6.162693304105347 3.099999999999927 2.8199664825478975e-15
    vertex 4.77718570329687 3.854140965466904 2.8199664825478975e-15
    vertex 5.743111529585908 4.112960010569347 2.8199664825478975e-15
  endloop
endfacet
facet normal 2.914335439641036e-16 0.0 -1.0
  outer loop
    vertex 5.743111529585908 4.112960010569347 2.8199664825478975e-15
    vertex 4.77718570329687 3.854140965466904 2.8199664825478975e-15
    vertex 4.600000000000004 5.19999999999999 2.8199664825478975e-15
  endloop
endfacet
facet normal 2.914335439641036e-16 0.0 -1.0
  outer loop
    vertex 5.743111529585908 4.112960010569347 2.8199664825478975e-15
    vertex 4.600000000000004 5.19999999999999 2.8199664825478975e-15
    vertex 5.600000000000002 5.19999999999999 2.8199664825478975e-15
  endloop
endfacet
facet normal 2.914335439641036e-16 0.0 -1.0
  outer loop
    vertex 5.600000000000002 5.19999999999999 2.8199664825478975e-15
    vertex 4.600000000000004 5.19999999999999 2.8199664825478975e-15
    vertex 4.77718570329687 6.545859034533077 2.8199664825478975e-15
  endloop
endfacet
facet normal 2.914335439641036e-16 0.0 -1.0
  outer loop
    vertex 5.600000000000002 5.19999999999999 2.8199664825478975e-15
    vertex 4.77718570329687 6.545859034533077 2.8199664825478975e-15
    vertex 5.743111529585908 6.2870399894306335 2.8199664825478975e-15
  endloop
endfacet
facet normal 2.914335439641036e-16 0.0 -1.0
  outer loop
    vertex 5.743111529585908 6.2870399894306335 2.8199664825478975e-15
    vertex 4.77718570329687 6.545859034533077 2.8199664825478975e-15
    vertex 6.162693304105347 7.299999999999964 2.8199664825478975e-15
  endloop
endfacet
facet normal 2.914335439641036e-16 0.0 -1.0
  outer loop
    vertex 6.162693304105347 7.299999999999964 2.8199664825478975e-15
    vertex 4.77718570329687 6.545859034533077 2.8199664825478975e-15
    vertex 5.296667900320913 7.79999999999994 2.8199664825478975e-15
  endloop
endfacet
facet normal 2.914335439641036e-16 0.0 -1.0
  outer loop
    vertex 6.162693304105347 7.299999999999964 2.8199664825478975e-15
    vertex 5.296667900320913 7.79999999999994 2.8199664825478975e-15
    vertex 6.830151519016506 8.169848480983434 2.8199664825478975e-15
  endloop
endfacet
facet normal 2.914335439641036e-16 0.0 -1.0
  outer loop
    vertex 6.830151519016506 8.169848480983434 2.8199664825478975e-15
    vertex 5.296667900320913 7.79999999999994 2.8199664825478975e-15
    vertex 6.123044737829956 8.876955262170029 2.8199664825478975e-15
  endloop
endfacet
facet normal 2.914335439641036e-16 0.0 -1.0
  outer loop
    vertex 6.830151519016506 8.169848480983434 2.8199664825478975e-15
    vertex 6.123044737829956 8.876955262170029 2.8199664825478975e-15
    vertex 7.699999999999976 8.837306695894638 2.8199664825478975e-15
  endloop
endfacet
facet normal 2.914335439641036e-16 0.0 -1.0
  outer loop
    vertex 7.699999999999976 8.837306695894638 2.8199664825478975e-15
    vertex 6.123044737829956 8.876955262170029 2.8199664825478975e-15
    vertex 8.712960010569397 9.256888470414077 2.8199664825478975e-15
  endloop
endfacet
facet normal 2.914335439641036e-16 0.0 -1.0
  outer loop
    vertex 8.712960010569397 9.256888470414077 2.8199664825478975e-15
    vertex 6.123044737829956 8.876955262170029 2.8199664825478975e-15
    vertex 7.199999999999999 9.703332099679027 2.8199664825478975e-15
  endloop
endfacet
facet normal 2.914335439641036e-16 0.0 -1.0
  outer loop
    vertex 8.712960010569397 9.256888470414077 2.8199664825478975e-15
    vertex 7.199999999999999 9.703332099679027 2.8199664825478975e-15
    vertex 9.799999999999995 9.399999999999938 2.8199664825478975e-15
  endloop
endfacet
facet normal 2.914335439641036e-16 0.0 -1.0
  outer loop
    vertex 12.39999999999999 0.6966679003209542 5.639932965095795e-15
    vertex 10.887039989430592 1.1431115295859036 5.639932965095795e-15
    vertex 13.476955262170032 1.5230447378299523 5.639932965095795e-15
  endloop
endfacet
facet normal 2.914335439641036e-16 0.0 -1.0
  outer loop
    vertex 10.887039989430592 1.1431115295859036 5.639932965095795e-15
    vertex 12.39999999999999 0.6966679003209542 5.639932965095795e-15
    vertex 9.799999999999995 1.0000000000000433 2.8199664825478975e-15
  endloop
endfacet
facet normal 2.914335439641036e-16 0.0 -1.0
  outer loop
    vertex 13.476955262170032 1.5230447378299523 5.639932965095795e-15
    vertex 10.887039989430592 1.1431115295859036 5.639932965095795e-15
    vertex 11.900000000000013 1.5626933041053426 5.639932965095795e-15
  endloop
endfacet
facet normal 2.914335439641036e-16 0.0 -1.0
  outer loop
    vertex 13.476955262170032 1.5230447378299523 5.639932965095795e-15
    vertex 11.900000000000013 1.5626933041053426 5.639932965095795e-15
    vertex 14.303332099679075 2.6000000000000405 5.639932965095795e-15
  endloop
endfacet
facet normal 2.914335439641036e-16 0.0 -1.0
  outer loop
    vertex 14.303332099679075 2.6000000000000405 5.639932965095795e-15
    vertex 11.900000000000013 1.5626933041053426 5.639932965095795e-15
    vertex 12.769848480983482 2.230151519016547 5.639932965095795e-15
  endloop
endfacet
facet normal 2.914335439641036e-16 0.0 -1.0
  outer loop
    vertex 14.303332099679075 2.6000000000000405 5.639932965095795e-15
    vertex 12.769848480983482 2.230151519016547 5.639932965095795e-15
    vertex 13.437306695894641 3.100000000000017 5.639932965095795e-15
  endloop
endfacet
facet normal 2.914335439641036e-16 0.0 -1.0
  outer loop
    vertex 14.303332099679075 2.6000000000000405 5.639932965095795e-15
    vertex 13.437306695894641 3.100000000000017 5.639932965095795e-15
    vertex 14.822814296703118 3.854140965466904 5.639932965095795e-15
  endloop
endfacet
facet normal 2.914335439641036e-16 0.0 -1.0
  outer loop
    vertex 14.822814296703118 3.854140965466904 5.639932965095795e-15
    vertex 13.437306695894641 3.100000000000017 5.639932965095795e-15
    vertex 13.85688847041408 4.112960010569347 5.639932965095795e-15
  endloop
endfacet
facet normal 2.914335439641036e-16 0.0 -1.0
  outer loop
    vertex 14.822814296703118 3.854140965466904 5.639932965095795e-15
    vertex 13.85688847041408 4.112960010569347 5.639932965095795e-15
    vertex 14.999999999999984 5.19999999999999 5.639932965095795e-15
  endloop
endfacet
facet normal 2.914335439641036e-16 0.0 -1.0
  outer loop
    vertex 14.999999999999984 5.19999999999999 5.639932965095795e-15
    vertex 13.85688847041408 4.112960010569347 5.639932965095795e-15
    vertex 13.999999999999986 5.19999999999999 5.639932965095795e-15
  endloop
endfacet
facet normal 2.914335439641036e-16 0.0 -1.0
  outer loop
    vertex 14.999999999999984 5.19999999999999 5.639932965095795e-15
    vertex 13.999999999999986 5.19999999999999 5.639932965095795e-15
    vertex 13.85688847041408 6.2870399894306335 5.639932965095795e-15
  endloop
endfacet
facet normal 2.914335439641036e-16 0.0 -1.0
  outer loop
    vertex 14.999999999999984 5.19999999999999 5.639932965095795e-15
    vertex 13.85688847041408 6.2870399894306335 5.639932965095795e-15
    vertex 14.822814296703118 6.545859034533077 5.639932965095795e-15
  endloop
endfacet
facet normal 2.914335439641036e-16 0.0 -1.0
  outer loop
    vertex 14.822814296703118 6.545859034533077 5.639932965095795e-15
    vertex 13.85688847041408 6.2870399894306335 5.639932965095795e-15
    vertex 13.437306695894641 7.300000000000054 5.639932965095795e-15
  endloop
endfacet
facet normal 2.914335439641036e-16 0.0 -1.0
  outer loop
    vertex 14.822814296703118 6.545859034533077 5.639932965095795e-15
    vertex 13.437306695894641 7.300000000000054 5.639932965095795e-15
    vertex 14.303332099679075 7.79999999999994 5.639932965095795e-15
  endloop
endfacet
facet normal 2.914335439641036e-16 0.0 -1.0
  outer loop
    vertex 14.303332099679075 7.79999999999994 5.639932965095795e-15
    vertex 13.437306695894641 7.300000000000054 5.639932965095795e-15
    vertex 12.769848480983482 8.169848480983434 5.639932965095795e-15
  endloop
endfacet
facet normal 2.914335439641036e-16 0.0 -1.0
  outer loop
    vertex 14.303332099679075 7.79999999999994 5.639932965095795e-15
    vertex 12.769848480983482 8.169848480983434 5.639932965095795e-15
    vertex 13.476955262170032 8.876955262170029 5.639932965095795e-15
  endloop
endfacet
facet normal 2.914335439641036e-16 0.0 -1.0
  outer loop
    vertex 13.476955262170032 8.876955262170029 5.639932965095795e-15
    vertex 12.769848480983482 8.169848480983434 5.639932965095795e-15
    vertex 11.899999999999968 8.837306695894638 5.639932965095795e-15
  endloop
endfacet
facet normal 2.914335439641036e-16 0.0 -1.0
  outer loop
    vertex 13.476955262170032 8.876955262170029 5.639932965095795e-15
    vertex 11.899999999999968 8.837306695894638 5.639932965095795e-15
    vertex 10.887039989430592 9.256888470414077 5.639932965095795e-15
  endloop
endfacet
facet normal 2.914335439641036e-16 0.0 -1.0
  outer loop
    vertex 13.476955262170032 8.876955262170029 5.639932965095795e-15
    vertex 10.887039989430592 9.256888470414077 5.639932965095795e-15
    vertex 12.39999999999999 9.703332099679027 5.639932965095795e-15
  endloop
endfacet
facet normal 2.914335439641036e-16 0.0 -1.0
  outer loop
    vertex 12.39999999999999 9.703332099679027 5.639932965095795e-15
    vertex 10.887039989430592 9.256888470414077 5.639932965095795e-15
    vertex 9.799999999999995 9.399999999999938 2.8199664825478975e-15
  endloop
endfacet
facet normal 2.914335439641036e-16 0.0 -1.0
  outer loop
    vertex 12.39999999999999 9.703332099679027 5.639932965095795e-15
    vertex 9.799999999999995 9.399999999999938 2.8199664825478975e-15
    vertex 7.199999999999999 9.703332099679027 2.8199664825478975e-15
  endloop
endfacet
facet normal 2.914335439641036e-16 0.0 -1.0
  outer loop
    vertex 12.39999999999999 9.703332099679027 5.639932965095795e-15
    vertex 7.199999999999999 9.703332099679027 2.8199664825478975e-15
    vertex 8.454140965466907 10.222814296703115 2.8199664825478975e-15
  endloop
endfacet
facet normal 2.914335439641036e-16 0.0 -1.0
  outer loop
    vertex 12.39999999999999 9.703332099679027 5.639932965095795e-15
    vertex 8.454140965466907 10.222814296703115 2.8199664825478975e-15
    vertex 11.145859034533082 10.222814296703115 5.639932965095795e-15
  endloop
endfacet
facet normal 2.914335439641036e-16 0.0 -1.0
  outer loop
    vertex 11.145859034533082 10.222814296703115 5.639932965095795e-15
    vertex 8.454140965466907 10.222814296703115 2.8199664825478975e-15
    vertex 9.799999999999995 10.39999999999998 2.8199664825478975e-15
  endloop
endfacet
facet normal -2.914335439641036e-16 0.0 1.0
  outer loop
    vertex 11.145859034533075 0.17718570329686542 23.699999999999985
    vertex 8.454140965466902 0.17718570329686542 23.69999999999998
    vertex 9.799999999999988 0.0 23.69999999999998
  endloop
endfacet
facet normal -2.914335439641036e-16 0.0 1.0
  outer loop
    vertex 8.454140965466902 0.17718570329686542 23.69999999999998
    vertex 11.145859034533075 0.17718570329686542 23.699999999999985
    vertex 12.399999999999983 0.6966679003209542 23.699999999999985
  endloop
endfacet
facet normal -2.914335439641036e-16 0.0 1.0
  outer loop
    vertex 8.454140965466902 0.17718570329686542 23.69999999999998
    vertex 12.399999999999983 0.6966679003209542 23.699999999999985
    vertex 7.199999999999992 0.6966679003209542 23.69999999999998
  endloop
endfacet
facet normal -2.914335439641036e-16 0.0 1.0
  outer loop
    vertex 7.199999999999992 0.6966679003209542 23.69999999999998
    vertex 12.399999999999983 0.6966679003209542 23.699999999999985
    vertex 9.799999999999988 1.0000000000000433 23.69999999999998
  endloop
endfacet
facet normal -2.914335439641036e-16 0.0 1.0
  outer loop
    vertex 9.799999999999988 1.0000000000000433 23.69999999999998
    vertex 12.399999999999983 0.6966679003209542 23.699999999999985
    vertex 10.887039989430585 1.1431115295859036 23.699999999999985
  endloop
endfacet
facet normal -2.914335439641036e-16 0.0 1.0
  outer loop
    vertex 10.887039989430585 1.1431115295859036 23.699999999999985
    vertex 12.399999999999983 0.6966679003209542 23.699999999999985
    vertex 13.476955262170026 1.5230447378299523 23.699999999999985
  endloop
endfacet
facet normal -2.914335439641036e-16 0.0 1.0
  outer loop
    vertex 10.887039989430585 1.1431115295859036 23.699999999999985
    vertex 13.476955262170026 1.5230447378299523 23.699999999999985
    vertex 11.900000000000006 1.5626933041053426 23.699999999999985
  endloop
endfacet
facet normal -2.914335439641036e-16 0.0 1.0
  outer loop
    vertex 11.900000000000006 1.5626933041053426 23.699999999999985
    vertex 13.476955262170026 1.5230447378299523 23.699999999999985
    vertex 14.30333209967907 2.6000000000000405 23.699999999999985
  endloop
endfacet
facet normal -2.914335439641036e-16 0.0 1.0
  outer loop
    vertex 11.900000000000006 1.5626933041053426 23.699999999999985
    vertex 14.30333209967907 2.6000000000000405 23.699999999999985
    vertex 12.769848480983477 2.230151519016547 23.699999999999985
  endloop
endfacet
facet normal -2.914335439641036e-16 0.0 1.0
  outer loop
    vertex 12.769848480983477 2.230151519016547 23.699999999999985
    vertex 14.30333209967907 2.6000000000000405 23.699999999999985
    vertex 13.437306695894636 3.100000000000017 23.699999999999985
  endloop
endfacet
facet normal -2.914335439641036e-16 0.0 1.0
  outer loop
    vertex 13.437306695894636 3.100000000000017 23.699999999999985
    vertex 14.30333209967907 2.6000000000000405 23.699999999999985
    vertex 14.822814296703113 3.854140965466904 23.699999999999985
  endloop
endfacet
facet normal -2.914335439641036e-16 0.0 1.0
  outer loop
    vertex 13.437306695894636 3.100000000000017 23.699999999999985
    vertex 14.822814296703113 3.854140965466904 23.699999999999985
    vertex 13.856888470414075 4.112960010569347 23.699999999999985
  endloop
endfacet
facet normal -2.914335439641036e-16 0.0 1.0
  outer loop
    vertex 13.856888470414075 4.112960010569347 23.699999999999985
    vertex 14.822814296703113 3.854140965466904 23.699999999999985
    vertex 14.999999999999979 5.19999999999999 23.699999999999985
  endloop
endfacet
facet normal -2.914335439641036e-16 0.0 1.0
  outer loop
    vertex 13.856888470414075 4.112960010569347 23.699999999999985
    vertex 14.999999999999979 5.19999999999999 23.699999999999985
    vertex 13.99999999999998 5.19999999999999 23.699999999999985
  endloop
endfacet
facet normal -2.914335439641036e-16 0.0 1.0
  outer loop
    vertex 13.99999999999998 5.19999999999999 23.699999999999985
    vertex 14.999999999999979 5.19999999999999 23.699999999999985
    vertex 14.822814296703113 6.545859034533077 23.699999999999985
  endloop
endfacet
facet normal -2.914335439641036e-16 0.0 1.0
  outer loop
    vertex 13.99999999999998 5.19999999999999 23.699999999999985
    vertex 14.822814296703113 6.545859034533077 23.699999999999985
    vertex 13.856888470414075 6.2870399894306335 23.699999999999985
  endloop
endfacet
facet normal -2.914335439641036e-16 0.0 1.0
  outer loop
    vertex 13.856888470414075 6.2870399894306335 23.699999999999985
    vertex 14.822814296703113 6.545859034533077 23.699999999999985
    vertex 13.437306695894636 7.300000000000054 23.699999999999985
  endloop
endfacet
facet normal -2.914335439641036e-16 0.0 1.0
  outer loop
    vertex 13.437306695894636 7.300000000000054 23.699999999999985
    vertex 14.822814296703113 6.545859034533077 23.699999999999985
    vertex 14.30333209967907 7.79999999999994 23.699999999999985
  endloop
endfacet
facet normal -2.914335439641036e-16 0.0 1.0
  outer loop
    vertex 13.437306695894636 7.300000000000054 23.699999999999985
    vertex 14.30333209967907 7.79999999999994 23.699999999999985
    vertex 12.769848480983477 8.169848480983434 23.699999999999985
  endloop
endfacet
facet normal -2.914335439641036e-16 0.0 1.0
  outer loop
    vertex 12.769848480983477 8.169848480983434 23.699999999999985
    vertex 14.30333209967907 7.79999999999994 23.699999999999985
    vertex 13.476955262170026 8.876955262170029 23.699999999999985
  endloop
endfacet
facet normal -2.914335439641036e-16 0.0 1.0
  outer loop
    vertex 12.769848480983477 8.169848480983434 23.699999999999985
    vertex 13.476955262170026 8.876955262170029 23.699999999999985
    vertex 11.899999999999961 8.837306695894638 23.699999999999985
  endloop
endfacet
facet normal -2.914335439641036e-16 0.0 1.0
  outer loop
    vertex 11.899999999999961 8.837306695894638 23.699999999999985
    vertex 13.476955262170026 8.876955262170029 23.699999999999985
    vertex 10.887039989430585 9.256888470414077 23.699999999999985
  endloop
endfacet
facet normal -2.914335439641036e-16 0.0 1.0
  outer loop
    vertex 10.887039989430585 9.256888470414077 23.699999999999985
    vertex 13.476955262170026 8.876955262170029 23.699999999999985
    vertex 12.399999999999983 9.703332099679027 23.699999999999985
  endloop
endfacet
facet normal -2.914335439641036e-16 0.0 1.0
  outer loop
    vertex 10.887039989430585 9.256888470414077 23.699999999999985
    vertex 12.399999999999983 9.703332099679027 23.699999999999985
    vertex 9.799999999999988 9.399999999999938 23.69999999999998
  endloop
endfacet
facet normal -2.914335439641036e-16 0.0 1.0
  outer loop
    vertex 7.199999999999992 0.6966679003209542 23.69999999999998
    vertex 8.71296001056939 1.1431115295859036 23.69999999999998
    vertex 6.123044737829949 1.5230447378299523 23.69999999999998
  endloop
endfacet
facet normal -2.914335439641036e-16 0.0 1.0
  outer loop
    vertex 8.71296001056939 1.1431115295859036 23.69999999999998
    vertex 7.199999999999992 0.6966679003209542 23.69999999999998
    vertex 9.799999999999988 1.0000000000000433 23.69999999999998
  endloop
endfacet
facet normal -2.914335439641036e-16 0.0 1.0
  outer loop
    vertex 6.123044737829949 1.5230447378299523 23.69999999999998
    vertex 8.71296001056939 1.1431115295859036 23.69999999999998
    vertex 7.700000000000014 1.5626933041053426 23.69999999999998
  endloop
endfacet
facet normal -2.914335439641036e-16 0.0 1.0
  outer loop
    vertex 6.123044737829949 1.5230447378299523 23.69999999999998
    vertex 7.700000000000014 1.5626933041053426 23.69999999999998
    vertex 5.296667900320906 2.6000000000000405 23.69999999999998
  endloop
endfacet
facet normal -2.914335439641036e-16 0.0 1.0
  outer loop
    vertex 5.296667900320906 2.6000000000000405 23.69999999999998
    vertex 7.700000000000014 1.5626933041053426 23.69999999999998
    vertex 6.830151519016499 2.230151519016547 23.69999999999998
  endloop
endfacet
facet normal -2.914335439641036e-16 0.0 1.0
  outer loop
    vertex 5.296667900320906 2.6000000000000405 23.69999999999998
    vertex 6.830151519016499 2.230151519016547 23.69999999999998
    vertex 6.16269330410534 3.099999999999927 23.69999999999998
  endloop
endfacet
facet normal -2.914335439641036e-16 0.0 1.0
  outer loop
    vertex 5.296667900320906 2.6000000000000405 23.69999999999998
    vertex 6.16269330410534 3.099999999999927 23.69999999999998
    vertex 4.777185703296863 3.854140965466904 23.69999999999998
  endloop
endfacet
facet normal -2.914335439641036e-16 0.0 1.0
  outer loop
    vertex 4.777185703296863 3.854140965466904 23.69999999999998
    vertex 6.16269330410534 3.099999999999927 23.69999999999998
    vertex 5.743111529585901 4.112960010569347 23.69999999999998
  endloop
endfacet
facet normal -2.914335439641036e-16 0.0 1.0
  outer loop
    vertex 4.777185703296863 3.854140965466904 23.69999999999998
    vertex 5.743111529585901 4.112960010569347 23.69999999999998
    vertex 4.599999999999997 5.19999999999999 23.69999999999998
  endloop
endfacet
facet normal -2.914335439641036e-16 0.0 1.0
  outer loop
    vertex 4.599999999999997 5.19999999999999 23.69999999999998
    vertex 5.743111529585901 4.112960010569347 23.69999999999998
    vertex 5.599999999999995 5.19999999999999 23.69999999999998
  endloop
endfacet
facet normal -2.914335439641036e-16 0.0 1.0
  outer loop
    vertex 4.599999999999997 5.19999999999999 23.69999999999998
    vertex 5.599999999999995 5.19999999999999 23.69999999999998
    vertex 5.743111529585901 6.2870399894306335 23.69999999999998
  endloop
endfacet
facet normal -2.914335439641036e-16 0.0 1.0
  outer loop
    vertex 4.599999999999997 5.19999999999999 23.69999999999998
    vertex 5.743111529585901 6.2870399894306335 23.69999999999998
    vertex 4.777185703296863 6.545859034533077 23.69999999999998
  endloop
endfacet
facet normal -2.914335439641036e-16 0.0 1.0
  outer loop
    vertex 4.777185703296863 6.545859034533077 23.69999999999998
    vertex 5.743111529585901 6.2870399894306335 23.69999999999998
    vertex 6.16269330410534 7.299999999999964 23.69999999999998
  endloop
endfacet
facet normal -2.914335439641036e-16 0.0 1.0
  outer loop
    vertex 4.777185703296863 6.545859034533077 23.69999999999998
    vertex 6.16269330410534 7.299999999999964 23.69999999999998
    vertex 5.296667900320906 7.79999999999994 23.69999999999998
  endloop
endfacet
facet normal -2.914335439641036e-16 0.0 1.0
  outer loop
    vertex 5.296667900320906 7.79999999999994 23.69999999999998
    vertex 6.16269330410534 7.299999999999964 23.69999999999998
    vertex 6.830151519016499 8.169848480983434 23.69999999999998
  endloop
endfacet
facet normal -2.914335439641036e-16 0.0 1.0
  outer loop
    vertex 5.296667900320906 7.79999999999994 23.69999999999998
    vertex 6.830151519016499 8.169848480983434 23.69999999999998
    vertex 6.123044737829949 8.876955262170029 23.69999999999998
  endloop
endfacet
facet normal -2.914335439641036e-16 0.0 1.0
  outer loop
    vertex 6.123044737829949 8.876955262170029 23.69999999999998
    vertex 6.830151519016499 8.169848480983434 23.69999999999998
    vertex 7.699999999999969 8.837306695894638 23.69999999999998
  endloop
endfacet
facet normal -2.914335439641036e-16 0.0 1.0
  outer loop
    vertex 6.123044737829949 8.876955262170029 23.69999999999998
    vertex 7.699999999999969 8.837306695894638 23.69999999999998
    vertex 8.71296001056939 9.256888470414077 23.69999999999998
  endloop
endfacet
facet normal -2.914335439641036e-16 0.0 1.0
  outer loop
    vertex 6.123044737829949 8.876955262170029 23.69999999999998
    vertex 8.71296001056939 9.256888470414077 23.69999999999998
    vertex 7.199999999999992 9.703332099679027 23.69999999999998
  endloop
endfacet
facet normal -2.914335439641036e-16 0.0 1.0
  outer loop
    vertex 7.199999999999992 9.703332099679027 23.69999999999998
    vertex 8.71296001056939 9.256888470414077 23.69999999999998
    vertex 9.799999999999988 9.399999999999938 23.69999999999998
  endloop
endfacet
facet normal -2.914335439641036e-16 0.0 1.0
  outer loop
    vertex 7.199999999999992 9.703332099679027 23.69999999999998
    vertex 9.799999999999988 9.399999999999938 23.69999999999998
    vertex 12.399999999999983 9.703332099679027 23.699999999999985
  endloop
endfacet
facet normal -2.914335439641036e-16 0.0 1.0
  outer loop
    vertex 7.199999999999992 9.703332099679027 23.69999999999998
    vertex 12.399999999999983 9.703332099679027 23.699999999999985
    vertex 11.145859034533075 10.222814296703115 23.699999999999985
  endloop
endfacet
facet normal -2.914335439641036e-16 0.0 1.0
  outer loop
    vertex 7.199999999999992 9.703332099679027 23.69999999999998
    vertex 11.145859034533075 10.222814296703115 23.699999999999985
    vertex 8.454140965466902 10.222814296703115 23.69999999999998
  endloop
endfacet
facet normal -2.914335439641036e-16 0.0 1.0
  outer loop
    vertex 8.454140965466902 10.222814296703115 23.69999999999998
    vertex 11.145859034533075 10.222814296703115 23.699999999999985
    vertex 9.799999999999988 10.39999999999998 23.69999999999998
  endloop
endfacet
endsolid Untitled-565350ff
