solid Untitled-56535055
facet normal 0.5000000000000049 0.8660254037844359 1.3877787807814595e-16
  outer loop
    vertex -7.1228142967030985 1.5626933041053426 -1.3211653993039267e-15
    vertex -6.109854286133723 1.1431115295859036 0.5000000000000205
    vertex -6.109854286133723 1.1431115295859036 -1.040012517614261e-15
  endloop
endfacet
facet normal 0.2588190451025207 0.9659258262890683 7.183671577107885e-17
  outer loop
    vertex -6.109854286133723 1.1431115295859036 0.5000000000000205
    vertex -7.1228142967030985 1.5626933041053426 -1.3211653993039267e-15
    vertex -7.1228142967030985 1.5626933041053426 0.5000000000000203
  endloop
endfacet
facet normal 0.2588190451025207 0.9659258262890683 7.183671577107885e-17
  outer loop
    vertex -6.109854286133723 1.1431115295859036 -1.040012517614261e-15
    vertex -5.022814296703125 0.9999999999999981 0.500000000000021
    vertex -5.022814296703125 0.9999999999999981 -7.382983113757268e-16
  endloop
endfacet
facet normal 0.0 1.0 0.0
  outer loop
    vertex -5.022814296703125 0.9999999999999981 0.500000000000021
    vertex -6.109854286133723 1.1431115295859036 -1.040012517614261e-15
    vertex -6.109854286133723 1.1431115295859036 0.5000000000000205
  endloop
endfacet
facet normal 0.0 1.0 0.0
  outer loop
    vertex -5.022814296703125 0.9999999999999981 -7.382983113757268e-16
    vertex -3.9357743072725273 1.1431115295859036 0.5000000000000212
    vertex -3.9357743072725273 1.1431115295859036 -4.365841051371925e-16
  endloop
endfacet
facet normal -0.25881904510251325 0.9659258262890703 -7.183671577107678e-17
  outer loop
    vertex -3.9357743072725273 1.1431115295859036 0.5000000000000212
    vertex -5.022814296703125 0.9999999999999981 -7.382983113757268e-16
    vertex -5.022814296703125 0.9999999999999981 0.500000000000021
  endloop
endfacet
facet normal -0.25881904510251325 0.9659258262890703 -7.183671577107678e-17
  outer loop
    vertex -3.9357743072725273 1.1431115295859036 -4.365841051371925e-16
    vertex -2.9228142967031063 1.5626933041053426 0.5000000000000214
    vertex -2.9228142967031063 1.5626933041053426 -1.5543122344751426e-16
  endloop
endfacet
facet normal -0.5000000000000089 0.8660254037844335 -1.3877787807814706e-16
  outer loop
    vertex -2.9228142967031063 1.5626933041053426 0.5000000000000214
    vertex -3.9357743072725273 1.1431115295859036 -4.365841051371925e-16
    vertex -3.9357743072725273 1.1431115295859036 0.5000000000000212
  endloop
endfacet
facet normal -0.5000000000000089 0.8660254037844335 -1.3877787807814706e-16
  outer loop
    vertex -2.9228142967031063 1.5626933041053426 -1.5543122344751426e-16
    vertex -2.052965815719636 2.2301515190165015 0.5000000000000218
    vertex -2.052965815719636 2.2301515190165015 8.600022943325237e-17
  endloop
endfacet
facet normal -0.7071067811865565 0.7071067811865387 -1.962615573354744e-16
  outer loop
    vertex -2.052965815719636 2.2301515190165015 0.5000000000000218
    vertex -2.9228142967031063 1.5626933041053426 -1.5543122344751426e-16
    vertex -2.9228142967031063 1.5626933041053426 0.5000000000000214
  endloop
endfacet
facet normal -0.7071067811865565 0.7071067811865387 -1.962615573354744e-16
  outer loop
    vertex -2.052965815719636 2.2301515190165015 0.5000000000000218
    vertex -1.3855076008084772 3.100000000000017 2.7125709897564604e-16
    vertex -2.052965815719636 2.2301515190165015 8.600022943325237e-17
  endloop
endfacet
facet normal -0.8660254037844359 0.5000000000000049 -2.4037033579794477e-16
  outer loop
    vertex -1.3855076008084772 3.100000000000017 2.7125709897564604e-16
    vertex -2.052965815719636 2.2301515190165015 0.5000000000000218
    vertex -1.3855076008084772 3.100000000000017 0.5000000000000219
  endloop
endfacet
facet normal -0.8660254037844359 0.5000000000000049 -2.4037033579794477e-16
  outer loop
    vertex -1.3855076008084772 3.100000000000017 0.5000000000000219
    vertex -0.9659258262890382 4.112960010569393 3.877144356717866e-16
    vertex -1.3855076008084772 3.100000000000017 2.7125709897564604e-16
  endloop
endfacet
facet normal -0.9659258262890683 0.2588190451025207 -2.680982731065508e-16
  outer loop
    vertex -0.9659258262890382 4.112960010569393 3.877144356717866e-16
    vertex -1.3855076008084772 3.100000000000017 0.5000000000000219
    vertex -0.9659258262890384 4.112960010569393 0.500000000000022
  endloop
endfacet
facet normal -0.9659258262890683 0.2588190451025207 -2.680982731065508e-16
  outer loop
    vertex -0.9659258262890384 4.112960010569393 0.500000000000022
    vertex -0.8228142967031328 5.19999999999999 4.274358644806857e-16
    vertex -0.9659258262890382 4.112960010569393 3.877144356717866e-16
  endloop
endfacet
facet normal -1.0 0.0 -2.775557561562892e-16
  outer loop
    vertex -0.8228142967031328 5.19999999999999 4.274358644806857e-16
    vertex -0.9659258262890384 4.112960010569393 0.500000000000022
    vertex -0.8228142967031329 5.19999999999999 0.5000000000000221
  endloop
endfacet
facet normal -1.0 0.0 -2.775557561562892e-16
  outer loop
    vertex -0.8228142967031329 5.19999999999999 0.5000000000000221
    vertex -0.9659258262890382 6.287039989430588 3.877144356717866e-16
    vertex -0.8228142967031328 5.19999999999999 4.274358644806857e-16
  endloop
endfacet
facet normal -0.9659258262890703 -0.25881904510251325 -2.6809827310655133e-16
  outer loop
    vertex -0.9659258262890382 6.287039989430588 3.877144356717866e-16
    vertex -0.8228142967031329 5.19999999999999 0.5000000000000221
    vertex -0.9659258262890384 6.287039989430588 0.500000000000022
  endloop
endfacet
facet normal -0.9659258262890703 -0.25881904510251325 -2.6809827310655133e-16
  outer loop
    vertex -0.9659258262890384 6.287039989430588 0.500000000000022
    vertex -1.3855076008084772 7.30000000000001 2.7125709897564604e-16
    vertex -0.9659258262890382 6.287039989430588 3.877144356717866e-16
  endloop
endfacet
facet normal -0.8660254037844335 -0.5000000000000089 -2.403703357979441e-16
  outer loop
    vertex -1.3855076008084772 7.30000000000001 2.7125709897564604e-16
    vertex -0.9659258262890384 6.287039989430588 0.500000000000022
    vertex -1.3855076008084772 7.30000000000001 0.5000000000000219
  endloop
endfacet
facet normal -0.8660254037844335 -0.5000000000000089 -2.403703357979441e-16
  outer loop
    vertex -1.3855076008084772 7.30000000000001 0.5000000000000219
    vertex -2.052965815719636 8.169848480983479 8.600022943325237e-17
    vertex -1.3855076008084772 7.30000000000001 2.7125709897564604e-16
  endloop
endfacet
facet normal -0.7071067811865387 -0.7071067811865565 -1.9626155733546947e-16
  outer loop
    vertex -2.052965815719636 8.169848480983479 8.600022943325237e-17
    vertex -1.3855076008084772 7.30000000000001 0.5000000000000219
    vertex -2.052965815719636 8.169848480983479 0.5000000000000218
  endloop
endfacet
facet normal -0.5000000000000049 -0.8660254037844359 -1.3877787807814595e-16
  outer loop
    vertex -2.9228142967031516 8.837306695894638 0.5000000000000214
    vertex -2.052965815719636 8.169848480983479 8.600022943325237e-17
    vertex -2.052965815719636 8.169848480983479 0.5000000000000218
  endloop
endfacet
facet normal -0.7071067811865387 -0.7071067811865565 -1.9626155733546947e-16
  outer loop
    vertex -2.052965815719636 8.169848480983479 8.600022943325237e-17
    vertex -2.9228142967031516 8.837306695894638 0.5000000000000214
    vertex -2.9228142967031516 8.837306695894638 -1.5543122344752679e-16
  endloop
endfacet
facet normal -0.2588190451025207 -0.9659258262890683 -7.183671577107885e-17
  outer loop
    vertex -3.9357743072725273 9.256888470414077 0.5000000000000212
    vertex -2.9228142967031516 8.837306695894638 -1.5543122344752679e-16
    vertex -2.9228142967031516 8.837306695894638 0.5000000000000214
  endloop
endfacet
facet normal -0.5000000000000049 -0.8660254037844359 -1.3877787807814595e-16
  outer loop
    vertex -2.9228142967031516 8.837306695894638 -1.5543122344752679e-16
    vertex -3.9357743072725273 9.256888470414077 0.5000000000000212
    vertex -3.9357743072725273 9.256888470414077 -4.365841051371925e-16
  endloop
endfacet
facet normal -0.0 -1.0 0.0
  outer loop
    vertex -5.022814296703125 9.399999999999983 0.500000000000021
    vertex -3.9357743072725273 9.256888470414077 -4.365841051371925e-16
    vertex -3.9357743072725273 9.256888470414077 0.5000000000000212
  endloop
endfacet
facet normal -0.2588190451025207 -0.9659258262890683 -7.183671577107885e-17
  outer loop
    vertex -3.9357743072725273 9.256888470414077 -4.365841051371925e-16
    vertex -5.022814296703125 9.399999999999983 0.500000000000021
    vertex -5.022814296703125 9.399999999999983 -7.382983113757268e-16
  endloop
endfacet
facet normal 0.25881904510251325 -0.9659258262890703 7.183671577107678e-17
  outer loop
    vertex -6.109854286133723 9.256888470414077 0.5000000000000205
    vertex -5.022814296703125 9.399999999999983 -7.382983113757268e-16
    vertex -5.022814296703125 9.399999999999983 0.500000000000021
  endloop
endfacet
facet normal -0.0 -1.0 0.0
  outer loop
    vertex -5.022814296703125 9.399999999999983 -7.382983113757268e-16
    vertex -6.109854286133723 9.256888470414077 0.5000000000000205
    vertex -6.109854286133723 9.256888470414077 -1.040012517614261e-15
  endloop
endfacet
facet normal 0.5000000000000089 -0.8660254037844335 1.3877787807814706e-16
  outer loop
    vertex -7.122814296703144 8.837306695894638 0.5000000000000203
    vertex -6.109854286133723 9.256888470414077 -1.040012517614261e-15
    vertex -6.109854286133723 9.256888470414077 0.5000000000000205
  endloop
endfacet
facet normal 0.25881904510251325 -0.9659258262890703 7.183671577107678e-17
  outer loop
    vertex -6.109854286133723 9.256888470414077 -1.040012517614261e-15
    vertex -7.122814296703144 8.837306695894638 0.5000000000000203
    vertex -7.122814296703144 8.837306695894638 -1.3211653993039393e-15
  endloop
endfacet
facet normal 0.7071067811865565 -0.7071067811865387 1.962615573354744e-16
  outer loop
    vertex -7.992662777686614 8.169848480983479 0.5000000000000201
    vertex -7.122814296703144 8.837306695894638 -1.3211653993039393e-15
    vertex -7.122814296703144 8.837306695894638 0.5000000000000203
  endloop
endfacet
facet normal 0.5000000000000089 -0.8660254037844335 1.3877787807814706e-16
  outer loop
    vertex -7.122814296703144 8.837306695894638 -1.3211653993039393e-15
    vertex -7.992662777686614 8.169848480983479 0.5000000000000201
    vertex -7.992662777686614 8.169848480983479 -1.5625968521847057e-15
  endloop
endfacet
facet normal 0.7071067811865565 -0.7071067811865387 1.962615573354744e-16
  outer loop
    vertex -7.992662777686614 8.169848480983479 0.5000000000000201
    vertex -8.660120992597774 7.299999999999964 -1.7478537217270994e-15
    vertex -7.992662777686614 8.169848480983479 -1.5625968521847057e-15
  endloop
endfacet
facet normal 0.8660254037844359 -0.5000000000000049 2.4037033579794477e-16
  outer loop
    vertex -8.660120992597774 7.299999999999964 -1.7478537217270994e-15
    vertex -7.992662777686614 8.169848480983479 0.5000000000000201
    vertex -8.660120992597774 7.299999999999964 0.5000000000000199
  endloop
endfacet
facet normal 0.8660254037844359 -0.5000000000000049 2.4037033579794477e-16
  outer loop
    vertex -8.660120992597774 7.299999999999964 0.5000000000000199
    vertex -9.079702767117212 6.287039989430588 -1.8643110584232397e-15
    vertex -8.660120992597774 7.299999999999964 -1.7478537217270994e-15
  endloop
endfacet
facet normal 0.9659258262890683 -0.2588190451025207 2.680982731065508e-16
  outer loop
    vertex -9.079702767117212 6.287039989430588 -1.8643110584232397e-15
    vertex -8.660120992597774 7.299999999999964 0.5000000000000199
    vertex -9.079702767117212 6.287039989430588 0.5000000000000198
  endloop
endfacet
facet normal 0.9659258262890683 -0.2588190451025207 2.680982731065508e-16
  outer loop
    vertex -9.079702767117212 6.287039989430588 0.5000000000000198
    vertex -9.222814296703117 5.19999999999999 -1.904032487232139e-15
    vertex -9.079702767117212 6.287039989430588 -1.8643110584232397e-15
  endloop
endfacet
facet normal 1.0 0.0 2.775557561562892e-16
  outer loop
    vertex -9.222814296703117 5.19999999999999 -1.904032487232139e-15
    vertex -9.079702767117212 6.287039989430588 0.5000000000000198
    vertex -9.222814296703117 5.19999999999999 0.5000000000000197
  endloop
endfacet
facet normal 1.0 0.0 2.775557561562892e-16
  outer loop
    vertex -9.222814296703117 5.19999999999999 0.5000000000000197
    vertex -9.079702767117212 4.112960010569393 -1.8643110584232397e-15
    vertex -9.222814296703117 5.19999999999999 -1.904032487232139e-15
  endloop
endfacet
facet normal 0.9659258262890703 0.25881904510251325 2.6809827310655133e-16
  outer loop
    vertex -9.079702767117212 4.112960010569393 -1.8643110584232397e-15
    vertex -9.222814296703117 5.19999999999999 0.5000000000000197
    vertex -9.079702767117212 4.112960010569393 0.5000000000000198
  endloop
endfacet
facet normal 0.9659258262890703 0.25881904510251325 2.6809827310655133e-16
  outer loop
    vertex -9.079702767117212 4.112960010569393 0.5000000000000198
    vertex -8.660120992597774 3.0999999999999717 -1.7478537217270994e-15
    vertex -9.079702767117212 4.112960010569393 -1.8643110584232397e-15
  endloop
endfacet
facet normal 0.8660254037844335 0.5000000000000089 2.403703357979441e-16
  outer loop
    vertex -8.660120992597774 3.0999999999999717 -1.7478537217270994e-15
    vertex -9.079702767117212 4.112960010569393 0.5000000000000198
    vertex -8.660120992597774 3.0999999999999717 0.5000000000000199
  endloop
endfacet
facet normal 0.8660254037844335 0.5000000000000089 2.403703357979441e-16
  outer loop
    vertex -8.660120992597774 3.0999999999999717 0.5000000000000199
    vertex -7.992662777686614 2.2301515190165015 -1.5625968521847057e-15
    vertex -8.660120992597774 3.0999999999999717 -1.7478537217270994e-15
  endloop
endfacet
facet normal 0.7071067811865387 0.7071067811865565 1.9626155733546947e-16
  outer loop
    vertex -7.992662777686614 2.2301515190165015 -1.5625968521847057e-15
    vertex -8.660120992597774 3.0999999999999717 0.5000000000000199
    vertex -7.992662777686614 2.2301515190165015 0.5000000000000201
  endloop
endfacet
facet normal 0.7071067811865387 0.7071067811865565 1.9626155733546947e-16
  outer loop
    vertex -7.992662777686614 2.2301515190165015 -1.5625968521847057e-15
    vertex -7.1228142967030985 1.5626933041053426 0.5000000000000203
    vertex -7.1228142967030985 1.5626933041053426 -1.3211653993039267e-15
  endloop
endfacet
facet normal 0.5000000000000049 0.8660254037844359 1.3877787807814595e-16
  outer loop
    vertex -7.1228142967030985 1.5626933041053426 0.5000000000000203
    vertex -7.992662777686614 2.2301515190165015 -1.5625968521847057e-15
    vertex -7.992662777686614 2.2301515190165015 0.5000000000000201
  endloop
endfacet
facet normal 0.2588190451025167 0.9659258262890694 7.183671577107774e-17
  outer loop
    vertex -3.676955262170038 10.222814296703115 -3.647473893661225e-16
    vertex -2.42281429670313 9.703332099679072 0.5000000000000216
    vertex -2.42281429670313 9.703332099679072 -1.6653345369376223e-17
  endloop
endfacet
facet normal 0.49999999999999223 0.8660254037844433 1.3877787807814242e-16
  outer loop
    vertex -2.42281429670313 9.703332099679072 0.5000000000000216
    vertex -3.676955262170038 10.222814296703115 -3.647473893661225e-16
    vertex -3.676955262170038 10.222814296703115 0.5000000000000213
  endloop
endfacet
facet normal 0.49999999999999223 0.8660254037844433 1.3877787807814242e-16
  outer loop
    vertex -2.42281429670313 9.703332099679072 -1.6653345369376223e-17
    vertex -1.345859034533087 8.876955262170029 0.5000000000000219
    vertex -1.3458590345330868 8.876955262170029 2.8226178676872476e-16
  endloop
endfacet
facet normal 0.7071067811865476 0.7071067811865476 1.9626155733547194e-16
  outer loop
    vertex -1.345859034533087 8.876955262170029 0.5000000000000219
    vertex -2.42281429670313 9.703332099679072 -1.6653345369376223e-17
    vertex -2.42281429670313 9.703332099679072 0.5000000000000216
  endloop
endfacet
facet normal 0.7071067811865476 0.7071067811865476 1.9626155733547194e-16
  outer loop
    vertex -1.345859034533087 8.876955262170029 0.5000000000000219
    vertex -0.5194821970240436 7.799999999999986 5.116274347735902e-16
    vertex -1.3458590345330868 8.876955262170029 2.8226178676872476e-16
  endloop
endfacet
facet normal 0.8660254037844433 0.49999999999999223 2.403703357979468e-16
  outer loop
    vertex -0.5194821970240436 7.799999999999986 5.116274347735902e-16
    vertex -1.345859034533087 8.876955262170029 0.5000000000000219
    vertex -0.5194821970240439 7.799999999999986 0.5000000000000222
  endloop
endfacet
facet normal 0.8660254037844433 0.49999999999999223 2.403703357979468e-16
  outer loop
    vertex -0.5194821970240439 7.799999999999986 0.5000000000000222
    vertex 0.0 6.545859034533077 6.55812708778329e-16
    vertex -0.5194821970240436 7.799999999999986 5.116274347735902e-16
  endloop
endfacet
facet normal 0.9659258262890694 0.2588190451025167 2.680982731065511e-16
  outer loop
    vertex 0.0 6.545859034533077 6.55812708778329e-16
    vertex -0.5194821970240439 7.799999999999986 0.5000000000000222
    vertex -1.3218592886943268e-16 6.545859034533077 0.5000000000000223
  endloop
endfacet
facet normal 0.9659258262890694 0.2588190451025167 2.680982731065511e-16
  outer loop
    vertex -1.3218592886943268e-16 6.545859034533077 0.5000000000000223
    vertex 0.17718570329686542 5.19999999999999 7.049916206369744e-16
    vertex 0.0 6.545859034533077 6.55812708778329e-16
  endloop
endfacet
facet normal 1.0 0.0 2.775557561562892e-16
  outer loop
    vertex 0.17718570329686542 5.19999999999999 7.049916206369744e-16
    vertex -1.3218592886943268e-16 6.545859034533077 0.5000000000000223
    vertex 0.17718570329686528 5.19999999999999 0.5000000000000223
  endloop
endfacet
facet normal 1.0 0.0 2.775557561562892e-16
  outer loop
    vertex 0.17718570329686528 5.19999999999999 0.5000000000000223
    vertex 0.0 3.854140965466904 6.55812708778329e-16
    vertex 0.17718570329686542 5.19999999999999 7.049916206369744e-16
  endloop
endfacet
facet normal 0.9659258262890694 -0.2588190451025167 2.680982731065511e-16
  outer loop
    vertex 0.0 3.854140965466904 6.55812708778329e-16
    vertex 0.17718570329686528 5.19999999999999 0.5000000000000223
    vertex -1.3218592886943268e-16 3.854140965466904 0.5000000000000223
  endloop
endfacet
facet normal 0.9659258262890694 -0.2588190451025167 2.680982731065511e-16
  outer loop
    vertex -1.3218592886943268e-16 3.854140965466904 0.5000000000000223
    vertex -0.5194821970240436 2.599999999999995 5.116274347735902e-16
    vertex 0.0 3.854140965466904 6.55812708778329e-16
  endloop
endfacet
facet normal 0.8660254037844433 -0.49999999999999223 2.403703357979468e-16
  outer loop
    vertex -0.5194821970240436 2.599999999999995 5.116274347735902e-16
    vertex -1.3218592886943268e-16 3.854140965466904 0.5000000000000223
    vertex -0.5194821970240439 2.599999999999995 0.5000000000000222
  endloop
endfacet
facet normal 0.8660254037844433 -0.49999999999999223 2.403703357979468e-16
  outer loop
    vertex -0.5194821970240439 2.599999999999995 0.5000000000000222
    vertex -1.3458590345330868 1.5230447378299523 2.8226178676872476e-16
    vertex -0.5194821970240436 2.599999999999995 5.116274347735902e-16
  endloop
endfacet
facet normal 0.7071067811865476 -0.7071067811865476 1.9626155733547194e-16
  outer loop
    vertex -1.3458590345330868 1.5230447378299523 2.8226178676872476e-16
    vertex -0.5194821970240439 2.599999999999995 0.5000000000000222
    vertex -1.345859034533087 1.5230447378299523 0.5000000000000219
  endloop
endfacet
facet normal 0.49999999999999223 -0.8660254037844433 1.3877787807814242e-16
  outer loop
    vertex -2.42281429670313 0.6966679003209091 0.5000000000000216
    vertex -1.3458590345330868 1.5230447378299523 2.8226178676872476e-16
    vertex -1.345859034533087 1.5230447378299523 0.5000000000000219
  endloop
endfacet
facet normal 0.7071067811865476 -0.7071067811865476 1.9626155733547194e-16
  outer loop
    vertex -1.3458590345330868 1.5230447378299523 2.8226178676872476e-16
    vertex -2.42281429670313 0.6966679003209091 0.5000000000000216
    vertex -2.42281429670313 0.6966679003209091 -1.6653345369376223e-17
  endloop
endfacet
facet normal 0.2588190451025167 -0.9659258262890694 7.183671577107774e-17
  outer loop
    vertex -3.676955262170038 0.17718570329686542 0.5000000000000213
    vertex -2.42281429670313 0.6966679003209091 -1.6653345369376223e-17
    vertex -2.42281429670313 0.6966679003209091 0.5000000000000216
  endloop
endfacet
facet normal 0.49999999999999223 -0.8660254037844433 1.3877787807814242e-16
  outer loop
    vertex -2.42281429670313 0.6966679003209091 -1.6653345369376223e-17
    vertex -3.676955262170038 0.17718570329686542 0.5000000000000213
    vertex -3.676955262170038 0.17718570329686542 -3.647473893661225e-16
  endloop
endfacet
facet normal -0.0 -1.0 0.0
  outer loop
    vertex -5.022814296703125 0.0 0.500000000000021
    vertex -3.676955262170038 0.17718570329686542 -3.647473893661225e-16
    vertex -3.676955262170038 0.17718570329686542 0.5000000000000213
  endloop
endfacet
facet normal 0.2588190451025167 -0.9659258262890694 7.183671577107774e-17
  outer loop
    vertex -3.676955262170038 0.17718570329686542 -3.647473893661225e-16
    vertex -5.022814296703125 0.0 0.500000000000021
    vertex -5.022814296703125 0.0 -7.382983113757268e-16
  endloop
endfacet
facet normal -0.2588190451025167 -0.9659258262890694 -7.183671577107774e-17
  outer loop
    vertex -6.368673331236212 0.17718570329686542 0.5000000000000205
    vertex -5.022814296703125 0.0 -7.382983113757268e-16
    vertex -5.022814296703125 0.0 0.500000000000021
  endloop
endfacet
facet normal -0.0 -1.0 0.0
  outer loop
    vertex -5.022814296703125 0.0 -7.382983113757268e-16
    vertex -6.368673331236212 0.17718570329686542 0.5000000000000205
    vertex -6.368673331236212 0.17718570329686542 -1.111849233385331e-15
  endloop
endfacet
facet normal -0.49999999999999223 -0.8660254037844433 -1.3877787807814242e-16
  outer loop
    vertex -7.622814296703121 0.6966679003209091 0.5000000000000201
    vertex -6.368673331236212 0.17718570329686542 -1.111849233385331e-15
    vertex -6.368673331236212 0.17718570329686542 0.5000000000000205
  endloop
endfacet
facet normal -0.2588190451025167 -0.9659258262890694 -7.183671577107774e-17
  outer loop
    vertex -6.368673331236212 0.17718570329686542 -1.111849233385331e-15
    vertex -7.622814296703121 0.6966679003209091 0.5000000000000201
    vertex -7.622814296703121 0.6966679003209091 -1.4599432773820771e-15
  endloop
endfacet
facet normal -0.7071067811865476 -0.7071067811865476 -1.9626155733547194e-16
  outer loop
    vertex -8.699769558873163 1.5230447378299523 0.5000000000000199
    vertex -7.622814296703121 0.6966679003209091 -1.4599432773820771e-15
    vertex -7.622814296703121 0.6966679003209091 0.5000000000000201
  endloop
endfacet
facet normal -0.49999999999999223 -0.8660254037844433 -1.3877787807814242e-16
  outer loop
    vertex -7.622814296703121 0.6966679003209091 -1.4599432773820771e-15
    vertex -8.699769558873163 1.5230447378299523 0.5000000000000199
    vertex -8.699769558873163 1.5230447378299523 -1.7588584095201782e-15
  endloop
endfacet
facet normal -0.7071067811865476 -0.7071067811865476 -1.9626155733547194e-16
  outer loop
    vertex -8.699769558873163 1.5230447378299523 0.5000000000000199
    vertex -9.526146396382206 2.599999999999995 -1.988224057525044e-15
    vertex -8.699769558873163 1.5230447378299523 -1.7588584095201782e-15
  endloop
endfacet
facet normal -0.8660254037844433 -0.49999999999999223 -2.403703357979468e-16
  outer loop
    vertex -9.526146396382206 2.599999999999995 -1.988224057525044e-15
    vertex -8.699769558873163 1.5230447378299523 0.5000000000000199
    vertex -9.526146396382206 2.599999999999995 0.5000000000000197
  endloop
endfacet
facet normal -0.8660254037844433 -0.49999999999999223 -2.403703357979468e-16
  outer loop
    vertex -9.526146396382206 2.599999999999995 0.5000000000000197
    vertex -10.04562859340625 3.854140965466904 -2.1324093315297827e-15
    vertex -9.526146396382206 2.599999999999995 -1.988224057525044e-15
  endloop
endfacet
facet normal -0.9659258262890694 -0.2588190451025167 -2.680982731065511e-16
  outer loop
    vertex -10.04562859340625 3.854140965466904 -2.1324093315297827e-15
    vertex -9.526146396382206 2.599999999999995 0.5000000000000197
    vertex -10.04562859340625 3.854140965466904 0.5000000000000195
  endloop
endfacet
facet normal -0.9659258262890694 -0.2588190451025167 -2.680982731065511e-16
  outer loop
    vertex -10.04562859340625 3.854140965466904 0.5000000000000195
    vertex -10.222814296703115 5.19999999999999 -2.181588243388428e-15
    vertex -10.04562859340625 3.854140965466904 -2.1324093315297827e-15
  endloop
endfacet
facet normal -1.0 0.0 -2.775557561562892e-16
  outer loop
    vertex -10.222814296703115 5.19999999999999 -2.181588243388428e-15
    vertex -10.04562859340625 3.854140965466904 0.5000000000000195
    vertex -10.222814296703115 5.19999999999999 0.5000000000000194
  endloop
endfacet
facet normal -1.0 0.0 -2.775557561562892e-16
  outer loop
    vertex -10.222814296703115 5.19999999999999 0.5000000000000194
    vertex -10.04562859340625 6.545859034533077 -2.1324093315297827e-15
    vertex -10.222814296703115 5.19999999999999 -2.181588243388428e-15
  endloop
endfacet
facet normal -0.9659258262890694 0.2588190451025167 -2.680982731065511e-16
  outer loop
    vertex -10.04562859340625 6.545859034533077 -2.1324093315297827e-15
    vertex -10.222814296703115 5.19999999999999 0.5000000000000194
    vertex -10.04562859340625 6.545859034533077 0.5000000000000195
  endloop
endfacet
facet normal -0.9659258262890694 0.2588190451025167 -2.680982731065511e-16
  outer loop
    vertex -10.04562859340625 6.545859034533077 0.5000000000000195
    vertex -9.526146396382206 7.799999999999986 -1.988224057525044e-15
    vertex -10.04562859340625 6.545859034533077 -2.1324093315297827e-15
  endloop
endfacet
facet normal -0.8660254037844433 0.49999999999999223 -2.403703357979468e-16
  outer loop
    vertex -9.526146396382206 7.799999999999986 -1.988224057525044e-15
    vertex -10.04562859340625 6.545859034533077 0.5000000000000195
    vertex -9.526146396382206 7.799999999999986 0.5000000000000197
  endloop
endfacet
facet normal -0.8660254037844433 0.49999999999999223 -2.403703357979468e-16
  outer loop
    vertex -9.526146396382206 7.799999999999986 0.5000000000000197
    vertex -8.699769558873163 8.876955262170029 -1.7588584095201782e-15
    vertex -9.526146396382206 7.799999999999986 -1.988224057525044e-15
  endloop
endfacet
facet normal -0.7071067811865476 0.7071067811865476 -1.9626155733547194e-16
  outer loop
    vertex -8.699769558873163 8.876955262170029 -1.7588584095201782e-15
    vertex -9.526146396382206 7.799999999999986 0.5000000000000197
    vertex -8.699769558873163 8.876955262170029 0.5000000000000199
  endloop
endfacet
facet normal -0.7071067811865476 0.7071067811865476 -1.9626155733547194e-16
  outer loop
    vertex -8.699769558873163 8.876955262170029 -1.7588584095201782e-15
    vertex -7.622814296703121 9.703332099679072 0.5000000000000201
    vertex -7.622814296703121 9.703332099679072 -1.4599432773820771e-15
  endloop
endfacet
facet normal -0.49999999999999223 0.8660254037844433 -1.3877787807814242e-16
  outer loop
    vertex -7.622814296703121 9.703332099679072 0.5000000000000201
    vertex -8.699769558873163 8.876955262170029 -1.7588584095201782e-15
    vertex -8.699769558873163 8.876955262170029 0.5000000000000199
  endloop
endfacet
facet normal -0.49999999999999223 0.8660254037844433 -1.3877787807814242e-16
  outer loop
    vertex -7.622814296703121 9.703332099679072 -1.4599432773820771e-15
    vertex -6.368673331236212 10.222814296703115 0.5000000000000205
    vertex -6.368673331236212 10.222814296703115 -1.111849233385331e-15
  endloop
endfacet
facet normal -0.2588190451025167 0.9659258262890694 -7.183671577107774e-17
  outer loop
    vertex -6.368673331236212 10.222814296703115 0.5000000000000205
    vertex -7.622814296703121 9.703332099679072 -1.4599432773820771e-15
    vertex -7.622814296703121 9.703332099679072 0.5000000000000201
  endloop
endfacet
facet normal -0.2588190451025167 0.9659258262890694 -7.183671577107774e-17
  outer loop
    vertex -6.368673331236212 10.222814296703115 -1.111849233385331e-15
    vertex -5.022814296703125 10.39999999999998 0.500000000000021
    vertex -5.022814296703125 10.39999999999998 -7.382983113757268e-16
  endloop
endfacet
facet normal 0.0 1.0 0.0
  outer loop
    vertex -5.022814296703125 10.39999999999998 0.500000000000021
    vertex -6.368673331236212 10.222814296703115 -1.111849233385331e-15
    vertex -6.368673331236212 10.222814296703115 0.5000000000000205
  endloop
endfacet
facet normal 0.0 1.0 0.0
  outer loop
    vertex -5.022814296703125 10.39999999999998 -7.382983113757268e-16
    vertex -3.676955262170038 10.222814296703115 0.5000000000000213
    vertex -3.676955262170038 10.222814296703115 -3.647473893661225e-16
  endloop
endfacet
facet normal 0.2588190451025167 0.9659258262890694 7.183671577107774e-17
  outer loop
    vertex -3.676955262170038 10.222814296703115 0.5000000000000213
    vertex -5.022814296703125 10.39999999999998 -7.382983113757268e-16
    vertex -5.022814296703125 10.39999999999998 0.500000000000021
  endloop
endfacet
facet normal 2.775557561562892e-16 -0.0 -1.0
  outer loop
    vertex -6.368673331236212 0.17718570329686542 -1.111849233385331e-15
    vertex -3.676955262170038 0.17718570329686542 -3.647473893661225e-16
    vertex -5.022814296703125 0.0 -7.382983113757268e-16
  endloop
endfacet
facet normal 2.775557561562892e-16 -0.0 -1.0
  outer loop
    vertex -3.676955262170038 0.17718570329686542 -3.647473893661225e-16
    vertex -6.368673331236212 0.17718570329686542 -1.111849233385331e-15
    vertex -7.622814296703121 0.6966679003209091 -1.4599432773820771e-15
  endloop
endfacet
facet normal 2.775557561562892e-16 -0.0 -1.0
  outer loop
    vertex -3.676955262170038 0.17718570329686542 -3.647473893661225e-16
    vertex -7.622814296703121 0.6966679003209091 -1.4599432773820771e-15
    vertex -2.42281429670313 0.6966679003209091 -1.6653345369376223e-17
  endloop
endfacet
facet normal 2.775557561562892e-16 -0.0 -1.0
  outer loop
    vertex -2.42281429670313 0.6966679003209091 -1.6653345369376223e-17
    vertex -7.622814296703121 0.6966679003209091 -1.4599432773820771e-15
    vertex -5.022814296703125 0.9999999999999981 -7.382983113757268e-16
  endloop
endfacet
facet normal 2.775557561562892e-16 -0.0 -1.0
  outer loop
    vertex -5.022814296703125 0.9999999999999981 -7.382983113757268e-16
    vertex -7.622814296703121 0.6966679003209091 -1.4599432773820771e-15
    vertex -6.109854286133723 1.1431115295859036 -1.040012517614261e-15
  endloop
endfacet
facet normal 2.775557561562892e-16 -0.0 -1.0
  outer loop
    vertex -6.109854286133723 1.1431115295859036 -1.040012517614261e-15
    vertex -7.622814296703121 0.6966679003209091 -1.4599432773820771e-15
    vertex -8.699769558873163 1.5230447378299523 -1.7588584095201782e-15
  endloop
endfacet
facet normal 2.775557561562892e-16 -0.0 -1.0
  outer loop
    vertex -6.109854286133723 1.1431115295859036 -1.040012517614261e-15
    vertex -8.699769558873163 1.5230447378299523 -1.7588584095201782e-15
    vertex -7.1228142967030985 1.5626933041053426 -1.3211653993039267e-15
  endloop
endfacet
facet normal 2.775557561562892e-16 -0.0 -1.0
  outer loop
    vertex -7.1228142967030985 1.5626933041053426 -1.3211653993039267e-15
    vertex -8.699769558873163 1.5230447378299523 -1.7588584095201782e-15
    vertex -9.526146396382206 2.599999999999995 -1.988224057525044e-15
  endloop
endfacet
facet normal 2.775557561562892e-16 -0.0 -1.0
  outer loop
    vertex -7.1228142967030985 1.5626933041053426 -1.3211653993039267e-15
    vertex -9.526146396382206 2.599999999999995 -1.988224057525044e-15
    vertex -7.992662777686614 2.2301515190165015 -1.5625968521847057e-15
  endloop
endfacet
facet normal 2.775557561562892e-16 -0.0 -1.0
  outer loop
    vertex -7.992662777686614 2.2301515190165015 -1.5625968521847057e-15
    vertex -9.526146396382206 2.599999999999995 -1.988224057525044e-15
    vertex -8.660120992597774 3.0999999999999717 -1.7478537217270994e-15
  endloop
endfacet
facet normal 2.775557561562892e-16 -0.0 -1.0
  outer loop
    vertex -8.660120992597774 3.0999999999999717 -1.7478537217270994e-15
    vertex -9.526146396382206 2.599999999999995 -1.988224057525044e-15
    vertex -10.04562859340625 3.854140965466904 -2.1324093315297827e-15
  endloop
endfacet
facet normal 2.775557561562892e-16 -0.0 -1.0
  outer loop
    vertex -8.660120992597774 3.0999999999999717 -1.7478537217270994e-15
    vertex -10.04562859340625 3.854140965466904 -2.1324093315297827e-15
    vertex -9.079702767117212 4.112960010569393 -1.8643110584232397e-15
  endloop
endfacet
facet normal 2.775557561562892e-16 -0.0 -1.0
  outer loop
    vertex -9.079702767117212 4.112960010569393 -1.8643110584232397e-15
    vertex -10.04562859340625 3.854140965466904 -2.1324093315297827e-15
    vertex -10.222814296703115 5.19999999999999 -2.181588243388428e-15
  endloop
endfacet
facet normal 2.775557561562892e-16 -0.0 -1.0
  outer loop
    vertex -9.079702767117212 4.112960010569393 -1.8643110584232397e-15
    vertex -10.222814296703115 5.19999999999999 -2.181588243388428e-15
    vertex -9.222814296703117 5.19999999999999 -1.904032487232139e-15
  endloop
endfacet
facet normal 2.775557561562892e-16 -0.0 -1.0
  outer loop
    vertex -9.222814296703117 5.19999999999999 -1.904032487232139e-15
    vertex -10.222814296703115 5.19999999999999 -2.181588243388428e-15
    vertex -10.04562859340625 6.545859034533077 -2.1324093315297827e-15
  endloop
endfacet
facet normal 2.775557561562892e-16 -0.0 -1.0
  outer loop
    vertex -9.222814296703117 5.19999999999999 -1.904032487232139e-15
    vertex -10.04562859340625 6.545859034533077 -2.1324093315297827e-15
    vertex -9.079702767117212 6.287039989430588 -1.8643110584232397e-15
  endloop
endfacet
facet normal 2.775557561562892e-16 -0.0 -1.0
  outer loop
    vertex -9.079702767117212 6.287039989430588 -1.8643110584232397e-15
    vertex -10.04562859340625 6.545859034533077 -2.1324093315297827e-15
    vertex -8.660120992597774 7.299999999999964 -1.7478537217270994e-15
  endloop
endfacet
facet normal 2.775557561562892e-16 -0.0 -1.0
  outer loop
    vertex -8.660120992597774 7.299999999999964 -1.7478537217270994e-15
    vertex -10.04562859340625 6.545859034533077 -2.1324093315297827e-15
    vertex -9.526146396382206 7.799999999999986 -1.988224057525044e-15
  endloop
endfacet
facet normal 2.775557561562892e-16 -0.0 -1.0
  outer loop
    vertex -8.660120992597774 7.299999999999964 -1.7478537217270994e-15
    vertex -9.526146396382206 7.799999999999986 -1.988224057525044e-15
    vertex -7.992662777686614 8.169848480983479 -1.5625968521847057e-15
  endloop
endfacet
facet normal 2.775557561562892e-16 -0.0 -1.0
  outer loop
    vertex -7.992662777686614 8.169848480983479 -1.5625968521847057e-15
    vertex -9.526146396382206 7.799999999999986 -1.988224057525044e-15
    vertex -8.699769558873163 8.876955262170029 -1.7588584095201782e-15
  endloop
endfacet
facet normal 2.775557561562892e-16 -0.0 -1.0
  outer loop
    vertex -7.992662777686614 8.169848480983479 -1.5625968521847057e-15
    vertex -8.699769558873163 8.876955262170029 -1.7588584095201782e-15
    vertex -7.122814296703144 8.837306695894638 -1.3211653993039393e-15
  endloop
endfacet
facet normal 2.775557561562892e-16 -0.0 -1.0
  outer loop
    vertex -7.122814296703144 8.837306695894638 -1.3211653993039393e-15
    vertex -8.699769558873163 8.876955262170029 -1.7588584095201782e-15
    vertex -6.109854286133723 9.256888470414077 -1.040012517614261e-15
  endloop
endfacet
facet normal 2.775557561562892e-16 -0.0 -1.0
  outer loop
    vertex -6.109854286133723 9.256888470414077 -1.040012517614261e-15
    vertex -8.699769558873163 8.876955262170029 -1.7588584095201782e-15
    vertex -7.622814296703121 9.703332099679072 -1.4599432773820771e-15
  endloop
endfacet
facet normal 2.775557561562892e-16 -0.0 -1.0
  outer loop
    vertex -6.109854286133723 9.256888470414077 -1.040012517614261e-15
    vertex -7.622814296703121 9.703332099679072 -1.4599432773820771e-15
    vertex -5.022814296703125 9.399999999999983 -7.382983113757268e-16
  endloop
endfacet
facet normal 2.775557561562892e-16 -0.0 -1.0
  outer loop
    vertex -2.42281429670313 0.6966679003209091 -1.6653345369376223e-17
    vertex -3.9357743072725273 1.1431115295859036 -4.365841051371925e-16
    vertex -1.3458590345330868 1.5230447378299523 2.8226178676872476e-16
  endloop
endfacet
facet normal 2.775557561562892e-16 -0.0 -1.0
  outer loop
    vertex -3.9357743072725273 1.1431115295859036 -4.365841051371925e-16
    vertex -2.42281429670313 0.6966679003209091 -1.6653345369376223e-17
    vertex -5.022814296703125 0.9999999999999981 -7.382983113757268e-16
  endloop
endfacet
facet normal 2.775557561562892e-16 -0.0 -1.0
  outer loop
    vertex -1.3458590345330868 1.5230447378299523 2.8226178676872476e-16
    vertex -3.9357743072725273 1.1431115295859036 -4.365841051371925e-16
    vertex -2.9228142967031063 1.5626933041053426 -1.5543122344751426e-16
  endloop
endfacet
facet normal 2.775557561562892e-16 -0.0 -1.0
  outer loop
    vertex -1.3458590345330868 1.5230447378299523 2.8226178676872476e-16
    vertex -2.9228142967031063 1.5626933041053426 -1.5543122344751426e-16
    vertex -0.5194821970240436 2.599999999999995 5.116274347735902e-16
  endloop
endfacet
facet normal 2.775557561562892e-16 -0.0 -1.0
  outer loop
    vertex -0.5194821970240436 2.599999999999995 5.116274347735902e-16
    vertex -2.9228142967031063 1.5626933041053426 -1.5543122344751426e-16
    vertex -2.052965815719636 2.2301515190165015 8.600022943325237e-17
  endloop
endfacet
facet normal 2.775557561562892e-16 -0.0 -1.0
  outer loop
    vertex -0.5194821970240436 2.599999999999995 5.116274347735902e-16
    vertex -2.052965815719636 2.2301515190165015 8.600022943325237e-17
    vertex -1.3855076008084772 3.100000000000017 2.7125709897564604e-16
  endloop
endfacet
facet normal 2.775557561562892e-16 -0.0 -1.0
  outer loop
    vertex -0.5194821970240436 2.599999999999995 5.116274347735902e-16
    vertex -1.3855076008084772 3.100000000000017 2.7125709897564604e-16
    vertex 0.0 3.854140965466904 6.55812708778329e-16
  endloop
endfacet
facet normal 2.775557561562892e-16 -0.0 -1.0
  outer loop
    vertex 0.0 3.854140965466904 6.55812708778329e-16
    vertex -1.3855076008084772 3.100000000000017 2.7125709897564604e-16
    vertex -0.9659258262890382 4.112960010569393 3.877144356717866e-16
  endloop
endfacet
facet normal 2.775557561562892e-16 -0.0 -1.0
  outer loop
    vertex 0.0 3.854140965466904 6.55812708778329e-16
    vertex -0.9659258262890382 4.112960010569393 3.877144356717866e-16
    vertex 0.17718570329686542 5.19999999999999 7.049916206369744e-16
  endloop
endfacet
facet normal 2.775557561562892e-16 -0.0 -1.0
  outer loop
    vertex 0.17718570329686542 5.19999999999999 7.049916206369744e-16
    vertex -0.9659258262890382 4.112960010569393 3.877144356717866e-16
    vertex -0.8228142967031328 5.19999999999999 4.274358644806857e-16
  endloop
endfacet
facet normal 2.775557561562892e-16 -0.0 -1.0
  outer loop
    vertex 0.17718570329686542 5.19999999999999 7.049916206369744e-16
    vertex -0.8228142967031328 5.19999999999999 4.274358644806857e-16
    vertex -0.9659258262890382 6.287039989430588 3.877144356717866e-16
  endloop
endfacet
facet normal 2.775557561562892e-16 -0.0 -1.0
  outer loop
    vertex 0.17718570329686542 5.19999999999999 7.049916206369744e-16
    vertex -0.9659258262890382 6.287039989430588 3.877144356717866e-16
    vertex 0.0 6.545859034533077 6.55812708778329e-16
  endloop
endfacet
facet normal 2.775557561562892e-16 -0.0 -1.0
  outer loop
    vertex 0.0 6.545859034533077 6.55812708778329e-16
    vertex -0.9659258262890382 6.287039989430588 3.877144356717866e-16
    vertex -1.3855076008084772 7.30000000000001 2.7125709897564604e-16
  endloop
endfacet
facet normal 2.775557561562892e-16 -0.0 -1.0
  outer loop
    vertex 0.0 6.545859034533077 6.55812708778329e-16
    vertex -1.3855076008084772 7.30000000000001 2.7125709897564604e-16
    vertex -0.5194821970240436 7.799999999999986 5.116274347735902e-16
  endloop
endfacet
facet normal 2.775557561562892e-16 -0.0 -1.0
  outer loop
    vertex -0.5194821970240436 7.799999999999986 5.116274347735902e-16
    vertex -1.3855076008084772 7.30000000000001 2.7125709897564604e-16
    vertex -2.052965815719636 8.169848480983479 8.600022943325237e-17
  endloop
endfacet
facet normal 2.775557561562892e-16 -0.0 -1.0
  outer loop
    vertex -0.5194821970240436 7.799999999999986 5.116274347735902e-16
    vertex -2.052965815719636 8.169848480983479 8.600022943325237e-17
    vertex -1.3458590345330868 8.876955262170029 2.8226178676872476e-16
  endloop
endfacet
facet normal 2.775557561562892e-16 -0.0 -1.0
  outer loop
    vertex -1.3458590345330868 8.876955262170029 2.8226178676872476e-16
    vertex -2.052965815719636 8.169848480983479 8.600022943325237e-17
    vertex -2.9228142967031516 8.837306695894638 -1.5543122344752679e-16
  endloop
endfacet
facet normal 2.775557561562892e-16 -0.0 -1.0
  outer loop
    vertex -1.3458590345330868 8.876955262170029 2.8226178676872476e-16
    vertex -2.9228142967031516 8.837306695894638 -1.5543122344752679e-16
    vertex -3.9357743072725273 9.256888470414077 -4.365841051371925e-16
  endloop
endfacet
facet normal 2.775557561562892e-16 -0.0 -1.0
  outer loop
    vertex -1.3458590345330868 8.876955262170029 2.8226178676872476e-16
    vertex -3.9357743072725273 9.256888470414077 -4.365841051371925e-16
    vertex -2.42281429670313 9.703332099679072 -1.6653345369376223e-17
  endloop
endfacet
facet normal 2.775557561562892e-16 -0.0 -1.0
  outer loop
    vertex -2.42281429670313 9.703332099679072 -1.6653345369376223e-17
    vertex -3.9357743072725273 9.256888470414077 -4.365841051371925e-16
    vertex -5.022814296703125 9.399999999999983 -7.382983113757268e-16
  endloop
endfacet
facet normal 2.775557561562892e-16 -0.0 -1.0
  outer loop
    vertex -2.42281429670313 9.703332099679072 -1.6653345369376223e-17
    vertex -5.022814296703125 9.399999999999983 -7.382983113757268e-16
    vertex -7.622814296703121 9.703332099679072 -1.4599432773820771e-15
  endloop
endfacet
facet normal 2.775557561562892e-16 -0.0 -1.0
  outer loop
    vertex -2.42281429670313 9.703332099679072 -1.6653345369376223e-17
    vertex -7.622814296703121 9.703332099679072 -1.4599432773820771e-15
    vertex -6.368673331236212 10.222814296703115 -1.111849233385331e-15
  endloop
endfacet
facet normal 2.775557561562892e-16 -0.0 -1.0
  outer loop
    vertex -2.42281429670313 9.703332099679072 -1.6653345369376223e-17
    vertex -6.368673331236212 10.222814296703115 -1.111849233385331e-15
    vertex -3.676955262170038 10.222814296703115 -3.647473893661225e-16
  endloop
endfacet
facet normal 2.775557561562892e-16 -0.0 -1.0
  outer loop
    vertex -3.676955262170038 10.222814296703115 -3.647473893661225e-16
    vertex -6.368673331236212 10.222814296703115 -1.111849233385331e-15
    vertex -5.022814296703125 10.39999999999998 -7.382983113757268e-16
  endloop
endfacet
facet normal -2.775557561562892e-16 0.0 1.0
  outer loop
    vertex -3.676955262170038 0.17718570329686542 0.5000000000000213
    vertex -6.368673331236212 0.17718570329686542 0.5000000000000205
    vertex -5.022814296703125 0.0 0.500000000000021
  endloop
endfacet
facet normal -2.775557561562892e-16 0.0 1.0
  outer loop
    vertex -6.368673331236212 0.17718570329686542 0.5000000000000205
    vertex -3.676955262170038 0.17718570329686542 0.5000000000000213
    vertex -2.42281429670313 0.6966679003209091 0.5000000000000216
  endloop
endfacet
facet normal -2.775557561562892e-16 0.0 1.0
  outer loop
    vertex -6.368673331236212 0.17718570329686542 0.5000000000000205
    vertex -2.42281429670313 0.6966679003209091 0.5000000000000216
    vertex -7.622814296703121 0.6966679003209091 0.5000000000000201
  endloop
endfacet
facet normal -2.775557561562892e-16 0.0 1.0
  outer loop
    vertex -7.622814296703121 0.6966679003209091 0.5000000000000201
    vertex -2.42281429670313 0.6966679003209091 0.5000000000000216
    vertex -5.022814296703125 0.9999999999999981 0.500000000000021
  endloop
endfacet
facet normal -2.775557561562892e-16 0.0 1.0
  outer loop
    vertex -5.022814296703125 0.9999999999999981 0.500000000000021
    vertex -2.42281429670313 0.6966679003209091 0.5000000000000216
    vertex -3.9357743072725273 1.1431115295859036 0.5000000000000212
  endloop
endfacet
facet normal -2.775557561562892e-16 0.0 1.0
  outer loop
    vertex -3.9357743072725273 1.1431115295859036 0.5000000000000212
    vertex -2.42281429670313 0.6966679003209091 0.5000000000000216
    vertex -1.345859034533087 1.5230447378299523 0.5000000000000219
  endloop
endfacet
facet normal -2.775557561562892e-16 0.0 1.0
  outer loop
    vertex -3.9357743072725273 1.1431115295859036 0.5000000000000212
    vertex -1.345859034533087 1.5230447378299523 0.5000000000000219
    vertex -2.9228142967031063 1.5626933041053426 0.5000000000000214
  endloop
endfacet
facet normal -2.775557561562892e-16 0.0 1.0
  outer loop
    vertex -2.9228142967031063 1.5626933041053426 0.5000000000000214
    vertex -1.345859034533087 1.5230447378299523 0.5000000000000219
    vertex -0.5194821970240439 2.599999999999995 0.5000000000000222
  endloop
endfacet
facet normal -2.775557561562892e-16 0.0 1.0
  outer loop
    vertex -2.9228142967031063 1.5626933041053426 0.5000000000000214
    vertex -0.5194821970240439 2.599999999999995 0.5000000000000222
    vertex -2.052965815719636 2.2301515190165015 0.5000000000000218
  endloop
endfacet
facet normal -2.775557561562892e-16 0.0 1.0
  outer loop
    vertex -2.052965815719636 2.2301515190165015 0.5000000000000218
    vertex -0.5194821970240439 2.599999999999995 0.5000000000000222
    vertex -1.3855076008084772 3.100000000000017 0.5000000000000219
  endloop
endfacet
facet normal -2.775557561562892e-16 0.0 1.0
  outer loop
    vertex -1.3855076008084772 3.100000000000017 0.5000000000000219
    vertex -0.5194821970240439 2.599999999999995 0.5000000000000222
    vertex -1.3218592886943268e-16 3.854140965466904 0.5000000000000223
  endloop
endfacet
facet normal -2.775557561562892e-16 0.0 1.0
  outer loop
    vertex -1.3855076008084772 3.100000000000017 0.5000000000000219
    vertex -1.3218592886943268e-16 3.854140965466904 0.5000000000000223
    vertex -0.9659258262890384 4.112960010569393 0.500000000000022
  endloop
endfacet
facet normal -2.775557561562892e-16 0.0 1.0
  outer loop
    vertex -0.9659258262890384 4.112960010569393 0.500000000000022
    vertex -1.3218592886943268e-16 3.854140965466904 0.5000000000000223
    vertex 0.17718570329686528 5.19999999999999 0.5000000000000223
  endloop
endfacet
facet normal -2.775557561562892e-16 0.0 1.0
  outer loop
    vertex -0.9659258262890384 4.112960010569393 0.500000000000022
    vertex 0.17718570329686528 5.19999999999999 0.5000000000000223
    vertex -0.8228142967031329 5.19999999999999 0.5000000000000221
  endloop
endfacet
facet normal -2.775557561562892e-16 0.0 1.0
  outer loop
    vertex -0.8228142967031329 5.19999999999999 0.5000000000000221
    vertex 0.17718570329686528 5.19999999999999 0.5000000000000223
    vertex -1.3218592886943268e-16 6.545859034533077 0.5000000000000223
  endloop
endfacet
facet normal -2.775557561562892e-16 0.0 1.0
  outer loop
    vertex -0.8228142967031329 5.19999999999999 0.5000000000000221
    vertex -1.3218592886943268e-16 6.545859034533077 0.5000000000000223
    vertex -0.9659258262890384 6.287039989430588 0.500000000000022
  endloop
endfacet
facet normal -2.775557561562892e-16 0.0 1.0
  outer loop
    vertex -0.9659258262890384 6.287039989430588 0.500000000000022
    vertex -1.3218592886943268e-16 6.545859034533077 0.5000000000000223
    vertex -1.3855076008084772 7.30000000000001 0.5000000000000219
  endloop
endfacet
facet normal -2.775557561562892e-16 0.0 1.0
  outer loop
    vertex -1.3855076008084772 7.30000000000001 0.5000000000000219
    vertex -1.3218592886943268e-16 6.545859034533077 0.5000000000000223
    vertex -0.5194821970240439 7.799999999999986 0.5000000000000222
  endloop
endfacet
facet normal -2.775557561562892e-16 0.0 1.0
  outer loop
    vertex -1.3855076008084772 7.30000000000001 0.5000000000000219
    vertex -0.5194821970240439 7.799999999999986 0.5000000000000222
    vertex -2.052965815719636 8.169848480983479 0.5000000000000218
  endloop
endfacet
facet normal -2.775557561562892e-16 0.0 1.0
  outer loop
    vertex -2.052965815719636 8.169848480983479 0.5000000000000218
    vertex -0.5194821970240439 7.799999999999986 0.5000000000000222
    vertex -1.345859034533087 8.876955262170029 0.5000000000000219
  endloop
endfacet
facet normal -2.775557561562892e-16 0.0 1.0
  outer loop
    vertex -2.052965815719636 8.169848480983479 0.5000000000000218
    vertex -1.345859034533087 8.876955262170029 0.5000000000000219
    vertex -2.9228142967031516 8.837306695894638 0.5000000000000214
  endloop
endfacet
facet normal -2.775557561562892e-16 0.0 1.0
  outer loop
    vertex -2.9228142967031516 8.837306695894638 0.5000000000000214
    vertex -1.345859034533087 8.876955262170029 0.5000000000000219
    vertex -3.9357743072725273 9.256888470414077 0.5000000000000212
  endloop
endfacet
facet normal -2.775557561562892e-16 0.0 1.0
  outer loop
    vertex -3.9357743072725273 9.256888470414077 0.5000000000000212
    vertex -1.345859034533087 8.876955262170029 0.5000000000000219
    vertex -2.42281429670313 9.703332099679072 0.5000000000000216
  endloop
endfacet
facet normal -2.775557561562892e-16 0.0 1.0
  outer loop
    vertex -3.9357743072725273 9.256888470414077 0.5000000000000212
    vertex -2.42281429670313 9.703332099679072 0.5000000000000216
    vertex -5.022814296703125 9.399999999999983 0.500000000000021
  endloop
endfacet
facet normal -2.775557561562892e-16 0.0 1.0
  outer loop
    vertex -7.622814296703121 0.6966679003209091 0.5000000000000201
    vertex -6.109854286133723 1.1431115295859036 0.5000000000000205
    vertex -8.699769558873163 1.5230447378299523 0.5000000000000199
  endloop
endfacet
facet normal -2.775557561562892e-16 0.0 1.0
  outer loop
    vertex -6.109854286133723 1.1431115295859036 0.5000000000000205
    vertex -7.622814296703121 0.6966679003209091 0.5000000000000201
    vertex -5.022814296703125 0.9999999999999981 0.500000000000021
  endloop
endfacet
facet normal -2.775557561562892e-16 0.0 1.0
  outer loop
    vertex -8.699769558873163 1.5230447378299523 0.5000000000000199
    vertex -6.109854286133723 1.1431115295859036 0.5000000000000205
    vertex -7.1228142967030985 1.5626933041053426 0.5000000000000203
  endloop
endfacet
facet normal -2.775557561562892e-16 0.0 1.0
  outer loop
    vertex -8.699769558873163 1.5230447378299523 0.5000000000000199
    vertex -7.1228142967030985 1.5626933041053426 0.5000000000000203
    vertex -9.526146396382206 2.599999999999995 0.5000000000000197
  endloop
endfacet
facet normal -2.775557561562892e-16 0.0 1.0
  outer loop
    vertex -9.526146396382206 2.599999999999995 0.5000000000000197
    vertex -7.1228142967030985 1.5626933041053426 0.5000000000000203
    vertex -7.992662777686614 2.2301515190165015 0.5000000000000201
  endloop
endfacet
facet normal -2.775557561562892e-16 0.0 1.0
  outer loop
    vertex -9.526146396382206 2.599999999999995 0.5000000000000197
    vertex -7.992662777686614 2.2301515190165015 0.5000000000000201
    vertex -8.660120992597774 3.0999999999999717 0.5000000000000199
  endloop
endfacet
facet normal -2.775557561562892e-16 0.0 1.0
  outer loop
    vertex -9.526146396382206 2.599999999999995 0.5000000000000197
    vertex -8.660120992597774 3.0999999999999717 0.5000000000000199
    vertex -10.04562859340625 3.854140965466904 0.5000000000000195
  endloop
endfacet
facet normal -2.775557561562892e-16 0.0 1.0
  outer loop
    vertex -10.04562859340625 3.854140965466904 0.5000000000000195
    vertex -8.660120992597774 3.0999999999999717 0.5000000000000199
    vertex -9.079702767117212 4.112960010569393 0.5000000000000198
  endloop
endfacet
facet normal -2.775557561562892e-16 0.0 1.0
  outer loop
    vertex -10.04562859340625 3.854140965466904 0.5000000000000195
    vertex -9.079702767117212 4.112960010569393 0.5000000000000198
    vertex -10.222814296703115 5.19999999999999 0.5000000000000194
  endloop
endfacet
facet normal -2.775557561562892e-16 0.0 1.0
  outer loop
    vertex -10.222814296703115 5.19999999999999 0.5000000000000194
    vertex -9.079702767117212 4.112960010569393 0.5000000000000198
    vertex -9.222814296703117 5.19999999999999 0.5000000000000197
  endloop
endfacet
facet normal -2.775557561562892e-16 0.0 1.0
  outer loop
    vertex -10.222814296703115 5.19999999999999 0.5000000000000194
    vertex -9.222814296703117 5.19999999999999 0.5000000000000197
    vertex -9.079702767117212 6.287039989430588 0.5000000000000198
  endloop
endfacet
facet normal -2.775557561562892e-16 0.0 1.0
  outer loop
    vertex -10.222814296703115 5.19999999999999 0.5000000000000194
    vertex -9.079702767117212 6.287039989430588 0.5000000000000198
    vertex -10.04562859340625 6.545859034533077 0.5000000000000195
  endloop
endfacet
facet normal -2.775557561562892e-16 0.0 1.0
  outer loop
    vertex -10.04562859340625 6.545859034533077 0.5000000000000195
    vertex -9.079702767117212 6.287039989430588 0.5000000000000198
    vertex -8.660120992597774 7.299999999999964 0.5000000000000199
  endloop
endfacet
facet normal -2.775557561562892e-16 0.0 1.0
  outer loop
    vertex -10.04562859340625 6.545859034533077 0.5000000000000195
    vertex -8.660120992597774 7.299999999999964 0.5000000000000199
    vertex -9.526146396382206 7.799999999999986 0.5000000000000197
  endloop
endfacet
facet normal -2.775557561562892e-16 0.0 1.0
  outer loop
    vertex -9.526146396382206 7.799999999999986 0.5000000000000197
    vertex -8.660120992597774 7.299999999999964 0.5000000000000199
    vertex -7.992662777686614 8.169848480983479 0.5000000000000201
  endloop
endfacet
facet normal -2.775557561562892e-16 0.0 1.0
  outer loop
    vertex -9.526146396382206 7.799999999999986 0.5000000000000197
    vertex -7.992662777686614 8.169848480983479 0.5000000000000201
    vertex -8.699769558873163 8.876955262170029 0.5000000000000199
  endloop
endfacet
facet normal -2.775557561562892e-16 0.0 1.0
  outer loop
    vertex -8.699769558873163 8.876955262170029 0.5000000000000199
    vertex -7.992662777686614 8.169848480983479 0.5000000000000201
    vertex -7.122814296703144 8.837306695894638 0.5000000000000203
  endloop
endfacet
facet normal -2.775557561562892e-16 0.0 1.0
  outer loop
    vertex -8.699769558873163 8.876955262170029 0.5000000000000199
    vertex -7.122814296703144 8.837306695894638 0.5000000000000203
    vertex -6.109854286133723 9.256888470414077 0.5000000000000205
  endloop
endfacet
facet normal -2.775557561562892e-16 0.0 1.0
  outer loop
    vertex -8.699769558873163 8.876955262170029 0.5000000000000199
    vertex -6.109854286133723 9.256888470414077 0.5000000000000205
    vertex -7.622814296703121 9.703332099679072 0.5000000000000201
  endloop
endfacet
facet normal -2.775557561562892e-16 0.0 1.0
  outer loop
    vertex -7.622814296703121 9.703332099679072 0.5000000000000201
    vertex -6.109854286133723 9.256888470414077 0.5000000000000205
    vertex -5.022814296703125 9.399999999999983 0.500000000000021
  endloop
endfacet
facet normal -2.775557561562892e-16 0.0 1.0
  outer loop
    vertex -7.622814296703121 9.703332099679072 0.5000000000000201
    vertex -5.022814296703125 9.399999999999983 0.500000000000021
    vertex -2.42281429670313 9.703332099679072 0.5000000000000216
  endloop
endfacet
facet normal -2.775557561562892e-16 0.0 1.0
  outer loop
    vertex -7.622814296703121 9.703332099679072 0.5000000000000201
    vertex -2.42281429670313 9.703332099679072 0.5000000000000216
    vertex -3.676955262170038 10.222814296703115 0.5000000000000213
  endloop
endfacet
facet normal -2.775557561562892e-16 0.0 1.0
  outer loop
    vertex -7.622814296703121 9.703332099679072 0.5000000000000201
    vertex -3.676955262170038 10.222814296703115 0.5000000000000213
    vertex -6.368673331236212 10.222814296703115 0.5000000000000205
  endloop
endfacet
facet normal -2.775557561562892e-16 0.0 1.0
  outer loop
    vertex -6.368673331236212 10.222814296703115 0.5000000000000205
    vertex -3.676955262170038 10.222814296703115 0.5000000000000213
    vertex -5.022814296703125 10.39999999999998 0.500000000000021
  endloop
endfacet
endsolid Untitled-56535055
